{
	"asset":{
		"generator":"Khronos glTF Blender I/O v4.1.63",
		"version":"2.0"
	},
	"scene":0,
	"scenes":[
		{
			"name":"Scene",
			"nodes":[
				0
			]
		}
	],
	"nodes":[
		{
			"mesh":0,
			"name":"StarQuad_Viewer"
		}
	],
	"meshes":[
		{
			"name":"Cube.035",
			"primitives":[
				{
					"attributes":{
						"POSITION":0,
						"NORMAL":1,
						"TEXCOORD_0":2,
						"TEXCOORD_1":3,
						"COLOR_0":4
					},
					"indices":5
				}
			]
		}
	],
	"accessors":[
		{
			"bufferView":0,
			"componentType":5126,
			"count":433,
			"max":[
				0.04002155363559723,
				0.10000081360340118,
				0.36994725465774536
			],
			"min":[
				-0.37029126286506653,
				-2.6804054868989624e-06,
				-0.04055396094918251
			],
			"type":"VEC3"
		},
		{
			"bufferView":1,
			"componentType":5126,
			"count":433,
			"type":"VEC3"
		},
		{
			"bufferView":2,
			"componentType":5126,
			"count":433,
			"type":"VEC2"
		},
		{
			"bufferView":3,
			"componentType":5126,
			"count":433,
			"type":"VEC2"
		},
		{
			"bufferView":4,
			"componentType":5126,
			"count":433,
			"type":"VEC3"
		},
		{
			"bufferView":5,
			"componentType":5123,
			"count":1248,
			"type":"SCALAR"
		}
	],
	"bufferViews":[
		{
			"buffer":0,
			"byteLength":5196,
			"byteOffset":0,
			"target":34962
		},
		{
			"buffer":0,
			"byteLength":5196,
			"byteOffset":5196,
			"target":34962
		},
		{
			"buffer":0,
			"byteLength":3464,
			"byteOffset":10392,
			"target":34962
		},
		{
			"buffer":0,
			"byteLength":3464,
			"byteOffset":13856,
			"target":34962
		},
		{
			"buffer":0,
			"byteLength":5196,
			"byteOffset":17320,
			"target":34962
		},
		{
			"buffer":0,
			"byteLength":2496,
			"byteOffset":22516,
			"target":34963
		}
	],
	"buffers":[
		{
			"byteLength":25012,
			"uri":"ShapeDefaultS.bin"
		}
	]
}
