{
    "asset" : {
        "generator" : "Khronos glTF Blender I/O v1.8.19",
        "version" : "2.0"
    },
    "scene" : 0,
    "scenes" : [
        {
            "name" : "Scene",
            "nodes" : [
                0
            ]
        }
    ],
    "nodes" : [
        {
            "mesh" : 0,
            "name" : "Error"
        }
    ],
    "meshes" : [
        {
            "name" : "Text",
            "primitives" : [
                {
                    "attributes" : {
                        "POSITION" : 0,
                        "NORMAL" : 1,
                        "TEXCOORD_0" : 2
                    },
                    "indices" : 3
                }
            ]
        }
    ],
    "accessors" : [
        {
            "bufferView" : 0,
            "componentType" : 5126,
            "count" : 5318,
            "max" : [
                0.48095279932022095,
                0.7060274481773376,
                0.11500003188848495
            ],
            "min" : [
                -0.4814000129699707,
                -0.02402813360095024,
                -0.11500000208616257
            ],
            "type" : "VEC3"
        },
        {
            "bufferView" : 1,
            "componentType" : 5126,
            "count" : 5318,
            "type" : "VEC3"
        },
        {
            "bufferView" : 2,
            "componentType" : 5126,
            "count" : 5318,
            "type" : "VEC2"
        },
        {
            "bufferView" : 3,
            "componentType" : 5123,
            "count" : 18708,
            "type" : "SCALAR"
        }
    ],
    "bufferViews" : [
        {
            "buffer" : 0,
            "byteLength" : 63816,
            "byteOffset" : 0
        },
        {
            "buffer" : 0,
            "byteLength" : 63816,
            "byteOffset" : 63816
        },
        {
            "buffer" : 0,
            "byteLength" : 42544,
            "byteOffset" : 127632
        },
        {
            "buffer" : 0,
            "byteLength" : 37416,
            "byteOffset" : 170176
        }
    ],
    "buffers" : [
        {
            "byteLength" : 207592,
            "uri" : "data:application/octet-stream;base64,"
        }
    ]
}
