{
	"asset":{
		"generator":"Khronos glTF Blender I/O v4.1.63",
		"version":"2.0"
	},
	"scene":0,
	"scenes":[
		{
			"name":"Scene",
			"nodes":[
				0,
				1,
				2
			]
		}
	],
	"nodes":[
		{
			"mesh":0,
			"name":"BeltFilter_Main_LOD0"
		},
		{
			"mesh":1,
			"name":"Splitter_1to2Left_Pusher_LOD0"
		},
		{
			"mesh":2,
			"name":"Wire_IOConnector_Input_LOD0.021",
			"rotation":[
				0,
				-0.7071068286895752,
				0,
				0.7071068286895752
			],
			"translation":[
				0,
				0,
				-1
			]
		}
	],
	"meshes":[
		{
			"name":"Cube.023",
			"primitives":[
				{
					"attributes":{
						"POSITION":0,
						"NORMAL":1,
						"TEXCOORD_0":2,
						"TEXCOORD_1":3
					},
					"indices":4
				}
			]
		},
		{
			"name":"Cube.001",
			"primitives":[
				{
					"attributes":{
						"POSITION":5,
						"NORMAL":6,
						"TEXCOORD_0":7,
						"TEXCOORD_1":8,
						"COLOR_0":9
					},
					"indices":10
				}
			]
		},
		{
			"name":"Cube.013",
			"primitives":[
				{
					"attributes":{
						"POSITION":11,
						"NORMAL":12,
						"TEXCOORD_0":13,
						"TEXCOORD_1":14
					},
					"indices":15
				}
			]
		}
	],
	"accessors":[
		{
			"bufferView":0,
			"componentType":5126,
			"count":1204,
			"max":[
				0.5010287165641785,
				0.464141309261322,
				0.5014156699180603
			],
			"min":[
				-0.500999927520752,
				1.949173054072162e-07,
				-0.33854421973228455
			],
			"type":"VEC3"
		},
		{
			"bufferView":1,
			"componentType":5126,
			"count":1204,
			"type":"VEC3"
		},
		{
			"bufferView":2,
			"componentType":5126,
			"count":1204,
			"type":"VEC2"
		},
		{
			"bufferView":3,
			"componentType":5126,
			"count":1204,
			"type":"VEC2"
		},
		{
			"bufferView":4,
			"componentType":5123,
			"count":3762,
			"type":"SCALAR"
		},
		{
			"bufferView":5,
			"componentType":5126,
			"count":192,
			"max":[
				0.10743588209152222,
				0.2627865970134735,
				-0.20524907112121582
			],
			"min":[
				-0.10743585973978043,
				0.19999989867210388,
				-0.3171943128108978
			],
			"type":"VEC3"
		},
		{
			"bufferView":6,
			"componentType":5126,
			"count":192,
			"type":"VEC3"
		},
		{
			"bufferView":7,
			"componentType":5126,
			"count":192,
			"type":"VEC2"
		},
		{
			"bufferView":8,
			"componentType":5126,
			"count":192,
			"type":"VEC2"
		},
		{
			"bufferView":9,
			"componentType":5126,
			"count":192,
			"type":"VEC3"
		},
		{
			"bufferView":10,
			"componentType":5123,
			"count":366,
			"type":"SCALAR"
		},
		{
			"bufferView":11,
			"componentType":5126,
			"count":41,
			"max":[
				0.8058140277862549,
				0.1649710088968277,
				0.06518544256687164
			],
			"min":[
				0.43086501955986023,
				0.03460007160902023,
				-0.06518544256687164
			],
			"type":"VEC3"
		},
		{
			"bufferView":12,
			"componentType":5126,
			"count":41,
			"type":"VEC3"
		},
		{
			"bufferView":13,
			"componentType":5126,
			"count":41,
			"type":"VEC2"
		},
		{
			"bufferView":14,
			"componentType":5126,
			"count":41,
			"type":"VEC2"
		},
		{
			"bufferView":15,
			"componentType":5123,
			"count":84,
			"type":"SCALAR"
		}
	],
	"bufferViews":[
		{
			"buffer":0,
			"byteLength":14448,
			"byteOffset":0,
			"target":34962
		},
		{
			"buffer":0,
			"byteLength":14448,
			"byteOffset":14448,
			"target":34962
		},
		{
			"buffer":0,
			"byteLength":9632,
			"byteOffset":28896,
			"target":34962
		},
		{
			"buffer":0,
			"byteLength":9632,
			"byteOffset":38528,
			"target":34962
		},
		{
			"buffer":0,
			"byteLength":7524,
			"byteOffset":48160,
			"target":34963
		},
		{
			"buffer":0,
			"byteLength":2304,
			"byteOffset":55684,
			"target":34962
		},
		{
			"buffer":0,
			"byteLength":2304,
			"byteOffset":57988,
			"target":34962
		},
		{
			"buffer":0,
			"byteLength":1536,
			"byteOffset":60292,
			"target":34962
		},
		{
			"buffer":0,
			"byteLength":1536,
			"byteOffset":61828,
			"target":34962
		},
		{
			"buffer":0,
			"byteLength":2304,
			"byteOffset":63364,
			"target":34962
		},
		{
			"buffer":0,
			"byteLength":732,
			"byteOffset":65668,
			"target":34963
		},
		{
			"buffer":0,
			"byteLength":492,
			"byteOffset":66400,
			"target":34962
		},
		{
			"buffer":0,
			"byteLength":492,
			"byteOffset":66892,
			"target":34962
		},
		{
			"buffer":0,
			"byteLength":328,
			"byteOffset":67384,
			"target":34962
		},
		{
			"buffer":0,
			"byteLength":328,
			"byteOffset":67712,
			"target":34962
		},
		{
			"buffer":0,
			"byteLength":168,
			"byteOffset":68040,
			"target":34963
		}
	],
	"buffers":[
		{
			"byteLength":68208,
			"uri":"BeltFilterDefaultInternalVariant.bin"
		}
	]
}
