{
	"asset":{
		"generator":"Khronos glTF Blender I/O v4.1.63",
		"version":"2.0"
	},
	"scene":0,
	"scenes":[
		{
			"name":"Scene",
			"nodes":[
				0,
				1,
				2
			]
		}
	],
	"nodes":[
		{
			"mesh":0,
			"name":"BeltPort_Sender_Main_LOD0.001"
		},
		{
			"mesh":1,
			"name":"BeltPort_Gear_Main_LOD0.001",
			"translation":[
				0.3023569881916046,
				0.31540998816490173,
				0.28658008575439453
			]
		},
		{
			"mesh":2,
			"name":"BeltPort_Gear_Main_LOD0.002",
			"translation":[
				0.3023569881916046,
				0.31540998816490173,
				-0.28657999634742737
			]
		}
	],
	"meshes":[
		{
			"name":"Cube.033",
			"primitives":[
				{
					"attributes":{
						"POSITION":0,
						"NORMAL":1,
						"TEXCOORD_0":2,
						"TEXCOORD_1":3,
						"COLOR_0":4
					},
					"indices":5
				}
			]
		},
		{
			"name":"Cube.036",
			"primitives":[
				{
					"attributes":{
						"POSITION":6,
						"NORMAL":7,
						"TEXCOORD_0":8,
						"TEXCOORD_1":9,
						"COLOR_0":10
					},
					"indices":11
				}
			]
		},
		{
			"name":"Cube.037",
			"primitives":[
				{
					"attributes":{
						"POSITION":12,
						"NORMAL":13,
						"TEXCOORD_0":14,
						"TEXCOORD_1":15,
						"COLOR_0":16
					},
					"indices":11
				}
			]
		}
	],
	"accessors":[
		{
			"bufferView":0,
			"componentType":5126,
			"count":1558,
			"max":[
				0.5010130405426025,
				0.45000001788139343,
				0.4620731472969055
			],
			"min":[
				-0.498970627784729,
				-5.961445026514411e-08,
				-0.4620731472969055
			],
			"type":"VEC3"
		},
		{
			"bufferView":1,
			"componentType":5126,
			"count":1558,
			"type":"VEC3"
		},
		{
			"bufferView":2,
			"componentType":5126,
			"count":1558,
			"type":"VEC2"
		},
		{
			"bufferView":3,
			"componentType":5126,
			"count":1558,
			"type":"VEC2"
		},
		{
			"bufferView":4,
			"componentType":5126,
			"count":1558,
			"type":"VEC3"
		},
		{
			"bufferView":5,
			"componentType":5123,
			"count":3855,
			"type":"SCALAR"
		},
		{
			"bufferView":6,
			"componentType":5126,
			"count":372,
			"max":[
				0.12096726149320602,
				0.11541004478931427,
				0.12096723169088364
			],
			"min":[
				-0.12096726149320602,
				-0.11541000753641129,
				-0.12096726894378662
			],
			"type":"VEC3"
		},
		{
			"bufferView":7,
			"componentType":5126,
			"count":372,
			"type":"VEC3"
		},
		{
			"bufferView":8,
			"componentType":5126,
			"count":372,
			"type":"VEC2"
		},
		{
			"bufferView":9,
			"componentType":5126,
			"count":372,
			"type":"VEC2"
		},
		{
			"bufferView":10,
			"componentType":5126,
			"count":372,
			"type":"VEC3"
		},
		{
			"bufferView":11,
			"componentType":5123,
			"count":714,
			"type":"SCALAR"
		},
		{
			"bufferView":12,
			"componentType":5126,
			"count":372,
			"max":[
				0.12096726149320602,
				0.11541004478931427,
				0.12096723169088364
			],
			"min":[
				-0.12096726149320602,
				-0.11541000753641129,
				-0.12096726894378662
			],
			"type":"VEC3"
		},
		{
			"bufferView":13,
			"componentType":5126,
			"count":372,
			"type":"VEC3"
		},
		{
			"bufferView":14,
			"componentType":5126,
			"count":372,
			"type":"VEC2"
		},
		{
			"bufferView":15,
			"componentType":5126,
			"count":372,
			"type":"VEC2"
		},
		{
			"bufferView":16,
			"componentType":5126,
			"count":372,
			"type":"VEC3"
		}
	],
	"bufferViews":[
		{
			"buffer":0,
			"byteLength":18696,
			"byteOffset":0,
			"target":34962
		},
		{
			"buffer":0,
			"byteLength":18696,
			"byteOffset":18696,
			"target":34962
		},
		{
			"buffer":0,
			"byteLength":12464,
			"byteOffset":37392,
			"target":34962
		},
		{
			"buffer":0,
			"byteLength":12464,
			"byteOffset":49856,
			"target":34962
		},
		{
			"buffer":0,
			"byteLength":18696,
			"byteOffset":62320,
			"target":34962
		},
		{
			"buffer":0,
			"byteLength":7710,
			"byteOffset":81016,
			"target":34963
		},
		{
			"buffer":0,
			"byteLength":4464,
			"byteOffset":88728,
			"target":34962
		},
		{
			"buffer":0,
			"byteLength":4464,
			"byteOffset":93192,
			"target":34962
		},
		{
			"buffer":0,
			"byteLength":2976,
			"byteOffset":97656,
			"target":34962
		},
		{
			"buffer":0,
			"byteLength":2976,
			"byteOffset":100632,
			"target":34962
		},
		{
			"buffer":0,
			"byteLength":4464,
			"byteOffset":103608,
			"target":34962
		},
		{
			"buffer":0,
			"byteLength":1428,
			"byteOffset":108072,
			"target":34963
		},
		{
			"buffer":0,
			"byteLength":4464,
			"byteOffset":109500,
			"target":34962
		},
		{
			"buffer":0,
			"byteLength":4464,
			"byteOffset":113964,
			"target":34962
		},
		{
			"buffer":0,
			"byteLength":2976,
			"byteOffset":118428,
			"target":34962
		},
		{
			"buffer":0,
			"byteLength":2976,
			"byteOffset":121404,
			"target":34962
		},
		{
			"buffer":0,
			"byteLength":4464,
			"byteOffset":124380,
			"target":34962
		}
	],
	"buffers":[
		{
			"byteLength":128844,
			"uri":"BeltPortSenderInternalVariant.bin"
		}
	]
}
