{
	"asset":{
		"generator":"Khronos glTF Blender I/O v4.1.63",
		"version":"2.0"
	},
	"scene":0,
	"scenes":[
		{
			"name":"Scene",
			"nodes":[
				0
			]
		}
	],
	"nodes":[
		{
			"mesh":0,
			"name":"Belt_LeftCornerBorder_Layer1_LOD0.001"
		}
	],
	"meshes":[
		{
			"name":"Mesh.053",
			"primitives":[
				{
					"attributes":{
						"POSITION":0,
						"NORMAL":1,
						"TEXCOORD_0":2,
						"TEXCOORD_1":3,
						"COLOR_0":4
					},
					"indices":5
				}
			]
		}
	],
	"accessors":[
		{
			"bufferView":0,
			"componentType":5126,
			"count":1365,
			"max":[
				0.5068271160125732,
				0.25998997688293457,
				0.5070570111274719
			],
			"min":[
				-0.2837962508201599,
				-0.02735985442996025,
				-0.2839829921722412
			],
			"type":"VEC3"
		},
		{
			"bufferView":1,
			"componentType":5126,
			"count":1365,
			"type":"VEC3"
		},
		{
			"bufferView":2,
			"componentType":5126,
			"count":1365,
			"type":"VEC2"
		},
		{
			"bufferView":3,
			"componentType":5126,
			"count":1365,
			"type":"VEC2"
		},
		{
			"bufferView":4,
			"componentType":5126,
			"count":1365,
			"type":"VEC3"
		},
		{
			"bufferView":5,
			"componentType":5123,
			"count":2772,
			"type":"SCALAR"
		}
	],
	"bufferViews":[
		{
			"buffer":0,
			"byteLength":16380,
			"byteOffset":0,
			"target":34962
		},
		{
			"buffer":0,
			"byteLength":16380,
			"byteOffset":16380,
			"target":34962
		},
		{
			"buffer":0,
			"byteLength":10920,
			"byteOffset":32760,
			"target":34962
		},
		{
			"buffer":0,
			"byteLength":10920,
			"byteOffset":43680,
			"target":34962
		},
		{
			"buffer":0,
			"byteLength":16380,
			"byteOffset":54600,
			"target":34962
		},
		{
			"buffer":0,
			"byteLength":5544,
			"byteOffset":70980,
			"target":34963
		}
	],
	"buffers":[
		{
			"byteLength":76524,
			"uri":"BeltDefaultLeftInternalVariant_Layer1.bin"
		}
	]
}
