{
	"asset":{
		"generator":"Khronos glTF Blender I/O v4.1.63",
		"version":"2.0"
	},
	"scene":0,
	"scenes":[
		{
			"name":"Scene",
			"nodes":[
				0
			]
		}
	],
	"nodes":[
		{
			"mesh":0,
			"name":"Belt_LeftCornerBorder_Layer2_LOD0.001"
		}
	],
	"meshes":[
		{
			"name":"Mesh.051",
			"primitives":[
				{
					"attributes":{
						"POSITION":0,
						"NORMAL":1,
						"TEXCOORD_0":2,
						"TEXCOORD_1":3,
						"COLOR_0":4
					},
					"indices":5
				}
			]
		}
	],
	"accessors":[
		{
			"bufferView":0,
			"componentType":5126,
			"count":1028,
			"max":[
				0.5010842680931091,
				0.2275390475988388,
				0.501000165939331
			],
			"min":[
				-0.2837836742401123,
				0.09478932619094849,
				-0.2838909924030304
			],
			"type":"VEC3"
		},
		{
			"bufferView":1,
			"componentType":5126,
			"count":1028,
			"type":"VEC3"
		},
		{
			"bufferView":2,
			"componentType":5126,
			"count":1028,
			"type":"VEC2"
		},
		{
			"bufferView":3,
			"componentType":5126,
			"count":1028,
			"type":"VEC2"
		},
		{
			"bufferView":4,
			"componentType":5126,
			"count":1028,
			"type":"VEC3"
		},
		{
			"bufferView":5,
			"componentType":5123,
			"count":1869,
			"type":"SCALAR"
		}
	],
	"bufferViews":[
		{
			"buffer":0,
			"byteLength":12336,
			"byteOffset":0,
			"target":34962
		},
		{
			"buffer":0,
			"byteLength":12336,
			"byteOffset":12336,
			"target":34962
		},
		{
			"buffer":0,
			"byteLength":8224,
			"byteOffset":24672,
			"target":34962
		},
		{
			"buffer":0,
			"byteLength":8224,
			"byteOffset":32896,
			"target":34962
		},
		{
			"buffer":0,
			"byteLength":12336,
			"byteOffset":41120,
			"target":34962
		},
		{
			"buffer":0,
			"byteLength":3738,
			"byteOffset":53456,
			"target":34963
		}
	],
	"buffers":[
		{
			"byteLength":57196,
			"uri":"BeltDefaultLeftInternalVariant_Layer2.bin"
		}
	]
}
