{
	"asset":{
		"generator":"Khronos glTF Blender I/O v4.1.63",
		"version":"2.0"
	},
	"scene":0,
	"scenes":[
		{
			"name":"Scene",
			"nodes":[
				0,
				1
			]
		}
	],
	"nodes":[
		{
			"mesh":0,
			"name":"Wire_IOConnector_Input_LOD0.019",
			"rotation":[
				0,
				-1,
				0,
				4.371138828673793e-08
			],
			"translation":[
				1,
				0,
				0
			]
		},
		{
			"mesh":1,
			"name":"Wire_Display_Main_LOD0"
		}
	],
	"meshes":[
		{
			"name":"Cube.089",
			"primitives":[
				{
					"attributes":{
						"POSITION":0,
						"NORMAL":1,
						"TEXCOORD_0":2,
						"TEXCOORD_1":3
					},
					"indices":4
				}
			]
		},
		{
			"name":"Cube.035",
			"primitives":[
				{
					"attributes":{
						"POSITION":5,
						"NORMAL":6,
						"TEXCOORD_0":7,
						"TEXCOORD_1":8
					},
					"indices":9
				}
			]
		}
	],
	"accessors":[
		{
			"bufferView":0,
			"componentType":5126,
			"count":41,
			"max":[
				0.8058140277862549,
				0.1649710088968277,
				0.06518544256687164
			],
			"min":[
				0.43086501955986023,
				0.03460007160902023,
				-0.06518544256687164
			],
			"type":"VEC3"
		},
		{
			"bufferView":1,
			"componentType":5126,
			"count":41,
			"type":"VEC3"
		},
		{
			"bufferView":2,
			"componentType":5126,
			"count":41,
			"type":"VEC2"
		},
		{
			"bufferView":3,
			"componentType":5126,
			"count":41,
			"type":"VEC2"
		},
		{
			"bufferView":4,
			"componentType":5123,
			"count":84,
			"type":"SCALAR"
		},
		{
			"bufferView":5,
			"componentType":5126,
			"count":564,
			"max":[
				0.4747238755226135,
				0.3762272298336029,
				0.47365492582321167
			],
			"min":[
				-0.4747238755226135,
				0.005156584084033966,
				-0.47365492582321167
			],
			"type":"VEC3"
		},
		{
			"bufferView":6,
			"componentType":5126,
			"count":564,
			"type":"VEC3"
		},
		{
			"bufferView":7,
			"componentType":5126,
			"count":564,
			"type":"VEC2"
		},
		{
			"bufferView":8,
			"componentType":5126,
			"count":564,
			"type":"VEC2"
		},
		{
			"bufferView":9,
			"componentType":5123,
			"count":2280,
			"type":"SCALAR"
		}
	],
	"bufferViews":[
		{
			"buffer":0,
			"byteLength":492,
			"byteOffset":0,
			"target":34962
		},
		{
			"buffer":0,
			"byteLength":492,
			"byteOffset":492,
			"target":34962
		},
		{
			"buffer":0,
			"byteLength":328,
			"byteOffset":984,
			"target":34962
		},
		{
			"buffer":0,
			"byteLength":328,
			"byteOffset":1312,
			"target":34962
		},
		{
			"buffer":0,
			"byteLength":168,
			"byteOffset":1640,
			"target":34963
		},
		{
			"buffer":0,
			"byteLength":6768,
			"byteOffset":1808,
			"target":34962
		},
		{
			"buffer":0,
			"byteLength":6768,
			"byteOffset":8576,
			"target":34962
		},
		{
			"buffer":0,
			"byteLength":4512,
			"byteOffset":15344,
			"target":34962
		},
		{
			"buffer":0,
			"byteLength":4512,
			"byteOffset":19856,
			"target":34962
		},
		{
			"buffer":0,
			"byteLength":4560,
			"byteOffset":24368,
			"target":34963
		}
	],
	"buffers":[
		{
			"byteLength":28928,
			"uri":"DisplayDefaultInternalVariant.bin"
		}
	]
}
