{
	"asset":{
		"generator":"Khronos glTF Blender I/O v4.1.63",
		"version":"2.0"
	},
	"scene":0,
	"scenes":[
		{
			"name":"Scene",
			"nodes":[
				0
			]
		}
	],
	"nodes":[
		{
			"mesh":0,
			"name":"Lift_Input_Layer1_LOD0.006",
			"rotation":[
				0,
				0,
				-1,
				0
			],
			"scale":[
				-1,
				-1,
				-1
			]
		}
	],
	"meshes":[
		{
			"name":"Cube.158",
			"primitives":[
				{
					"attributes":{
						"POSITION":0,
						"NORMAL":1,
						"TEXCOORD_0":2,
						"TEXCOORD_1":3,
						"COLOR_0":4
					},
					"indices":5
				}
			]
		}
	],
	"accessors":[
		{
			"bufferView":0,
			"componentType":5126,
			"count":3873,
			"max":[
				0.5010103583335876,
				0.24282050132751465,
				0.495068222284317
			],
			"min":[
				-0.495068222284317,
				-1.0273594856262207,
				-0.5010000467300415
			],
			"type":"VEC3"
		},
		{
			"bufferView":1,
			"componentType":5126,
			"count":3873,
			"type":"VEC3"
		},
		{
			"bufferView":2,
			"componentType":5126,
			"count":3873,
			"type":"VEC2"
		},
		{
			"bufferView":3,
			"componentType":5126,
			"count":3873,
			"type":"VEC2"
		},
		{
			"bufferView":4,
			"componentType":5126,
			"count":3873,
			"type":"VEC3"
		},
		{
			"bufferView":5,
			"componentType":5123,
			"count":9900,
			"type":"SCALAR"
		}
	],
	"bufferViews":[
		{
			"buffer":0,
			"byteLength":46476,
			"byteOffset":0,
			"target":34962
		},
		{
			"buffer":0,
			"byteLength":46476,
			"byteOffset":46476,
			"target":34962
		},
		{
			"buffer":0,
			"byteLength":30984,
			"byteOffset":92952,
			"target":34962
		},
		{
			"buffer":0,
			"byteLength":30984,
			"byteOffset":123936,
			"target":34962
		},
		{
			"buffer":0,
			"byteLength":46476,
			"byteOffset":154920,
			"target":34962
		},
		{
			"buffer":0,
			"byteLength":19800,
			"byteOffset":201396,
			"target":34963
		}
	],
	"buffers":[
		{
			"byteLength":221196,
			"uri":"Lift1DownLeftInternalVariant_Layer1.bin"
		}
	]
}
