{
	"asset":{
		"generator":"Khronos glTF Blender I/O v4.1.63",
		"version":"2.0"
	},
	"scene":0,
	"scenes":[
		{
			"name":"Scene",
			"nodes":[
				0
			]
		}
	],
	"nodes":[
		{
			"mesh":0,
			"name":"Lift_Input_Layer0_LOD0.006"
		}
	],
	"meshes":[
		{
			"name":"Cube.085",
			"primitives":[
				{
					"attributes":{
						"POSITION":0,
						"NORMAL":1,
						"TEXCOORD_0":2,
						"TEXCOORD_1":3,
						"COLOR_0":4
					},
					"indices":5
				}
			]
		}
	],
	"accessors":[
		{
			"bufferView":0,
			"componentType":5126,
			"count":3858,
			"max":[
				0.5009999871253967,
				1.2428205013275146,
				0.5010102987289429
			],
			"min":[
				-0.495068222284317,
				-0.027359485626220703,
				-0.495068222284317
			],
			"type":"VEC3"
		},
		{
			"bufferView":1,
			"componentType":5126,
			"count":3858,
			"type":"VEC3"
		},
		{
			"bufferView":2,
			"componentType":5126,
			"count":3858,
			"type":"VEC2"
		},
		{
			"bufferView":3,
			"componentType":5126,
			"count":3858,
			"type":"VEC2"
		},
		{
			"bufferView":4,
			"componentType":5126,
			"count":3858,
			"type":"VEC3"
		},
		{
			"bufferView":5,
			"componentType":5123,
			"count":9900,
			"type":"SCALAR"
		}
	],
	"bufferViews":[
		{
			"buffer":0,
			"byteLength":46296,
			"byteOffset":0,
			"target":34962
		},
		{
			"buffer":0,
			"byteLength":46296,
			"byteOffset":46296,
			"target":34962
		},
		{
			"buffer":0,
			"byteLength":30864,
			"byteOffset":92592,
			"target":34962
		},
		{
			"buffer":0,
			"byteLength":30864,
			"byteOffset":123456,
			"target":34962
		},
		{
			"buffer":0,
			"byteLength":46296,
			"byteOffset":154320,
			"target":34962
		},
		{
			"buffer":0,
			"byteLength":19800,
			"byteOffset":200616,
			"target":34963
		}
	],
	"buffers":[
		{
			"byteLength":220416,
			"uri":"Lift1UpLeftInternalVariant_Layer1.bin"
		}
	]
}
