{
	"asset":{
		"generator":"Khronos glTF Blender I/O v4.1.63",
		"version":"2.0"
	},
	"scene":0,
	"scenes":[
		{
			"name":"Scene",
			"nodes":[
				0
			]
		}
	],
	"nodes":[
		{
			"mesh":0,
			"name":"Lift_Input_Layer0_LOD0.003"
		}
	],
	"meshes":[
		{
			"name":"Cube.071",
			"primitives":[
				{
					"attributes":{
						"POSITION":0,
						"NORMAL":1,
						"TEXCOORD_0":2,
						"TEXCOORD_1":3,
						"COLOR_0":4
					},
					"indices":5
				}
			]
		}
	],
	"accessors":[
		{
			"bufferView":0,
			"componentType":5126,
			"count":3426,
			"max":[
				0.5010000467300415,
				1.2781810760498047,
				0.4957185983657837
			],
			"min":[
				-0.08530905842781067,
				-4.842877388000488e-08,
				-0.4957185983657837
			],
			"type":"VEC3"
		},
		{
			"bufferView":1,
			"componentType":5126,
			"count":3426,
			"type":"VEC3"
		},
		{
			"bufferView":2,
			"componentType":5126,
			"count":3426,
			"type":"VEC2"
		},
		{
			"bufferView":3,
			"componentType":5126,
			"count":3426,
			"type":"VEC2"
		},
		{
			"bufferView":4,
			"componentType":5126,
			"count":3426,
			"type":"VEC3"
		},
		{
			"bufferView":5,
			"componentType":5123,
			"count":8778,
			"type":"SCALAR"
		}
	],
	"bufferViews":[
		{
			"buffer":0,
			"byteLength":41112,
			"byteOffset":0,
			"target":34962
		},
		{
			"buffer":0,
			"byteLength":41112,
			"byteOffset":41112,
			"target":34962
		},
		{
			"buffer":0,
			"byteLength":27408,
			"byteOffset":82224,
			"target":34962
		},
		{
			"buffer":0,
			"byteLength":27408,
			"byteOffset":109632,
			"target":34962
		},
		{
			"buffer":0,
			"byteLength":41112,
			"byteOffset":137040,
			"target":34962
		},
		{
			"buffer":0,
			"byteLength":17556,
			"byteOffset":178152,
			"target":34963
		}
	],
	"buffers":[
		{
			"byteLength":195708,
			"uri":"Lift1UpBackwardInternalVariant_Layer0.bin"
		}
	]
}
