{
	"asset":{
		"generator":"Khronos glTF Blender I/O v4.1.63",
		"version":"2.0"
	},
	"scene":0,
	"scenes":[
		{
			"name":"Scene",
			"nodes":[
				0
			]
		}
	],
	"nodes":[
		{
			"mesh":0,
			"name":"Lift_Input_Layer1_LOD0.005"
		}
	],
	"meshes":[
		{
			"name":"Cube.154",
			"primitives":[
				{
					"attributes":{
						"POSITION":0,
						"NORMAL":1,
						"TEXCOORD_0":2,
						"TEXCOORD_1":3,
						"COLOR_0":4
					},
					"indices":5
				}
			]
		}
	],
	"accessors":[
		{
			"bufferView":0,
			"componentType":5126,
			"count":3884,
			"max":[
				0.5010103583335876,
				0.24282050132751465,
				0.495068222284317
			],
			"min":[
				-0.08665916323661804,
				-1.0273594856262207,
				-0.495068222284317
			],
			"type":"VEC3"
		},
		{
			"bufferView":1,
			"componentType":5126,
			"count":3884,
			"type":"VEC3"
		},
		{
			"bufferView":2,
			"componentType":5126,
			"count":3884,
			"type":"VEC2"
		},
		{
			"bufferView":3,
			"componentType":5126,
			"count":3884,
			"type":"VEC2"
		},
		{
			"bufferView":4,
			"componentType":5126,
			"count":3884,
			"type":"VEC3"
		},
		{
			"bufferView":5,
			"componentType":5123,
			"count":9939,
			"type":"SCALAR"
		}
	],
	"bufferViews":[
		{
			"buffer":0,
			"byteLength":46608,
			"byteOffset":0,
			"target":34962
		},
		{
			"buffer":0,
			"byteLength":46608,
			"byteOffset":46608,
			"target":34962
		},
		{
			"buffer":0,
			"byteLength":31072,
			"byteOffset":93216,
			"target":34962
		},
		{
			"buffer":0,
			"byteLength":31072,
			"byteOffset":124288,
			"target":34962
		},
		{
			"buffer":0,
			"byteLength":46608,
			"byteOffset":155360,
			"target":34962
		},
		{
			"buffer":0,
			"byteLength":19878,
			"byteOffset":201968,
			"target":34963
		}
	],
	"buffers":[
		{
			"byteLength":221848,
			"uri":"Lift1DownBackwardInternalVariant_Layer1.bin"
		}
	]
}
