{
	"asset":{
		"generator":"Khronos glTF Blender I/O v4.1.63",
		"version":"2.0"
	},
	"scene":0,
	"scenes":[
		{
			"name":"Scene",
			"nodes":[
				0,
				1,
				2,
				3
			]
		}
	],
	"nodes":[
		{
			"mesh":0,
			"name":"Wire_IOConnector_Output_LOD0.011",
			"translation":[
				-1,
				0,
				0
			]
		},
		{
			"mesh":1,
			"name":"Wire_IOConnector_Input_LOD0.014",
			"rotation":[
				0,
				0.7071068286895752,
				0,
				0.7071068286895752
			],
			"translation":[
				0,
				0,
				1
			]
		},
		{
			"mesh":2,
			"name":"Wire_IOConnector_Input_LOD0.013",
			"rotation":[
				0,
				-0.7071068286895752,
				0,
				0.7071068286895752
			],
			"translation":[
				0,
				0,
				-1
			]
		},
		{
			"mesh":3,
			"name":"LogicGate_XOr_Main_LOD0"
		}
	],
	"meshes":[
		{
			"name":"Cube.068",
			"primitives":[
				{
					"attributes":{
						"POSITION":0,
						"NORMAL":1,
						"TEXCOORD_0":2,
						"TEXCOORD_1":3
					},
					"indices":4
				}
			]
		},
		{
			"name":"Cube.069",
			"primitives":[
				{
					"attributes":{
						"POSITION":5,
						"NORMAL":6,
						"TEXCOORD_0":7,
						"TEXCOORD_1":8
					},
					"indices":9
				}
			]
		},
		{
			"name":"Cube.067",
			"primitives":[
				{
					"attributes":{
						"POSITION":10,
						"NORMAL":11,
						"TEXCOORD_0":12,
						"TEXCOORD_1":13
					},
					"indices":9
				}
			]
		},
		{
			"name":"Cube.019",
			"primitives":[
				{
					"attributes":{
						"POSITION":14,
						"NORMAL":15,
						"TEXCOORD_0":16,
						"TEXCOORD_1":17
					},
					"indices":18
				}
			]
		}
	],
	"accessors":[
		{
			"bufferView":0,
			"componentType":5126,
			"count":44,
			"max":[
				0.8068038821220398,
				0.14550210535526276,
				0.04571656882762909
			],
			"min":[
				0.4173070192337036,
				0.05406896770000458,
				-0.04571656137704849
			],
			"type":"VEC3"
		},
		{
			"bufferView":1,
			"componentType":5126,
			"count":44,
			"type":"VEC3"
		},
		{
			"bufferView":2,
			"componentType":5126,
			"count":44,
			"type":"VEC2"
		},
		{
			"bufferView":3,
			"componentType":5126,
			"count":44,
			"type":"VEC2"
		},
		{
			"bufferView":4,
			"componentType":5123,
			"count":66,
			"type":"SCALAR"
		},
		{
			"bufferView":5,
			"componentType":5126,
			"count":41,
			"max":[
				0.8058140277862549,
				0.1649710088968277,
				0.06518544256687164
			],
			"min":[
				0.43086501955986023,
				0.03460007160902023,
				-0.06518544256687164
			],
			"type":"VEC3"
		},
		{
			"bufferView":6,
			"componentType":5126,
			"count":41,
			"type":"VEC3"
		},
		{
			"bufferView":7,
			"componentType":5126,
			"count":41,
			"type":"VEC2"
		},
		{
			"bufferView":8,
			"componentType":5126,
			"count":41,
			"type":"VEC2"
		},
		{
			"bufferView":9,
			"componentType":5123,
			"count":84,
			"type":"SCALAR"
		},
		{
			"bufferView":10,
			"componentType":5126,
			"count":41,
			"max":[
				0.8058140277862549,
				0.1649710088968277,
				0.06518544256687164
			],
			"min":[
				0.43086501955986023,
				0.03460007160902023,
				-0.06518544256687164
			],
			"type":"VEC3"
		},
		{
			"bufferView":11,
			"componentType":5126,
			"count":41,
			"type":"VEC3"
		},
		{
			"bufferView":12,
			"componentType":5126,
			"count":41,
			"type":"VEC2"
		},
		{
			"bufferView":13,
			"componentType":5126,
			"count":41,
			"type":"VEC2"
		},
		{
			"bufferView":14,
			"componentType":5126,
			"count":192,
			"max":[
				0.41227972507476807,
				0.20349952578544617,
				0.340530663728714
			],
			"min":[
				-0.35406458377838135,
				0.00515658687800169,
				-0.340530663728714
			],
			"type":"VEC3"
		},
		{
			"bufferView":15,
			"componentType":5126,
			"count":192,
			"type":"VEC3"
		},
		{
			"bufferView":16,
			"componentType":5126,
			"count":192,
			"type":"VEC2"
		},
		{
			"bufferView":17,
			"componentType":5126,
			"count":192,
			"type":"VEC2"
		},
		{
			"bufferView":18,
			"componentType":5123,
			"count":504,
			"type":"SCALAR"
		}
	],
	"bufferViews":[
		{
			"buffer":0,
			"byteLength":528,
			"byteOffset":0,
			"target":34962
		},
		{
			"buffer":0,
			"byteLength":528,
			"byteOffset":528,
			"target":34962
		},
		{
			"buffer":0,
			"byteLength":352,
			"byteOffset":1056,
			"target":34962
		},
		{
			"buffer":0,
			"byteLength":352,
			"byteOffset":1408,
			"target":34962
		},
		{
			"buffer":0,
			"byteLength":132,
			"byteOffset":1760,
			"target":34963
		},
		{
			"buffer":0,
			"byteLength":492,
			"byteOffset":1892,
			"target":34962
		},
		{
			"buffer":0,
			"byteLength":492,
			"byteOffset":2384,
			"target":34962
		},
		{
			"buffer":0,
			"byteLength":328,
			"byteOffset":2876,
			"target":34962
		},
		{
			"buffer":0,
			"byteLength":328,
			"byteOffset":3204,
			"target":34962
		},
		{
			"buffer":0,
			"byteLength":168,
			"byteOffset":3532,
			"target":34963
		},
		{
			"buffer":0,
			"byteLength":492,
			"byteOffset":3700,
			"target":34962
		},
		{
			"buffer":0,
			"byteLength":492,
			"byteOffset":4192,
			"target":34962
		},
		{
			"buffer":0,
			"byteLength":328,
			"byteOffset":4684,
			"target":34962
		},
		{
			"buffer":0,
			"byteLength":328,
			"byteOffset":5012,
			"target":34962
		},
		{
			"buffer":0,
			"byteLength":2304,
			"byteOffset":5340,
			"target":34962
		},
		{
			"buffer":0,
			"byteLength":2304,
			"byteOffset":7644,
			"target":34962
		},
		{
			"buffer":0,
			"byteLength":1536,
			"byteOffset":9948,
			"target":34962
		},
		{
			"buffer":0,
			"byteLength":1536,
			"byteOffset":11484,
			"target":34962
		},
		{
			"buffer":0,
			"byteLength":1008,
			"byteOffset":13020,
			"target":34963
		}
	],
	"buffers":[
		{
			"byteLength":14028,
			"uri":"LogicGateXOrInternalVariant.bin"
		}
	]
}
