{
	"asset":{
		"generator":"Khronos glTF Blender I/O v4.1.63",
		"version":"2.0"
	},
	"scene":0,
	"scenes":[
		{
			"name":"Scene",
			"nodes":[
				0
			]
		}
	],
	"nodes":[
		{
			"mesh":0,
			"name":"Merger_3to1_Belt_LOD0"
		}
	],
	"meshes":[
		{
			"name":"Cube.035",
			"primitives":[
				{
					"attributes":{
						"POSITION":0,
						"NORMAL":1,
						"TEXCOORD_0":2,
						"TEXCOORD_1":3,
						"COLOR_0":4
					},
					"indices":5
				}
			]
		}
	],
	"accessors":[
		{
			"bufferView":0,
			"componentType":5126,
			"count":1383,
			"max":[
				0.5005000829696655,
				0.2819181978702545,
				0.5000000596046448
			],
			"min":[
				-0.50002521276474,
				1.9621366220690106e-07,
				-0.50002521276474
			],
			"type":"VEC3"
		},
		{
			"bufferView":1,
			"componentType":5126,
			"count":1383,
			"type":"VEC3"
		},
		{
			"bufferView":2,
			"componentType":5126,
			"count":1383,
			"type":"VEC2"
		},
		{
			"bufferView":3,
			"componentType":5126,
			"count":1383,
			"type":"VEC2"
		},
		{
			"bufferView":4,
			"componentType":5126,
			"count":1383,
			"type":"VEC3"
		},
		{
			"bufferView":5,
			"componentType":5123,
			"count":3009,
			"type":"SCALAR"
		}
	],
	"bufferViews":[
		{
			"buffer":0,
			"byteLength":16596,
			"byteOffset":0,
			"target":34962
		},
		{
			"buffer":0,
			"byteLength":16596,
			"byteOffset":16596,
			"target":34962
		},
		{
			"buffer":0,
			"byteLength":11064,
			"byteOffset":33192,
			"target":34962
		},
		{
			"buffer":0,
			"byteLength":11064,
			"byteOffset":44256,
			"target":34962
		},
		{
			"buffer":0,
			"byteLength":16596,
			"byteOffset":55320,
			"target":34962
		},
		{
			"buffer":0,
			"byteLength":6018,
			"byteOffset":71916,
			"target":34963
		}
	],
	"buffers":[
		{
			"byteLength":77936,
			"uri":"Merger3To1InternalVariant_Layer0.bin"
		}
	]
}
