{
	"asset":{
		"generator":"Khronos glTF Blender I/O v4.1.63",
		"version":"2.0"
	},
	"scene":0,
	"scenes":[
		{
			"name":"Scene",
			"nodes":[
				0
			]
		}
	],
	"nodes":[
		{
			"mesh":0,
			"name":"Splitter_TBorder_Layer2_LOD0.001",
			"rotation":[
				0,
				-0.7071068286895752,
				0,
				0.7071068286895752
			]
		}
	],
	"meshes":[
		{
			"name":"Cube.016",
			"primitives":[
				{
					"attributes":{
						"POSITION":0,
						"NORMAL":1,
						"TEXCOORD_0":2,
						"TEXCOORD_1":3,
						"COLOR_0":4
					},
					"indices":5
				}
			]
		}
	],
	"accessors":[
		{
			"bufferView":0,
			"componentType":5126,
			"count":1431,
			"max":[
				0.5010794401168823,
				0.2819181978702545,
				0.5010000467300415
			],
			"min":[
				-0.28398406505584717,
				0.0947892963886261,
				-0.501000165939331
			],
			"type":"VEC3"
		},
		{
			"bufferView":1,
			"componentType":5126,
			"count":1431,
			"type":"VEC3"
		},
		{
			"bufferView":2,
			"componentType":5126,
			"count":1431,
			"type":"VEC2"
		},
		{
			"bufferView":3,
			"componentType":5126,
			"count":1431,
			"type":"VEC2"
		},
		{
			"bufferView":4,
			"componentType":5126,
			"count":1431,
			"type":"VEC3"
		},
		{
			"bufferView":5,
			"componentType":5123,
			"count":3285,
			"type":"SCALAR"
		}
	],
	"bufferViews":[
		{
			"buffer":0,
			"byteLength":17172,
			"byteOffset":0,
			"target":34962
		},
		{
			"buffer":0,
			"byteLength":17172,
			"byteOffset":17172,
			"target":34962
		},
		{
			"buffer":0,
			"byteLength":11448,
			"byteOffset":34344,
			"target":34962
		},
		{
			"buffer":0,
			"byteLength":11448,
			"byteOffset":45792,
			"target":34962
		},
		{
			"buffer":0,
			"byteLength":17172,
			"byteOffset":57240,
			"target":34962
		},
		{
			"buffer":0,
			"byteLength":6570,
			"byteOffset":74412,
			"target":34963
		}
	],
	"buffers":[
		{
			"byteLength":80984,
			"uri":"Merger2To1LInternalVariant_Layer2.bin"
		}
	]
}
