{
	"asset":{
		"generator":"Khronos glTF Blender I/O v4.1.63",
		"version":"2.0"
	},
	"scene":0,
	"scenes":[
		{
			"name":"Scene",
			"nodes":[
				0,
				1,
				2,
				3,
				4,
				5,
				6
			]
		}
	],
	"nodes":[
		{
			"mesh":0,
			"name":"PipeBake_SolidIn_Layer0_LOD0.006"
		},
		{
			"mesh":1,
			"name":"PipeBake_Rotator_LOD0.009"
		},
		{
			"mesh":2,
			"name":"PipeBake_Pump_LOD0.009"
		},
		{
			"mesh":3,
			"name":"PipeBake_Upward_Solid1_LOD0.003",
			"translation":[
				0,
				2,
				0
			]
		},
		{
			"mesh":4,
			"name":"PipeBake_2Up_Glas_LOD0.003"
		},
		{
			"mesh":5,
			"name":"PipeBake_UpFoward_Glas_LOD0.009",
			"rotation":[
				0,
				-1,
				0,
				1.6292068494294654e-07
			]
		},
		{
			"mesh":6,
			"name":"PipeBake_ForwardUp_Glas_LOD0.009"
		}
	],
	"meshes":[
		{
			"name":"Mesh.036",
			"primitives":[
				{
					"attributes":{
						"POSITION":0,
						"NORMAL":1,
						"TEXCOORD_0":2,
						"TEXCOORD_1":3,
						"COLOR_0":4
					},
					"indices":5
				}
			]
		},
		{
			"name":"Cylinder.059",
			"primitives":[
				{
					"attributes":{
						"POSITION":6,
						"NORMAL":7,
						"TEXCOORD_0":8,
						"TEXCOORD_1":9
					},
					"indices":10
				}
			]
		},
		{
			"name":"Mesh.035",
			"primitives":[
				{
					"attributes":{
						"POSITION":11,
						"NORMAL":12,
						"TEXCOORD_0":13,
						"TEXCOORD_1":14,
						"COLOR_0":15
					},
					"indices":16
				}
			]
		},
		{
			"name":"Mesh.034",
			"primitives":[
				{
					"attributes":{
						"POSITION":17,
						"NORMAL":18,
						"TEXCOORD_0":19,
						"TEXCOORD_1":20,
						"COLOR_0":21
					},
					"indices":22
				}
			]
		},
		{
			"name":"Cylinder.058",
			"primitives":[
				{
					"attributes":{
						"POSITION":23,
						"NORMAL":24,
						"TEXCOORD_0":25,
						"TEXCOORD_1":26,
						"COLOR_0":27
					},
					"indices":28
				}
			]
		},
		{
			"name":"Cylinder.057",
			"primitives":[
				{
					"attributes":{
						"POSITION":29,
						"NORMAL":30,
						"TEXCOORD_0":31,
						"TEXCOORD_1":32,
						"COLOR_0":33
					},
					"indices":34
				}
			]
		},
		{
			"name":"Cylinder.056",
			"primitives":[
				{
					"attributes":{
						"POSITION":35,
						"NORMAL":36,
						"TEXCOORD_0":37,
						"TEXCOORD_1":38,
						"COLOR_0":39
					},
					"indices":40
				}
			]
		}
	],
	"accessors":[
		{
			"bufferView":0,
			"componentType":5126,
			"count":286,
			"max":[
				0.5,
				0.43703630566596985,
				0.18407675623893738
			],
			"min":[
				-0.1845560371875763,
				3.725290298461914e-09,
				-0.18407675623893738
			],
			"type":"VEC3"
		},
		{
			"bufferView":1,
			"componentType":5126,
			"count":286,
			"type":"VEC3"
		},
		{
			"bufferView":2,
			"componentType":5126,
			"count":286,
			"type":"VEC2"
		},
		{
			"bufferView":3,
			"componentType":5126,
			"count":286,
			"type":"VEC2"
		},
		{
			"bufferView":4,
			"componentType":5126,
			"count":286,
			"type":"VEC3"
		},
		{
			"bufferView":5,
			"componentType":5123,
			"count":975,
			"type":"SCALAR"
		},
		{
			"bufferView":6,
			"componentType":5126,
			"count":376,
			"max":[
				0.27681005001068115,
				0.7916924953460693,
				0.2971162497997284
			],
			"min":[
				-0.27681005001068115,
				0.5950703024864197,
				-0.2974473834037781
			],
			"type":"VEC3"
		},
		{
			"bufferView":7,
			"componentType":5126,
			"count":376,
			"type":"VEC3"
		},
		{
			"bufferView":8,
			"componentType":5126,
			"count":376,
			"type":"VEC2"
		},
		{
			"bufferView":9,
			"componentType":5126,
			"count":376,
			"type":"VEC2"
		},
		{
			"bufferView":10,
			"componentType":5123,
			"count":714,
			"type":"SCALAR"
		},
		{
			"bufferView":11,
			"componentType":5126,
			"count":946,
			"max":[
				0.5,
				0.9618488550186157,
				0.19413840770721436
			],
			"min":[
				-0.19198350608348846,
				0.4381510615348816,
				-0.19413840770721436
			],
			"type":"VEC3"
		},
		{
			"bufferView":12,
			"componentType":5126,
			"count":946,
			"type":"VEC3"
		},
		{
			"bufferView":13,
			"componentType":5126,
			"count":946,
			"type":"VEC2"
		},
		{
			"bufferView":14,
			"componentType":5126,
			"count":946,
			"type":"VEC2"
		},
		{
			"bufferView":15,
			"componentType":5126,
			"count":946,
			"type":"VEC3"
		},
		{
			"bufferView":16,
			"componentType":5123,
			"count":2484,
			"type":"SCALAR"
		},
		{
			"bufferView":17,
			"componentType":5126,
			"count":848,
			"max":[
				0.22177079319953918,
				0.057979315519332886,
				0.22177183628082275
			],
			"min":[
				-0.22177082300186157,
				-1.039387583732605,
				-0.2217698097229004
			],
			"type":"VEC3"
		},
		{
			"bufferView":18,
			"componentType":5126,
			"count":848,
			"type":"VEC3"
		},
		{
			"bufferView":19,
			"componentType":5126,
			"count":848,
			"type":"VEC2"
		},
		{
			"bufferView":20,
			"componentType":5126,
			"count":848,
			"type":"VEC2"
		},
		{
			"bufferView":21,
			"componentType":5126,
			"count":848,
			"type":"VEC3"
		},
		{
			"bufferView":22,
			"componentType":5123,
			"count":1728,
			"type":"SCALAR"
		},
		{
			"bufferView":23,
			"componentType":5126,
			"count":32,
			"max":[
				0.15000030398368835,
				1.9618490934371948,
				0.15000012516975403
			],
			"min":[
				-0.14998628199100494,
				0.9618486762046814,
				-0.14999988675117493
			],
			"type":"VEC3"
		},
		{
			"bufferView":24,
			"componentType":5126,
			"count":32,
			"type":"VEC3"
		},
		{
			"bufferView":25,
			"componentType":5126,
			"count":32,
			"type":"VEC2"
		},
		{
			"bufferView":26,
			"componentType":5126,
			"count":32,
			"type":"VEC2"
		},
		{
			"bufferView":27,
			"componentType":5126,
			"count":32,
			"type":"VEC3"
		},
		{
			"bufferView":28,
			"componentType":5123,
			"count":96,
			"type":"SCALAR"
		},
		{
			"bufferView":29,
			"componentType":5126,
			"count":160,
			"max":[
				0.1499801129102707,
				2.3500003814697266,
				0.15000483393669128
			],
			"min":[
				-0.5000003576278687,
				1.9618490934371948,
				-0.15000268816947937
			],
			"type":"VEC3"
		},
		{
			"bufferView":30,
			"componentType":5126,
			"count":160,
			"type":"VEC3"
		},
		{
			"bufferView":31,
			"componentType":5126,
			"count":160,
			"type":"VEC2"
		},
		{
			"bufferView":32,
			"componentType":5126,
			"count":160,
			"type":"VEC2"
		},
		{
			"bufferView":33,
			"componentType":5126,
			"count":160,
			"type":"VEC3"
		},
		{
			"bufferView":34,
			"componentType":5123,
			"count":864,
			"type":"SCALAR"
		},
		{
			"bufferView":35,
			"componentType":5126,
			"count":160,
			"max":[
				0.5000002980232239,
				0.43815118074417114,
				0.15000464022159576
			],
			"min":[
				-0.14990437030792236,
				0.0499996542930603,
				-0.1500045359134674
			],
			"type":"VEC3"
		},
		{
			"bufferView":36,
			"componentType":5126,
			"count":160,
			"type":"VEC3"
		},
		{
			"bufferView":37,
			"componentType":5126,
			"count":160,
			"type":"VEC2"
		},
		{
			"bufferView":38,
			"componentType":5126,
			"count":160,
			"type":"VEC2"
		},
		{
			"bufferView":39,
			"componentType":5126,
			"count":160,
			"type":"VEC3"
		},
		{
			"bufferView":40,
			"componentType":5123,
			"count":864,
			"type":"SCALAR"
		}
	],
	"bufferViews":[
		{
			"buffer":0,
			"byteLength":3432,
			"byteOffset":0,
			"target":34962
		},
		{
			"buffer":0,
			"byteLength":3432,
			"byteOffset":3432,
			"target":34962
		},
		{
			"buffer":0,
			"byteLength":2288,
			"byteOffset":6864,
			"target":34962
		},
		{
			"buffer":0,
			"byteLength":2288,
			"byteOffset":9152,
			"target":34962
		},
		{
			"buffer":0,
			"byteLength":3432,
			"byteOffset":11440,
			"target":34962
		},
		{
			"buffer":0,
			"byteLength":1950,
			"byteOffset":14872,
			"target":34963
		},
		{
			"buffer":0,
			"byteLength":4512,
			"byteOffset":16824,
			"target":34962
		},
		{
			"buffer":0,
			"byteLength":4512,
			"byteOffset":21336,
			"target":34962
		},
		{
			"buffer":0,
			"byteLength":3008,
			"byteOffset":25848,
			"target":34962
		},
		{
			"buffer":0,
			"byteLength":3008,
			"byteOffset":28856,
			"target":34962
		},
		{
			"buffer":0,
			"byteLength":1428,
			"byteOffset":31864,
			"target":34963
		},
		{
			"buffer":0,
			"byteLength":11352,
			"byteOffset":33292,
			"target":34962
		},
		{
			"buffer":0,
			"byteLength":11352,
			"byteOffset":44644,
			"target":34962
		},
		{
			"buffer":0,
			"byteLength":7568,
			"byteOffset":55996,
			"target":34962
		},
		{
			"buffer":0,
			"byteLength":7568,
			"byteOffset":63564,
			"target":34962
		},
		{
			"buffer":0,
			"byteLength":11352,
			"byteOffset":71132,
			"target":34962
		},
		{
			"buffer":0,
			"byteLength":4968,
			"byteOffset":82484,
			"target":34963
		},
		{
			"buffer":0,
			"byteLength":10176,
			"byteOffset":87452,
			"target":34962
		},
		{
			"buffer":0,
			"byteLength":10176,
			"byteOffset":97628,
			"target":34962
		},
		{
			"buffer":0,
			"byteLength":6784,
			"byteOffset":107804,
			"target":34962
		},
		{
			"buffer":0,
			"byteLength":6784,
			"byteOffset":114588,
			"target":34962
		},
		{
			"buffer":0,
			"byteLength":10176,
			"byteOffset":121372,
			"target":34962
		},
		{
			"buffer":0,
			"byteLength":3456,
			"byteOffset":131548,
			"target":34963
		},
		{
			"buffer":0,
			"byteLength":384,
			"byteOffset":135004,
			"target":34962
		},
		{
			"buffer":0,
			"byteLength":384,
			"byteOffset":135388,
			"target":34962
		},
		{
			"buffer":0,
			"byteLength":256,
			"byteOffset":135772,
			"target":34962
		},
		{
			"buffer":0,
			"byteLength":256,
			"byteOffset":136028,
			"target":34962
		},
		{
			"buffer":0,
			"byteLength":384,
			"byteOffset":136284,
			"target":34962
		},
		{
			"buffer":0,
			"byteLength":192,
			"byteOffset":136668,
			"target":34963
		},
		{
			"buffer":0,
			"byteLength":1920,
			"byteOffset":136860,
			"target":34962
		},
		{
			"buffer":0,
			"byteLength":1920,
			"byteOffset":138780,
			"target":34962
		},
		{
			"buffer":0,
			"byteLength":1280,
			"byteOffset":140700,
			"target":34962
		},
		{
			"buffer":0,
			"byteLength":1280,
			"byteOffset":141980,
			"target":34962
		},
		{
			"buffer":0,
			"byteLength":1920,
			"byteOffset":143260,
			"target":34962
		},
		{
			"buffer":0,
			"byteLength":1728,
			"byteOffset":145180,
			"target":34963
		},
		{
			"buffer":0,
			"byteLength":1920,
			"byteOffset":146908,
			"target":34962
		},
		{
			"buffer":0,
			"byteLength":1920,
			"byteOffset":148828,
			"target":34962
		},
		{
			"buffer":0,
			"byteLength":1280,
			"byteOffset":150748,
			"target":34962
		},
		{
			"buffer":0,
			"byteLength":1280,
			"byteOffset":152028,
			"target":34962
		},
		{
			"buffer":0,
			"byteLength":1920,
			"byteOffset":153308,
			"target":34962
		},
		{
			"buffer":0,
			"byteLength":1728,
			"byteOffset":155228,
			"target":34963
		}
	],
	"buffers":[
		{
			"byteLength":156956,
			"uri":"Pipe2UpBackwardInternalVariant.bin"
		}
	]
}
