{
	"asset":{
		"generator":"Khronos glTF Blender I/O v4.1.63",
		"version":"2.0"
	},
	"scene":0,
	"scenes":[
		{
			"name":"Scene",
			"nodes":[
				0,
				1,
				2,
				3,
				4
			]
		}
	],
	"nodes":[
		{
			"mesh":0,
			"name":"PipeBake_ForwardUp_Glas_LOD0.002"
		},
		{
			"mesh":1,
			"name":"PipeBake_Rotator_LOD0.002"
		},
		{
			"mesh":2,
			"name":"PipeBake_Pump_LOD0.002"
		},
		{
			"mesh":3,
			"name":"PipeBake_UpFoward_Glas_LOD0.002",
			"translation":[
				0,
				-1,
				0
			]
		},
		{
			"mesh":4,
			"name":"PipeBake_SolidIn_Layer1_LOD0.001"
		}
	],
	"meshes":[
		{
			"name":"Cylinder.034",
			"primitives":[
				{
					"attributes":{
						"POSITION":0,
						"NORMAL":1,
						"TEXCOORD_0":2,
						"TEXCOORD_1":3,
						"COLOR_0":4
					},
					"indices":5
				}
			]
		},
		{
			"name":"Cylinder.033",
			"primitives":[
				{
					"attributes":{
						"POSITION":6,
						"NORMAL":7,
						"TEXCOORD_0":8,
						"TEXCOORD_1":9
					},
					"indices":10
				}
			]
		},
		{
			"name":"Mesh.007",
			"primitives":[
				{
					"attributes":{
						"POSITION":11,
						"NORMAL":12,
						"TEXCOORD_0":13,
						"TEXCOORD_1":14,
						"COLOR_0":15
					},
					"indices":16
				}
			]
		},
		{
			"name":"Cylinder.031",
			"primitives":[
				{
					"attributes":{
						"POSITION":17,
						"NORMAL":18,
						"TEXCOORD_0":19,
						"TEXCOORD_1":20,
						"COLOR_0":21
					},
					"indices":22
				}
			]
		},
		{
			"name":"Mesh.010",
			"primitives":[
				{
					"attributes":{
						"POSITION":23,
						"NORMAL":24,
						"TEXCOORD_0":25,
						"TEXCOORD_1":26,
						"COLOR_0":27
					},
					"indices":28
				}
			]
		}
	],
	"accessors":[
		{
			"bufferView":0,
			"componentType":5126,
			"count":160,
			"max":[
				0.5000002980232239,
				0.43815118074417114,
				0.15000464022159576
			],
			"min":[
				-0.14990437030792236,
				0.0499996542930603,
				-0.1500045359134674
			],
			"type":"VEC3"
		},
		{
			"bufferView":1,
			"componentType":5126,
			"count":160,
			"type":"VEC3"
		},
		{
			"bufferView":2,
			"componentType":5126,
			"count":160,
			"type":"VEC2"
		},
		{
			"bufferView":3,
			"componentType":5126,
			"count":160,
			"type":"VEC2"
		},
		{
			"bufferView":4,
			"componentType":5126,
			"count":160,
			"type":"VEC3"
		},
		{
			"bufferView":5,
			"componentType":5123,
			"count":864,
			"type":"SCALAR"
		},
		{
			"bufferView":6,
			"componentType":5126,
			"count":376,
			"max":[
				0.27681005001068115,
				0.7916924953460693,
				0.2971162497997284
			],
			"min":[
				-0.27681005001068115,
				0.5950703024864197,
				-0.2974473834037781
			],
			"type":"VEC3"
		},
		{
			"bufferView":7,
			"componentType":5126,
			"count":376,
			"type":"VEC3"
		},
		{
			"bufferView":8,
			"componentType":5126,
			"count":376,
			"type":"VEC2"
		},
		{
			"bufferView":9,
			"componentType":5126,
			"count":376,
			"type":"VEC2"
		},
		{
			"bufferView":10,
			"componentType":5123,
			"count":714,
			"type":"SCALAR"
		},
		{
			"bufferView":11,
			"componentType":5126,
			"count":946,
			"max":[
				0.5,
				0.9618488550186157,
				0.19413840770721436
			],
			"min":[
				-0.19198350608348846,
				0.4381510615348816,
				-0.19413840770721436
			],
			"type":"VEC3"
		},
		{
			"bufferView":12,
			"componentType":5126,
			"count":946,
			"type":"VEC3"
		},
		{
			"bufferView":13,
			"componentType":5126,
			"count":946,
			"type":"VEC2"
		},
		{
			"bufferView":14,
			"componentType":5126,
			"count":946,
			"type":"VEC2"
		},
		{
			"bufferView":15,
			"componentType":5126,
			"count":946,
			"type":"VEC3"
		},
		{
			"bufferView":16,
			"componentType":5123,
			"count":2484,
			"type":"SCALAR"
		},
		{
			"bufferView":17,
			"componentType":5126,
			"count":160,
			"max":[
				0.1499801129102707,
				2.3500003814697266,
				0.15000483393669128
			],
			"min":[
				-0.5000003576278687,
				1.9618490934371948,
				-0.15000268816947937
			],
			"type":"VEC3"
		},
		{
			"bufferView":18,
			"componentType":5126,
			"count":160,
			"type":"VEC3"
		},
		{
			"bufferView":19,
			"componentType":5126,
			"count":160,
			"type":"VEC2"
		},
		{
			"bufferView":20,
			"componentType":5126,
			"count":160,
			"type":"VEC2"
		},
		{
			"bufferView":21,
			"componentType":5126,
			"count":160,
			"type":"VEC3"
		},
		{
			"bufferView":22,
			"componentType":5123,
			"count":864,
			"type":"SCALAR"
		},
		{
			"bufferView":23,
			"componentType":5126,
			"count":684,
			"max":[
				0.5000002384185791,
				0.4398362934589386,
				0.1473330855369568
			],
			"min":[
				-0.1471070498228073,
				0.052728306502103806,
				-0.1473330855369568
			],
			"type":"VEC3"
		},
		{
			"bufferView":24,
			"componentType":5126,
			"count":684,
			"type":"VEC3"
		},
		{
			"bufferView":25,
			"componentType":5126,
			"count":684,
			"type":"VEC2"
		},
		{
			"bufferView":26,
			"componentType":5126,
			"count":684,
			"type":"VEC2"
		},
		{
			"bufferView":27,
			"componentType":5126,
			"count":684,
			"type":"VEC3"
		},
		{
			"bufferView":28,
			"componentType":5123,
			"count":1728,
			"type":"SCALAR"
		}
	],
	"bufferViews":[
		{
			"buffer":0,
			"byteLength":1920,
			"byteOffset":0,
			"target":34962
		},
		{
			"buffer":0,
			"byteLength":1920,
			"byteOffset":1920,
			"target":34962
		},
		{
			"buffer":0,
			"byteLength":1280,
			"byteOffset":3840,
			"target":34962
		},
		{
			"buffer":0,
			"byteLength":1280,
			"byteOffset":5120,
			"target":34962
		},
		{
			"buffer":0,
			"byteLength":1920,
			"byteOffset":6400,
			"target":34962
		},
		{
			"buffer":0,
			"byteLength":1728,
			"byteOffset":8320,
			"target":34963
		},
		{
			"buffer":0,
			"byteLength":4512,
			"byteOffset":10048,
			"target":34962
		},
		{
			"buffer":0,
			"byteLength":4512,
			"byteOffset":14560,
			"target":34962
		},
		{
			"buffer":0,
			"byteLength":3008,
			"byteOffset":19072,
			"target":34962
		},
		{
			"buffer":0,
			"byteLength":3008,
			"byteOffset":22080,
			"target":34962
		},
		{
			"buffer":0,
			"byteLength":1428,
			"byteOffset":25088,
			"target":34963
		},
		{
			"buffer":0,
			"byteLength":11352,
			"byteOffset":26516,
			"target":34962
		},
		{
			"buffer":0,
			"byteLength":11352,
			"byteOffset":37868,
			"target":34962
		},
		{
			"buffer":0,
			"byteLength":7568,
			"byteOffset":49220,
			"target":34962
		},
		{
			"buffer":0,
			"byteLength":7568,
			"byteOffset":56788,
			"target":34962
		},
		{
			"buffer":0,
			"byteLength":11352,
			"byteOffset":64356,
			"target":34962
		},
		{
			"buffer":0,
			"byteLength":4968,
			"byteOffset":75708,
			"target":34963
		},
		{
			"buffer":0,
			"byteLength":1920,
			"byteOffset":80676,
			"target":34962
		},
		{
			"buffer":0,
			"byteLength":1920,
			"byteOffset":82596,
			"target":34962
		},
		{
			"buffer":0,
			"byteLength":1280,
			"byteOffset":84516,
			"target":34962
		},
		{
			"buffer":0,
			"byteLength":1280,
			"byteOffset":85796,
			"target":34962
		},
		{
			"buffer":0,
			"byteLength":1920,
			"byteOffset":87076,
			"target":34962
		},
		{
			"buffer":0,
			"byteLength":1728,
			"byteOffset":88996,
			"target":34963
		},
		{
			"buffer":0,
			"byteLength":8208,
			"byteOffset":90724,
			"target":34962
		},
		{
			"buffer":0,
			"byteLength":8208,
			"byteOffset":98932,
			"target":34962
		},
		{
			"buffer":0,
			"byteLength":5472,
			"byteOffset":107140,
			"target":34962
		},
		{
			"buffer":0,
			"byteLength":5472,
			"byteOffset":112612,
			"target":34962
		},
		{
			"buffer":0,
			"byteLength":8208,
			"byteOffset":118084,
			"target":34962
		},
		{
			"buffer":0,
			"byteLength":3456,
			"byteOffset":126292,
			"target":34963
		}
	],
	"buffers":[
		{
			"byteLength":129748,
			"uri":"PipeUpForwardInternalVariant_Layer1.bin"
		}
	]
}
