{
	"asset":{
		"generator":"Khronos glTF Blender I/O v4.1.63",
		"version":"2.0"
	},
	"scene":0,
	"scenes":[
		{
			"name":"Scene",
			"nodes":[
				0,
				1
			]
		}
	],
	"nodes":[
		{
			"mesh":0,
			"name":"PipeBake_Junction Glas_LOD0.001"
		},
		{
			"mesh":1,
			"name":"PipeBake_Junction_Solid0_LOD0.001"
		}
	],
	"meshes":[
		{
			"name":"Cylinder.012",
			"primitives":[
				{
					"attributes":{
						"POSITION":0,
						"NORMAL":1,
						"TEXCOORD_0":2
					},
					"indices":3
				}
			]
		},
		{
			"name":"Cylinder.016",
			"primitives":[
				{
					"attributes":{
						"POSITION":4,
						"NORMAL":5,
						"TEXCOORD_0":6,
						"TEXCOORD_1":7
					},
					"indices":8
				}
			]
		}
	],
	"accessors":[
		{
			"bufferView":0,
			"componentType":5126,
			"count":80,
			"max":[
				0.14999966323375702,
				0.3500000834465027,
				0.500000536441803
			],
			"min":[
				-0.5000002980232239,
				0.04999997466802597,
				-0.4999995827674866
			],
			"type":"VEC3"
		},
		{
			"bufferView":1,
			"componentType":5126,
			"count":80,
			"type":"VEC3"
		},
		{
			"bufferView":2,
			"componentType":5126,
			"count":80,
			"type":"VEC2"
		},
		{
			"bufferView":3,
			"componentType":5123,
			"count":246,
			"type":"SCALAR"
		},
		{
			"bufferView":4,
			"componentType":5126,
			"count":155,
			"max":[
				0.1840398609638214,
				0.20000001788139343,
				0.4999999701976776
			],
			"min":[
				-0.5,
				-0.001989165786653757,
				-0.5
			],
			"type":"VEC3"
		},
		{
			"bufferView":5,
			"componentType":5126,
			"count":155,
			"type":"VEC3"
		},
		{
			"bufferView":6,
			"componentType":5126,
			"count":155,
			"type":"VEC2"
		},
		{
			"bufferView":7,
			"componentType":5126,
			"count":155,
			"type":"VEC2"
		},
		{
			"bufferView":8,
			"componentType":5123,
			"count":348,
			"type":"SCALAR"
		}
	],
	"bufferViews":[
		{
			"buffer":0,
			"byteLength":960,
			"byteOffset":0,
			"target":34962
		},
		{
			"buffer":0,
			"byteLength":960,
			"byteOffset":960,
			"target":34962
		},
		{
			"buffer":0,
			"byteLength":640,
			"byteOffset":1920,
			"target":34962
		},
		{
			"buffer":0,
			"byteLength":492,
			"byteOffset":2560,
			"target":34963
		},
		{
			"buffer":0,
			"byteLength":1860,
			"byteOffset":3052,
			"target":34962
		},
		{
			"buffer":0,
			"byteLength":1860,
			"byteOffset":4912,
			"target":34962
		},
		{
			"buffer":0,
			"byteLength":1240,
			"byteOffset":6772,
			"target":34962
		},
		{
			"buffer":0,
			"byteLength":1240,
			"byteOffset":8012,
			"target":34962
		},
		{
			"buffer":0,
			"byteLength":696,
			"byteOffset":9252,
			"target":34963
		}
	],
	"buffers":[
		{
			"byteLength":9948,
			"uri":"PipeJunctionInternalVariant_Layer0.bin"
		}
	]
}
