{
	"asset":{
		"generator":"Khronos glTF Blender I/O v4.1.63",
		"version":"2.0"
	},
	"scene":0,
	"scenes":[
		{
			"name":"Scene",
			"nodes":[
				0,
				1
			]
		}
	],
	"nodes":[
		{
			"mesh":0,
			"name":"PipeBake_Junction Glas_LOD0.002"
		},
		{
			"mesh":1,
			"name":"PipeBake_Junction_Solid1_LOD0.001"
		}
	],
	"meshes":[
		{
			"name":"Cylinder.013",
			"primitives":[
				{
					"attributes":{
						"POSITION":0,
						"NORMAL":1,
						"TEXCOORD_0":2
					},
					"indices":3
				}
			]
		},
		{
			"name":"Cylinder.017",
			"primitives":[
				{
					"attributes":{
						"POSITION":4,
						"NORMAL":5,
						"TEXCOORD_0":6,
						"TEXCOORD_1":7
					},
					"indices":8
				}
			]
		}
	],
	"accessors":[
		{
			"bufferView":0,
			"componentType":5126,
			"count":80,
			"max":[
				0.14999966323375702,
				0.3500000834465027,
				0.500000536441803
			],
			"min":[
				-0.5000002980232239,
				0.04999997466802597,
				-0.4999995827674866
			],
			"type":"VEC3"
		},
		{
			"bufferView":1,
			"componentType":5126,
			"count":80,
			"type":"VEC3"
		},
		{
			"bufferView":2,
			"componentType":5126,
			"count":80,
			"type":"VEC2"
		},
		{
			"bufferView":3,
			"componentType":5123,
			"count":246,
			"type":"SCALAR"
		},
		{
			"bufferView":4,
			"componentType":5126,
			"count":320,
			"max":[
				0.14721782505512238,
				0.31487855315208435,
				0.5000028610229492
			],
			"min":[
				-0.5000004172325134,
				0.051204863935709,
				-0.5000028610229492
			],
			"type":"VEC3"
		},
		{
			"bufferView":5,
			"componentType":5126,
			"count":320,
			"type":"VEC3"
		},
		{
			"bufferView":6,
			"componentType":5126,
			"count":320,
			"type":"VEC2"
		},
		{
			"bufferView":7,
			"componentType":5126,
			"count":320,
			"type":"VEC2"
		},
		{
			"bufferView":8,
			"componentType":5123,
			"count":480,
			"type":"SCALAR"
		}
	],
	"bufferViews":[
		{
			"buffer":0,
			"byteLength":960,
			"byteOffset":0,
			"target":34962
		},
		{
			"buffer":0,
			"byteLength":960,
			"byteOffset":960,
			"target":34962
		},
		{
			"buffer":0,
			"byteLength":640,
			"byteOffset":1920,
			"target":34962
		},
		{
			"buffer":0,
			"byteLength":492,
			"byteOffset":2560,
			"target":34963
		},
		{
			"buffer":0,
			"byteLength":3840,
			"byteOffset":3052,
			"target":34962
		},
		{
			"buffer":0,
			"byteLength":3840,
			"byteOffset":6892,
			"target":34962
		},
		{
			"buffer":0,
			"byteLength":2560,
			"byteOffset":10732,
			"target":34962
		},
		{
			"buffer":0,
			"byteLength":2560,
			"byteOffset":13292,
			"target":34962
		},
		{
			"buffer":0,
			"byteLength":960,
			"byteOffset":15852,
			"target":34963
		}
	],
	"buffers":[
		{
			"byteLength":16812,
			"uri":"PipeJunctionInternalVariant_Layer1.bin"
		}
	]
}
