{
	"asset":{
		"generator":"Khronos glTF Blender I/O v4.1.63",
		"version":"2.0"
	},
	"scene":0,
	"scenes":[
		{
			"name":"Scene",
			"nodes":[
				0,
				1,
				2
			]
		}
	],
	"nodes":[
		{
			"mesh":0,
			"name":"Pump_Solid_LOD0"
		},
		{
			"mesh":1,
			"name":"PumpGlas_LOD0"
		},
		{
			"mesh":2,
			"name":"PumpRotate_LOD0"
		}
	],
	"meshes":[
		{
			"name":"Cylinder.030",
			"primitives":[
				{
					"attributes":{
						"POSITION":0,
						"NORMAL":1,
						"TEXCOORD_0":2,
						"TEXCOORD_1":3
					},
					"indices":4
				}
			]
		},
		{
			"name":"Cylinder.032",
			"primitives":[
				{
					"attributes":{
						"POSITION":5,
						"NORMAL":6,
						"TEXCOORD_0":7
					},
					"indices":8
				}
			]
		},
		{
			"name":"Cylinder.033",
			"primitives":[
				{
					"attributes":{
						"POSITION":9,
						"NORMAL":10,
						"TEXCOORD_0":11,
						"TEXCOORD_1":12
					},
					"indices":13
				}
			]
		}
	],
	"accessors":[
		{
			"bufferView":0,
			"componentType":5126,
			"count":1442,
			"max":[
				0.3899732530117035,
				0.586640477180481,
				0.38973090052604675
			],
			"min":[
				-0.47320371866226196,
				-2.33088755607605,
				-0.389730840921402
			],
			"type":"VEC3"
		},
		{
			"bufferView":1,
			"componentType":5126,
			"count":1442,
			"type":"VEC3"
		},
		{
			"bufferView":2,
			"componentType":5126,
			"count":1442,
			"type":"VEC2"
		},
		{
			"bufferView":3,
			"componentType":5126,
			"count":1442,
			"type":"VEC2"
		},
		{
			"bufferView":4,
			"componentType":5123,
			"count":3660,
			"type":"SCALAR"
		},
		{
			"bufferView":5,
			"componentType":5126,
			"count":134,
			"max":[
				0.34204861521720886,
				0.4527089595794678,
				0.34166595339775085
			],
			"min":[
				-0.3412831127643585,
				-2.3021507263183594,
				-0.3416658639907837
			],
			"type":"VEC3"
		},
		{
			"bufferView":6,
			"componentType":5126,
			"count":134,
			"type":"VEC3"
		},
		{
			"bufferView":7,
			"componentType":5126,
			"count":134,
			"type":"VEC2"
		},
		{
			"bufferView":8,
			"componentType":5123,
			"count":396,
			"type":"SCALAR"
		},
		{
			"bufferView":9,
			"componentType":5126,
			"count":92,
			"max":[
				0.24677444994449615,
				0.507702112197876,
				0.24736759066581726
			],
			"min":[
				-0.2481125146150589,
				0.397043377161026,
				-0.24751925468444824
			],
			"type":"VEC3"
		},
		{
			"bufferView":10,
			"componentType":5126,
			"count":92,
			"type":"VEC3"
		},
		{
			"bufferView":11,
			"componentType":5126,
			"count":92,
			"type":"VEC2"
		},
		{
			"bufferView":12,
			"componentType":5126,
			"count":92,
			"type":"VEC2"
		},
		{
			"bufferView":13,
			"componentType":5123,
			"count":174,
			"type":"SCALAR"
		}
	],
	"bufferViews":[
		{
			"buffer":0,
			"byteLength":17304,
			"byteOffset":0,
			"target":34962
		},
		{
			"buffer":0,
			"byteLength":17304,
			"byteOffset":17304,
			"target":34962
		},
		{
			"buffer":0,
			"byteLength":11536,
			"byteOffset":34608,
			"target":34962
		},
		{
			"buffer":0,
			"byteLength":11536,
			"byteOffset":46144,
			"target":34962
		},
		{
			"buffer":0,
			"byteLength":7320,
			"byteOffset":57680,
			"target":34963
		},
		{
			"buffer":0,
			"byteLength":1608,
			"byteOffset":65000,
			"target":34962
		},
		{
			"buffer":0,
			"byteLength":1608,
			"byteOffset":66608,
			"target":34962
		},
		{
			"buffer":0,
			"byteLength":1072,
			"byteOffset":68216,
			"target":34962
		},
		{
			"buffer":0,
			"byteLength":792,
			"byteOffset":69288,
			"target":34963
		},
		{
			"buffer":0,
			"byteLength":1104,
			"byteOffset":70080,
			"target":34962
		},
		{
			"buffer":0,
			"byteLength":1104,
			"byteOffset":71184,
			"target":34962
		},
		{
			"buffer":0,
			"byteLength":736,
			"byteOffset":72288,
			"target":34962
		},
		{
			"buffer":0,
			"byteLength":736,
			"byteOffset":73024,
			"target":34962
		},
		{
			"buffer":0,
			"byteLength":348,
			"byteOffset":73760,
			"target":34963
		}
	],
	"buffers":[
		{
			"byteLength":74108,
			"uri":"PumpDefaultInternalVariant.bin"
		}
	]
}
