{
	"asset":{
		"generator":"Khronos glTF Blender I/O v4.1.63",
		"version":"2.0"
	},
	"scene":0,
	"scenes":[
		{
			"name":"Scene",
			"nodes":[
				0
			]
		}
	],
	"nodes":[
		{
			"mesh":0,
			"name":"SandboxIFluidProducer"
		}
	],
	"meshes":[
		{
			"name":"Cube.002",
			"primitives":[
				{
					"attributes":{
						"POSITION":0,
						"NORMAL":1,
						"TEXCOORD_0":2,
						"TEXCOORD_1":3,
						"COLOR_0":4
					},
					"indices":5
				}
			]
		}
	],
	"accessors":[
		{
			"bufferView":0,
			"componentType":5126,
			"count":718,
			"max":[
				0.4322766065597534,
				0.7638826966285706,
				0.4322766959667206
			],
			"min":[
				-0.5,
				0.006667785812169313,
				-0.43227654695510864
			],
			"type":"VEC3"
		},
		{
			"bufferView":1,
			"componentType":5126,
			"count":718,
			"type":"VEC3"
		},
		{
			"bufferView":2,
			"componentType":5126,
			"count":718,
			"type":"VEC2"
		},
		{
			"bufferView":3,
			"componentType":5126,
			"count":718,
			"type":"VEC2"
		},
		{
			"bufferView":4,
			"componentType":5126,
			"count":718,
			"type":"VEC3"
		},
		{
			"bufferView":5,
			"componentType":5123,
			"count":1182,
			"type":"SCALAR"
		}
	],
	"bufferViews":[
		{
			"buffer":0,
			"byteLength":8616,
			"byteOffset":0,
			"target":34962
		},
		{
			"buffer":0,
			"byteLength":8616,
			"byteOffset":8616,
			"target":34962
		},
		{
			"buffer":0,
			"byteLength":5744,
			"byteOffset":17232,
			"target":34962
		},
		{
			"buffer":0,
			"byteLength":5744,
			"byteOffset":22976,
			"target":34962
		},
		{
			"buffer":0,
			"byteLength":8616,
			"byteOffset":28720,
			"target":34962
		},
		{
			"buffer":0,
			"byteLength":2364,
			"byteOffset":37336,
			"target":34963
		}
	],
	"buffers":[
		{
			"byteLength":39700,
			"uri":"SandboxFluidProducerDefaultInternalVariant.bin"
		}
	]
}
