{
	"asset":{
		"generator":"Khronos glTF Blender I/O v4.1.63",
		"version":"2.0"
	},
	"scene":0,
	"scenes":[
		{
			"name":"Scene",
			"nodes":[
				0
			]
		}
	],
	"nodes":[
		{
			"mesh":0,
			"name":"Splitter_1to3Border_Layer2_LOD0.001"
		}
	],
	"meshes":[
		{
			"name":"Cube.044",
			"primitives":[
				{
					"attributes":{
						"POSITION":0,
						"NORMAL":1,
						"TEXCOORD_0":2,
						"TEXCOORD_1":3,
						"COLOR_0":4
					},
					"indices":5
				}
			]
		}
	],
	"accessors":[
		{
			"bufferView":0,
			"componentType":5126,
			"count":1453,
			"max":[
				0.5010794401168823,
				0.2275393009185791,
				0.5010000467300415
			],
			"min":[
				-0.5010794401168823,
				0.09478935599327087,
				-0.501000165939331
			],
			"type":"VEC3"
		},
		{
			"bufferView":1,
			"componentType":5126,
			"count":1453,
			"type":"VEC3"
		},
		{
			"bufferView":2,
			"componentType":5126,
			"count":1453,
			"type":"VEC2"
		},
		{
			"bufferView":3,
			"componentType":5126,
			"count":1453,
			"type":"VEC2"
		},
		{
			"bufferView":4,
			"componentType":5126,
			"count":1453,
			"type":"VEC3"
		},
		{
			"bufferView":5,
			"componentType":5123,
			"count":3924,
			"type":"SCALAR"
		}
	],
	"bufferViews":[
		{
			"buffer":0,
			"byteLength":17436,
			"byteOffset":0,
			"target":34962
		},
		{
			"buffer":0,
			"byteLength":17436,
			"byteOffset":17436,
			"target":34962
		},
		{
			"buffer":0,
			"byteLength":11624,
			"byteOffset":34872,
			"target":34962
		},
		{
			"buffer":0,
			"byteLength":11624,
			"byteOffset":46496,
			"target":34962
		},
		{
			"buffer":0,
			"byteLength":17436,
			"byteOffset":58120,
			"target":34962
		},
		{
			"buffer":0,
			"byteLength":7848,
			"byteOffset":75556,
			"target":34963
		}
	],
	"buffers":[
		{
			"byteLength":83404,
			"uri":"Splitter1To3InternalVariant_Layer2.bin"
		}
	]
}
