{
	"asset":{
		"generator":"Khronos glTF Blender I/O v4.1.63",
		"version":"2.0"
	},
	"scene":0,
	"scenes":[
		{
			"name":"Scene",
			"nodes":[
				0
			]
		}
	],
	"nodes":[
		{
			"mesh":0,
			"name":"Splitter_1to3_Belt_LOD0.001"
		}
	],
	"meshes":[
		{
			"name":"Cube.065",
			"primitives":[
				{
					"attributes":{
						"POSITION":0,
						"NORMAL":1,
						"TEXCOORD_0":2,
						"TEXCOORD_1":3,
						"COLOR_0":4
					},
					"indices":5
				}
			]
		}
	],
	"accessors":[
		{
			"bufferView":0,
			"componentType":5126,
			"count":817,
			"max":[
				0.5000251531600952,
				0.2599904239177704,
				0.5000000596046448
			],
			"min":[
				-0.5006533861160278,
				1.9621366220690106e-07,
				-0.50002521276474
			],
			"type":"VEC3"
		},
		{
			"bufferView":1,
			"componentType":5126,
			"count":817,
			"type":"VEC3"
		},
		{
			"bufferView":2,
			"componentType":5126,
			"count":817,
			"type":"VEC2"
		},
		{
			"bufferView":3,
			"componentType":5126,
			"count":817,
			"type":"VEC2"
		},
		{
			"bufferView":4,
			"componentType":5126,
			"count":817,
			"type":"VEC3"
		},
		{
			"bufferView":5,
			"componentType":5123,
			"count":1782,
			"type":"SCALAR"
		}
	],
	"bufferViews":[
		{
			"buffer":0,
			"byteLength":9804,
			"byteOffset":0,
			"target":34962
		},
		{
			"buffer":0,
			"byteLength":9804,
			"byteOffset":9804,
			"target":34962
		},
		{
			"buffer":0,
			"byteLength":6536,
			"byteOffset":19608,
			"target":34962
		},
		{
			"buffer":0,
			"byteLength":6536,
			"byteOffset":26144,
			"target":34962
		},
		{
			"buffer":0,
			"byteLength":9804,
			"byteOffset":32680,
			"target":34962
		},
		{
			"buffer":0,
			"byteLength":3564,
			"byteOffset":42484,
			"target":34963
		}
	],
	"buffers":[
		{
			"byteLength":46048,
			"uri":"Splitter1To3InternalVariant_Layer0.bin"
		}
	]
}
