{
	"asset":{
		"generator":"Khronos glTF Blender I/O v4.1.63",
		"version":"2.0"
	},
	"scene":0,
	"scenes":[
		{
			"name":"Scene",
			"nodes":[
				0
			]
		}
	],
	"nodes":[
		{
			"mesh":0,
			"name":"Splitter_DefaultBorder_Layer2_LOD0",
			"rotation":[
				0,
				-0.7071068286895752,
				0,
				0.7071068286895752
			]
		}
	],
	"meshes":[
		{
			"name":"Cube.034",
			"primitives":[
				{
					"attributes":{
						"POSITION":0,
						"NORMAL":1,
						"TEXCOORD_0":2,
						"TEXCOORD_1":3,
						"COLOR_0":4
					},
					"indices":5
				}
			]
		}
	],
	"accessors":[
		{
			"bufferView":0,
			"componentType":5126,
			"count":1014,
			"max":[
				0.5010000467300415,
				0.2275393009185791,
				0.28398406505584717
			],
			"min":[
				-0.501000165939331,
				0.0947892963886261,
				-0.5010794401168823
			],
			"type":"VEC3"
		},
		{
			"bufferView":1,
			"componentType":5126,
			"count":1014,
			"type":"VEC3"
		},
		{
			"bufferView":2,
			"componentType":5126,
			"count":1014,
			"type":"VEC2"
		},
		{
			"bufferView":3,
			"componentType":5126,
			"count":1014,
			"type":"VEC2"
		},
		{
			"bufferView":4,
			"componentType":5126,
			"count":1014,
			"type":"VEC3"
		},
		{
			"bufferView":5,
			"componentType":5123,
			"count":2445,
			"type":"SCALAR"
		}
	],
	"bufferViews":[
		{
			"buffer":0,
			"byteLength":12168,
			"byteOffset":0,
			"target":34962
		},
		{
			"buffer":0,
			"byteLength":12168,
			"byteOffset":12168,
			"target":34962
		},
		{
			"buffer":0,
			"byteLength":8112,
			"byteOffset":24336,
			"target":34962
		},
		{
			"buffer":0,
			"byteLength":8112,
			"byteOffset":32448,
			"target":34962
		},
		{
			"buffer":0,
			"byteLength":12168,
			"byteOffset":40560,
			"target":34962
		},
		{
			"buffer":0,
			"byteLength":4890,
			"byteOffset":52728,
			"target":34963
		}
	],
	"buffers":[
		{
			"byteLength":57620,
			"uri":"SplitterTShapeInternalVariant_Layer2.bin"
		}
	]
}
