{
	"asset":{
		"generator":"Khronos glTF Blender I/O v4.1.63",
		"version":"2.0"
	},
	"scene":0,
	"scenes":[
		{
			"name":"Scene",
			"nodes":[
				0
			]
		}
	],
	"nodes":[
		{
			"mesh":0,
			"name":"Splitter_DefaultBorder_Layer0_LOD0.002",
			"rotation":[
				0,
				-0.7071068286895752,
				0,
				0.7071068286895752
			]
		}
	],
	"meshes":[
		{
			"name":"Cube.063",
			"primitives":[
				{
					"attributes":{
						"POSITION":0,
						"NORMAL":1,
						"TEXCOORD_0":2,
						"TEXCOORD_1":3,
						"COLOR_0":4
					},
					"indices":5
				}
			]
		}
	],
	"accessors":[
		{
			"bufferView":0,
			"componentType":5126,
			"count":489,
			"max":[
				0.500999927520752,
				0.2599904537200928,
				0.2840093672275543
			],
			"min":[
				-0.5008468627929688,
				1.9621366220690106e-07,
				-0.5000000596046448
			],
			"type":"VEC3"
		},
		{
			"bufferView":1,
			"componentType":5126,
			"count":489,
			"type":"VEC3"
		},
		{
			"bufferView":2,
			"componentType":5126,
			"count":489,
			"type":"VEC2"
		},
		{
			"bufferView":3,
			"componentType":5126,
			"count":489,
			"type":"VEC2"
		},
		{
			"bufferView":4,
			"componentType":5126,
			"count":489,
			"type":"VEC3"
		},
		{
			"bufferView":5,
			"componentType":5123,
			"count":1050,
			"type":"SCALAR"
		}
	],
	"bufferViews":[
		{
			"buffer":0,
			"byteLength":5868,
			"byteOffset":0,
			"target":34962
		},
		{
			"buffer":0,
			"byteLength":5868,
			"byteOffset":5868,
			"target":34962
		},
		{
			"buffer":0,
			"byteLength":3912,
			"byteOffset":11736,
			"target":34962
		},
		{
			"buffer":0,
			"byteLength":3912,
			"byteOffset":15648,
			"target":34962
		},
		{
			"buffer":0,
			"byteLength":5868,
			"byteOffset":19560,
			"target":34962
		},
		{
			"buffer":0,
			"byteLength":2100,
			"byteOffset":25428,
			"target":34963
		}
	],
	"buffers":[
		{
			"byteLength":27528,
			"uri":"SplitterTShapeInternalVariant_Layer0.bin"
		}
	]
}
