{
	"asset":{
		"generator":"Khronos glTF Blender I/O v4.1.63",
		"version":"2.0"
	},
	"scene":0,
	"scenes":[
		{
			"name":"Scene",
			"nodes":[
				0
			]
		}
	],
	"nodes":[
		{
			"mesh":0,
			"name":"Playingfield_Tile_CornerInner.001"
		}
	],
	"meshes":[
		{
			"name":"Plane.001",
			"primitives":[
				{
					"attributes":{
						"POSITION":0,
						"NORMAL":1,
						"TEXCOORD_0":2,
						"TEXCOORD_1":3,
						"TEXCOORD_2":4,
						"COLOR_0":5
					},
					"indices":6
				}
			]
		}
	],
	"accessors":[
		{
			"bufferView":0,
			"componentType":5126,
			"count":436,
			"max":[
				0.5729069709777832,
				0.052679941058158875,
				0.5729069709777832
			],
			"min":[
				-0.5729067921638489,
				-1.0200409889221191,
				-0.5729068517684937
			],
			"type":"VEC3"
		},
		{
			"bufferView":1,
			"componentType":5126,
			"count":436,
			"type":"VEC3"
		},
		{
			"bufferView":2,
			"componentType":5126,
			"count":436,
			"type":"VEC2"
		},
		{
			"bufferView":3,
			"componentType":5126,
			"count":436,
			"type":"VEC2"
		},
		{
			"bufferView":4,
			"componentType":5126,
			"count":436,
			"type":"VEC2"
		},
		{
			"bufferView":5,
			"componentType":5126,
			"count":436,
			"type":"VEC3"
		},
		{
			"bufferView":6,
			"componentType":5123,
			"count":1092,
			"type":"SCALAR"
		}
	],
	"bufferViews":[
		{
			"buffer":0,
			"byteLength":5232,
			"byteOffset":0,
			"target":34962
		},
		{
			"buffer":0,
			"byteLength":5232,
			"byteOffset":5232,
			"target":34962
		},
		{
			"buffer":0,
			"byteLength":3488,
			"byteOffset":10464,
			"target":34962
		},
		{
			"buffer":0,
			"byteLength":3488,
			"byteOffset":13952,
			"target":34962
		},
		{
			"buffer":0,
			"byteLength":3488,
			"byteOffset":17440,
			"target":34962
		},
		{
			"buffer":0,
			"byteLength":5232,
			"byteOffset":20928,
			"target":34962
		},
		{
			"buffer":0,
			"byteLength":2184,
			"byteOffset":26160,
			"target":34963
		}
	],
	"buffers":[
		{
			"byteLength":28344,
			"uri":"TrashDefaultInternalVariant.bin"
		}
	]
}
