{
	"asset":{
		"generator":"Khronos glTF Blender I/O v4.1.63",
		"version":"2.0"
	},
	"scene":0,
	"scenes":[
		{
			"name":"Scene",
			"nodes":[
				0,
				1
			]
		}
	],
	"nodes":[
		{
			"mesh":0,
			"name":"Wire_Transmitter_LOD0"
		},
		{
			"mesh":1,
			"name":"Wire_IOConnector_Input_LOD0.020",
			"rotation":[
				0,
				-1,
				0,
				4.371138828673793e-08
			],
			"translation":[
				1,
				0,
				0
			]
		}
	],
	"meshes":[
		{
			"name":"Cylinder",
			"primitives":[
				{
					"attributes":{
						"POSITION":0,
						"NORMAL":1,
						"TEXCOORD_0":2,
						"TEXCOORD_1":3
					},
					"indices":4
				}
			]
		},
		{
			"name":"Cube.093",
			"primitives":[
				{
					"attributes":{
						"POSITION":5,
						"NORMAL":6,
						"TEXCOORD_0":7,
						"TEXCOORD_1":8
					},
					"indices":9
				}
			]
		}
	],
	"accessors":[
		{
			"bufferView":0,
			"componentType":5126,
			"count":1623,
			"max":[
				0.43467333912849426,
				0.9953019618988037,
				0.4342260956764221
			],
			"min":[
				-0.45920631289482117,
				8.960302722016422e-09,
				-0.43514055013656616
			],
			"type":"VEC3"
		},
		{
			"bufferView":1,
			"componentType":5126,
			"count":1623,
			"type":"VEC3"
		},
		{
			"bufferView":2,
			"componentType":5126,
			"count":1623,
			"type":"VEC2"
		},
		{
			"bufferView":3,
			"componentType":5126,
			"count":1623,
			"type":"VEC2"
		},
		{
			"bufferView":4,
			"componentType":5123,
			"count":6003,
			"type":"SCALAR"
		},
		{
			"bufferView":5,
			"componentType":5126,
			"count":41,
			"max":[
				0.8058140277862549,
				0.1649710088968277,
				0.06518544256687164
			],
			"min":[
				0.43086501955986023,
				0.03460007160902023,
				-0.06518544256687164
			],
			"type":"VEC3"
		},
		{
			"bufferView":6,
			"componentType":5126,
			"count":41,
			"type":"VEC3"
		},
		{
			"bufferView":7,
			"componentType":5126,
			"count":41,
			"type":"VEC2"
		},
		{
			"bufferView":8,
			"componentType":5126,
			"count":41,
			"type":"VEC2"
		},
		{
			"bufferView":9,
			"componentType":5123,
			"count":84,
			"type":"SCALAR"
		}
	],
	"bufferViews":[
		{
			"buffer":0,
			"byteLength":19476,
			"byteOffset":0,
			"target":34962
		},
		{
			"buffer":0,
			"byteLength":19476,
			"byteOffset":19476,
			"target":34962
		},
		{
			"buffer":0,
			"byteLength":12984,
			"byteOffset":38952,
			"target":34962
		},
		{
			"buffer":0,
			"byteLength":12984,
			"byteOffset":51936,
			"target":34962
		},
		{
			"buffer":0,
			"byteLength":12006,
			"byteOffset":64920,
			"target":34963
		},
		{
			"buffer":0,
			"byteLength":492,
			"byteOffset":76928,
			"target":34962
		},
		{
			"buffer":0,
			"byteLength":492,
			"byteOffset":77420,
			"target":34962
		},
		{
			"buffer":0,
			"byteLength":328,
			"byteOffset":77912,
			"target":34962
		},
		{
			"buffer":0,
			"byteLength":328,
			"byteOffset":78240,
			"target":34962
		},
		{
			"buffer":0,
			"byteLength":168,
			"byteOffset":78568,
			"target":34963
		}
	],
	"buffers":[
		{
			"byteLength":78736,
			"uri":"WireTransmitterSenderInternalVariant.bin"
		}
	]
}
