{
	"asset":{
		"generator":"Khronos glTF Blender I/O v4.1.63",
		"version":"2.0"
	},
	"scene":0,
	"scenes":[
		{
			"name":"Scene",
			"nodes":[
				0
			]
		}
	],
	"nodes":[
		{
			"mesh":0,
			"name":"Belt_StraightBorder_Layer1_LOD0.001"
		}
	],
	"meshes":[
		{
			"name":"Mesh.031",
			"primitives":[
				{
					"attributes":{
						"POSITION":0,
						"NORMAL":1,
						"TEXCOORD_0":2,
						"TEXCOORD_1":3,
						"COLOR_0":4
					},
					"indices":5
				}
			]
		}
	],
	"accessors":[
		{
			"bufferView":0,
			"componentType":5126,
			"count":724,
			"max":[
				0.5001149773597717,
				0.2599903643131256,
				0.28379619121551514
			],
			"min":[
				-0.5001149773597717,
				-0.027359377592802048,
				-0.2837960124015808
			],
			"type":"VEC3"
		},
		{
			"bufferView":1,
			"componentType":5126,
			"count":724,
			"type":"VEC3"
		},
		{
			"bufferView":2,
			"componentType":5126,
			"count":724,
			"type":"VEC2"
		},
		{
			"bufferView":3,
			"componentType":5126,
			"count":724,
			"type":"VEC2"
		},
		{
			"bufferView":4,
			"componentType":5126,
			"count":724,
			"type":"VEC3"
		},
		{
			"bufferView":5,
			"componentType":5123,
			"count":1560,
			"type":"SCALAR"
		}
	],
	"bufferViews":[
		{
			"buffer":0,
			"byteLength":8688,
			"byteOffset":0,
			"target":34962
		},
		{
			"buffer":0,
			"byteLength":8688,
			"byteOffset":8688,
			"target":34962
		},
		{
			"buffer":0,
			"byteLength":5792,
			"byteOffset":17376,
			"target":34962
		},
		{
			"buffer":0,
			"byteLength":5792,
			"byteOffset":23168,
			"target":34962
		},
		{
			"buffer":0,
			"byteLength":8688,
			"byteOffset":28960,
			"target":34962
		},
		{
			"buffer":0,
			"byteLength":3120,
			"byteOffset":37648,
			"target":34963
		}
	],
	"buffers":[
		{
			"byteLength":40768,
			"uri":"BeltDefaultForwardInternalVariant_Layer1.bin"
		}
	]
}
