{
	"asset":{
		"generator":"Khronos glTF Blender I/O v4.1.63",
		"version":"2.0"
	},
	"scene":0,
	"scenes":[
		{
			"name":"Scene",
			"nodes":[
				2,
				3,
				4,
				5,
				6,
				7
			]
		}
	],
	"nodes":[
		{
			"mesh":0,
			"name":"HalfCutter_Robot_Joint3_LOD0",
			"translation":[
				-0.01861339434981346,
				0.12613284587860107,
				0.13085179030895233
			]
		},
		{
			"children":[
				0
			],
			"mesh":1,
			"name":"HalfCutter_Robot_Joint2_LOD0",
			"translation":[
				0.04210337996482849,
				0.1994473934173584,
				-0.03965142369270325
			]
		},
		{
			"children":[
				1
			],
			"mesh":2,
			"name":"HalfCutter_Robot_Joint1_LOD0",
			"translation":[
				-0.05120199918746948,
				0.3428729176521301,
				-0.3348139524459839
			]
		},
		{
			"mesh":3,
			"name":"HalfCutter_Default_Laser_LOD0"
		},
		{
			"mesh":4,
			"name":"HalfCutter_Default_Plattform_LOD0"
		},
		{
			"mesh":5,
			"name":"HalfCutter_Default_PlattformMain_LOD0"
		},
		{
			"mesh":6,
			"name":"HalfCutter_Default_Main_LOD0"
		},
		{
			"mesh":7,
			"name":"HalfCutter_Default_Shield_LOD0",
			"rotation":[
				0.70710688829422,
				0,
				0,
				0.7071066498756409
			]
		}
	],
	"meshes":[
		{
			"name":"Cube.022",
			"primitives":[
				{
					"attributes":{
						"POSITION":0,
						"NORMAL":1,
						"TEXCOORD_0":2,
						"TEXCOORD_1":3,
						"COLOR_0":4
					},
					"indices":5
				}
			]
		},
		{
			"name":"Cube.021",
			"primitives":[
				{
					"attributes":{
						"POSITION":6,
						"NORMAL":7,
						"TEXCOORD_0":8,
						"TEXCOORD_1":9,
						"COLOR_0":10
					},
					"indices":11
				}
			]
		},
		{
			"name":"Cube.821",
			"primitives":[
				{
					"attributes":{
						"POSITION":12,
						"NORMAL":13,
						"TEXCOORD_0":14,
						"TEXCOORD_1":15,
						"COLOR_0":16
					},
					"indices":17
				}
			]
		},
		{
			"name":"Cube.008",
			"primitives":[
				{
					"attributes":{
						"POSITION":18,
						"NORMAL":19,
						"TEXCOORD_0":20,
						"TEXCOORD_1":21,
						"COLOR_0":22
					},
					"indices":23
				}
			]
		},
		{
			"name":"Cube.003",
			"primitives":[
				{
					"attributes":{
						"POSITION":24,
						"NORMAL":25,
						"TEXCOORD_0":26,
						"TEXCOORD_1":27,
						"COLOR_0":28
					},
					"indices":29
				}
			]
		},
		{
			"name":"Cube.005",
			"primitives":[
				{
					"attributes":{
						"POSITION":30,
						"NORMAL":31,
						"TEXCOORD_0":32,
						"TEXCOORD_1":33,
						"COLOR_0":34
					},
					"indices":35
				}
			]
		},
		{
			"name":"Cube.010",
			"primitives":[
				{
					"attributes":{
						"POSITION":36,
						"NORMAL":37,
						"TEXCOORD_0":38,
						"TEXCOORD_1":39
					},
					"indices":40
				}
			]
		},
		{
			"name":"Cube.027",
			"primitives":[
				{
					"attributes":{
						"POSITION":41,
						"NORMAL":42,
						"TEXCOORD_0":43,
						"TEXCOORD_1":44
					},
					"indices":45
				}
			]
		}
	],
	"accessors":[
		{
			"bufferView":0,
			"componentType":5126,
			"count":103,
			"max":[
				0.03406718373298645,
				0.028927583247423172,
				0.07783220708370209
			],
			"min":[
				-0.02965383604168892,
				-0.09400182217359543,
				-0.04040476679801941
			],
			"type":"VEC3"
		},
		{
			"bufferView":1,
			"componentType":5126,
			"count":103,
			"type":"VEC3"
		},
		{
			"bufferView":2,
			"componentType":5126,
			"count":103,
			"type":"VEC2"
		},
		{
			"bufferView":3,
			"componentType":5126,
			"count":103,
			"type":"VEC2"
		},
		{
			"bufferView":4,
			"componentType":5126,
			"count":103,
			"type":"VEC3"
		},
		{
			"bufferView":5,
			"componentType":5123,
			"count":222,
			"type":"SCALAR"
		},
		{
			"bufferView":6,
			"componentType":5126,
			"count":263,
			"max":[
				0.08035510033369064,
				0.15967559814453125,
				0.1954459846019745
			],
			"min":[
				-0.08035511523485184,
				-0.06724172085523605,
				-0.05565185472369194
			],
			"type":"VEC3"
		},
		{
			"bufferView":7,
			"componentType":5126,
			"count":263,
			"type":"VEC3"
		},
		{
			"bufferView":8,
			"componentType":5126,
			"count":263,
			"type":"VEC2"
		},
		{
			"bufferView":9,
			"componentType":5126,
			"count":263,
			"type":"VEC2"
		},
		{
			"bufferView":10,
			"componentType":5126,
			"count":263,
			"type":"VEC3"
		},
		{
			"bufferView":11,
			"componentType":5123,
			"count":552,
			"type":"SCALAR"
		},
		{
			"bufferView":12,
			"componentType":5126,
			"count":144,
			"max":[
				0.02899116836488247,
				0.25248992443084717,
				0.05161741375923157
			],
			"min":[
				-0.03202264383435249,
				-0.048035409301519394,
				-0.08810770511627197
			],
			"type":"VEC3"
		},
		{
			"bufferView":13,
			"componentType":5126,
			"count":144,
			"type":"VEC3"
		},
		{
			"bufferView":14,
			"componentType":5126,
			"count":144,
			"type":"VEC2"
		},
		{
			"bufferView":15,
			"componentType":5126,
			"count":144,
			"type":"VEC2"
		},
		{
			"bufferView":16,
			"componentType":5126,
			"count":144,
			"type":"VEC3"
		},
		{
			"bufferView":17,
			"componentType":5123,
			"count":276,
			"type":"SCALAR"
		},
		{
			"bufferView":18,
			"componentType":5126,
			"count":24,
			"max":[
				0.0003172088472638279,
				0.09596884250640869,
				0.17471718788146973
			],
			"min":[
				-0.0004599935782607645,
				0,
				-0.17471718788146973
			],
			"type":"VEC3"
		},
		{
			"bufferView":19,
			"componentType":5126,
			"count":24,
			"type":"VEC3"
		},
		{
			"bufferView":20,
			"componentType":5126,
			"count":24,
			"type":"VEC2"
		},
		{
			"bufferView":21,
			"componentType":5126,
			"count":24,
			"type":"VEC2"
		},
		{
			"bufferView":22,
			"componentType":5126,
			"count":24,
			"type":"VEC3"
		},
		{
			"bufferView":23,
			"componentType":5123,
			"count":36,
			"type":"SCALAR"
		},
		{
			"bufferView":24,
			"componentType":5126,
			"count":110,
			"max":[
				0.18376077711582184,
				0.2000831812620163,
				-0.0019374378025531769
			],
			"min":[
				-0.18376080691814423,
				0.16425620019435883,
				-0.18388783931732178
			],
			"type":"VEC3"
		},
		{
			"bufferView":25,
			"componentType":5126,
			"count":110,
			"type":"VEC3"
		},
		{
			"bufferView":26,
			"componentType":5126,
			"count":110,
			"type":"VEC2"
		},
		{
			"bufferView":27,
			"componentType":5126,
			"count":110,
			"type":"VEC2"
		},
		{
			"bufferView":28,
			"componentType":5126,
			"count":110,
			"type":"VEC3"
		},
		{
			"bufferView":29,
			"componentType":5123,
			"count":372,
			"type":"SCALAR"
		},
		{
			"bufferView":30,
			"componentType":5126,
			"count":95,
			"max":[
				0.18399818241596222,
				0.20008328557014465,
				0.18412916362285614
			],
			"min":[
				-0.18399818241596222,
				0.16425633430480957,
				-0.0019363340688869357
			],
			"type":"VEC3"
		},
		{
			"bufferView":31,
			"componentType":5126,
			"count":95,
			"type":"VEC3"
		},
		{
			"bufferView":32,
			"componentType":5126,
			"count":95,
			"type":"VEC2"
		},
		{
			"bufferView":33,
			"componentType":5126,
			"count":95,
			"type":"VEC2"
		},
		{
			"bufferView":34,
			"componentType":5126,
			"count":95,
			"type":"VEC3"
		},
		{
			"bufferView":35,
			"componentType":5123,
			"count":246,
			"type":"SCALAR"
		},
		{
			"bufferView":36,
			"componentType":5126,
			"count":1587,
			"max":[
				0.5003241300582886,
				0.4075314402580261,
				0.3748382031917572
			],
			"min":[
				-0.5003241300582886,
				-0.00011139188427478075,
				-0.4788324236869812
			],
			"type":"VEC3"
		},
		{
			"bufferView":37,
			"componentType":5126,
			"count":1587,
			"type":"VEC3"
		},
		{
			"bufferView":38,
			"componentType":5126,
			"count":1587,
			"type":"VEC2"
		},
		{
			"bufferView":39,
			"componentType":5126,
			"count":1587,
			"type":"VEC2"
		},
		{
			"bufferView":40,
			"componentType":5123,
			"count":4212,
			"type":"SCALAR"
		},
		{
			"bufferView":41,
			"componentType":5126,
			"count":169,
			"max":[
				0.008584590628743172,
				0.17410312592983246,
				2.6966400668015922e-08
			],
			"min":[
				-0.008584590628743172,
				-0.17410314083099365,
				-0.09665010869503021
			],
			"type":"VEC3"
		},
		{
			"bufferView":42,
			"componentType":5126,
			"count":169,
			"type":"VEC3"
		},
		{
			"bufferView":43,
			"componentType":5126,
			"count":169,
			"type":"VEC2"
		},
		{
			"bufferView":44,
			"componentType":5126,
			"count":169,
			"type":"VEC2"
		},
		{
			"bufferView":45,
			"componentType":5123,
			"count":564,
			"type":"SCALAR"
		}
	],
	"bufferViews":[
		{
			"buffer":0,
			"byteLength":1236,
			"byteOffset":0,
			"target":34962
		},
		{
			"buffer":0,
			"byteLength":1236,
			"byteOffset":1236,
			"target":34962
		},
		{
			"buffer":0,
			"byteLength":824,
			"byteOffset":2472,
			"target":34962
		},
		{
			"buffer":0,
			"byteLength":824,
			"byteOffset":3296,
			"target":34962
		},
		{
			"buffer":0,
			"byteLength":1236,
			"byteOffset":4120,
			"target":34962
		},
		{
			"buffer":0,
			"byteLength":444,
			"byteOffset":5356,
			"target":34963
		},
		{
			"buffer":0,
			"byteLength":3156,
			"byteOffset":5800,
			"target":34962
		},
		{
			"buffer":0,
			"byteLength":3156,
			"byteOffset":8956,
			"target":34962
		},
		{
			"buffer":0,
			"byteLength":2104,
			"byteOffset":12112,
			"target":34962
		},
		{
			"buffer":0,
			"byteLength":2104,
			"byteOffset":14216,
			"target":34962
		},
		{
			"buffer":0,
			"byteLength":3156,
			"byteOffset":16320,
			"target":34962
		},
		{
			"buffer":0,
			"byteLength":1104,
			"byteOffset":19476,
			"target":34963
		},
		{
			"buffer":0,
			"byteLength":1728,
			"byteOffset":20580,
			"target":34962
		},
		{
			"buffer":0,
			"byteLength":1728,
			"byteOffset":22308,
			"target":34962
		},
		{
			"buffer":0,
			"byteLength":1152,
			"byteOffset":24036,
			"target":34962
		},
		{
			"buffer":0,
			"byteLength":1152,
			"byteOffset":25188,
			"target":34962
		},
		{
			"buffer":0,
			"byteLength":1728,
			"byteOffset":26340,
			"target":34962
		},
		{
			"buffer":0,
			"byteLength":552,
			"byteOffset":28068,
			"target":34963
		},
		{
			"buffer":0,
			"byteLength":288,
			"byteOffset":28620,
			"target":34962
		},
		{
			"buffer":0,
			"byteLength":288,
			"byteOffset":28908,
			"target":34962
		},
		{
			"buffer":0,
			"byteLength":192,
			"byteOffset":29196,
			"target":34962
		},
		{
			"buffer":0,
			"byteLength":192,
			"byteOffset":29388,
			"target":34962
		},
		{
			"buffer":0,
			"byteLength":288,
			"byteOffset":29580,
			"target":34962
		},
		{
			"buffer":0,
			"byteLength":72,
			"byteOffset":29868,
			"target":34963
		},
		{
			"buffer":0,
			"byteLength":1320,
			"byteOffset":29940,
			"target":34962
		},
		{
			"buffer":0,
			"byteLength":1320,
			"byteOffset":31260,
			"target":34962
		},
		{
			"buffer":0,
			"byteLength":880,
			"byteOffset":32580,
			"target":34962
		},
		{
			"buffer":0,
			"byteLength":880,
			"byteOffset":33460,
			"target":34962
		},
		{
			"buffer":0,
			"byteLength":1320,
			"byteOffset":34340,
			"target":34962
		},
		{
			"buffer":0,
			"byteLength":744,
			"byteOffset":35660,
			"target":34963
		},
		{
			"buffer":0,
			"byteLength":1140,
			"byteOffset":36404,
			"target":34962
		},
		{
			"buffer":0,
			"byteLength":1140,
			"byteOffset":37544,
			"target":34962
		},
		{
			"buffer":0,
			"byteLength":760,
			"byteOffset":38684,
			"target":34962
		},
		{
			"buffer":0,
			"byteLength":760,
			"byteOffset":39444,
			"target":34962
		},
		{
			"buffer":0,
			"byteLength":1140,
			"byteOffset":40204,
			"target":34962
		},
		{
			"buffer":0,
			"byteLength":492,
			"byteOffset":41344,
			"target":34963
		},
		{
			"buffer":0,
			"byteLength":19044,
			"byteOffset":41836,
			"target":34962
		},
		{
			"buffer":0,
			"byteLength":19044,
			"byteOffset":60880,
			"target":34962
		},
		{
			"buffer":0,
			"byteLength":12696,
			"byteOffset":79924,
			"target":34962
		},
		{
			"buffer":0,
			"byteLength":12696,
			"byteOffset":92620,
			"target":34962
		},
		{
			"buffer":0,
			"byteLength":8424,
			"byteOffset":105316,
			"target":34963
		},
		{
			"buffer":0,
			"byteLength":2028,
			"byteOffset":113740,
			"target":34962
		},
		{
			"buffer":0,
			"byteLength":2028,
			"byteOffset":115768,
			"target":34962
		},
		{
			"buffer":0,
			"byteLength":1352,
			"byteOffset":117796,
			"target":34962
		},
		{
			"buffer":0,
			"byteLength":1352,
			"byteOffset":119148,
			"target":34962
		},
		{
			"buffer":0,
			"byteLength":1128,
			"byteOffset":120500,
			"target":34963
		}
	],
	"buffers":[
		{
			"byteLength":121628,
			"uri":"CutterHalfInternalVariant.bin"
		}
	]
}
