{
	"asset":{
		"generator":"Khronos glTF Blender I/O v4.1.63",
		"version":"2.0"
	},
	"scene":0,
	"scenes":[
		{
			"name":"Scene",
			"nodes":[
				0,
				1,
				2
			]
		}
	],
	"nodes":[
		{
			"mesh":0,
			"name":"Extractor_Default_Main_LOD0"
		},
		{
			"mesh":1,
			"name":"Extractor_Default_Glass_LOD0"
		},
		{
			"mesh":2,
			"name":"Extractor_Default_Pusher_LOD0"
		}
	],
	"meshes":[
		{
			"name":"Cube.519",
			"primitives":[
				{
					"attributes":{
						"POSITION":0,
						"NORMAL":1,
						"TEXCOORD_0":2,
						"TEXCOORD_1":3,
						"COLOR_0":4
					},
					"indices":5
				}
			]
		},
		{
			"name":"Cube.010",
			"primitives":[
				{
					"attributes":{
						"POSITION":6,
						"NORMAL":7,
						"TEXCOORD_0":8,
						"TEXCOORD_1":9,
						"COLOR_0":10
					},
					"indices":11
				}
			]
		},
		{
			"name":"Cube.013",
			"primitives":[
				{
					"attributes":{
						"POSITION":12,
						"NORMAL":13,
						"TEXCOORD_0":14,
						"TEXCOORD_1":15,
						"COLOR_0":16
					},
					"indices":17
				}
			]
		}
	],
	"accessors":[
		{
			"bufferView":0,
			"componentType":5126,
			"count":3589,
			"max":[
				0.38243162631988525,
				0.3364464342594147,
				0.39093130826950073
			],
			"min":[
				-0.5001149773597717,
				-2.1450634002685547,
				-0.39093130826950073
			],
			"type":"VEC3"
		},
		{
			"bufferView":1,
			"componentType":5126,
			"count":3589,
			"type":"VEC3"
		},
		{
			"bufferView":2,
			"componentType":5126,
			"count":3589,
			"type":"VEC2"
		},
		{
			"bufferView":3,
			"componentType":5126,
			"count":3589,
			"type":"VEC2"
		},
		{
			"bufferView":4,
			"componentType":5126,
			"count":3589,
			"type":"VEC3"
		},
		{
			"bufferView":5,
			"componentType":5123,
			"count":8826,
			"type":"SCALAR"
		},
		{
			"bufferView":6,
			"componentType":5126,
			"count":64,
			"max":[
				0.194309264421463,
				-0.15552353858947754,
				0.19464340806007385
			],
			"min":[
				-0.19497767090797424,
				-2.1450634002685547,
				-0.19464367628097534
			],
			"type":"VEC3"
		},
		{
			"bufferView":7,
			"componentType":5126,
			"count":64,
			"type":"VEC3"
		},
		{
			"bufferView":8,
			"componentType":5126,
			"count":64,
			"type":"VEC2"
		},
		{
			"bufferView":9,
			"componentType":5126,
			"count":64,
			"type":"VEC2"
		},
		{
			"bufferView":10,
			"componentType":5126,
			"count":64,
			"type":"VEC3"
		},
		{
			"bufferView":11,
			"componentType":5123,
			"count":192,
			"type":"SCALAR"
		},
		{
			"bufferView":12,
			"componentType":5126,
			"count":24,
			"max":[
				-0.08689039945602417,
				0.26057279109954834,
				0.3251204192638397
			],
			"min":[
				-0.1763303279876709,
				0.23492155969142914,
				-0.3251202404499054
			],
			"type":"VEC3"
		},
		{
			"bufferView":13,
			"componentType":5126,
			"count":24,
			"type":"VEC3"
		},
		{
			"bufferView":14,
			"componentType":5126,
			"count":24,
			"type":"VEC2"
		},
		{
			"bufferView":15,
			"componentType":5126,
			"count":24,
			"type":"VEC2"
		},
		{
			"bufferView":16,
			"componentType":5126,
			"count":24,
			"type":"VEC3"
		},
		{
			"bufferView":17,
			"componentType":5123,
			"count":36,
			"type":"SCALAR"
		}
	],
	"bufferViews":[
		{
			"buffer":0,
			"byteLength":43068,
			"byteOffset":0,
			"target":34962
		},
		{
			"buffer":0,
			"byteLength":43068,
			"byteOffset":43068,
			"target":34962
		},
		{
			"buffer":0,
			"byteLength":28712,
			"byteOffset":86136,
			"target":34962
		},
		{
			"buffer":0,
			"byteLength":28712,
			"byteOffset":114848,
			"target":34962
		},
		{
			"buffer":0,
			"byteLength":43068,
			"byteOffset":143560,
			"target":34962
		},
		{
			"buffer":0,
			"byteLength":17652,
			"byteOffset":186628,
			"target":34963
		},
		{
			"buffer":0,
			"byteLength":768,
			"byteOffset":204280,
			"target":34962
		},
		{
			"buffer":0,
			"byteLength":768,
			"byteOffset":205048,
			"target":34962
		},
		{
			"buffer":0,
			"byteLength":512,
			"byteOffset":205816,
			"target":34962
		},
		{
			"buffer":0,
			"byteLength":512,
			"byteOffset":206328,
			"target":34962
		},
		{
			"buffer":0,
			"byteLength":768,
			"byteOffset":206840,
			"target":34962
		},
		{
			"buffer":0,
			"byteLength":384,
			"byteOffset":207608,
			"target":34963
		},
		{
			"buffer":0,
			"byteLength":288,
			"byteOffset":207992,
			"target":34962
		},
		{
			"buffer":0,
			"byteLength":288,
			"byteOffset":208280,
			"target":34962
		},
		{
			"buffer":0,
			"byteLength":192,
			"byteOffset":208568,
			"target":34962
		},
		{
			"buffer":0,
			"byteLength":192,
			"byteOffset":208760,
			"target":34962
		},
		{
			"buffer":0,
			"byteLength":288,
			"byteOffset":208952,
			"target":34962
		},
		{
			"buffer":0,
			"byteLength":72,
			"byteOffset":209240,
			"target":34963
		}
	],
	"buffers":[
		{
			"byteLength":209312,
			"uri":"ExtractorDefaultInternalVariant.bin"
		}
	]
}
