{
	"asset":{
		"generator":"Khronos glTF Blender I/O v4.1.63",
		"version":"2.0"
	},
	"scene":0,
	"scenes":[
		{
			"name":"Scene",
			"nodes":[
				0,
				1
			]
		}
	],
	"nodes":[
		{
			"mesh":0,
			"name":"BeltPort_Receiver_Main_LOD0.001"
		},
		{
			"mesh":1,
			"name":"FluidBridgeReceiver_Container_Glass"
		}
	],
	"meshes":[
		{
			"name":"Cube.042",
			"primitives":[
				{
					"attributes":{
						"POSITION":0,
						"NORMAL":1,
						"TEXCOORD_0":2,
						"TEXCOORD_1":3,
						"COLOR_0":4
					},
					"indices":5
				}
			]
		},
		{
			"name":"Circle.009",
			"primitives":[
				{
					"attributes":{
						"POSITION":6,
						"NORMAL":7,
						"TEXCOORD_0":8
					},
					"indices":9
				}
			]
		}
	],
	"accessors":[
		{
			"bufferView":0,
			"componentType":5126,
			"count":1384,
			"max":[
				0.4985332489013672,
				0.7023341059684753,
				0.3315539062023163
			],
			"min":[
				-0.5044192671775818,
				0.005179613828659058,
				-0.33155375719070435
			],
			"type":"VEC3"
		},
		{
			"bufferView":1,
			"componentType":5126,
			"count":1384,
			"type":"VEC3"
		},
		{
			"bufferView":2,
			"componentType":5126,
			"count":1384,
			"type":"VEC2"
		},
		{
			"bufferView":3,
			"componentType":5126,
			"count":1384,
			"type":"VEC2"
		},
		{
			"bufferView":4,
			"componentType":5126,
			"count":1384,
			"type":"VEC3"
		},
		{
			"bufferView":5,
			"componentType":5123,
			"count":4074,
			"type":"SCALAR"
		},
		{
			"bufferView":6,
			"componentType":5126,
			"count":226,
			"max":[
				-0.23991212248802185,
				0.9861072897911072,
				0.2574723958969116
			],
			"min":[
				-0.5506411790847778,
				0.0748550221323967,
				-0.23253066837787628
			],
			"type":"VEC3"
		},
		{
			"bufferView":7,
			"componentType":5126,
			"count":226,
			"type":"VEC3"
		},
		{
			"bufferView":8,
			"componentType":5126,
			"count":226,
			"type":"VEC2"
		},
		{
			"bufferView":9,
			"componentType":5123,
			"count":1344,
			"type":"SCALAR"
		}
	],
	"bufferViews":[
		{
			"buffer":0,
			"byteLength":16608,
			"byteOffset":0,
			"target":34962
		},
		{
			"buffer":0,
			"byteLength":16608,
			"byteOffset":16608,
			"target":34962
		},
		{
			"buffer":0,
			"byteLength":11072,
			"byteOffset":33216,
			"target":34962
		},
		{
			"buffer":0,
			"byteLength":11072,
			"byteOffset":44288,
			"target":34962
		},
		{
			"buffer":0,
			"byteLength":16608,
			"byteOffset":55360,
			"target":34962
		},
		{
			"buffer":0,
			"byteLength":8148,
			"byteOffset":71968,
			"target":34963
		},
		{
			"buffer":0,
			"byteLength":2712,
			"byteOffset":80116,
			"target":34962
		},
		{
			"buffer":0,
			"byteLength":2712,
			"byteOffset":82828,
			"target":34962
		},
		{
			"buffer":0,
			"byteLength":1808,
			"byteOffset":85540,
			"target":34962
		},
		{
			"buffer":0,
			"byteLength":2688,
			"byteOffset":87348,
			"target":34963
		}
	],
	"buffers":[
		{
			"byteLength":90036,
			"uri":"FluidPortReceiverInternalVariant.bin"
		}
	]
}
