{
	"asset":{
		"generator":"Khronos glTF Blender I/O v4.1.63",
		"version":"2.0"
	},
	"scene":0,
	"scenes":[
		{
			"name":"Scene",
			"nodes":[
				0,
				1,
				2
			]
		}
	],
	"nodes":[
		{
			"mesh":0,
			"name":"HalvesSwapper_Default_Laser_LOD0"
		},
		{
			"mesh":1,
			"name":"HalvesSwapper_Default_Main_LOD0"
		},
		{
			"mesh":2,
			"name":"HalvesSwapper_Default_Ribbon_LOD0",
			"scale":[
				1,
				0.9999951124191284,
				1
			],
			"translation":[
				0,
				0.20000000298023224,
				0
			]
		}
	],
	"meshes":[
		{
			"name":"Cube",
			"primitives":[
				{
					"attributes":{
						"POSITION":0,
						"NORMAL":1,
						"TEXCOORD_0":2,
						"TEXCOORD_1":3,
						"COLOR_0":4
					},
					"indices":5
				}
			]
		},
		{
			"name":"Mesh.002",
			"primitives":[
				{
					"attributes":{
						"POSITION":6,
						"NORMAL":7,
						"TEXCOORD_0":8,
						"TEXCOORD_1":9,
						"COLOR_0":10
					},
					"indices":11
				}
			]
		},
		{
			"name":"Mesh.706",
			"primitives":[
				{
					"attributes":{
						"POSITION":12,
						"NORMAL":13,
						"TEXCOORD_0":14,
						"TEXCOORD_1":15,
						"COLOR_0":16
					},
					"indices":17
				}
			]
		}
	],
	"accessors":[
		{
			"bufferView":0,
			"componentType":5126,
			"count":24,
			"max":[
				0.0003172088472638279,
				0.09596884250640869,
				0.17471718788146973
			],
			"min":[
				-0.0004599935782607645,
				0,
				-0.17471718788146973
			],
			"type":"VEC3"
		},
		{
			"bufferView":1,
			"componentType":5126,
			"count":24,
			"type":"VEC3"
		},
		{
			"bufferView":2,
			"componentType":5126,
			"count":24,
			"type":"VEC2"
		},
		{
			"bufferView":3,
			"componentType":5126,
			"count":24,
			"type":"VEC2"
		},
		{
			"bufferView":4,
			"componentType":5126,
			"count":24,
			"type":"VEC3"
		},
		{
			"bufferView":5,
			"componentType":5123,
			"count":36,
			"type":"SCALAR"
		},
		{
			"bufferView":6,
			"componentType":5126,
			"count":4688,
			"max":[
				0.5019574165344238,
				0.2600000202655792,
				1.4375287294387817
			],
			"min":[
				-0.5012388229370117,
				-0.01916566863656044,
				-0.43752872943878174
			],
			"type":"VEC3"
		},
		{
			"bufferView":7,
			"componentType":5126,
			"count":4688,
			"type":"VEC3"
		},
		{
			"bufferView":8,
			"componentType":5126,
			"count":4688,
			"type":"VEC2"
		},
		{
			"bufferView":9,
			"componentType":5126,
			"count":4688,
			"type":"VEC2"
		},
		{
			"bufferView":10,
			"componentType":5126,
			"count":4688,
			"type":"VEC3"
		},
		{
			"bufferView":11,
			"componentType":5123,
			"count":13530,
			"type":"SCALAR"
		},
		{
			"bufferView":12,
			"componentType":5126,
			"count":668,
			"max":[
				0.2894022464752197,
				0.012678055092692375,
				1.2931336164474487
			],
			"min":[
				-0.2894022464752197,
				-0.08888803422451019,
				-0.293133944272995
			],
			"type":"VEC3"
		},
		{
			"bufferView":13,
			"componentType":5126,
			"count":668,
			"type":"VEC3"
		},
		{
			"bufferView":14,
			"componentType":5126,
			"count":668,
			"type":"VEC2"
		},
		{
			"bufferView":15,
			"componentType":5126,
			"count":668,
			"type":"VEC2"
		},
		{
			"bufferView":16,
			"componentType":5126,
			"count":668,
			"type":"VEC3"
		},
		{
			"bufferView":17,
			"componentType":5123,
			"count":1650,
			"type":"SCALAR"
		}
	],
	"bufferViews":[
		{
			"buffer":0,
			"byteLength":288,
			"byteOffset":0,
			"target":34962
		},
		{
			"buffer":0,
			"byteLength":288,
			"byteOffset":288,
			"target":34962
		},
		{
			"buffer":0,
			"byteLength":192,
			"byteOffset":576,
			"target":34962
		},
		{
			"buffer":0,
			"byteLength":192,
			"byteOffset":768,
			"target":34962
		},
		{
			"buffer":0,
			"byteLength":288,
			"byteOffset":960,
			"target":34962
		},
		{
			"buffer":0,
			"byteLength":72,
			"byteOffset":1248,
			"target":34963
		},
		{
			"buffer":0,
			"byteLength":56256,
			"byteOffset":1320,
			"target":34962
		},
		{
			"buffer":0,
			"byteLength":56256,
			"byteOffset":57576,
			"target":34962
		},
		{
			"buffer":0,
			"byteLength":37504,
			"byteOffset":113832,
			"target":34962
		},
		{
			"buffer":0,
			"byteLength":37504,
			"byteOffset":151336,
			"target":34962
		},
		{
			"buffer":0,
			"byteLength":56256,
			"byteOffset":188840,
			"target":34962
		},
		{
			"buffer":0,
			"byteLength":27060,
			"byteOffset":245096,
			"target":34963
		},
		{
			"buffer":0,
			"byteLength":8016,
			"byteOffset":272156,
			"target":34962
		},
		{
			"buffer":0,
			"byteLength":8016,
			"byteOffset":280172,
			"target":34962
		},
		{
			"buffer":0,
			"byteLength":5344,
			"byteOffset":288188,
			"target":34962
		},
		{
			"buffer":0,
			"byteLength":5344,
			"byteOffset":293532,
			"target":34962
		},
		{
			"buffer":0,
			"byteLength":8016,
			"byteOffset":298876,
			"target":34962
		},
		{
			"buffer":0,
			"byteLength":3300,
			"byteOffset":306892,
			"target":34963
		}
	],
	"buffers":[
		{
			"byteLength":310192,
			"uri":"HalvesSwapperDefaultInternalVariant.bin"
		}
	]
}
