{
	"asset":{
		"generator":"Khronos glTF Blender I/O v4.1.63",
		"version":"2.0"
	},
	"scene":0,
	"scenes":[
		{
			"name":"Scene",
			"nodes":[
				0
			]
		}
	],
	"nodes":[
		{
			"mesh":0,
			"name":"Lift_Input_Layer0_LOD0.001"
		}
	],
	"meshes":[
		{
			"name":"Cube.001",
			"primitives":[
				{
					"attributes":{
						"POSITION":0,
						"NORMAL":1,
						"TEXCOORD_0":2,
						"TEXCOORD_1":3,
						"COLOR_0":4
					},
					"indices":5
				}
			]
		}
	],
	"accessors":[
		{
			"bufferView":0,
			"componentType":5126,
			"count":3446,
			"max":[
				0.5009999871253967,
				1.2781810760498047,
				0.4957185983657837
			],
			"min":[
				-0.5009999871253967,
				-4.842877388000488e-08,
				-0.4957185983657837
			],
			"type":"VEC3"
		},
		{
			"bufferView":1,
			"componentType":5126,
			"count":3446,
			"type":"VEC3"
		},
		{
			"bufferView":2,
			"componentType":5126,
			"count":3446,
			"type":"VEC2"
		},
		{
			"bufferView":3,
			"componentType":5126,
			"count":3446,
			"type":"VEC2"
		},
		{
			"bufferView":4,
			"componentType":5126,
			"count":3446,
			"type":"VEC3"
		},
		{
			"bufferView":5,
			"componentType":5123,
			"count":8808,
			"type":"SCALAR"
		}
	],
	"bufferViews":[
		{
			"buffer":0,
			"byteLength":41352,
			"byteOffset":0,
			"target":34962
		},
		{
			"buffer":0,
			"byteLength":41352,
			"byteOffset":41352,
			"target":34962
		},
		{
			"buffer":0,
			"byteLength":27568,
			"byteOffset":82704,
			"target":34962
		},
		{
			"buffer":0,
			"byteLength":27568,
			"byteOffset":110272,
			"target":34962
		},
		{
			"buffer":0,
			"byteLength":41352,
			"byteOffset":137840,
			"target":34962
		},
		{
			"buffer":0,
			"byteLength":17616,
			"byteOffset":179192,
			"target":34963
		}
	],
	"buffers":[
		{
			"byteLength":196808,
			"uri":"Lift1UpForwardInternalVariant_Layer0.bin"
		}
	]
}
