{
	"asset":{
		"generator":"Khronos glTF Blender I/O v4.1.63",
		"version":"2.0"
	},
	"scene":0,
	"scenes":[
		{
			"name":"Scene",
			"nodes":[
				0
			]
		}
	],
	"nodes":[
		{
			"mesh":0,
			"name":"Lift_2DownForward_Layer0_LOD0",
			"rotation":[
				0,
				-1,
				0,
				1.6292068494294654e-07
			]
		}
	],
	"meshes":[
		{
			"name":"Cube.003",
			"primitives":[
				{
					"attributes":{
						"POSITION":0,
						"NORMAL":1,
						"TEXCOORD_0":2,
						"TEXCOORD_1":3,
						"TEXCOORD_2":4,
						"COLOR_0":5
					},
					"indices":6
				}
			]
		}
	],
	"accessors":[
		{
			"bufferView":0,
			"componentType":5126,
			"count":2364,
			"max":[
				0.5010000467300415,
				0.2680619955062866,
				0.48021435737609863
			],
			"min":[
				-0.5010000467300415,
				-2,
				-0.48021435737609863
			],
			"type":"VEC3"
		},
		{
			"bufferView":1,
			"componentType":5126,
			"count":2364,
			"type":"VEC3"
		},
		{
			"bufferView":2,
			"componentType":5126,
			"count":2364,
			"type":"VEC2"
		},
		{
			"bufferView":3,
			"componentType":5126,
			"count":2364,
			"type":"VEC2"
		},
		{
			"bufferView":4,
			"componentType":5126,
			"count":2364,
			"type":"VEC2"
		},
		{
			"bufferView":5,
			"componentType":5126,
			"count":2364,
			"type":"VEC3"
		},
		{
			"bufferView":6,
			"componentType":5123,
			"count":6819,
			"type":"SCALAR"
		}
	],
	"bufferViews":[
		{
			"buffer":0,
			"byteLength":28368,
			"byteOffset":0,
			"target":34962
		},
		{
			"buffer":0,
			"byteLength":28368,
			"byteOffset":28368,
			"target":34962
		},
		{
			"buffer":0,
			"byteLength":18912,
			"byteOffset":56736,
			"target":34962
		},
		{
			"buffer":0,
			"byteLength":18912,
			"byteOffset":75648,
			"target":34962
		},
		{
			"buffer":0,
			"byteLength":18912,
			"byteOffset":94560,
			"target":34962
		},
		{
			"buffer":0,
			"byteLength":28368,
			"byteOffset":113472,
			"target":34962
		},
		{
			"buffer":0,
			"byteLength":13638,
			"byteOffset":141840,
			"target":34963
		}
	],
	"buffers":[
		{
			"byteLength":155480,
			"uri":"Lift2DownForwardInternalVariant.bin"
		}
	]
}
