{
	"asset":{
		"generator":"Khronos glTF Blender I/O v4.1.63",
		"version":"2.0"
	},
	"scene":0,
	"scenes":[
		{
			"name":"Scene",
			"nodes":[
				0
			]
		}
	],
	"nodes":[
		{
			"mesh":0,
			"name":"Lift_2UpForward_Layer0_LOD0"
		}
	],
	"meshes":[
		{
			"name":"Cube.011",
			"primitives":[
				{
					"attributes":{
						"POSITION":0,
						"NORMAL":1,
						"TEXCOORD_0":2,
						"TEXCOORD_1":3,
						"TEXCOORD_2":4,
						"COLOR_0":5
					},
					"indices":6
				}
			]
		}
	],
	"accessors":[
		{
			"bufferView":0,
			"componentType":5126,
			"count":1998,
			"max":[
				0.5009999871253967,
				2.2681689262390137,
				0.48021426796913147
			],
			"min":[
				-0.5009999871253967,
				-4.842877388000488e-08,
				-0.48021426796913147
			],
			"type":"VEC3"
		},
		{
			"bufferView":1,
			"componentType":5126,
			"count":1998,
			"type":"VEC3"
		},
		{
			"bufferView":2,
			"componentType":5126,
			"count":1998,
			"type":"VEC2"
		},
		{
			"bufferView":3,
			"componentType":5126,
			"count":1998,
			"type":"VEC2"
		},
		{
			"bufferView":4,
			"componentType":5126,
			"count":1998,
			"type":"VEC2"
		},
		{
			"bufferView":5,
			"componentType":5126,
			"count":1998,
			"type":"VEC3"
		},
		{
			"bufferView":6,
			"componentType":5123,
			"count":5190,
			"type":"SCALAR"
		}
	],
	"bufferViews":[
		{
			"buffer":0,
			"byteLength":23976,
			"byteOffset":0,
			"target":34962
		},
		{
			"buffer":0,
			"byteLength":23976,
			"byteOffset":23976,
			"target":34962
		},
		{
			"buffer":0,
			"byteLength":15984,
			"byteOffset":47952,
			"target":34962
		},
		{
			"buffer":0,
			"byteLength":15984,
			"byteOffset":63936,
			"target":34962
		},
		{
			"buffer":0,
			"byteLength":15984,
			"byteOffset":79920,
			"target":34962
		},
		{
			"buffer":0,
			"byteLength":23976,
			"byteOffset":95904,
			"target":34962
		},
		{
			"buffer":0,
			"byteLength":10380,
			"byteOffset":119880,
			"target":34963
		}
	],
	"buffers":[
		{
			"byteLength":130260,
			"uri":"Lift2UpForwardInternalVariant.bin"
		}
	]
}
