{
	"asset":{
		"generator":"Khronos glTF Blender I/O v4.1.63",
		"version":"2.0"
	},
	"scene":0,
	"scenes":[
		{
			"name":"Scene",
			"nodes":[
				0
			]
		}
	],
	"nodes":[
		{
			"mesh":0,
			"name":"Splitter_DefaultBorder_Layer1_LOD0",
			"rotation":[
				0,
				-1,
				0,
				4.371138828673793e-08
			]
		}
	],
	"meshes":[
		{
			"name":"Cube.041",
			"primitives":[
				{
					"attributes":{
						"POSITION":0,
						"NORMAL":1,
						"TEXCOORD_0":2,
						"TEXCOORD_1":3,
						"COLOR_0":4
					},
					"indices":5
				}
			]
		}
	],
	"accessors":[
		{
			"bufferView":0,
			"componentType":5126,
			"count":2189,
			"max":[
				0.5024776458740234,
				0.2819181978702545,
				0.2837962210178375
			],
			"min":[
				-0.5024776458740234,
				-0.027359575033187866,
				-0.5033760666847229
			],
			"type":"VEC3"
		},
		{
			"bufferView":1,
			"componentType":5126,
			"count":2189,
			"type":"VEC3"
		},
		{
			"bufferView":2,
			"componentType":5126,
			"count":2189,
			"type":"VEC2"
		},
		{
			"bufferView":3,
			"componentType":5126,
			"count":2189,
			"type":"VEC2"
		},
		{
			"bufferView":4,
			"componentType":5126,
			"count":2189,
			"type":"VEC3"
		},
		{
			"bufferView":5,
			"componentType":5123,
			"count":4788,
			"type":"SCALAR"
		}
	],
	"bufferViews":[
		{
			"buffer":0,
			"byteLength":26268,
			"byteOffset":0,
			"target":34962
		},
		{
			"buffer":0,
			"byteLength":26268,
			"byteOffset":26268,
			"target":34962
		},
		{
			"buffer":0,
			"byteLength":17512,
			"byteOffset":52536,
			"target":34962
		},
		{
			"buffer":0,
			"byteLength":17512,
			"byteOffset":70048,
			"target":34962
		},
		{
			"buffer":0,
			"byteLength":26268,
			"byteOffset":87560,
			"target":34962
		},
		{
			"buffer":0,
			"byteLength":9576,
			"byteOffset":113828,
			"target":34963
		}
	],
	"buffers":[
		{
			"byteLength":123404,
			"uri":"Merger2To1LInternalVariant_Layer1.bin"
		}
	]
}
