{
	"asset":{
		"generator":"Khronos glTF Blender I/O v4.1.63",
		"version":"2.0"
	},
	"scene":0,
	"scenes":[
		{
			"name":"Scene",
			"nodes":[
				0
			]
		}
	],
	"nodes":[
		{
			"mesh":0,
			"name":"Splitter_TBorder_Layer0_LOD0.002",
			"rotation":[
				0,
				-1,
				0,
				4.371138828673793e-08
			]
		}
	],
	"meshes":[
		{
			"name":"Cube.070",
			"primitives":[
				{
					"attributes":{
						"POSITION":0,
						"NORMAL":1,
						"TEXCOORD_0":2,
						"TEXCOORD_1":3,
						"COLOR_0":4
					},
					"indices":5
				}
			]
		}
	],
	"accessors":[
		{
			"bufferView":0,
			"componentType":5126,
			"count":945,
			"max":[
				0.5000000596046448,
				0.2819181978702545,
				0.500999927520752
			],
			"min":[
				-0.2840093672275543,
				1.9621366220690106e-07,
				-0.5008468627929688
			],
			"type":"VEC3"
		},
		{
			"bufferView":1,
			"componentType":5126,
			"count":945,
			"type":"VEC3"
		},
		{
			"bufferView":2,
			"componentType":5126,
			"count":945,
			"type":"VEC2"
		},
		{
			"bufferView":3,
			"componentType":5126,
			"count":945,
			"type":"VEC2"
		},
		{
			"bufferView":4,
			"componentType":5126,
			"count":945,
			"type":"VEC3"
		},
		{
			"bufferView":5,
			"componentType":5123,
			"count":1968,
			"type":"SCALAR"
		}
	],
	"bufferViews":[
		{
			"buffer":0,
			"byteLength":11340,
			"byteOffset":0,
			"target":34962
		},
		{
			"buffer":0,
			"byteLength":11340,
			"byteOffset":11340,
			"target":34962
		},
		{
			"buffer":0,
			"byteLength":7560,
			"byteOffset":22680,
			"target":34962
		},
		{
			"buffer":0,
			"byteLength":7560,
			"byteOffset":30240,
			"target":34962
		},
		{
			"buffer":0,
			"byteLength":11340,
			"byteOffset":37800,
			"target":34962
		},
		{
			"buffer":0,
			"byteLength":3936,
			"byteOffset":49140,
			"target":34963
		}
	],
	"buffers":[
		{
			"byteLength":53076,
			"uri":"MergerTShapeInternalVariant_Layer0.bin"
		}
	]
}
