{
	"asset":{
		"generator":"Khronos glTF Blender I/O v4.1.63",
		"version":"2.0"
	},
	"scene":0,
	"scenes":[
		{
			"name":"Scene",
			"nodes":[
				0,
				1,
				2
			]
		}
	],
	"nodes":[
		{
			"mesh":0,
			"name":"MixerFoundation",
			"rotation":[
				0,
				-1,
				0,
				1.6292068494294654e-07
			],
			"translation":[
				0,
				0.06659859418869019,
				0
			]
		},
		{
			"mesh":1,
			"name":"MixerGlas",
			"rotation":[
				0,
				-1,
				0,
				1.6292068494294654e-07
			],
			"translation":[
				0,
				0.06659859418869019,
				-0.01809486746788025
			]
		},
		{
			"mesh":2,
			"name":"MixerRotator",
			"rotation":[
				0,
				-1,
				0,
				1.6292068494294654e-07
			],
			"translation":[
				1,
				0.08659861236810684,
				-0.5180942416191101
			]
		}
	],
	"meshes":[
		{
			"name":"Cube.019",
			"primitives":[
				{
					"attributes":{
						"POSITION":0,
						"NORMAL":1,
						"TEXCOORD_0":2,
						"TEXCOORD_1":3,
						"COLOR_0":4
					},
					"indices":5
				}
			]
		},
		{
			"name":"Mesh.005",
			"primitives":[
				{
					"attributes":{
						"POSITION":6,
						"NORMAL":7,
						"TEXCOORD_0":8,
						"TEXCOORD_1":9,
						"COLOR_0":10
					},
					"indices":11
				}
			]
		},
		{
			"name":"Cylinder.001",
			"primitives":[
				{
					"attributes":{
						"POSITION":12,
						"NORMAL":13,
						"TEXCOORD_0":14
					},
					"indices":15
				}
			]
		}
	],
	"accessors":[
		{
			"bufferView":0,
			"componentType":5126,
			"count":5717,
			"max":[
				0.5000007152557373,
				0.8561632633209229,
				1.481806755065918
			],
			"min":[
				-2.500000476837158,
				-0.06659886240959167,
				-0.4819526970386505
			],
			"type":"VEC3"
		},
		{
			"bufferView":1,
			"componentType":5126,
			"count":5717,
			"type":"VEC3"
		},
		{
			"bufferView":2,
			"componentType":5126,
			"count":5717,
			"type":"VEC2"
		},
		{
			"bufferView":3,
			"componentType":5126,
			"count":5717,
			"type":"VEC2"
		},
		{
			"bufferView":4,
			"componentType":5126,
			"count":5717,
			"type":"VEC3"
		},
		{
			"bufferView":5,
			"componentType":5123,
			"count":17367,
			"type":"SCALAR"
		},
		{
			"bufferView":6,
			"componentType":5126,
			"count":571,
			"max":[
				0.3768375813961029,
				0.8297150731086731,
				1.3768373727798462
			],
			"min":[
				-2.3768374919891357,
				0.3656292259693146,
				-0.37683749198913574
			],
			"type":"VEC3"
		},
		{
			"bufferView":7,
			"componentType":5126,
			"count":571,
			"type":"VEC3"
		},
		{
			"bufferView":8,
			"componentType":5126,
			"count":571,
			"type":"VEC2"
		},
		{
			"bufferView":9,
			"componentType":5126,
			"count":571,
			"type":"VEC2"
		},
		{
			"bufferView":10,
			"componentType":5126,
			"count":571,
			"type":"VEC3"
		},
		{
			"bufferView":11,
			"componentType":5123,
			"count":1710,
			"type":"SCALAR"
		},
		{
			"bufferView":12,
			"componentType":5126,
			"count":101,
			"max":[
				0.514532744884491,
				0.7977001667022705,
				0.030779395252466202
			],
			"min":[
				-0.5162205696105957,
				-0.17811723053455353,
				-0.030779464170336723
			],
			"type":"VEC3"
		},
		{
			"bufferView":13,
			"componentType":5126,
			"count":101,
			"type":"VEC3"
		},
		{
			"bufferView":14,
			"componentType":5126,
			"count":101,
			"type":"VEC2"
		},
		{
			"bufferView":15,
			"componentType":5123,
			"count":324,
			"type":"SCALAR"
		}
	],
	"bufferViews":[
		{
			"buffer":0,
			"byteLength":68604,
			"byteOffset":0,
			"target":34962
		},
		{
			"buffer":0,
			"byteLength":68604,
			"byteOffset":68604,
			"target":34962
		},
		{
			"buffer":0,
			"byteLength":45736,
			"byteOffset":137208,
			"target":34962
		},
		{
			"buffer":0,
			"byteLength":45736,
			"byteOffset":182944,
			"target":34962
		},
		{
			"buffer":0,
			"byteLength":68604,
			"byteOffset":228680,
			"target":34962
		},
		{
			"buffer":0,
			"byteLength":34734,
			"byteOffset":297284,
			"target":34963
		},
		{
			"buffer":0,
			"byteLength":6852,
			"byteOffset":332020,
			"target":34962
		},
		{
			"buffer":0,
			"byteLength":6852,
			"byteOffset":338872,
			"target":34962
		},
		{
			"buffer":0,
			"byteLength":4568,
			"byteOffset":345724,
			"target":34962
		},
		{
			"buffer":0,
			"byteLength":4568,
			"byteOffset":350292,
			"target":34962
		},
		{
			"buffer":0,
			"byteLength":6852,
			"byteOffset":354860,
			"target":34962
		},
		{
			"buffer":0,
			"byteLength":3420,
			"byteOffset":361712,
			"target":34963
		},
		{
			"buffer":0,
			"byteLength":1212,
			"byteOffset":365132,
			"target":34962
		},
		{
			"buffer":0,
			"byteLength":1212,
			"byteOffset":366344,
			"target":34962
		},
		{
			"buffer":0,
			"byteLength":808,
			"byteOffset":367556,
			"target":34962
		},
		{
			"buffer":0,
			"byteLength":648,
			"byteOffset":368364,
			"target":34963
		}
	],
	"buffers":[
		{
			"byteLength":369012,
			"uri":"MixerDefaultInternalVariant.bin"
		}
	]
}
