{
	"asset":{
		"generator":"Khronos glTF Blender I/O v4.1.63",
		"version":"2.0"
	},
	"scene":0,
	"scenes":[
		{
			"name":"Scene",
			"nodes":[
				0,
				1
			]
		}
	],
	"nodes":[
		{
			"mesh":0,
			"name":"PipeBake_CrossJunction_Glas_LOD0.002"
		},
		{
			"mesh":1,
			"name":"PipeBake_CrossJunction_Solid1_LOD0.001"
		}
	],
	"meshes":[
		{
			"name":"Cylinder.008",
			"primitives":[
				{
					"attributes":{
						"POSITION":0,
						"NORMAL":1,
						"TEXCOORD_0":2
					},
					"indices":3
				}
			]
		},
		{
			"name":"Cylinder.010",
			"primitives":[
				{
					"attributes":{
						"POSITION":4,
						"NORMAL":5,
						"TEXCOORD_0":6,
						"TEXCOORD_1":7
					},
					"indices":8
				}
			]
		}
	],
	"accessors":[
		{
			"bufferView":0,
			"componentType":5126,
			"count":126,
			"max":[
				0.5000002980232239,
				0.3500000834465027,
				0.500000536441803
			],
			"min":[
				-0.5000002980232239,
				0.04999997466802597,
				-0.4999995231628418
			],
			"type":"VEC3"
		},
		{
			"bufferView":1,
			"componentType":5126,
			"count":126,
			"type":"VEC3"
		},
		{
			"bufferView":2,
			"componentType":5126,
			"count":126,
			"type":"VEC2"
		},
		{
			"bufferView":3,
			"componentType":5123,
			"count":390,
			"type":"SCALAR"
		},
		{
			"bufferView":4,
			"componentType":5126,
			"count":512,
			"max":[
				0.5000004172325134,
				0.31487855315208435,
				0.5000028610229492
			],
			"min":[
				-0.5000004172325134,
				0.051204863935709,
				-0.5000028610229492
			],
			"type":"VEC3"
		},
		{
			"bufferView":5,
			"componentType":5126,
			"count":512,
			"type":"VEC3"
		},
		{
			"bufferView":6,
			"componentType":5126,
			"count":512,
			"type":"VEC2"
		},
		{
			"bufferView":7,
			"componentType":5126,
			"count":512,
			"type":"VEC2"
		},
		{
			"bufferView":8,
			"componentType":5123,
			"count":768,
			"type":"SCALAR"
		}
	],
	"bufferViews":[
		{
			"buffer":0,
			"byteLength":1512,
			"byteOffset":0,
			"target":34962
		},
		{
			"buffer":0,
			"byteLength":1512,
			"byteOffset":1512,
			"target":34962
		},
		{
			"buffer":0,
			"byteLength":1008,
			"byteOffset":3024,
			"target":34962
		},
		{
			"buffer":0,
			"byteLength":780,
			"byteOffset":4032,
			"target":34963
		},
		{
			"buffer":0,
			"byteLength":6144,
			"byteOffset":4812,
			"target":34962
		},
		{
			"buffer":0,
			"byteLength":6144,
			"byteOffset":10956,
			"target":34962
		},
		{
			"buffer":0,
			"byteLength":4096,
			"byteOffset":17100,
			"target":34962
		},
		{
			"buffer":0,
			"byteLength":4096,
			"byteOffset":21196,
			"target":34962
		},
		{
			"buffer":0,
			"byteLength":1536,
			"byteOffset":25292,
			"target":34963
		}
	],
	"buffers":[
		{
			"byteLength":26828,
			"uri":"PipeCrossInternalVariant_Layer1.bin"
		}
	]
}
