{
	"asset":{
		"generator":"Khronos glTF Blender I/O v4.1.63",
		"version":"2.0"
	},
	"scene":0,
	"scenes":[
		{
			"name":"Scene",
			"nodes":[
				0,
				1
			]
		}
	],
	"nodes":[
		{
			"mesh":0,
			"name":"PipeBake_CrossJunction_Glas_LOD0.003"
		},
		{
			"mesh":1,
			"name":"PipeBake_CrossJunction_Solid0_LOD0.001"
		}
	],
	"meshes":[
		{
			"name":"Cylinder.009",
			"primitives":[
				{
					"attributes":{
						"POSITION":0,
						"NORMAL":1,
						"TEXCOORD_0":2
					},
					"indices":3
				}
			]
		},
		{
			"name":"Cylinder.011",
			"primitives":[
				{
					"attributes":{
						"POSITION":4,
						"NORMAL":5,
						"TEXCOORD_0":6,
						"TEXCOORD_1":7
					},
					"indices":8
				}
			]
		}
	],
	"accessors":[
		{
			"bufferView":0,
			"componentType":5126,
			"count":126,
			"max":[
				0.5000002980232239,
				0.3500000834465027,
				0.500000536441803
			],
			"min":[
				-0.5000002980232239,
				0.04999997466802597,
				-0.4999995231628418
			],
			"type":"VEC3"
		},
		{
			"bufferView":1,
			"componentType":5126,
			"count":126,
			"type":"VEC3"
		},
		{
			"bufferView":2,
			"componentType":5126,
			"count":126,
			"type":"VEC2"
		},
		{
			"bufferView":3,
			"componentType":5123,
			"count":390,
			"type":"SCALAR"
		},
		{
			"bufferView":4,
			"componentType":5126,
			"count":206,
			"max":[
				0.4999999701976776,
				0.20000001788139343,
				0.5
			],
			"min":[
				-0.4999999701976776,
				-0.001989165786653757,
				-0.5
			],
			"type":"VEC3"
		},
		{
			"bufferView":5,
			"componentType":5126,
			"count":206,
			"type":"VEC3"
		},
		{
			"bufferView":6,
			"componentType":5126,
			"count":206,
			"type":"VEC2"
		},
		{
			"bufferView":7,
			"componentType":5126,
			"count":206,
			"type":"VEC2"
		},
		{
			"bufferView":8,
			"componentType":5123,
			"count":456,
			"type":"SCALAR"
		}
	],
	"bufferViews":[
		{
			"buffer":0,
			"byteLength":1512,
			"byteOffset":0,
			"target":34962
		},
		{
			"buffer":0,
			"byteLength":1512,
			"byteOffset":1512,
			"target":34962
		},
		{
			"buffer":0,
			"byteLength":1008,
			"byteOffset":3024,
			"target":34962
		},
		{
			"buffer":0,
			"byteLength":780,
			"byteOffset":4032,
			"target":34963
		},
		{
			"buffer":0,
			"byteLength":2472,
			"byteOffset":4812,
			"target":34962
		},
		{
			"buffer":0,
			"byteLength":2472,
			"byteOffset":7284,
			"target":34962
		},
		{
			"buffer":0,
			"byteLength":1648,
			"byteOffset":9756,
			"target":34962
		},
		{
			"buffer":0,
			"byteLength":1648,
			"byteOffset":11404,
			"target":34962
		},
		{
			"buffer":0,
			"byteLength":912,
			"byteOffset":13052,
			"target":34963
		}
	],
	"buffers":[
		{
			"byteLength":13964,
			"uri":"PipeCrossInternalVariant_Layer0.bin"
		}
	]
}
