{
	"asset":{
		"generator":"Khronos glTF Blender I/O v4.1.63",
		"version":"2.0"
	},
	"scene":0,
	"scenes":[
		{
			"name":"Scene",
			"nodes":[
				0,
				1,
				2,
				3,
				4,
				5
			]
		}
	],
	"nodes":[
		{
			"mesh":0,
			"name":"PipeBake_SolidIn_Layer0_LOD0.002"
		},
		{
			"mesh":1,
			"name":"PipeBake_ForwardUp_Glas_LOD0.003"
		},
		{
			"mesh":2,
			"name":"PipeBake_Rotator_LOD0.003"
		},
		{
			"mesh":3,
			"name":"PipeBake_Pump_LOD0.003"
		},
		{
			"mesh":4,
			"name":"PipeBake_UpFoward_Glas_LOD0.003",
			"rotation":[
				0,
				0.7071068286895752,
				0,
				0.7071068286895752
			],
			"translation":[
				0,
				-1,
				0
			]
		},
		{
			"mesh":5,
			"name":"PipeBake_SolidOut_Layer1_LOD0.002",
			"rotation":[
				0,
				-0.7071065902709961,
				0,
				0.7071069478988647
			]
		}
	],
	"meshes":[
		{
			"name":"Mesh.014",
			"primitives":[
				{
					"attributes":{
						"POSITION":0,
						"NORMAL":1,
						"TEXCOORD_0":2,
						"TEXCOORD_1":3,
						"COLOR_0":4
					},
					"indices":5
				}
			]
		},
		{
			"name":"Cylinder.037",
			"primitives":[
				{
					"attributes":{
						"POSITION":6,
						"NORMAL":7,
						"TEXCOORD_0":8,
						"TEXCOORD_1":9,
						"COLOR_0":10
					},
					"indices":11
				}
			]
		},
		{
			"name":"Cylinder.036",
			"primitives":[
				{
					"attributes":{
						"POSITION":12,
						"NORMAL":13,
						"TEXCOORD_0":14,
						"TEXCOORD_1":15
					},
					"indices":16
				}
			]
		},
		{
			"name":"Mesh.012",
			"primitives":[
				{
					"attributes":{
						"POSITION":17,
						"NORMAL":18,
						"TEXCOORD_0":19,
						"TEXCOORD_1":20,
						"COLOR_0":21
					},
					"indices":22
				}
			]
		},
		{
			"name":"Cylinder.035",
			"primitives":[
				{
					"attributes":{
						"POSITION":23,
						"NORMAL":24,
						"TEXCOORD_0":25,
						"TEXCOORD_1":26,
						"COLOR_0":27
					},
					"indices":28
				}
			]
		},
		{
			"name":"Mesh.011",
			"primitives":[
				{
					"attributes":{
						"POSITION":29,
						"NORMAL":30,
						"TEXCOORD_0":31,
						"TEXCOORD_1":32,
						"COLOR_0":33
					},
					"indices":34
				}
			]
		}
	],
	"accessors":[
		{
			"bufferView":0,
			"componentType":5126,
			"count":286,
			"max":[
				0.5,
				0.43703630566596985,
				0.18407675623893738
			],
			"min":[
				-0.1845560371875763,
				3.725290298461914e-09,
				-0.18407675623893738
			],
			"type":"VEC3"
		},
		{
			"bufferView":1,
			"componentType":5126,
			"count":286,
			"type":"VEC3"
		},
		{
			"bufferView":2,
			"componentType":5126,
			"count":286,
			"type":"VEC2"
		},
		{
			"bufferView":3,
			"componentType":5126,
			"count":286,
			"type":"VEC2"
		},
		{
			"bufferView":4,
			"componentType":5126,
			"count":286,
			"type":"VEC3"
		},
		{
			"bufferView":5,
			"componentType":5123,
			"count":975,
			"type":"SCALAR"
		},
		{
			"bufferView":6,
			"componentType":5126,
			"count":160,
			"max":[
				0.5000002980232239,
				0.43815118074417114,
				0.15000464022159576
			],
			"min":[
				-0.14990437030792236,
				0.0499996542930603,
				-0.1500045359134674
			],
			"type":"VEC3"
		},
		{
			"bufferView":7,
			"componentType":5126,
			"count":160,
			"type":"VEC3"
		},
		{
			"bufferView":8,
			"componentType":5126,
			"count":160,
			"type":"VEC2"
		},
		{
			"bufferView":9,
			"componentType":5126,
			"count":160,
			"type":"VEC2"
		},
		{
			"bufferView":10,
			"componentType":5126,
			"count":160,
			"type":"VEC3"
		},
		{
			"bufferView":11,
			"componentType":5123,
			"count":864,
			"type":"SCALAR"
		},
		{
			"bufferView":12,
			"componentType":5126,
			"count":376,
			"max":[
				0.27681005001068115,
				0.7916924953460693,
				0.2971162497997284
			],
			"min":[
				-0.27681005001068115,
				0.5950703024864197,
				-0.2974473834037781
			],
			"type":"VEC3"
		},
		{
			"bufferView":13,
			"componentType":5126,
			"count":376,
			"type":"VEC3"
		},
		{
			"bufferView":14,
			"componentType":5126,
			"count":376,
			"type":"VEC2"
		},
		{
			"bufferView":15,
			"componentType":5126,
			"count":376,
			"type":"VEC2"
		},
		{
			"bufferView":16,
			"componentType":5123,
			"count":714,
			"type":"SCALAR"
		},
		{
			"bufferView":17,
			"componentType":5126,
			"count":946,
			"max":[
				0.5,
				0.9618488550186157,
				0.19413840770721436
			],
			"min":[
				-0.19198350608348846,
				0.4381510615348816,
				-0.19413840770721436
			],
			"type":"VEC3"
		},
		{
			"bufferView":18,
			"componentType":5126,
			"count":946,
			"type":"VEC3"
		},
		{
			"bufferView":19,
			"componentType":5126,
			"count":946,
			"type":"VEC2"
		},
		{
			"bufferView":20,
			"componentType":5126,
			"count":946,
			"type":"VEC2"
		},
		{
			"bufferView":21,
			"componentType":5126,
			"count":946,
			"type":"VEC3"
		},
		{
			"bufferView":22,
			"componentType":5123,
			"count":2484,
			"type":"SCALAR"
		},
		{
			"bufferView":23,
			"componentType":5126,
			"count":160,
			"max":[
				0.1499801129102707,
				2.3500003814697266,
				0.15000483393669128
			],
			"min":[
				-0.5000003576278687,
				1.9618490934371948,
				-0.15000268816947937
			],
			"type":"VEC3"
		},
		{
			"bufferView":24,
			"componentType":5126,
			"count":160,
			"type":"VEC3"
		},
		{
			"bufferView":25,
			"componentType":5126,
			"count":160,
			"type":"VEC2"
		},
		{
			"bufferView":26,
			"componentType":5126,
			"count":160,
			"type":"VEC2"
		},
		{
			"bufferView":27,
			"componentType":5126,
			"count":160,
			"type":"VEC3"
		},
		{
			"bufferView":28,
			"componentType":5123,
			"count":864,
			"type":"SCALAR"
		},
		{
			"bufferView":29,
			"componentType":5126,
			"count":602,
			"max":[
				0.5000000596046448,
				1.3118363618850708,
				0.14791534841060638
			],
			"min":[
				-0.11208587884902954,
				0.9593851566314697,
				-0.14791534841060638
			],
			"type":"VEC3"
		},
		{
			"bufferView":30,
			"componentType":5126,
			"count":602,
			"type":"VEC3"
		},
		{
			"bufferView":31,
			"componentType":5126,
			"count":602,
			"type":"VEC2"
		},
		{
			"bufferView":32,
			"componentType":5126,
			"count":602,
			"type":"VEC2"
		},
		{
			"bufferView":33,
			"componentType":5126,
			"count":602,
			"type":"VEC3"
		},
		{
			"bufferView":34,
			"componentType":5123,
			"count":1344,
			"type":"SCALAR"
		}
	],
	"bufferViews":[
		{
			"buffer":0,
			"byteLength":3432,
			"byteOffset":0,
			"target":34962
		},
		{
			"buffer":0,
			"byteLength":3432,
			"byteOffset":3432,
			"target":34962
		},
		{
			"buffer":0,
			"byteLength":2288,
			"byteOffset":6864,
			"target":34962
		},
		{
			"buffer":0,
			"byteLength":2288,
			"byteOffset":9152,
			"target":34962
		},
		{
			"buffer":0,
			"byteLength":3432,
			"byteOffset":11440,
			"target":34962
		},
		{
			"buffer":0,
			"byteLength":1950,
			"byteOffset":14872,
			"target":34963
		},
		{
			"buffer":0,
			"byteLength":1920,
			"byteOffset":16824,
			"target":34962
		},
		{
			"buffer":0,
			"byteLength":1920,
			"byteOffset":18744,
			"target":34962
		},
		{
			"buffer":0,
			"byteLength":1280,
			"byteOffset":20664,
			"target":34962
		},
		{
			"buffer":0,
			"byteLength":1280,
			"byteOffset":21944,
			"target":34962
		},
		{
			"buffer":0,
			"byteLength":1920,
			"byteOffset":23224,
			"target":34962
		},
		{
			"buffer":0,
			"byteLength":1728,
			"byteOffset":25144,
			"target":34963
		},
		{
			"buffer":0,
			"byteLength":4512,
			"byteOffset":26872,
			"target":34962
		},
		{
			"buffer":0,
			"byteLength":4512,
			"byteOffset":31384,
			"target":34962
		},
		{
			"buffer":0,
			"byteLength":3008,
			"byteOffset":35896,
			"target":34962
		},
		{
			"buffer":0,
			"byteLength":3008,
			"byteOffset":38904,
			"target":34962
		},
		{
			"buffer":0,
			"byteLength":1428,
			"byteOffset":41912,
			"target":34963
		},
		{
			"buffer":0,
			"byteLength":11352,
			"byteOffset":43340,
			"target":34962
		},
		{
			"buffer":0,
			"byteLength":11352,
			"byteOffset":54692,
			"target":34962
		},
		{
			"buffer":0,
			"byteLength":7568,
			"byteOffset":66044,
			"target":34962
		},
		{
			"buffer":0,
			"byteLength":7568,
			"byteOffset":73612,
			"target":34962
		},
		{
			"buffer":0,
			"byteLength":11352,
			"byteOffset":81180,
			"target":34962
		},
		{
			"buffer":0,
			"byteLength":4968,
			"byteOffset":92532,
			"target":34963
		},
		{
			"buffer":0,
			"byteLength":1920,
			"byteOffset":97500,
			"target":34962
		},
		{
			"buffer":0,
			"byteLength":1920,
			"byteOffset":99420,
			"target":34962
		},
		{
			"buffer":0,
			"byteLength":1280,
			"byteOffset":101340,
			"target":34962
		},
		{
			"buffer":0,
			"byteLength":1280,
			"byteOffset":102620,
			"target":34962
		},
		{
			"buffer":0,
			"byteLength":1920,
			"byteOffset":103900,
			"target":34962
		},
		{
			"buffer":0,
			"byteLength":1728,
			"byteOffset":105820,
			"target":34963
		},
		{
			"buffer":0,
			"byteLength":7224,
			"byteOffset":107548,
			"target":34962
		},
		{
			"buffer":0,
			"byteLength":7224,
			"byteOffset":114772,
			"target":34962
		},
		{
			"buffer":0,
			"byteLength":4816,
			"byteOffset":121996,
			"target":34962
		},
		{
			"buffer":0,
			"byteLength":4816,
			"byteOffset":126812,
			"target":34962
		},
		{
			"buffer":0,
			"byteLength":7224,
			"byteOffset":131628,
			"target":34962
		},
		{
			"buffer":0,
			"byteLength":2688,
			"byteOffset":138852,
			"target":34963
		}
	],
	"buffers":[
		{
			"byteLength":141540,
			"uri":"PipeUpLeftInternalVariant_Layer0.bin"
		}
	]
}
