{
	"asset":{
		"generator":"Khronos glTF Blender I/O v4.1.63",
		"version":"2.0"
	},
	"scene":0,
	"scenes":[
		{
			"name":"Scene",
			"nodes":[
				0
			]
		}
	],
	"nodes":[
		{
			"mesh":0,
			"name":"Wire_PipeGate_Main_LOD0",
			"rotation":[
				0.7071068286895752,
				0,
				0,
				0.7071068286895752
			]
		}
	],
	"materials":[
		{
			"doubleSided":true,
			"name":"Material.001",
			"pbrMetallicRoughness":{
				"metallicFactor":0,
				"roughnessFactor":0.5
			}
		}
	],
	"meshes":[
		{
			"name":"Cube.127",
			"primitives":[
				{
					"attributes":{
						"POSITION":0,
						"NORMAL":1,
						"TEXCOORD_0":2,
						"TEXCOORD_1":3,
						"TEXCOORD_2":4
					},
					"indices":5,
					"material":0
				}
			]
		}
	],
	"accessors":[
		{
			"bufferView":0,
			"componentType":5126,
			"count":3410,
			"max":[
				0.5,
				0.2989553213119507,
				-3.725290298461914e-09
			],
			"min":[
				-0.5003533959388733,
				-0.460407018661499,
				-0.443960964679718
			],
			"type":"VEC3"
		},
		{
			"bufferView":1,
			"componentType":5126,
			"count":3410,
			"type":"VEC3"
		},
		{
			"bufferView":2,
			"componentType":5126,
			"count":3410,
			"type":"VEC2"
		},
		{
			"bufferView":3,
			"componentType":5126,
			"count":3410,
			"type":"VEC2"
		},
		{
			"bufferView":4,
			"componentType":5126,
			"count":3410,
			"type":"VEC2"
		},
		{
			"bufferView":5,
			"componentType":5123,
			"count":8436,
			"type":"SCALAR"
		}
	],
	"bufferViews":[
		{
			"buffer":0,
			"byteLength":40920,
			"byteOffset":0,
			"target":34962
		},
		{
			"buffer":0,
			"byteLength":40920,
			"byteOffset":40920,
			"target":34962
		},
		{
			"buffer":0,
			"byteLength":27280,
			"byteOffset":81840,
			"target":34962
		},
		{
			"buffer":0,
			"byteLength":27280,
			"byteOffset":109120,
			"target":34962
		},
		{
			"buffer":0,
			"byteLength":27280,
			"byteOffset":136400,
			"target":34962
		},
		{
			"buffer":0,
			"byteLength":16872,
			"byteOffset":163680,
			"target":34963
		}
	],
	"buffers":[
		{
			"byteLength":180552,
			"uri":"PipeGateDefaultInternalVariant.bin"
		}
	]
}
