{
	"asset":{
		"generator":"Khronos glTF Blender I/O v4.1.63",
		"version":"2.0"
	},
	"scene":0,
	"scenes":[
		{
			"name":"Scene",
			"nodes":[
				0,
				1
			]
		}
	],
	"nodes":[
		{
			"mesh":0,
			"name":"PipeBakeLeftGlas_LOD0.001"
		},
		{
			"mesh":1,
			"name":"PipeBake_Left_Solid0_LOD0.001"
		}
	],
	"meshes":[
		{
			"name":"Cylinder.018",
			"primitives":[
				{
					"attributes":{
						"POSITION":0,
						"NORMAL":1,
						"TEXCOORD_0":2
					},
					"indices":3
				}
			]
		},
		{
			"name":"Cylinder.024",
			"primitives":[
				{
					"attributes":{
						"POSITION":4,
						"NORMAL":5,
						"TEXCOORD_0":6,
						"TEXCOORD_1":7
					},
					"indices":8
				}
			]
		}
	],
	"accessors":[
		{
			"bufferView":0,
			"componentType":5126,
			"count":176,
			"max":[
				0.5000002980232239,
				0.350004643201828,
				0.4999995827674866
			],
			"min":[
				-0.14999938011169434,
				0.04999540373682976,
				-0.15000031888484955
			],
			"type":"VEC3"
		},
		{
			"bufferView":1,
			"componentType":5126,
			"count":176,
			"type":"VEC3"
		},
		{
			"bufferView":2,
			"componentType":5126,
			"count":176,
			"type":"VEC2"
		},
		{
			"bufferView":3,
			"componentType":5123,
			"count":960,
			"type":"SCALAR"
		},
		{
			"bufferView":4,
			"componentType":5126,
			"count":324,
			"max":[
				0.500946044921875,
				0.20007012784481049,
				0.5000095367431641
			],
			"min":[
				-0.184039905667305,
				3.725290298461914e-09,
				-0.18310880661010742
			],
			"type":"VEC3"
		},
		{
			"bufferView":5,
			"componentType":5126,
			"count":324,
			"type":"VEC3"
		},
		{
			"bufferView":6,
			"componentType":5126,
			"count":324,
			"type":"VEC2"
		},
		{
			"bufferView":7,
			"componentType":5126,
			"count":324,
			"type":"VEC2"
		},
		{
			"bufferView":8,
			"componentType":5123,
			"count":1080,
			"type":"SCALAR"
		}
	],
	"bufferViews":[
		{
			"buffer":0,
			"byteLength":2112,
			"byteOffset":0,
			"target":34962
		},
		{
			"buffer":0,
			"byteLength":2112,
			"byteOffset":2112,
			"target":34962
		},
		{
			"buffer":0,
			"byteLength":1408,
			"byteOffset":4224,
			"target":34962
		},
		{
			"buffer":0,
			"byteLength":1920,
			"byteOffset":5632,
			"target":34963
		},
		{
			"buffer":0,
			"byteLength":3888,
			"byteOffset":7552,
			"target":34962
		},
		{
			"buffer":0,
			"byteLength":3888,
			"byteOffset":11440,
			"target":34962
		},
		{
			"buffer":0,
			"byteLength":2592,
			"byteOffset":15328,
			"target":34962
		},
		{
			"buffer":0,
			"byteLength":2592,
			"byteOffset":17920,
			"target":34962
		},
		{
			"buffer":0,
			"byteLength":2160,
			"byteOffset":20512,
			"target":34963
		}
	],
	"buffers":[
		{
			"byteLength":22672,
			"uri":"PipeLeftInternalVariant_Layer0.bin"
		}
	]
}
