{
	"asset":{
		"generator":"Khronos glTF Blender I/O v4.1.63",
		"version":"2.0"
	},
	"scene":0,
	"scenes":[
		{
			"name":"Scene",
			"nodes":[
				0,
				1
			]
		}
	],
	"nodes":[
		{
			"mesh":0,
			"name":"PipeBakeLeftGlas_LOD0.002"
		},
		{
			"mesh":1,
			"name":"PipeBake_Left_Solid1_LOD0.001"
		}
	],
	"meshes":[
		{
			"name":"Cylinder.022",
			"primitives":[
				{
					"attributes":{
						"POSITION":0,
						"NORMAL":1,
						"TEXCOORD_0":2
					},
					"indices":3
				}
			]
		},
		{
			"name":"Cylinder.025",
			"primitives":[
				{
					"attributes":{
						"POSITION":4,
						"NORMAL":5,
						"TEXCOORD_0":6,
						"TEXCOORD_1":7
					},
					"indices":8
				}
			]
		}
	],
	"accessors":[
		{
			"bufferView":0,
			"componentType":5126,
			"count":176,
			"max":[
				0.5000002980232239,
				0.350004643201828,
				0.4999995827674866
			],
			"min":[
				-0.14999938011169434,
				0.04999540373682976,
				-0.15000031888484955
			],
			"type":"VEC3"
		},
		{
			"bufferView":1,
			"componentType":5126,
			"count":176,
			"type":"VEC3"
		},
		{
			"bufferView":2,
			"componentType":5126,
			"count":176,
			"type":"VEC2"
		},
		{
			"bufferView":3,
			"componentType":5123,
			"count":960,
			"type":"SCALAR"
		},
		{
			"bufferView":4,
			"componentType":5126,
			"count":741,
			"max":[
				0.5000002980232239,
				0.31191927194595337,
				0.5000021457672119
			],
			"min":[
				-0.14731916785240173,
				0.05270970240235329,
				-0.14723294973373413
			],
			"type":"VEC3"
		},
		{
			"bufferView":5,
			"componentType":5126,
			"count":741,
			"type":"VEC3"
		},
		{
			"bufferView":6,
			"componentType":5126,
			"count":741,
			"type":"VEC2"
		},
		{
			"bufferView":7,
			"componentType":5126,
			"count":741,
			"type":"VEC2"
		},
		{
			"bufferView":8,
			"componentType":5123,
			"count":1920,
			"type":"SCALAR"
		}
	],
	"bufferViews":[
		{
			"buffer":0,
			"byteLength":2112,
			"byteOffset":0,
			"target":34962
		},
		{
			"buffer":0,
			"byteLength":2112,
			"byteOffset":2112,
			"target":34962
		},
		{
			"buffer":0,
			"byteLength":1408,
			"byteOffset":4224,
			"target":34962
		},
		{
			"buffer":0,
			"byteLength":1920,
			"byteOffset":5632,
			"target":34963
		},
		{
			"buffer":0,
			"byteLength":8892,
			"byteOffset":7552,
			"target":34962
		},
		{
			"buffer":0,
			"byteLength":8892,
			"byteOffset":16444,
			"target":34962
		},
		{
			"buffer":0,
			"byteLength":5928,
			"byteOffset":25336,
			"target":34962
		},
		{
			"buffer":0,
			"byteLength":5928,
			"byteOffset":31264,
			"target":34962
		},
		{
			"buffer":0,
			"byteLength":3840,
			"byteOffset":37192,
			"target":34963
		}
	],
	"buffers":[
		{
			"byteLength":41032,
			"uri":"PipeLeftInternalVariant_Layer1.bin"
		}
	]
}
