{
	"asset":{
		"generator":"Khronos glTF Blender I/O v4.1.63",
		"version":"2.0"
	},
	"scene":0,
	"scenes":[
		{
			"name":"Scene",
			"nodes":[
				0,
				1
			]
		}
	],
	"nodes":[
		{
			"mesh":0,
			"name":"Rotator_180_Main_LOD0"
		},
		{
			"mesh":1,
			"name":"Rotator_180_Arrows_LOD0"
		}
	],
	"meshes":[
		{
			"name":"Cube.004",
			"primitives":[
				{
					"attributes":{
						"POSITION":0,
						"NORMAL":1,
						"TEXCOORD_0":2,
						"TEXCOORD_1":3,
						"COLOR_0":4
					},
					"indices":5
				}
			]
		},
		{
			"name":"Mesh.002",
			"primitives":[
				{
					"attributes":{
						"POSITION":6,
						"NORMAL":7,
						"TEXCOORD_0":8,
						"TEXCOORD_1":9,
						"COLOR_0":10
					},
					"indices":11
				}
			]
		}
	],
	"accessors":[
		{
			"bufferView":0,
			"componentType":5126,
			"count":1248,
			"max":[
				0.5019545555114746,
				0.31168243288993835,
				0.48921117186546326
			],
			"min":[
				-0.5019545555114746,
				-7.18235969543457e-06,
				-0.48921117186546326
			],
			"type":"VEC3"
		},
		{
			"bufferView":1,
			"componentType":5126,
			"count":1248,
			"type":"VEC3"
		},
		{
			"bufferView":2,
			"componentType":5126,
			"count":1248,
			"type":"VEC2"
		},
		{
			"bufferView":3,
			"componentType":5126,
			"count":1248,
			"type":"VEC2"
		},
		{
			"bufferView":4,
			"componentType":5126,
			"count":1248,
			"type":"VEC3"
		},
		{
			"bufferView":5,
			"componentType":5123,
			"count":3408,
			"type":"SCALAR"
		},
		{
			"bufferView":6,
			"componentType":5126,
			"count":312,
			"max":[
				0.32291433215141296,
				0.2042805403470993,
				0.32527869939804077
			],
			"min":[
				-0.32291433215141296,
				0.1264563798904419,
				-0.32527869939804077
			],
			"type":"VEC3"
		},
		{
			"bufferView":7,
			"componentType":5126,
			"count":312,
			"type":"VEC3"
		},
		{
			"bufferView":8,
			"componentType":5126,
			"count":312,
			"type":"VEC2"
		},
		{
			"bufferView":9,
			"componentType":5126,
			"count":312,
			"type":"VEC2"
		},
		{
			"bufferView":10,
			"componentType":5126,
			"count":312,
			"type":"VEC3"
		},
		{
			"bufferView":11,
			"componentType":5123,
			"count":834,
			"type":"SCALAR"
		}
	],
	"bufferViews":[
		{
			"buffer":0,
			"byteLength":14976,
			"byteOffset":0,
			"target":34962
		},
		{
			"buffer":0,
			"byteLength":14976,
			"byteOffset":14976,
			"target":34962
		},
		{
			"buffer":0,
			"byteLength":9984,
			"byteOffset":29952,
			"target":34962
		},
		{
			"buffer":0,
			"byteLength":9984,
			"byteOffset":39936,
			"target":34962
		},
		{
			"buffer":0,
			"byteLength":14976,
			"byteOffset":49920,
			"target":34962
		},
		{
			"buffer":0,
			"byteLength":6816,
			"byteOffset":64896,
			"target":34963
		},
		{
			"buffer":0,
			"byteLength":3744,
			"byteOffset":71712,
			"target":34962
		},
		{
			"buffer":0,
			"byteLength":3744,
			"byteOffset":75456,
			"target":34962
		},
		{
			"buffer":0,
			"byteLength":2496,
			"byteOffset":79200,
			"target":34962
		},
		{
			"buffer":0,
			"byteLength":2496,
			"byteOffset":81696,
			"target":34962
		},
		{
			"buffer":0,
			"byteLength":3744,
			"byteOffset":84192,
			"target":34962
		},
		{
			"buffer":0,
			"byteLength":1668,
			"byteOffset":87936,
			"target":34963
		}
	],
	"buffers":[
		{
			"byteLength":89604,
			"uri":"RotatorHalfInternalVariant.bin"
		}
	]
}
