{
	"asset":{
		"generator":"Khronos glTF Blender I/O v4.1.63",
		"version":"2.0"
	},
	"scene":0,
	"scenes":[
		{
			"name":"Scene",
			"nodes":[
				0,
				1
			]
		}
	],
	"nodes":[
		{
			"mesh":0,
			"name":"Rotator_90CW_Main_LOD0"
		},
		{
			"mesh":1,
			"name":"Rotator_90CW_Arrows_LOD0"
		}
	],
	"meshes":[
		{
			"name":"Cube.012",
			"primitives":[
				{
					"attributes":{
						"POSITION":0,
						"NORMAL":1,
						"TEXCOORD_0":2,
						"TEXCOORD_1":3,
						"COLOR_0":4
					},
					"indices":5
				}
			]
		},
		{
			"name":"Mesh.006",
			"primitives":[
				{
					"attributes":{
						"POSITION":6,
						"NORMAL":7,
						"TEXCOORD_0":8,
						"TEXCOORD_1":9,
						"COLOR_0":10
					},
					"indices":11
				}
			]
		}
	],
	"accessors":[
		{
			"bufferView":0,
			"componentType":5126,
			"count":1176,
			"max":[
				0.5019545555114746,
				0.3116912543773651,
				0.4938048720359802
			],
			"min":[
				-0.5019545555114746,
				-7.18235969543457e-06,
				-0.4938049614429474
			],
			"type":"VEC3"
		},
		{
			"bufferView":1,
			"componentType":5126,
			"count":1176,
			"type":"VEC3"
		},
		{
			"bufferView":2,
			"componentType":5126,
			"count":1176,
			"type":"VEC2"
		},
		{
			"bufferView":3,
			"componentType":5126,
			"count":1176,
			"type":"VEC2"
		},
		{
			"bufferView":4,
			"componentType":5126,
			"count":1176,
			"type":"VEC3"
		},
		{
			"bufferView":5,
			"componentType":5123,
			"count":3192,
			"type":"SCALAR"
		},
		{
			"bufferView":6,
			"componentType":5126,
			"count":385,
			"max":[
				0.32291433215141296,
				0.2042805403470993,
				0.32291433215141296
			],
			"min":[
				-0.32291433215141296,
				0.1264563798904419,
				-0.32291433215141296
			],
			"type":"VEC3"
		},
		{
			"bufferView":7,
			"componentType":5126,
			"count":385,
			"type":"VEC3"
		},
		{
			"bufferView":8,
			"componentType":5126,
			"count":385,
			"type":"VEC2"
		},
		{
			"bufferView":9,
			"componentType":5126,
			"count":385,
			"type":"VEC2"
		},
		{
			"bufferView":10,
			"componentType":5126,
			"count":385,
			"type":"VEC3"
		},
		{
			"bufferView":11,
			"componentType":5123,
			"count":1008,
			"type":"SCALAR"
		}
	],
	"bufferViews":[
		{
			"buffer":0,
			"byteLength":14112,
			"byteOffset":0,
			"target":34962
		},
		{
			"buffer":0,
			"byteLength":14112,
			"byteOffset":14112,
			"target":34962
		},
		{
			"buffer":0,
			"byteLength":9408,
			"byteOffset":28224,
			"target":34962
		},
		{
			"buffer":0,
			"byteLength":9408,
			"byteOffset":37632,
			"target":34962
		},
		{
			"buffer":0,
			"byteLength":14112,
			"byteOffset":47040,
			"target":34962
		},
		{
			"buffer":0,
			"byteLength":6384,
			"byteOffset":61152,
			"target":34963
		},
		{
			"buffer":0,
			"byteLength":4620,
			"byteOffset":67536,
			"target":34962
		},
		{
			"buffer":0,
			"byteLength":4620,
			"byteOffset":72156,
			"target":34962
		},
		{
			"buffer":0,
			"byteLength":3080,
			"byteOffset":76776,
			"target":34962
		},
		{
			"buffer":0,
			"byteLength":3080,
			"byteOffset":79856,
			"target":34962
		},
		{
			"buffer":0,
			"byteLength":4620,
			"byteOffset":82936,
			"target":34962
		},
		{
			"buffer":0,
			"byteLength":2016,
			"byteOffset":87556,
			"target":34963
		}
	],
	"buffers":[
		{
			"byteLength":89572,
			"uri":"RotatorOneQuadInternalVariant.bin"
		}
	]
}
