{
	"asset":{
		"generator":"Khronos glTF Blender I/O v4.1.63",
		"version":"2.0"
	},
	"scene":0,
	"scenes":[
		{
			"name":"Scene",
			"nodes":[
				0
			]
		}
	],
	"nodes":[
		{
			"mesh":0,
			"name":"Splitter_1to3Border_Layer1_LOD0"
		}
	],
	"meshes":[
		{
			"name":"Cube.045",
			"primitives":[
				{
					"attributes":{
						"POSITION":0,
						"NORMAL":1,
						"TEXCOORD_0":2,
						"TEXCOORD_1":3,
						"COLOR_0":4
					},
					"indices":5
				}
			]
		}
	],
	"accessors":[
		{
			"bufferView":0,
			"componentType":5126,
			"count":2229,
			"max":[
				0.5033760666847229,
				0.25999027490615845,
				0.5024776458740234
			],
			"min":[
				-0.5033760666847229,
				-0.027359455823898315,
				-0.5024776458740234
			],
			"type":"VEC3"
		},
		{
			"bufferView":1,
			"componentType":5126,
			"count":2229,
			"type":"VEC3"
		},
		{
			"bufferView":2,
			"componentType":5126,
			"count":2229,
			"type":"VEC2"
		},
		{
			"bufferView":3,
			"componentType":5126,
			"count":2229,
			"type":"VEC2"
		},
		{
			"bufferView":4,
			"componentType":5126,
			"count":2229,
			"type":"VEC3"
		},
		{
			"bufferView":5,
			"componentType":5123,
			"count":5376,
			"type":"SCALAR"
		}
	],
	"bufferViews":[
		{
			"buffer":0,
			"byteLength":26748,
			"byteOffset":0,
			"target":34962
		},
		{
			"buffer":0,
			"byteLength":26748,
			"byteOffset":26748,
			"target":34962
		},
		{
			"buffer":0,
			"byteLength":17832,
			"byteOffset":53496,
			"target":34962
		},
		{
			"buffer":0,
			"byteLength":17832,
			"byteOffset":71328,
			"target":34962
		},
		{
			"buffer":0,
			"byteLength":26748,
			"byteOffset":89160,
			"target":34962
		},
		{
			"buffer":0,
			"byteLength":10752,
			"byteOffset":115908,
			"target":34963
		}
	],
	"buffers":[
		{
			"byteLength":126660,
			"uri":"Splitter1To3InternalVariant_Layer1.bin"
		}
	]
}
