{
	"asset":{
		"generator":"Khronos glTF Blender I/O v4.1.63",
		"version":"2.0"
	},
	"scene":0,
	"scenes":[
		{
			"name":"Scene",
			"nodes":[
				0
			]
		}
	],
	"nodes":[
		{
			"mesh":0,
			"name":"Splitter_DefaultBorder_Layer2_LOD0.001",
			"rotation":[
				0,
				-1,
				0,
				4.371138828673793e-08
			]
		}
	],
	"meshes":[
		{
			"name":"Cube.061",
			"primitives":[
				{
					"attributes":{
						"POSITION":0,
						"NORMAL":1,
						"TEXCOORD_0":2,
						"TEXCOORD_1":3,
						"COLOR_0":4
					},
					"indices":5
				}
			]
		}
	],
	"accessors":[
		{
			"bufferView":0,
			"componentType":5126,
			"count":1473,
			"max":[
				0.5010000467300415,
				0.2627865970134735,
				0.33853310346603394
			],
			"min":[
				-0.501000165939331,
				0.0947892963886261,
				-0.5010794401168823
			],
			"type":"VEC3"
		},
		{
			"bufferView":1,
			"componentType":5126,
			"count":1473,
			"type":"VEC3"
		},
		{
			"bufferView":2,
			"componentType":5126,
			"count":1473,
			"type":"VEC2"
		},
		{
			"bufferView":3,
			"componentType":5126,
			"count":1473,
			"type":"VEC2"
		},
		{
			"bufferView":4,
			"componentType":5126,
			"count":1473,
			"type":"VEC3"
		},
		{
			"bufferView":5,
			"componentType":5123,
			"count":3432,
			"type":"SCALAR"
		}
	],
	"bufferViews":[
		{
			"buffer":0,
			"byteLength":17676,
			"byteOffset":0,
			"target":34962
		},
		{
			"buffer":0,
			"byteLength":17676,
			"byteOffset":17676,
			"target":34962
		},
		{
			"buffer":0,
			"byteLength":11784,
			"byteOffset":35352,
			"target":34962
		},
		{
			"buffer":0,
			"byteLength":11784,
			"byteOffset":47136,
			"target":34962
		},
		{
			"buffer":0,
			"byteLength":17676,
			"byteOffset":58920,
			"target":34962
		},
		{
			"buffer":0,
			"byteLength":6864,
			"byteOffset":76596,
			"target":34963
		}
	],
	"buffers":[
		{
			"byteLength":83460,
			"uri":"Splitter1To2LInternalVariant_Layer2.bin"
		}
	]
}
