{
	"asset":{
		"generator":"Khronos glTF Blender I/O v4.1.63",
		"version":"2.0"
	},
	"scene":0,
	"scenes":[
		{
			"name":"Scene",
			"nodes":[
				0,
				1,
				2,
				3,
				4
			]
		}
	],
	"nodes":[
		{
			"mesh":0,
			"name":"Stacker_Straight_Main_LOD0"
		},
		{
			"mesh":1,
			"name":"Stacker_Default_PusherRight_LOD0.001",
			"translation":[
				0,
				0.36417001485824585,
				0
			]
		},
		{
			"mesh":2,
			"name":"Stacker_Default_PusherLeft_LOD0.001",
			"translation":[
				0,
				0.36417001485824585,
				0
			]
		},
		{
			"mesh":3,
			"name":"Stacker_Default_DoorRight_LOD0.001",
			"translation":[
				0,
				1.1799999475479126,
				-0.20000000298023224
			]
		},
		{
			"mesh":4,
			"name":"Stacker_Default_DoorLeft_LOD0.001",
			"translation":[
				0,
				1.1799999475479126,
				0.20000000298023224
			]
		}
	],
	"meshes":[
		{
			"name":"Cube.011",
			"primitives":[
				{
					"attributes":{
						"POSITION":0,
						"NORMAL":1,
						"TEXCOORD_0":2,
						"TEXCOORD_1":3,
						"COLOR_0":4
					},
					"indices":5
				}
			]
		},
		{
			"name":"Cube.008",
			"primitives":[
				{
					"attributes":{
						"POSITION":6,
						"NORMAL":7,
						"TEXCOORD_0":8,
						"TEXCOORD_1":9,
						"COLOR_0":10
					},
					"indices":11
				}
			]
		},
		{
			"name":"Cube.014",
			"primitives":[
				{
					"attributes":{
						"POSITION":12,
						"NORMAL":13,
						"TEXCOORD_0":14,
						"TEXCOORD_1":15,
						"COLOR_0":16
					},
					"indices":17
				}
			]
		},
		{
			"name":"Cube.017",
			"primitives":[
				{
					"attributes":{
						"POSITION":18,
						"NORMAL":19,
						"TEXCOORD_0":20,
						"TEXCOORD_1":21,
						"COLOR_0":22
					},
					"indices":23
				}
			]
		},
		{
			"name":"Cube.022",
			"primitives":[
				{
					"attributes":{
						"POSITION":24,
						"NORMAL":25,
						"TEXCOORD_0":26,
						"TEXCOORD_1":27,
						"COLOR_0":28
					},
					"indices":29
				}
			]
		}
	],
	"accessors":[
		{
			"bufferView":0,
			"componentType":5126,
			"count":2710,
			"max":[
				0.5011099576950073,
				1.2771952152252197,
				0.42823299765586853
			],
			"min":[
				-0.5010600090026855,
				-1.3330957699508872e-05,
				-0.42823299765586853
			],
			"type":"VEC3"
		},
		{
			"bufferView":1,
			"componentType":5126,
			"count":2710,
			"type":"VEC3"
		},
		{
			"bufferView":2,
			"componentType":5126,
			"count":2710,
			"type":"VEC2"
		},
		{
			"bufferView":3,
			"componentType":5126,
			"count":2710,
			"type":"VEC2"
		},
		{
			"bufferView":4,
			"componentType":5126,
			"count":2710,
			"type":"VEC3"
		},
		{
			"bufferView":5,
			"componentType":5123,
			"count":7176,
			"type":"SCALAR"
		},
		{
			"bufferView":6,
			"componentType":5126,
			"count":147,
			"max":[
				0.14575734734535217,
				-8.940696716308594e-08,
				-0.14295656979084015
			],
			"min":[
				-0.1457839161157608,
				-0.1775033175945282,
				-0.3225248456001282
			],
			"type":"VEC3"
		},
		{
			"bufferView":7,
			"componentType":5126,
			"count":147,
			"type":"VEC3"
		},
		{
			"bufferView":8,
			"componentType":5126,
			"count":147,
			"type":"VEC2"
		},
		{
			"bufferView":9,
			"componentType":5126,
			"count":147,
			"type":"VEC2"
		},
		{
			"bufferView":10,
			"componentType":5126,
			"count":147,
			"type":"VEC3"
		},
		{
			"bufferView":11,
			"componentType":5123,
			"count":366,
			"type":"SCALAR"
		},
		{
			"bufferView":12,
			"componentType":5126,
			"count":149,
			"max":[
				0.1457839459180832,
				-8.940696716308594e-08,
				0.3225248456001282
			],
			"min":[
				-0.14575731754302979,
				-0.1775033175945282,
				0.14295655488967896
			],
			"type":"VEC3"
		},
		{
			"bufferView":13,
			"componentType":5126,
			"count":149,
			"type":"VEC3"
		},
		{
			"bufferView":14,
			"componentType":5126,
			"count":149,
			"type":"VEC2"
		},
		{
			"bufferView":15,
			"componentType":5126,
			"count":149,
			"type":"VEC2"
		},
		{
			"bufferView":16,
			"componentType":5126,
			"count":149,
			"type":"VEC3"
		},
		{
			"bufferView":17,
			"componentType":5123,
			"count":366,
			"type":"SCALAR"
		},
		{
			"bufferView":18,
			"componentType":5126,
			"count":76,
			"max":[
				0.20581364631652832,
				0.009314224123954773,
				0.20318365097045898
			],
			"min":[
				-0.20581364631652832,
				-0.019988328218460083,
				0
			],
			"type":"VEC3"
		},
		{
			"bufferView":19,
			"componentType":5126,
			"count":76,
			"type":"VEC3"
		},
		{
			"bufferView":20,
			"componentType":5126,
			"count":76,
			"type":"VEC2"
		},
		{
			"bufferView":21,
			"componentType":5126,
			"count":76,
			"type":"VEC2"
		},
		{
			"bufferView":22,
			"componentType":5126,
			"count":76,
			"type":"VEC3"
		},
		{
			"bufferView":23,
			"componentType":5123,
			"count":192,
			"type":"SCALAR"
		},
		{
			"bufferView":24,
			"componentType":5126,
			"count":76,
			"max":[
				0.20581364631652832,
				0.009314224123954773,
				0
			],
			"min":[
				-0.20581364631652832,
				-0.019988328218460083,
				-0.20318365097045898
			],
			"type":"VEC3"
		},
		{
			"bufferView":25,
			"componentType":5126,
			"count":76,
			"type":"VEC3"
		},
		{
			"bufferView":26,
			"componentType":5126,
			"count":76,
			"type":"VEC2"
		},
		{
			"bufferView":27,
			"componentType":5126,
			"count":76,
			"type":"VEC2"
		},
		{
			"bufferView":28,
			"componentType":5126,
			"count":76,
			"type":"VEC3"
		},
		{
			"bufferView":29,
			"componentType":5123,
			"count":192,
			"type":"SCALAR"
		}
	],
	"bufferViews":[
		{
			"buffer":0,
			"byteLength":32520,
			"byteOffset":0,
			"target":34962
		},
		{
			"buffer":0,
			"byteLength":32520,
			"byteOffset":32520,
			"target":34962
		},
		{
			"buffer":0,
			"byteLength":21680,
			"byteOffset":65040,
			"target":34962
		},
		{
			"buffer":0,
			"byteLength":21680,
			"byteOffset":86720,
			"target":34962
		},
		{
			"buffer":0,
			"byteLength":32520,
			"byteOffset":108400,
			"target":34962
		},
		{
			"buffer":0,
			"byteLength":14352,
			"byteOffset":140920,
			"target":34963
		},
		{
			"buffer":0,
			"byteLength":1764,
			"byteOffset":155272,
			"target":34962
		},
		{
			"buffer":0,
			"byteLength":1764,
			"byteOffset":157036,
			"target":34962
		},
		{
			"buffer":0,
			"byteLength":1176,
			"byteOffset":158800,
			"target":34962
		},
		{
			"buffer":0,
			"byteLength":1176,
			"byteOffset":159976,
			"target":34962
		},
		{
			"buffer":0,
			"byteLength":1764,
			"byteOffset":161152,
			"target":34962
		},
		{
			"buffer":0,
			"byteLength":732,
			"byteOffset":162916,
			"target":34963
		},
		{
			"buffer":0,
			"byteLength":1788,
			"byteOffset":163648,
			"target":34962
		},
		{
			"buffer":0,
			"byteLength":1788,
			"byteOffset":165436,
			"target":34962
		},
		{
			"buffer":0,
			"byteLength":1192,
			"byteOffset":167224,
			"target":34962
		},
		{
			"buffer":0,
			"byteLength":1192,
			"byteOffset":168416,
			"target":34962
		},
		{
			"buffer":0,
			"byteLength":1788,
			"byteOffset":169608,
			"target":34962
		},
		{
			"buffer":0,
			"byteLength":732,
			"byteOffset":171396,
			"target":34963
		},
		{
			"buffer":0,
			"byteLength":912,
			"byteOffset":172128,
			"target":34962
		},
		{
			"buffer":0,
			"byteLength":912,
			"byteOffset":173040,
			"target":34962
		},
		{
			"buffer":0,
			"byteLength":608,
			"byteOffset":173952,
			"target":34962
		},
		{
			"buffer":0,
			"byteLength":608,
			"byteOffset":174560,
			"target":34962
		},
		{
			"buffer":0,
			"byteLength":912,
			"byteOffset":175168,
			"target":34962
		},
		{
			"buffer":0,
			"byteLength":384,
			"byteOffset":176080,
			"target":34963
		},
		{
			"buffer":0,
			"byteLength":912,
			"byteOffset":176464,
			"target":34962
		},
		{
			"buffer":0,
			"byteLength":912,
			"byteOffset":177376,
			"target":34962
		},
		{
			"buffer":0,
			"byteLength":608,
			"byteOffset":178288,
			"target":34962
		},
		{
			"buffer":0,
			"byteLength":608,
			"byteOffset":178896,
			"target":34962
		},
		{
			"buffer":0,
			"byteLength":912,
			"byteOffset":179504,
			"target":34962
		},
		{
			"buffer":0,
			"byteLength":384,
			"byteOffset":180416,
			"target":34963
		}
	],
	"buffers":[
		{
			"byteLength":180800,
			"uri":"StackerStraightInternalVariant.bin"
		}
	]
}
