{
	"asset":{
		"generator":"Khronos glTF Blender I/O v4.1.63",
		"version":"2.0"
	},
	"scene":0,
	"scenes":[
		{
			"name":"Scene",
			"nodes":[
				0,
				1
			]
		}
	],
	"nodes":[
		{
			"mesh":0,
			"name":"Wire_GlobalTransmitter_Main_LOD0"
		},
		{
			"mesh":1,
			"name":"Wire_GlobalTransmitter_Color_LOD0"
		}
	],
	"meshes":[
		{
			"name":"Cube.011",
			"primitives":[
				{
					"attributes":{
						"POSITION":0,
						"NORMAL":1,
						"TEXCOORD_0":2,
						"TEXCOORD_1":3
					},
					"indices":4
				}
			]
		},
		{
			"name":"Cube.004",
			"primitives":[
				{
					"attributes":{
						"POSITION":5,
						"NORMAL":6,
						"TEXCOORD_0":7,
						"TEXCOORD_1":8
					},
					"indices":9
				}
			]
		}
	],
	"accessors":[
		{
			"bufferView":0,
			"componentType":5126,
			"count":2115,
			"max":[
				1.4443057775497437,
				4.075573444366455,
				1.3378467559814453
			],
			"min":[
				-1.3378467559814453,
				0,
				-1.3378467559814453
			],
			"type":"VEC3"
		},
		{
			"bufferView":1,
			"componentType":5126,
			"count":2115,
			"type":"VEC3"
		},
		{
			"bufferView":2,
			"componentType":5126,
			"count":2115,
			"type":"VEC2"
		},
		{
			"bufferView":3,
			"componentType":5126,
			"count":2115,
			"type":"VEC2"
		},
		{
			"bufferView":4,
			"componentType":5123,
			"count":6471,
			"type":"SCALAR"
		},
		{
			"bufferView":5,
			"componentType":5126,
			"count":20,
			"max":[
				1.256282091140747,
				1.4323232173919678,
				1.2562822103500366
			],
			"min":[
				-1.19771146774292,
				0.031197071075439453,
				-1.2562822103500366
			],
			"type":"VEC3"
		},
		{
			"bufferView":6,
			"componentType":5126,
			"count":20,
			"type":"VEC3"
		},
		{
			"bufferView":7,
			"componentType":5126,
			"count":20,
			"type":"VEC2"
		},
		{
			"bufferView":8,
			"componentType":5126,
			"count":20,
			"type":"VEC2"
		},
		{
			"bufferView":9,
			"componentType":5123,
			"count":36,
			"type":"SCALAR"
		}
	],
	"bufferViews":[
		{
			"buffer":0,
			"byteLength":25380,
			"byteOffset":0,
			"target":34962
		},
		{
			"buffer":0,
			"byteLength":25380,
			"byteOffset":25380,
			"target":34962
		},
		{
			"buffer":0,
			"byteLength":16920,
			"byteOffset":50760,
			"target":34962
		},
		{
			"buffer":0,
			"byteLength":16920,
			"byteOffset":67680,
			"target":34962
		},
		{
			"buffer":0,
			"byteLength":12942,
			"byteOffset":84600,
			"target":34963
		},
		{
			"buffer":0,
			"byteLength":240,
			"byteOffset":97544,
			"target":34962
		},
		{
			"buffer":0,
			"byteLength":240,
			"byteOffset":97784,
			"target":34962
		},
		{
			"buffer":0,
			"byteLength":160,
			"byteOffset":98024,
			"target":34962
		},
		{
			"buffer":0,
			"byteLength":160,
			"byteOffset":98184,
			"target":34962
		},
		{
			"buffer":0,
			"byteLength":72,
			"byteOffset":98344,
			"target":34963
		}
	],
	"buffers":[
		{
			"byteLength":98416,
			"uri":"WireGlobalTransmitterReceiverInternalVariant.bin"
		}
	]
}
