{
	"asset":{
		"generator":"Khronos glTF Blender I/O v4.1.63",
		"version":"2.0"
	},
	"scene":0,
	"scenes":[
		{
			"name":"Scene",
			"nodes":[
				0,
				1
			]
		}
	],
	"nodes":[
		{
			"mesh":0,
			"name":"Wire_GlobalReceiver_Main_LOD0"
		},
		{
			"mesh":1,
			"name":"Wire_GlobalReceiver_Color_LOD0"
		}
	],
	"meshes":[
		{
			"name":"Cube.010",
			"primitives":[
				{
					"attributes":{
						"POSITION":0,
						"NORMAL":1,
						"TEXCOORD_0":2,
						"TEXCOORD_1":3
					},
					"indices":4
				}
			]
		},
		{
			"name":"Cube.003",
			"primitives":[
				{
					"attributes":{
						"POSITION":5,
						"NORMAL":6,
						"TEXCOORD_0":7,
						"TEXCOORD_1":8
					},
					"indices":9
				}
			]
		}
	],
	"accessors":[
		{
			"bufferView":0,
			"componentType":5126,
			"count":2630,
			"max":[
				1.4196972846984863,
				4.1353654861450195,
				1.4196972846984863
			],
			"min":[
				-1.4443057775497437,
				0,
				-1.4196972846984863
			],
			"type":"VEC3"
		},
		{
			"bufferView":1,
			"componentType":5126,
			"count":2630,
			"type":"VEC3"
		},
		{
			"bufferView":2,
			"componentType":5126,
			"count":2630,
			"type":"VEC2"
		},
		{
			"bufferView":3,
			"componentType":5126,
			"count":2630,
			"type":"VEC2"
		},
		{
			"bufferView":4,
			"componentType":5123,
			"count":9693,
			"type":"SCALAR"
		},
		{
			"bufferView":5,
			"componentType":5126,
			"count":20,
			"max":[
				1.2555243968963623,
				1.4323232173919678,
				1.2555245161056519
			],
			"min":[
				-1.19771146774292,
				0,
				-1.2555243968963623
			],
			"type":"VEC3"
		},
		{
			"bufferView":6,
			"componentType":5126,
			"count":20,
			"type":"VEC3"
		},
		{
			"bufferView":7,
			"componentType":5126,
			"count":20,
			"type":"VEC2"
		},
		{
			"bufferView":8,
			"componentType":5126,
			"count":20,
			"type":"VEC2"
		},
		{
			"bufferView":9,
			"componentType":5123,
			"count":36,
			"type":"SCALAR"
		}
	],
	"bufferViews":[
		{
			"buffer":0,
			"byteLength":31560,
			"byteOffset":0,
			"target":34962
		},
		{
			"buffer":0,
			"byteLength":31560,
			"byteOffset":31560,
			"target":34962
		},
		{
			"buffer":0,
			"byteLength":21040,
			"byteOffset":63120,
			"target":34962
		},
		{
			"buffer":0,
			"byteLength":21040,
			"byteOffset":84160,
			"target":34962
		},
		{
			"buffer":0,
			"byteLength":19386,
			"byteOffset":105200,
			"target":34963
		},
		{
			"buffer":0,
			"byteLength":240,
			"byteOffset":124588,
			"target":34962
		},
		{
			"buffer":0,
			"byteLength":240,
			"byteOffset":124828,
			"target":34962
		},
		{
			"buffer":0,
			"byteLength":160,
			"byteOffset":125068,
			"target":34962
		},
		{
			"buffer":0,
			"byteLength":160,
			"byteOffset":125228,
			"target":34962
		},
		{
			"buffer":0,
			"byteLength":72,
			"byteOffset":125388,
			"target":34963
		}
	],
	"buffers":[
		{
			"byteLength":125460,
			"uri":"WireGlobalTransmitterSenderInternalVariant.bin"
		}
	]
}
