{
	"asset":{
		"generator":"Khronos glTF Blender I/O v4.1.63",
		"version":"2.0"
	},
	"scene":0,
	"scenes":[
		{
			"name":"Scene",
			"nodes":[
				0,
				1,
				2
			]
		}
	],
	"nodes":[
		{
			"mesh":0,
			"name":"BeltPort_Receiver_Main_LOD0"
		},
		{
			"mesh":1,
			"name":"BeltPort_StopperL_Main_LOD0",
			"rotation":[
				0,
				0,
				0.26218920946121216,
				0.9650164842605591
			],
			"translation":[
				0.08000045269727707,
				0.42459264397621155,
				0.2449500560760498
			]
		},
		{
			"mesh":2,
			"name":"BeltPort_StopperR_Main_LOD0",
			"rotation":[
				0,
				0,
				0.26218920946121216,
				0.9650164842605591
			],
			"translation":[
				0.125,
				0.44999998807907104,
				-0.2449493408203125
			]
		}
	],
	"meshes":[
		{
			"name":"Cube.018",
			"primitives":[
				{
					"attributes":{
						"POSITION":0,
						"NORMAL":1,
						"TEXCOORD_0":2,
						"TEXCOORD_1":3,
						"COLOR_0":4
					},
					"indices":5
				}
			]
		},
		{
			"name":"Circle.003",
			"primitives":[
				{
					"attributes":{
						"POSITION":6,
						"NORMAL":7,
						"TEXCOORD_0":8,
						"TEXCOORD_1":9
					},
					"indices":10
				}
			]
		},
		{
			"name":"Circle.002",
			"primitives":[
				{
					"attributes":{
						"POSITION":11,
						"NORMAL":12,
						"TEXCOORD_0":13,
						"TEXCOORD_1":14
					},
					"indices":10
				}
			]
		}
	],
	"accessors":[
		{
			"bufferView":0,
			"componentType":5126,
			"count":1384,
			"max":[
				0.4985332489013672,
				0.7023341059684753,
				0.3315539062023163
			],
			"min":[
				-0.5044192671775818,
				0.005179613828659058,
				-0.33155375719070435
			],
			"type":"VEC3"
		},
		{
			"bufferView":1,
			"componentType":5126,
			"count":1384,
			"type":"VEC3"
		},
		{
			"bufferView":2,
			"componentType":5126,
			"count":1384,
			"type":"VEC2"
		},
		{
			"bufferView":3,
			"componentType":5126,
			"count":1384,
			"type":"VEC2"
		},
		{
			"bufferView":4,
			"componentType":5126,
			"count":1384,
			"type":"VEC3"
		},
		{
			"bufferView":5,
			"componentType":5123,
			"count":4074,
			"type":"SCALAR"
		},
		{
			"bufferView":6,
			"componentType":5126,
			"count":56,
			"max":[
				0.061434630304574966,
				0.028013939037919044,
				0.03492691367864609
			],
			"min":[
				-0.06142827495932579,
				-1.3938173651695251e-05,
				-0.22125695645809174
			],
			"type":"VEC3"
		},
		{
			"bufferView":7,
			"componentType":5126,
			"count":56,
			"type":"VEC3"
		},
		{
			"bufferView":8,
			"componentType":5126,
			"count":56,
			"type":"VEC2"
		},
		{
			"bufferView":9,
			"componentType":5126,
			"count":56,
			"type":"VEC2"
		},
		{
			"bufferView":10,
			"componentType":5123,
			"count":324,
			"type":"SCALAR"
		},
		{
			"bufferView":11,
			"componentType":5126,
			"count":56,
			"max":[
				0.06142827868461609,
				0.028000015765428543,
				0.22125695645809174
			],
			"min":[
				-0.06142827868461609,
				-1.862645149230957e-09,
				-0.03492691367864609
			],
			"type":"VEC3"
		},
		{
			"bufferView":12,
			"componentType":5126,
			"count":56,
			"type":"VEC3"
		},
		{
			"bufferView":13,
			"componentType":5126,
			"count":56,
			"type":"VEC2"
		},
		{
			"bufferView":14,
			"componentType":5126,
			"count":56,
			"type":"VEC2"
		}
	],
	"bufferViews":[
		{
			"buffer":0,
			"byteLength":16608,
			"byteOffset":0,
			"target":34962
		},
		{
			"buffer":0,
			"byteLength":16608,
			"byteOffset":16608,
			"target":34962
		},
		{
			"buffer":0,
			"byteLength":11072,
			"byteOffset":33216,
			"target":34962
		},
		{
			"buffer":0,
			"byteLength":11072,
			"byteOffset":44288,
			"target":34962
		},
		{
			"buffer":0,
			"byteLength":16608,
			"byteOffset":55360,
			"target":34962
		},
		{
			"buffer":0,
			"byteLength":8148,
			"byteOffset":71968,
			"target":34963
		},
		{
			"buffer":0,
			"byteLength":672,
			"byteOffset":80116,
			"target":34962
		},
		{
			"buffer":0,
			"byteLength":672,
			"byteOffset":80788,
			"target":34962
		},
		{
			"buffer":0,
			"byteLength":448,
			"byteOffset":81460,
			"target":34962
		},
		{
			"buffer":0,
			"byteLength":448,
			"byteOffset":81908,
			"target":34962
		},
		{
			"buffer":0,
			"byteLength":648,
			"byteOffset":82356,
			"target":34963
		},
		{
			"buffer":0,
			"byteLength":672,
			"byteOffset":83004,
			"target":34962
		},
		{
			"buffer":0,
			"byteLength":672,
			"byteOffset":83676,
			"target":34962
		},
		{
			"buffer":0,
			"byteLength":448,
			"byteOffset":84348,
			"target":34962
		},
		{
			"buffer":0,
			"byteLength":448,
			"byteOffset":84796,
			"target":34962
		}
	],
	"buffers":[
		{
			"byteLength":85244,
			"uri":"BeltPortReceiverInternalVariant.bin"
		}
	]
}
