{
	"asset":{
		"generator":"Khronos glTF Blender I/O v4.1.63",
		"version":"2.0"
	},
	"scene":0,
	"scenes":[
		{
			"name":"Scene",
			"nodes":[
				0,
				1,
				2,
				3
			]
		}
	],
	"nodes":[
		{
			"mesh":0,
			"name":"Wire_IOConnector_Output_LOD0",
			"rotation":[
				0,
				-0.7071068286895752,
				0,
				0.7071068286895752
			],
			"translation":[
				0,
				0,
				-1
			]
		},
		{
			"mesh":1,
			"name":"BeltReader"
		},
		{
			"mesh":2,
			"name":"BeltReaderPlattform"
		},
		{
			"mesh":3,
			"name":"BeltReaderLoading",
			"translation":[
				0,
				0.554431676864624,
				0
			]
		}
	],
	"meshes":[
		{
			"name":"Cube.037",
			"primitives":[
				{
					"attributes":{
						"POSITION":0,
						"NORMAL":1,
						"TEXCOORD_0":2,
						"TEXCOORD_1":3
					},
					"indices":4
				}
			]
		},
		{
			"name":"Cube.001",
			"primitives":[
				{
					"attributes":{
						"POSITION":5,
						"NORMAL":6,
						"TEXCOORD_0":7,
						"TEXCOORD_1":8,
						"COLOR_0":9
					},
					"indices":10
				}
			]
		},
		{
			"name":"Cube.003",
			"primitives":[
				{
					"attributes":{
						"POSITION":11,
						"NORMAL":12,
						"TEXCOORD_0":13,
						"TEXCOORD_1":14,
						"COLOR_0":15
					},
					"indices":16
				}
			]
		},
		{
			"name":"Curve",
			"primitives":[
				{
					"attributes":{
						"POSITION":17,
						"NORMAL":18,
						"TEXCOORD_0":19,
						"TEXCOORD_1":20
					},
					"indices":21
				}
			]
		}
	],
	"accessors":[
		{
			"bufferView":0,
			"componentType":5126,
			"count":44,
			"max":[
				0.8068038821220398,
				0.14550210535526276,
				0.04571656882762909
			],
			"min":[
				0.4173070192337036,
				0.05406896770000458,
				-0.04571656137704849
			],
			"type":"VEC3"
		},
		{
			"bufferView":1,
			"componentType":5126,
			"count":44,
			"type":"VEC3"
		},
		{
			"bufferView":2,
			"componentType":5126,
			"count":44,
			"type":"VEC2"
		},
		{
			"bufferView":3,
			"componentType":5126,
			"count":44,
			"type":"VEC2"
		},
		{
			"bufferView":4,
			"componentType":5123,
			"count":66,
			"type":"SCALAR"
		},
		{
			"bufferView":5,
			"componentType":5126,
			"count":188,
			"max":[
				0.5001147985458374,
				0.5200990438461304,
				0.32837557792663574
			],
			"min":[
				-0.5001150965690613,
				0.12993934750556946,
				-0.32837557792663574
			],
			"type":"VEC3"
		},
		{
			"bufferView":6,
			"componentType":5126,
			"count":188,
			"type":"VEC3"
		},
		{
			"bufferView":7,
			"componentType":5126,
			"count":188,
			"type":"VEC2"
		},
		{
			"bufferView":8,
			"componentType":5126,
			"count":188,
			"type":"VEC2"
		},
		{
			"bufferView":9,
			"componentType":5126,
			"count":188,
			"type":"VEC3"
		},
		{
			"bufferView":10,
			"componentType":5123,
			"count":432,
			"type":"SCALAR"
		},
		{
			"bufferView":11,
			"componentType":5126,
			"count":216,
			"max":[
				0.41664713621139526,
				0.5916141271591187,
				0.21583272516727448
			],
			"min":[
				-0.4166472554206848,
				0.5200989246368408,
				-0.21583259105682373
			],
			"type":"VEC3"
		},
		{
			"bufferView":12,
			"componentType":5126,
			"count":216,
			"type":"VEC3"
		},
		{
			"bufferView":13,
			"componentType":5126,
			"count":216,
			"type":"VEC2"
		},
		{
			"bufferView":14,
			"componentType":5126,
			"count":216,
			"type":"VEC2"
		},
		{
			"bufferView":15,
			"componentType":5126,
			"count":216,
			"type":"VEC3"
		},
		{
			"bufferView":16,
			"componentType":5123,
			"count":588,
			"type":"SCALAR"
		},
		{
			"bufferView":17,
			"componentType":5126,
			"count":752,
			"max":[
				0.1539522260427475,
				0.02063034474849701,
				0.15395207703113556
			],
			"min":[
				-0.15395215153694153,
				3.591740593833492e-08,
				-0.1539522111415863
			],
			"type":"VEC3"
		},
		{
			"bufferView":18,
			"componentType":5126,
			"count":752,
			"type":"VEC3"
		},
		{
			"bufferView":19,
			"componentType":5126,
			"count":752,
			"type":"VEC2"
		},
		{
			"bufferView":20,
			"componentType":5126,
			"count":752,
			"type":"VEC2"
		},
		{
			"bufferView":21,
			"componentType":5123,
			"count":1968,
			"type":"SCALAR"
		}
	],
	"bufferViews":[
		{
			"buffer":0,
			"byteLength":528,
			"byteOffset":0,
			"target":34962
		},
		{
			"buffer":0,
			"byteLength":528,
			"byteOffset":528,
			"target":34962
		},
		{
			"buffer":0,
			"byteLength":352,
			"byteOffset":1056,
			"target":34962
		},
		{
			"buffer":0,
			"byteLength":352,
			"byteOffset":1408,
			"target":34962
		},
		{
			"buffer":0,
			"byteLength":132,
			"byteOffset":1760,
			"target":34963
		},
		{
			"buffer":0,
			"byteLength":2256,
			"byteOffset":1892,
			"target":34962
		},
		{
			"buffer":0,
			"byteLength":2256,
			"byteOffset":4148,
			"target":34962
		},
		{
			"buffer":0,
			"byteLength":1504,
			"byteOffset":6404,
			"target":34962
		},
		{
			"buffer":0,
			"byteLength":1504,
			"byteOffset":7908,
			"target":34962
		},
		{
			"buffer":0,
			"byteLength":2256,
			"byteOffset":9412,
			"target":34962
		},
		{
			"buffer":0,
			"byteLength":864,
			"byteOffset":11668,
			"target":34963
		},
		{
			"buffer":0,
			"byteLength":2592,
			"byteOffset":12532,
			"target":34962
		},
		{
			"buffer":0,
			"byteLength":2592,
			"byteOffset":15124,
			"target":34962
		},
		{
			"buffer":0,
			"byteLength":1728,
			"byteOffset":17716,
			"target":34962
		},
		{
			"buffer":0,
			"byteLength":1728,
			"byteOffset":19444,
			"target":34962
		},
		{
			"buffer":0,
			"byteLength":2592,
			"byteOffset":21172,
			"target":34962
		},
		{
			"buffer":0,
			"byteLength":1176,
			"byteOffset":23764,
			"target":34963
		},
		{
			"buffer":0,
			"byteLength":9024,
			"byteOffset":24940,
			"target":34962
		},
		{
			"buffer":0,
			"byteLength":9024,
			"byteOffset":33964,
			"target":34962
		},
		{
			"buffer":0,
			"byteLength":6016,
			"byteOffset":42988,
			"target":34962
		},
		{
			"buffer":0,
			"byteLength":6016,
			"byteOffset":49004,
			"target":34962
		},
		{
			"buffer":0,
			"byteLength":3936,
			"byteOffset":55020,
			"target":34963
		}
	],
	"buffers":[
		{
			"byteLength":58956,
			"uri":"BeltReaderDefaultInternalVariant.bin"
		}
	]
}
