{
	"asset":{
		"generator":"Khronos glTF Blender I/O v4.1.63",
		"version":"2.0"
	},
	"scene":0,
	"scenes":[
		{
			"name":"Scene",
			"nodes":[
				0
			]
		}
	],
	"nodes":[
		{
			"mesh":0,
			"name":"Belt_LeftCornerBorder_Layer0_LOD0.001"
		}
	],
	"meshes":[
		{
			"name":"Mesh.054",
			"primitives":[
				{
					"attributes":{
						"POSITION":0,
						"NORMAL":1,
						"TEXCOORD_0":2,
						"TEXCOORD_1":3,
						"COLOR_0":4
					},
					"indices":5
				}
			]
		}
	],
	"accessors":[
		{
			"bufferView":0,
			"componentType":5126,
			"count":423,
			"max":[
				0.5001025795936584,
				0.25998997688293457,
				0.5000182390213013
			],
			"min":[
				-0.28400957584381104,
				-1.1002644896507263e-05,
				-0.28400927782058716
			],
			"type":"VEC3"
		},
		{
			"bufferView":1,
			"componentType":5126,
			"count":423,
			"type":"VEC3"
		},
		{
			"bufferView":2,
			"componentType":5126,
			"count":423,
			"type":"VEC2"
		},
		{
			"bufferView":3,
			"componentType":5126,
			"count":423,
			"type":"VEC2"
		},
		{
			"bufferView":4,
			"componentType":5126,
			"count":423,
			"type":"VEC3"
		},
		{
			"bufferView":5,
			"componentType":5123,
			"count":891,
			"type":"SCALAR"
		}
	],
	"bufferViews":[
		{
			"buffer":0,
			"byteLength":5076,
			"byteOffset":0,
			"target":34962
		},
		{
			"buffer":0,
			"byteLength":5076,
			"byteOffset":5076,
			"target":34962
		},
		{
			"buffer":0,
			"byteLength":3384,
			"byteOffset":10152,
			"target":34962
		},
		{
			"buffer":0,
			"byteLength":3384,
			"byteOffset":13536,
			"target":34962
		},
		{
			"buffer":0,
			"byteLength":5076,
			"byteOffset":16920,
			"target":34962
		},
		{
			"buffer":0,
			"byteLength":1782,
			"byteOffset":21996,
			"target":34963
		}
	],
	"buffers":[
		{
			"byteLength":23780,
			"uri":"BeltDefaultLeftInternalVariant_Layer0.bin"
		}
	]
}
