{
	"asset":{
		"generator":"Khronos glTF Blender I/O v4.1.63",
		"version":"2.0"
	},
	"scene":0,
	"scenes":[
		{
			"name":"Scene",
			"nodes":[
				0
			]
		}
	],
	"nodes":[
		{
			"mesh":0,
			"name":"Belt_StraightBorder_Layer2_LOD0.001"
		}
	],
	"meshes":[
		{
			"name":"Mesh.052",
			"primitives":[
				{
					"attributes":{
						"POSITION":0,
						"NORMAL":1,
						"TEXCOORD_0":2,
						"TEXCOORD_1":3,
						"COLOR_0":4
					},
					"indices":5
				}
			]
		}
	],
	"accessors":[
		{
			"bufferView":0,
			"componentType":5126,
			"count":558,
			"max":[
				0.5010001063346863,
				0.2275393307209015,
				0.28398430347442627
			],
			"min":[
				-0.5001149773597717,
				0.09478968381881714,
				-0.2839842438697815
			],
			"type":"VEC3"
		},
		{
			"bufferView":1,
			"componentType":5126,
			"count":558,
			"type":"VEC3"
		},
		{
			"bufferView":2,
			"componentType":5126,
			"count":558,
			"type":"VEC2"
		},
		{
			"bufferView":3,
			"componentType":5126,
			"count":558,
			"type":"VEC2"
		},
		{
			"bufferView":4,
			"componentType":5126,
			"count":558,
			"type":"VEC3"
		},
		{
			"bufferView":5,
			"componentType":5123,
			"count":936,
			"type":"SCALAR"
		}
	],
	"bufferViews":[
		{
			"buffer":0,
			"byteLength":6696,
			"byteOffset":0,
			"target":34962
		},
		{
			"buffer":0,
			"byteLength":6696,
			"byteOffset":6696,
			"target":34962
		},
		{
			"buffer":0,
			"byteLength":4464,
			"byteOffset":13392,
			"target":34962
		},
		{
			"buffer":0,
			"byteLength":4464,
			"byteOffset":17856,
			"target":34962
		},
		{
			"buffer":0,
			"byteLength":6696,
			"byteOffset":22320,
			"target":34962
		},
		{
			"buffer":0,
			"byteLength":1872,
			"byteOffset":29016,
			"target":34963
		}
	],
	"buffers":[
		{
			"byteLength":30888,
			"uri":"BeltDefaultForwardInternalVariant_Layer2.bin"
		}
	]
}
