{
	"asset":{
		"generator":"Khronos glTF Blender I/O v4.1.63",
		"version":"2.0"
	},
	"scene":0,
	"scenes":[
		{
			"name":"Scene",
			"nodes":[
				0,
				1
			]
		}
	],
	"nodes":[
		{
			"mesh":0,
			"name":"Wire_IOConnector_Output_LOD0.017",
			"translation":[
				-1,
				0,
				0
			]
		},
		{
			"mesh":1,
			"name":"ConstantSignal_Main_LOD0"
		}
	],
	"meshes":[
		{
			"name":"Cube.086",
			"primitives":[
				{
					"attributes":{
						"POSITION":0,
						"NORMAL":1,
						"TEXCOORD_0":2,
						"TEXCOORD_1":3
					},
					"indices":4
				}
			]
		},
		{
			"name":"Cube.021",
			"primitives":[
				{
					"attributes":{
						"POSITION":5,
						"NORMAL":6,
						"TEXCOORD_0":7,
						"TEXCOORD_1":8
					},
					"indices":9
				}
			]
		}
	],
	"accessors":[
		{
			"bufferView":0,
			"componentType":5126,
			"count":44,
			"max":[
				0.8068038821220398,
				0.14550210535526276,
				0.04571656882762909
			],
			"min":[
				0.4173070192337036,
				0.05406896770000458,
				-0.04571656137704849
			],
			"type":"VEC3"
		},
		{
			"bufferView":1,
			"componentType":5126,
			"count":44,
			"type":"VEC3"
		},
		{
			"bufferView":2,
			"componentType":5126,
			"count":44,
			"type":"VEC2"
		},
		{
			"bufferView":3,
			"componentType":5126,
			"count":44,
			"type":"VEC2"
		},
		{
			"bufferView":4,
			"componentType":5123,
			"count":66,
			"type":"SCALAR"
		},
		{
			"bufferView":5,
			"componentType":5126,
			"count":288,
			"max":[
				0.3069644868373871,
				0.2715003490447998,
				0.288646936416626
			],
			"min":[
				-0.3069644868373871,
				0.005156584084033966,
				-0.288646936416626
			],
			"type":"VEC3"
		},
		{
			"bufferView":6,
			"componentType":5126,
			"count":288,
			"type":"VEC3"
		},
		{
			"bufferView":7,
			"componentType":5126,
			"count":288,
			"type":"VEC2"
		},
		{
			"bufferView":8,
			"componentType":5126,
			"count":288,
			"type":"VEC2"
		},
		{
			"bufferView":9,
			"componentType":5123,
			"count":780,
			"type":"SCALAR"
		}
	],
	"bufferViews":[
		{
			"buffer":0,
			"byteLength":528,
			"byteOffset":0,
			"target":34962
		},
		{
			"buffer":0,
			"byteLength":528,
			"byteOffset":528,
			"target":34962
		},
		{
			"buffer":0,
			"byteLength":352,
			"byteOffset":1056,
			"target":34962
		},
		{
			"buffer":0,
			"byteLength":352,
			"byteOffset":1408,
			"target":34962
		},
		{
			"buffer":0,
			"byteLength":132,
			"byteOffset":1760,
			"target":34963
		},
		{
			"buffer":0,
			"byteLength":3456,
			"byteOffset":1892,
			"target":34962
		},
		{
			"buffer":0,
			"byteLength":3456,
			"byteOffset":5348,
			"target":34962
		},
		{
			"buffer":0,
			"byteLength":2304,
			"byteOffset":8804,
			"target":34962
		},
		{
			"buffer":0,
			"byteLength":2304,
			"byteOffset":11108,
			"target":34962
		},
		{
			"buffer":0,
			"byteLength":1560,
			"byteOffset":13412,
			"target":34963
		}
	],
	"buffers":[
		{
			"byteLength":14972,
			"uri":"ConstantSignalDefaultInternalVariant.bin"
		}
	]
}
