{
	"asset":{
		"generator":"Khronos glTF Blender I/O v4.1.63",
		"version":"2.0"
	},
	"scene":0,
	"scenes":[
		{
			"name":"Scene",
			"nodes":[
				0,
				1
			]
		}
	],
	"nodes":[
		{
			"mesh":0,
			"name":"CrystalGenerator_Default_Main_LOD0"
		},
		{
			"mesh":1,
			"name":"CrystalGenerator_Glas_Default_LOD0"
		}
	],
	"meshes":[
		{
			"name":"Mesh.014",
			"primitives":[
				{
					"attributes":{
						"POSITION":0,
						"NORMAL":1,
						"TEXCOORD_0":2,
						"TEXCOORD_1":3,
						"COLOR_0":4
					},
					"indices":5
				}
			]
		},
		{
			"name":"Mesh.001",
			"primitives":[
				{
					"attributes":{
						"POSITION":6,
						"NORMAL":7,
						"TEXCOORD_0":8,
						"TEXCOORD_1":9,
						"TEXCOORD_2":10,
						"TEXCOORD_3":11,
						"COLOR_0":12
					},
					"indices":13
				}
			]
		}
	],
	"accessors":[
		{
			"bufferView":0,
			"componentType":5126,
			"count":3118,
			"max":[
				0.5020291805267334,
				1.5365440845489502,
				0.40262913703918457
			],
			"min":[
				-0.502029299736023,
				-7.450580596923828e-08,
				-1.3964687585830688
			],
			"type":"VEC3"
		},
		{
			"bufferView":1,
			"componentType":5126,
			"count":3118,
			"type":"VEC3"
		},
		{
			"bufferView":2,
			"componentType":5126,
			"count":3118,
			"type":"VEC2"
		},
		{
			"bufferView":3,
			"componentType":5126,
			"count":3118,
			"type":"VEC2"
		},
		{
			"bufferView":4,
			"componentType":5126,
			"count":3118,
			"type":"VEC3"
		},
		{
			"bufferView":5,
			"componentType":5123,
			"count":9597,
			"type":"SCALAR"
		},
		{
			"bufferView":6,
			"componentType":5126,
			"count":72,
			"max":[
				0.1485406905412674,
				0.34854310750961304,
				-0.3992546796798706
			],
			"min":[
				-0.14855091273784637,
				0.051454976201057434,
				-0.5829288959503174
			],
			"type":"VEC3"
		},
		{
			"bufferView":7,
			"componentType":5126,
			"count":72,
			"type":"VEC3"
		},
		{
			"bufferView":8,
			"componentType":5126,
			"count":72,
			"type":"VEC2"
		},
		{
			"bufferView":9,
			"componentType":5126,
			"count":72,
			"type":"VEC2"
		},
		{
			"bufferView":10,
			"componentType":5126,
			"count":72,
			"type":"VEC2"
		},
		{
			"bufferView":11,
			"componentType":5126,
			"count":72,
			"type":"VEC2"
		},
		{
			"bufferView":12,
			"componentType":5126,
			"count":72,
			"type":"VEC3"
		},
		{
			"bufferView":13,
			"componentType":5123,
			"count":192,
			"type":"SCALAR"
		}
	],
	"bufferViews":[
		{
			"buffer":0,
			"byteLength":37416,
			"byteOffset":0,
			"target":34962
		},
		{
			"buffer":0,
			"byteLength":37416,
			"byteOffset":37416,
			"target":34962
		},
		{
			"buffer":0,
			"byteLength":24944,
			"byteOffset":74832,
			"target":34962
		},
		{
			"buffer":0,
			"byteLength":24944,
			"byteOffset":99776,
			"target":34962
		},
		{
			"buffer":0,
			"byteLength":37416,
			"byteOffset":124720,
			"target":34962
		},
		{
			"buffer":0,
			"byteLength":19194,
			"byteOffset":162136,
			"target":34963
		},
		{
			"buffer":0,
			"byteLength":864,
			"byteOffset":181332,
			"target":34962
		},
		{
			"buffer":0,
			"byteLength":864,
			"byteOffset":182196,
			"target":34962
		},
		{
			"buffer":0,
			"byteLength":576,
			"byteOffset":183060,
			"target":34962
		},
		{
			"buffer":0,
			"byteLength":576,
			"byteOffset":183636,
			"target":34962
		},
		{
			"buffer":0,
			"byteLength":576,
			"byteOffset":184212,
			"target":34962
		},
		{
			"buffer":0,
			"byteLength":576,
			"byteOffset":184788,
			"target":34962
		},
		{
			"buffer":0,
			"byteLength":864,
			"byteOffset":185364,
			"target":34962
		},
		{
			"buffer":0,
			"byteLength":384,
			"byteOffset":186228,
			"target":34963
		}
	],
	"buffers":[
		{
			"byteLength":186612,
			"uri":"CrystalGeneratorDefaultInternalVariant.bin"
		}
	]
}
