{
	"asset":{
		"generator":"Khronos glTF Blender I/O v4.1.63",
		"version":"2.0"
	},
	"scene":0,
	"scenes":[
		{
			"name":"Scene",
			"nodes":[
				0,
				1,
				2,
				3
			]
		}
	],
	"nodes":[
		{
			"mesh":0,
			"name":"Cutter_Default_Main_LOD0"
		},
		{
			"mesh":1,
			"name":"Cutter_Default_Laser_LOD0"
		},
		{
			"mesh":2,
			"name":"Cutter_Default_TransportBlue_LOD0",
			"translation":[
				0,
				0.125884547829628,
				0
			]
		},
		{
			"mesh":3,
			"name":"Cutter_Default_Ribbon_LOD0",
			"scale":[
				1,
				0.9999951124191284,
				1
			],
			"translation":[
				0,
				0.20000000298023224,
				0.5
			]
		}
	],
	"meshes":[
		{
			"name":"Mesh.001",
			"primitives":[
				{
					"attributes":{
						"POSITION":0,
						"NORMAL":1,
						"TEXCOORD_0":2,
						"TEXCOORD_1":3,
						"COLOR_0":4
					},
					"indices":5
				}
			]
		},
		{
			"name":"Cube",
			"primitives":[
				{
					"attributes":{
						"POSITION":6,
						"NORMAL":7,
						"TEXCOORD_0":8,
						"TEXCOORD_1":9,
						"COLOR_0":10
					},
					"indices":11
				}
			]
		},
		{
			"name":"Mesh.008",
			"primitives":[
				{
					"attributes":{
						"POSITION":12,
						"NORMAL":13,
						"TEXCOORD_0":14,
						"TEXCOORD_1":15,
						"COLOR_0":16
					},
					"indices":17
				}
			]
		},
		{
			"name":"Mesh.009",
			"primitives":[
				{
					"attributes":{
						"POSITION":18,
						"NORMAL":19,
						"TEXCOORD_0":20,
						"TEXCOORD_1":21,
						"COLOR_0":22
					},
					"indices":23
				}
			]
		}
	],
	"accessors":[
		{
			"bufferView":0,
			"componentType":5126,
			"count":3032,
			"max":[
				0.5019574165344238,
				0.2600000202655792,
				1.4134232997894287
			],
			"min":[
				-0.5012388229370117,
				1.4901161193847656e-07,
				-0.43752872943878174
			],
			"type":"VEC3"
		},
		{
			"bufferView":1,
			"componentType":5126,
			"count":3032,
			"type":"VEC3"
		},
		{
			"bufferView":2,
			"componentType":5126,
			"count":3032,
			"type":"VEC2"
		},
		{
			"bufferView":3,
			"componentType":5126,
			"count":3032,
			"type":"VEC2"
		},
		{
			"bufferView":4,
			"componentType":5126,
			"count":3032,
			"type":"VEC3"
		},
		{
			"bufferView":5,
			"componentType":5123,
			"count":8526,
			"type":"SCALAR"
		},
		{
			"bufferView":6,
			"componentType":5126,
			"count":24,
			"max":[
				0.0003172088472638279,
				0.09596884250640869,
				0.17471718788146973
			],
			"min":[
				-0.0004599935782607645,
				0,
				-0.17471718788146973
			],
			"type":"VEC3"
		},
		{
			"bufferView":7,
			"componentType":5126,
			"count":24,
			"type":"VEC3"
		},
		{
			"bufferView":8,
			"componentType":5126,
			"count":24,
			"type":"VEC2"
		},
		{
			"bufferView":9,
			"componentType":5126,
			"count":24,
			"type":"VEC2"
		},
		{
			"bufferView":10,
			"componentType":5126,
			"count":24,
			"type":"VEC3"
		},
		{
			"bufferView":11,
			"componentType":5123,
			"count":36,
			"type":"SCALAR"
		},
		{
			"bufferView":12,
			"componentType":5126,
			"count":18,
			"max":[
				2.3932354764610864e-08,
				4.196401398406042e-17,
				0.17261961102485657
			],
			"min":[
				-0.17261961102485657,
				-1.7284408349027558e-09,
				-0.17261961102485657
			],
			"type":"VEC3"
		},
		{
			"bufferView":13,
			"componentType":5126,
			"count":18,
			"type":"VEC3"
		},
		{
			"bufferView":14,
			"componentType":5126,
			"count":18,
			"type":"VEC2"
		},
		{
			"bufferView":15,
			"componentType":5126,
			"count":18,
			"type":"VEC2"
		},
		{
			"bufferView":16,
			"componentType":5126,
			"count":18,
			"type":"VEC3"
		},
		{
			"bufferView":17,
			"componentType":5123,
			"count":48,
			"type":"SCALAR"
		},
		{
			"bufferView":18,
			"componentType":5126,
			"count":668,
			"max":[
				0.2894022464752197,
				0.012678055092692375,
				0.7931336164474487
			],
			"min":[
				-0.2894022464752197,
				-0.08732255548238754,
				-0.7931339740753174
			],
			"type":"VEC3"
		},
		{
			"bufferView":19,
			"componentType":5126,
			"count":668,
			"type":"VEC3"
		},
		{
			"bufferView":20,
			"componentType":5126,
			"count":668,
			"type":"VEC2"
		},
		{
			"bufferView":21,
			"componentType":5126,
			"count":668,
			"type":"VEC2"
		},
		{
			"bufferView":22,
			"componentType":5126,
			"count":668,
			"type":"VEC3"
		},
		{
			"bufferView":23,
			"componentType":5123,
			"count":1650,
			"type":"SCALAR"
		}
	],
	"bufferViews":[
		{
			"buffer":0,
			"byteLength":36384,
			"byteOffset":0,
			"target":34962
		},
		{
			"buffer":0,
			"byteLength":36384,
			"byteOffset":36384,
			"target":34962
		},
		{
			"buffer":0,
			"byteLength":24256,
			"byteOffset":72768,
			"target":34962
		},
		{
			"buffer":0,
			"byteLength":24256,
			"byteOffset":97024,
			"target":34962
		},
		{
			"buffer":0,
			"byteLength":36384,
			"byteOffset":121280,
			"target":34962
		},
		{
			"buffer":0,
			"byteLength":17052,
			"byteOffset":157664,
			"target":34963
		},
		{
			"buffer":0,
			"byteLength":288,
			"byteOffset":174716,
			"target":34962
		},
		{
			"buffer":0,
			"byteLength":288,
			"byteOffset":175004,
			"target":34962
		},
		{
			"buffer":0,
			"byteLength":192,
			"byteOffset":175292,
			"target":34962
		},
		{
			"buffer":0,
			"byteLength":192,
			"byteOffset":175484,
			"target":34962
		},
		{
			"buffer":0,
			"byteLength":288,
			"byteOffset":175676,
			"target":34962
		},
		{
			"buffer":0,
			"byteLength":72,
			"byteOffset":175964,
			"target":34963
		},
		{
			"buffer":0,
			"byteLength":216,
			"byteOffset":176036,
			"target":34962
		},
		{
			"buffer":0,
			"byteLength":216,
			"byteOffset":176252,
			"target":34962
		},
		{
			"buffer":0,
			"byteLength":144,
			"byteOffset":176468,
			"target":34962
		},
		{
			"buffer":0,
			"byteLength":144,
			"byteOffset":176612,
			"target":34962
		},
		{
			"buffer":0,
			"byteLength":216,
			"byteOffset":176756,
			"target":34962
		},
		{
			"buffer":0,
			"byteLength":96,
			"byteOffset":176972,
			"target":34963
		},
		{
			"buffer":0,
			"byteLength":8016,
			"byteOffset":177068,
			"target":34962
		},
		{
			"buffer":0,
			"byteLength":8016,
			"byteOffset":185084,
			"target":34962
		},
		{
			"buffer":0,
			"byteLength":5344,
			"byteOffset":193100,
			"target":34962
		},
		{
			"buffer":0,
			"byteLength":5344,
			"byteOffset":198444,
			"target":34962
		},
		{
			"buffer":0,
			"byteLength":8016,
			"byteOffset":203788,
			"target":34962
		},
		{
			"buffer":0,
			"byteLength":3300,
			"byteOffset":211804,
			"target":34963
		}
	],
	"buffers":[
		{
			"byteLength":215104,
			"uri":"CutterDefaultInternalVariant.bin"
		}
	]
}
