{
	"asset":{
		"generator":"Khronos glTF Blender I/O v4.1.63",
		"version":"2.0"
	},
	"scene":0,
	"scenes":[
		{
			"name":"Scene",
			"nodes":[
				0,
				1
			]
		}
	],
	"nodes":[
		{
			"mesh":0,
			"name":"BeltPort_Sender_Main_LOD0.002"
		},
		{
			"mesh":1,
			"name":"FluidBridgeSender_Container_Glass.001"
		}
	],
	"meshes":[
		{
			"name":"Cube.040",
			"primitives":[
				{
					"attributes":{
						"POSITION":0,
						"NORMAL":1,
						"TEXCOORD_0":2,
						"TEXCOORD_1":3,
						"COLOR_0":4
					},
					"indices":5
				}
			]
		},
		{
			"name":"Circle.020",
			"primitives":[
				{
					"attributes":{
						"POSITION":6,
						"NORMAL":7,
						"TEXCOORD_0":8
					},
					"indices":9
				}
			]
		}
	],
	"accessors":[
		{
			"bufferView":0,
			"componentType":5126,
			"count":1558,
			"max":[
				0.5010130405426025,
				0.45000001788139343,
				0.4620731472969055
			],
			"min":[
				-0.498970627784729,
				-5.961445026514411e-08,
				-0.4620731472969055
			],
			"type":"VEC3"
		},
		{
			"bufferView":1,
			"componentType":5126,
			"count":1558,
			"type":"VEC3"
		},
		{
			"bufferView":2,
			"componentType":5126,
			"count":1558,
			"type":"VEC2"
		},
		{
			"bufferView":3,
			"componentType":5126,
			"count":1558,
			"type":"VEC2"
		},
		{
			"bufferView":4,
			"componentType":5126,
			"count":1558,
			"type":"VEC3"
		},
		{
			"bufferView":5,
			"componentType":5123,
			"count":3855,
			"type":"SCALAR"
		},
		{
			"bufferView":6,
			"componentType":5126,
			"count":226,
			"max":[
				0.44158419966697693,
				0.9058178067207336,
				0.42295926809310913
			],
			"min":[
				0.1566014587879181,
				0.08280403167009354,
				-0.3980174660682678
			],
			"type":"VEC3"
		},
		{
			"bufferView":7,
			"componentType":5126,
			"count":226,
			"type":"VEC3"
		},
		{
			"bufferView":8,
			"componentType":5126,
			"count":226,
			"type":"VEC2"
		},
		{
			"bufferView":9,
			"componentType":5123,
			"count":1344,
			"type":"SCALAR"
		}
	],
	"bufferViews":[
		{
			"buffer":0,
			"byteLength":18696,
			"byteOffset":0,
			"target":34962
		},
		{
			"buffer":0,
			"byteLength":18696,
			"byteOffset":18696,
			"target":34962
		},
		{
			"buffer":0,
			"byteLength":12464,
			"byteOffset":37392,
			"target":34962
		},
		{
			"buffer":0,
			"byteLength":12464,
			"byteOffset":49856,
			"target":34962
		},
		{
			"buffer":0,
			"byteLength":18696,
			"byteOffset":62320,
			"target":34962
		},
		{
			"buffer":0,
			"byteLength":7710,
			"byteOffset":81016,
			"target":34963
		},
		{
			"buffer":0,
			"byteLength":2712,
			"byteOffset":88728,
			"target":34962
		},
		{
			"buffer":0,
			"byteLength":2712,
			"byteOffset":91440,
			"target":34962
		},
		{
			"buffer":0,
			"byteLength":1808,
			"byteOffset":94152,
			"target":34962
		},
		{
			"buffer":0,
			"byteLength":2688,
			"byteOffset":95960,
			"target":34963
		}
	],
	"buffers":[
		{
			"byteLength":98648,
			"uri":"FluidPortSenderInternalVariant.bin"
		}
	]
}
