{
	"asset":{
		"generator":"Khronos glTF Blender I/O v4.1.63",
		"version":"2.0"
	},
	"scene":0,
	"scenes":[
		{
			"name":"Scene",
			"nodes":[
				0,
				1
			]
		}
	],
	"nodes":[
		{
			"mesh":0,
			"name":"Fluid_Tank_Main_LOD0"
		},
		{
			"mesh":1,
			"name":"Fluid_Tank_Glas_LOD0"
		}
	],
	"meshes":[
		{
			"name":"Cube.008",
			"primitives":[
				{
					"attributes":{
						"POSITION":0,
						"NORMAL":1,
						"TEXCOORD_0":2,
						"TEXCOORD_1":3
					},
					"indices":4
				}
			]
		},
		{
			"name":"Cylinder",
			"primitives":[
				{
					"attributes":{
						"POSITION":5,
						"NORMAL":6
					},
					"indices":7
				}
			]
		}
	],
	"accessors":[
		{
			"bufferView":0,
			"componentType":5126,
			"count":1613,
			"max":[
				1.6601499319076538,
				1,
				1.4478967189788818
			],
			"min":[
				-0.6405946612358093,
				2.029331369612919e-09,
				-0.4478951096534729
			],
			"type":"VEC3"
		},
		{
			"bufferView":1,
			"componentType":5126,
			"count":1613,
			"type":"VEC3"
		},
		{
			"bufferView":2,
			"componentType":5126,
			"count":1613,
			"type":"VEC2"
		},
		{
			"bufferView":3,
			"componentType":5126,
			"count":1613,
			"type":"VEC2"
		},
		{
			"bufferView":4,
			"componentType":5123,
			"count":4362,
			"type":"SCALAR"
		},
		{
			"bufferView":5,
			"componentType":5126,
			"count":128,
			"max":[
				1.3849999904632568,
				0.9614660143852234,
				1.3850008249282837
			],
			"min":[
				-0.3850000500679016,
				0.35000020265579224,
				-0.38499915599823
			],
			"type":"VEC3"
		},
		{
			"bufferView":6,
			"componentType":5126,
			"count":128,
			"type":"VEC3"
		},
		{
			"bufferView":7,
			"componentType":5123,
			"count":768,
			"type":"SCALAR"
		}
	],
	"bufferViews":[
		{
			"buffer":0,
			"byteLength":19356,
			"byteOffset":0,
			"target":34962
		},
		{
			"buffer":0,
			"byteLength":19356,
			"byteOffset":19356,
			"target":34962
		},
		{
			"buffer":0,
			"byteLength":12904,
			"byteOffset":38712,
			"target":34962
		},
		{
			"buffer":0,
			"byteLength":12904,
			"byteOffset":51616,
			"target":34962
		},
		{
			"buffer":0,
			"byteLength":8724,
			"byteOffset":64520,
			"target":34963
		},
		{
			"buffer":0,
			"byteLength":1536,
			"byteOffset":73244,
			"target":34962
		},
		{
			"buffer":0,
			"byteLength":1536,
			"byteOffset":74780,
			"target":34962
		},
		{
			"buffer":0,
			"byteLength":1536,
			"byteOffset":76316,
			"target":34963
		}
	],
	"buffers":[
		{
			"byteLength":77852,
			"uri":"FluidStorageDefaultInternalVariant.bin"
		}
	]
}
