{
	"asset":{
		"generator":"Khronos glTF Blender I/O v4.1.63",
		"version":"2.0"
	},
	"scene":0,
	"scenes":[
		{
			"name":"Scene",
			"nodes":[
				0
			]
		}
	],
	"nodes":[
		{
			"mesh":0,
			"name":"Lift_2DownBackward_Layer0_LOD0"
		}
	],
	"meshes":[
		{
			"name":"Cube.009",
			"primitives":[
				{
					"attributes":{
						"POSITION":0,
						"NORMAL":1,
						"TEXCOORD_0":2,
						"TEXCOORD_1":3,
						"TEXCOORD_2":4,
						"COLOR_0":5
					},
					"indices":6
				}
			]
		}
	],
	"accessors":[
		{
			"bufferView":0,
			"componentType":5126,
			"count":2348,
			"max":[
				0.5010001063346863,
				0.2680619955062866,
				0.48021432757377625
			],
			"min":[
				-0.2345765233039856,
				-2,
				-0.48021432757377625
			],
			"type":"VEC3"
		},
		{
			"bufferView":1,
			"componentType":5126,
			"count":2348,
			"type":"VEC3"
		},
		{
			"bufferView":2,
			"componentType":5126,
			"count":2348,
			"type":"VEC2"
		},
		{
			"bufferView":3,
			"componentType":5126,
			"count":2348,
			"type":"VEC2"
		},
		{
			"bufferView":4,
			"componentType":5126,
			"count":2348,
			"type":"VEC2"
		},
		{
			"bufferView":5,
			"componentType":5126,
			"count":2348,
			"type":"VEC3"
		},
		{
			"bufferView":6,
			"componentType":5123,
			"count":6156,
			"type":"SCALAR"
		}
	],
	"bufferViews":[
		{
			"buffer":0,
			"byteLength":28176,
			"byteOffset":0,
			"target":34962
		},
		{
			"buffer":0,
			"byteLength":28176,
			"byteOffset":28176,
			"target":34962
		},
		{
			"buffer":0,
			"byteLength":18784,
			"byteOffset":56352,
			"target":34962
		},
		{
			"buffer":0,
			"byteLength":18784,
			"byteOffset":75136,
			"target":34962
		},
		{
			"buffer":0,
			"byteLength":18784,
			"byteOffset":93920,
			"target":34962
		},
		{
			"buffer":0,
			"byteLength":28176,
			"byteOffset":112704,
			"target":34962
		},
		{
			"buffer":0,
			"byteLength":12312,
			"byteOffset":140880,
			"target":34963
		}
	],
	"buffers":[
		{
			"byteLength":153192,
			"uri":"Lift2DownBackwardInternalVariant.bin"
		}
	]
}
