{
	"asset":{
		"generator":"Khronos glTF Blender I/O v4.1.63",
		"version":"2.0"
	},
	"scene":0,
	"scenes":[
		{
			"name":"Scene",
			"nodes":[
				0
			]
		}
	],
	"nodes":[
		{
			"mesh":0,
			"name":"Lift_Input_Layer0_LOD0.002"
		}
	],
	"meshes":[
		{
			"name":"Cube.061",
			"primitives":[
				{
					"attributes":{
						"POSITION":0,
						"NORMAL":1,
						"TEXCOORD_0":2,
						"TEXCOORD_1":3,
						"COLOR_0":4
					},
					"indices":5
				}
			]
		}
	],
	"accessors":[
		{
			"bufferView":0,
			"componentType":5126,
			"count":3382,
			"max":[
				0.5009999871253967,
				1.2781810760498047,
				0.5009999871253967
			],
			"min":[
				-0.4957188367843628,
				-5.21540641784668e-08,
				-0.4957185983657837
			],
			"type":"VEC3"
		},
		{
			"bufferView":1,
			"componentType":5126,
			"count":3382,
			"type":"VEC3"
		},
		{
			"bufferView":2,
			"componentType":5126,
			"count":3382,
			"type":"VEC2"
		},
		{
			"bufferView":3,
			"componentType":5126,
			"count":3382,
			"type":"VEC2"
		},
		{
			"bufferView":4,
			"componentType":5126,
			"count":3382,
			"type":"VEC3"
		},
		{
			"bufferView":5,
			"componentType":5123,
			"count":8694,
			"type":"SCALAR"
		}
	],
	"bufferViews":[
		{
			"buffer":0,
			"byteLength":40584,
			"byteOffset":0,
			"target":34962
		},
		{
			"buffer":0,
			"byteLength":40584,
			"byteOffset":40584,
			"target":34962
		},
		{
			"buffer":0,
			"byteLength":27056,
			"byteOffset":81168,
			"target":34962
		},
		{
			"buffer":0,
			"byteLength":27056,
			"byteOffset":108224,
			"target":34962
		},
		{
			"buffer":0,
			"byteLength":40584,
			"byteOffset":135280,
			"target":34962
		},
		{
			"buffer":0,
			"byteLength":17388,
			"byteOffset":175864,
			"target":34963
		}
	],
	"buffers":[
		{
			"byteLength":193252,
			"uri":"Lift1UpLeftInternalVariant_Layer0.bin"
		}
	]
}
