{
	"asset":{
		"generator":"Khronos glTF Blender I/O v4.1.63",
		"version":"2.0"
	},
	"scene":0,
	"scenes":[
		{
			"name":"Scene",
			"nodes":[
				0
			]
		}
	],
	"nodes":[
		{
			"mesh":0,
			"name":"Lift_Input_Layer1_LOD0.001"
		}
	],
	"meshes":[
		{
			"name":"Cube.130",
			"primitives":[
				{
					"attributes":{
						"POSITION":0,
						"NORMAL":1,
						"TEXCOORD_0":2,
						"TEXCOORD_1":3,
						"COLOR_0":4
					},
					"indices":5
				}
			]
		}
	],
	"accessors":[
		{
			"bufferView":0,
			"componentType":5126,
			"count":3429,
			"max":[
				0.5010000467300415,
				0.2781810760498047,
				0.4957185983657837
			],
			"min":[
				-0.5010000467300415,
				-1,
				-0.4957185983657837
			],
			"type":"VEC3"
		},
		{
			"bufferView":1,
			"componentType":5126,
			"count":3429,
			"type":"VEC3"
		},
		{
			"bufferView":2,
			"componentType":5126,
			"count":3429,
			"type":"VEC2"
		},
		{
			"bufferView":3,
			"componentType":5126,
			"count":3429,
			"type":"VEC2"
		},
		{
			"bufferView":4,
			"componentType":5126,
			"count":3429,
			"type":"VEC3"
		},
		{
			"bufferView":5,
			"componentType":5123,
			"count":8778,
			"type":"SCALAR"
		}
	],
	"bufferViews":[
		{
			"buffer":0,
			"byteLength":41148,
			"byteOffset":0,
			"target":34962
		},
		{
			"buffer":0,
			"byteLength":41148,
			"byteOffset":41148,
			"target":34962
		},
		{
			"buffer":0,
			"byteLength":27432,
			"byteOffset":82296,
			"target":34962
		},
		{
			"buffer":0,
			"byteLength":27432,
			"byteOffset":109728,
			"target":34962
		},
		{
			"buffer":0,
			"byteLength":41148,
			"byteOffset":137160,
			"target":34962
		},
		{
			"buffer":0,
			"byteLength":17556,
			"byteOffset":178308,
			"target":34963
		}
	],
	"buffers":[
		{
			"byteLength":195864,
			"uri":"Lift1DownForwardInternalVariant_Layer0.bin"
		}
	]
}
