{
	"asset":{
		"generator":"Khronos glTF Blender I/O v4.1.63",
		"version":"2.0"
	},
	"scene":0,
	"scenes":[
		{
			"name":"Scene",
			"nodes":[
				0
			]
		}
	],
	"nodes":[
		{
			"mesh":0,
			"name":"Lift_Input_Layer1_LOD0.003"
		}
	],
	"meshes":[
		{
			"name":"Cube.140",
			"primitives":[
				{
					"attributes":{
						"POSITION":0,
						"NORMAL":1,
						"TEXCOORD_0":2,
						"TEXCOORD_1":3,
						"COLOR_0":4
					},
					"indices":5
				}
			]
		}
	],
	"accessors":[
		{
			"bufferView":0,
			"componentType":5126,
			"count":3369,
			"max":[
				0.5010000467300415,
				0.2781810760498047,
				0.5010000467300415
			],
			"min":[
				-0.4957185983657837,
				-1,
				-0.4957188367843628
			],
			"type":"VEC3"
		},
		{
			"bufferView":1,
			"componentType":5126,
			"count":3369,
			"type":"VEC3"
		},
		{
			"bufferView":2,
			"componentType":5126,
			"count":3369,
			"type":"VEC2"
		},
		{
			"bufferView":3,
			"componentType":5126,
			"count":3369,
			"type":"VEC2"
		},
		{
			"bufferView":4,
			"componentType":5126,
			"count":3369,
			"type":"VEC3"
		},
		{
			"bufferView":5,
			"componentType":5123,
			"count":8670,
			"type":"SCALAR"
		}
	],
	"bufferViews":[
		{
			"buffer":0,
			"byteLength":40428,
			"byteOffset":0,
			"target":34962
		},
		{
			"buffer":0,
			"byteLength":40428,
			"byteOffset":40428,
			"target":34962
		},
		{
			"buffer":0,
			"byteLength":26952,
			"byteOffset":80856,
			"target":34962
		},
		{
			"buffer":0,
			"byteLength":26952,
			"byteOffset":107808,
			"target":34962
		},
		{
			"buffer":0,
			"byteLength":40428,
			"byteOffset":134760,
			"target":34962
		},
		{
			"buffer":0,
			"byteLength":17340,
			"byteOffset":175188,
			"target":34963
		}
	],
	"buffers":[
		{
			"byteLength":192528,
			"uri":"Lift1DownLeftInternalVariant_Layer0.bin"
		}
	]
}
