{
	"asset":{
		"generator":"Khronos glTF Blender I/O v4.1.63",
		"version":"2.0"
	},
	"scene":0,
	"scenes":[
		{
			"name":"Scene",
			"nodes":[
				0
			]
		}
	],
	"nodes":[
		{
			"mesh":0,
			"name":"Lift_2DownLeft_Layer0_LOD0"
		}
	],
	"meshes":[
		{
			"name":"Cube.006",
			"primitives":[
				{
					"attributes":{
						"POSITION":0,
						"NORMAL":1,
						"TEXCOORD_0":2,
						"TEXCOORD_1":3,
						"TEXCOORD_2":4,
						"COLOR_0":5
					},
					"indices":6
				}
			]
		}
	],
	"accessors":[
		{
			"bufferView":0,
			"componentType":5126,
			"count":2363,
			"max":[
				0.501000165939331,
				0.2680619955062866,
				0.5010002255439758
			],
			"min":[
				-0.480214387178421,
				-2,
				-0.48021435737609863
			],
			"type":"VEC3"
		},
		{
			"bufferView":1,
			"componentType":5126,
			"count":2363,
			"type":"VEC3"
		},
		{
			"bufferView":2,
			"componentType":5126,
			"count":2363,
			"type":"VEC2"
		},
		{
			"bufferView":3,
			"componentType":5126,
			"count":2363,
			"type":"VEC2"
		},
		{
			"bufferView":4,
			"componentType":5126,
			"count":2363,
			"type":"VEC2"
		},
		{
			"bufferView":5,
			"componentType":5126,
			"count":2363,
			"type":"VEC3"
		},
		{
			"bufferView":6,
			"componentType":5123,
			"count":6684,
			"type":"SCALAR"
		}
	],
	"bufferViews":[
		{
			"buffer":0,
			"byteLength":28356,
			"byteOffset":0,
			"target":34962
		},
		{
			"buffer":0,
			"byteLength":28356,
			"byteOffset":28356,
			"target":34962
		},
		{
			"buffer":0,
			"byteLength":18904,
			"byteOffset":56712,
			"target":34962
		},
		{
			"buffer":0,
			"byteLength":18904,
			"byteOffset":75616,
			"target":34962
		},
		{
			"buffer":0,
			"byteLength":18904,
			"byteOffset":94520,
			"target":34962
		},
		{
			"buffer":0,
			"byteLength":28356,
			"byteOffset":113424,
			"target":34962
		},
		{
			"buffer":0,
			"byteLength":13368,
			"byteOffset":141780,
			"target":34963
		}
	],
	"buffers":[
		{
			"byteLength":155148,
			"uri":"Lift2DownLeftInternalVariant.bin"
		}
	]
}
