{
	"asset":{
		"generator":"Khronos glTF Blender I/O v4.1.63",
		"version":"2.0"
	},
	"scene":0,
	"scenes":[
		{
			"name":"Scene",
			"nodes":[
				0
			]
		}
	],
	"nodes":[
		{
			"mesh":0,
			"name":"Lift_Input_Layer0_LOD0.005"
		}
	],
	"meshes":[
		{
			"name":"Cube.081",
			"primitives":[
				{
					"attributes":{
						"POSITION":0,
						"NORMAL":1,
						"TEXCOORD_0":2,
						"TEXCOORD_1":3,
						"COLOR_0":4
					},
					"indices":5
				}
			]
		}
	],
	"accessors":[
		{
			"bufferView":0,
			"componentType":5126,
			"count":3881,
			"max":[
				0.5010103583335876,
				1.2428205013275146,
				0.495068222284317
			],
			"min":[
				-0.08665916323661804,
				-0.027359485626220703,
				-0.495068222284317
			],
			"type":"VEC3"
		},
		{
			"bufferView":1,
			"componentType":5126,
			"count":3881,
			"type":"VEC3"
		},
		{
			"bufferView":2,
			"componentType":5126,
			"count":3881,
			"type":"VEC2"
		},
		{
			"bufferView":3,
			"componentType":5126,
			"count":3881,
			"type":"VEC2"
		},
		{
			"bufferView":4,
			"componentType":5126,
			"count":3881,
			"type":"VEC3"
		},
		{
			"bufferView":5,
			"componentType":5123,
			"count":9939,
			"type":"SCALAR"
		}
	],
	"bufferViews":[
		{
			"buffer":0,
			"byteLength":46572,
			"byteOffset":0,
			"target":34962
		},
		{
			"buffer":0,
			"byteLength":46572,
			"byteOffset":46572,
			"target":34962
		},
		{
			"buffer":0,
			"byteLength":31048,
			"byteOffset":93144,
			"target":34962
		},
		{
			"buffer":0,
			"byteLength":31048,
			"byteOffset":124192,
			"target":34962
		},
		{
			"buffer":0,
			"byteLength":46572,
			"byteOffset":155240,
			"target":34962
		},
		{
			"buffer":0,
			"byteLength":19878,
			"byteOffset":201812,
			"target":34963
		}
	],
	"buffers":[
		{
			"byteLength":221692,
			"uri":"Lift1UpBackwardInternalVariant_Layer1.bin"
		}
	]
}
