{
	"asset":{
		"generator":"Khronos glTF Blender I/O v4.1.63",
		"version":"2.0"
	},
	"scene":0,
	"scenes":[
		{
			"name":"Scene",
			"nodes":[
				0
			]
		}
	],
	"nodes":[
		{
			"mesh":0,
			"name":"Splitter_TBorder_Layer0_LOD0.001",
			"rotation":[
				0,
				-0.7071068286895752,
				0,
				0.7071068286895752
			]
		}
	],
	"meshes":[
		{
			"name":"Cube.069",
			"primitives":[
				{
					"attributes":{
						"POSITION":0,
						"NORMAL":1,
						"TEXCOORD_0":2,
						"TEXCOORD_1":3,
						"COLOR_0":4
					},
					"indices":5
				}
			]
		}
	],
	"accessors":[
		{
			"bufferView":0,
			"componentType":5126,
			"count":906,
			"max":[
				0.5000000596046448,
				0.2819181978702545,
				0.500999927520752
			],
			"min":[
				-0.2840093672275543,
				1.9621366220690106e-07,
				-0.5008468627929688
			],
			"type":"VEC3"
		},
		{
			"bufferView":1,
			"componentType":5126,
			"count":906,
			"type":"VEC3"
		},
		{
			"bufferView":2,
			"componentType":5126,
			"count":906,
			"type":"VEC2"
		},
		{
			"bufferView":3,
			"componentType":5126,
			"count":906,
			"type":"VEC2"
		},
		{
			"bufferView":4,
			"componentType":5126,
			"count":906,
			"type":"VEC3"
		},
		{
			"bufferView":5,
			"componentType":5123,
			"count":1890,
			"type":"SCALAR"
		}
	],
	"bufferViews":[
		{
			"buffer":0,
			"byteLength":10872,
			"byteOffset":0,
			"target":34962
		},
		{
			"buffer":0,
			"byteLength":10872,
			"byteOffset":10872,
			"target":34962
		},
		{
			"buffer":0,
			"byteLength":7248,
			"byteOffset":21744,
			"target":34962
		},
		{
			"buffer":0,
			"byteLength":7248,
			"byteOffset":28992,
			"target":34962
		},
		{
			"buffer":0,
			"byteLength":10872,
			"byteOffset":36240,
			"target":34962
		},
		{
			"buffer":0,
			"byteLength":3780,
			"byteOffset":47112,
			"target":34963
		}
	],
	"buffers":[
		{
			"byteLength":50892,
			"uri":"Merger2To1LInternalVariant_Layer0.bin"
		}
	]
}
