{
	"asset":{
		"generator":"Khronos glTF Blender I/O v4.1.63",
		"version":"2.0"
	},
	"scene":0,
	"scenes":[
		{
			"name":"Scene",
			"nodes":[
				0
			]
		}
	],
	"nodes":[
		{
			"mesh":0,
			"name":"Splitter_TBorder_Layer1_LOD0",
			"rotation":[
				0,
				-1,
				0,
				4.371138828673793e-08
			]
		}
	],
	"meshes":[
		{
			"name":"Cube.032",
			"primitives":[
				{
					"attributes":{
						"POSITION":0,
						"NORMAL":1,
						"TEXCOORD_0":2,
						"TEXCOORD_1":3,
						"COLOR_0":4
					},
					"indices":5
				}
			]
		}
	],
	"accessors":[
		{
			"bufferView":0,
			"componentType":5126,
			"count":2228,
			"max":[
				0.5033760666847229,
				0.2819181978702545,
				0.5024776458740234
			],
			"min":[
				-0.2837962508201599,
				-0.027359575033187866,
				-0.5024776458740234
			],
			"type":"VEC3"
		},
		{
			"bufferView":1,
			"componentType":5126,
			"count":2228,
			"type":"VEC3"
		},
		{
			"bufferView":2,
			"componentType":5126,
			"count":2228,
			"type":"VEC2"
		},
		{
			"bufferView":3,
			"componentType":5126,
			"count":2228,
			"type":"VEC2"
		},
		{
			"bufferView":4,
			"componentType":5126,
			"count":2228,
			"type":"VEC3"
		},
		{
			"bufferView":5,
			"componentType":5123,
			"count":4866,
			"type":"SCALAR"
		}
	],
	"bufferViews":[
		{
			"buffer":0,
			"byteLength":26736,
			"byteOffset":0,
			"target":34962
		},
		{
			"buffer":0,
			"byteLength":26736,
			"byteOffset":26736,
			"target":34962
		},
		{
			"buffer":0,
			"byteLength":17824,
			"byteOffset":53472,
			"target":34962
		},
		{
			"buffer":0,
			"byteLength":17824,
			"byteOffset":71296,
			"target":34962
		},
		{
			"buffer":0,
			"byteLength":26736,
			"byteOffset":89120,
			"target":34962
		},
		{
			"buffer":0,
			"byteLength":9732,
			"byteOffset":115856,
			"target":34963
		}
	],
	"buffers":[
		{
			"byteLength":125588,
			"uri":"MergerTShapeInternalVariant_Layer1.bin"
		}
	]
}
