{
	"asset":{
		"generator":"Khronos glTF Blender I/O v4.1.63",
		"version":"2.0"
	},
	"scene":0,
	"scenes":[
		{
			"name":"Scene",
			"nodes":[
				0
			]
		}
	],
	"nodes":[
		{
			"mesh":0,
			"name":"Merger_3to1_Belt_LOD0.001"
		}
	],
	"meshes":[
		{
			"name":"Cube.055",
			"primitives":[
				{
					"attributes":{
						"POSITION":0,
						"NORMAL":1,
						"TEXCOORD_0":2,
						"TEXCOORD_1":3,
						"COLOR_0":4
					},
					"indices":5
				}
			]
		}
	],
	"accessors":[
		{
			"bufferView":0,
			"componentType":5126,
			"count":2795,
			"max":[
				0.5033760666847229,
				0.2819181978702545,
				0.5024776458740234
			],
			"min":[
				-0.5033760666847229,
				-0.027359455823898315,
				-0.5024776458740234
			],
			"type":"VEC3"
		},
		{
			"bufferView":1,
			"componentType":5126,
			"count":2795,
			"type":"VEC3"
		},
		{
			"bufferView":2,
			"componentType":5126,
			"count":2795,
			"type":"VEC2"
		},
		{
			"bufferView":3,
			"componentType":5126,
			"count":2795,
			"type":"VEC2"
		},
		{
			"bufferView":4,
			"componentType":5126,
			"count":2795,
			"type":"VEC3"
		},
		{
			"bufferView":5,
			"componentType":5123,
			"count":6603,
			"type":"SCALAR"
		}
	],
	"bufferViews":[
		{
			"buffer":0,
			"byteLength":33540,
			"byteOffset":0,
			"target":34962
		},
		{
			"buffer":0,
			"byteLength":33540,
			"byteOffset":33540,
			"target":34962
		},
		{
			"buffer":0,
			"byteLength":22360,
			"byteOffset":67080,
			"target":34962
		},
		{
			"buffer":0,
			"byteLength":22360,
			"byteOffset":89440,
			"target":34962
		},
		{
			"buffer":0,
			"byteLength":33540,
			"byteOffset":111800,
			"target":34962
		},
		{
			"buffer":0,
			"byteLength":13206,
			"byteOffset":145340,
			"target":34963
		}
	],
	"buffers":[
		{
			"byteLength":158548,
			"uri":"Merger3To1InternalVariant_Layer1.bin"
		}
	]
}
