{
	"asset":{
		"generator":"Khronos glTF Blender I/O v4.1.63",
		"version":"2.0"
	},
	"scene":0,
	"scenes":[
		{
			"name":"Scene",
			"nodes":[
				0
			]
		}
	],
	"nodes":[
		{
			"mesh":0,
			"name":"Merger_3to1_Belt_LOD0.002"
		}
	],
	"meshes":[
		{
			"name":"Cube.056",
			"primitives":[
				{
					"attributes":{
						"POSITION":0,
						"NORMAL":1,
						"TEXCOORD_0":2,
						"TEXCOORD_1":3,
						"COLOR_0":4
					},
					"indices":5
				}
			]
		}
	],
	"accessors":[
		{
			"bufferView":0,
			"componentType":5126,
			"count":2019,
			"max":[
				0.5010794401168823,
				0.2819181978702545,
				0.5010000467300415
			],
			"min":[
				-0.5010794401168823,
				0.09478935599327087,
				-0.501000165939331
			],
			"type":"VEC3"
		},
		{
			"bufferView":1,
			"componentType":5126,
			"count":2019,
			"type":"VEC3"
		},
		{
			"bufferView":2,
			"componentType":5126,
			"count":2019,
			"type":"VEC2"
		},
		{
			"bufferView":3,
			"componentType":5126,
			"count":2019,
			"type":"VEC2"
		},
		{
			"bufferView":4,
			"componentType":5126,
			"count":2019,
			"type":"VEC3"
		},
		{
			"bufferView":5,
			"componentType":5123,
			"count":5151,
			"type":"SCALAR"
		}
	],
	"bufferViews":[
		{
			"buffer":0,
			"byteLength":24228,
			"byteOffset":0,
			"target":34962
		},
		{
			"buffer":0,
			"byteLength":24228,
			"byteOffset":24228,
			"target":34962
		},
		{
			"buffer":0,
			"byteLength":16152,
			"byteOffset":48456,
			"target":34962
		},
		{
			"buffer":0,
			"byteLength":16152,
			"byteOffset":64608,
			"target":34962
		},
		{
			"buffer":0,
			"byteLength":24228,
			"byteOffset":80760,
			"target":34962
		},
		{
			"buffer":0,
			"byteLength":10302,
			"byteOffset":104988,
			"target":34963
		}
	],
	"buffers":[
		{
			"byteLength":115292,
			"uri":"Merger3To1InternalVariant_Layer2.bin"
		}
	]
}
