{
	"asset":{
		"generator":"Khronos glTF Blender I/O v4.1.63",
		"version":"2.0"
	},
	"scene":0,
	"scenes":[
		{
			"name":"Scene",
			"nodes":[
				0
			]
		}
	],
	"nodes":[
		{
			"mesh":0,
			"name":"Merger_Default_Stopper_LOD0",
			"rotation":[
				0,
				0.7071068286895752,
				0,
				0.7071068286895752
			],
			"translation":[
				0,
				0.07999999821186066,
				0
			]
		}
	],
	"meshes":[
		{
			"name":"Cube.006",
			"primitives":[
				{
					"attributes":{
						"POSITION":0,
						"NORMAL":1,
						"TEXCOORD_0":2,
						"TEXCOORD_1":3
					},
					"indices":4
				}
			]
		}
	],
	"accessors":[
		{
			"bufferView":0,
			"componentType":5126,
			"count":1466,
			"max":[
				0.5010000467300415,
				0.20191819965839386,
				0.28398409485816956
			],
			"min":[
				-0.501000165939331,
				0.014789298176765442,
				-0.5010794401168823
			],
			"type":"VEC3"
		},
		{
			"bufferView":1,
			"componentType":5126,
			"count":1466,
			"type":"VEC3"
		},
		{
			"bufferView":2,
			"componentType":5126,
			"count":1466,
			"type":"VEC2"
		},
		{
			"bufferView":3,
			"componentType":5126,
			"count":1466,
			"type":"VEC2"
		},
		{
			"bufferView":4,
			"componentType":5123,
			"count":3363,
			"type":"SCALAR"
		}
	],
	"bufferViews":[
		{
			"buffer":0,
			"byteLength":17592,
			"byteOffset":0,
			"target":34962
		},
		{
			"buffer":0,
			"byteLength":17592,
			"byteOffset":17592,
			"target":34962
		},
		{
			"buffer":0,
			"byteLength":11728,
			"byteOffset":35184,
			"target":34962
		},
		{
			"buffer":0,
			"byteLength":11728,
			"byteOffset":46912,
			"target":34962
		},
		{
			"buffer":0,
			"byteLength":6726,
			"byteOffset":58640,
			"target":34963
		}
	],
	"buffers":[
		{
			"byteLength":65368,
			"uri":"MergerTShapeInternalVariant_Layer2.bin"
		}
	]
}
