{
	"asset":{
		"generator":"Khronos glTF Blender I/O v4.1.63",
		"version":"2.0"
	},
	"scene":0,
	"scenes":[
		{
			"name":"Scene",
			"nodes":[
				0,
				1,
				2
			]
		}
	],
	"nodes":[
		{
			"mesh":0,
			"name":"Painter_Default_Roll_LOD0",
			"translation":[
				0,
				0.4423988461494446,
				-0.4212111234664917
			]
		},
		{
			"mesh":1,
			"name":"Painter_Default_Hinge_LOD0",
			"translation":[
				0,
				0.4423980116844177,
				-0.414559006690979
			]
		},
		{
			"mesh":2,
			"name":"Painter_Default_Main_LOD0"
		}
	],
	"meshes":[
		{
			"name":"Cylinder.010",
			"primitives":[
				{
					"attributes":{
						"POSITION":0,
						"NORMAL":1,
						"TEXCOORD_0":2,
						"TEXCOORD_1":3,
						"COLOR_0":4
					},
					"indices":5
				}
			]
		},
		{
			"name":"Cylinder.004",
			"primitives":[
				{
					"attributes":{
						"POSITION":6,
						"NORMAL":7,
						"TEXCOORD_0":8,
						"TEXCOORD_1":9,
						"COLOR_0":10
					},
					"indices":11
				}
			]
		},
		{
			"name":"Cube.001",
			"primitives":[
				{
					"attributes":{
						"POSITION":12,
						"NORMAL":13,
						"TEXCOORD_0":14,
						"TEXCOORD_1":15,
						"COLOR_0":16
					},
					"indices":17
				}
			]
		}
	],
	"accessors":[
		{
			"bufferView":0,
			"componentType":5126,
			"count":340,
			"max":[
				0.10484649240970612,
				0.10484647005796432,
				0.5995578765869141
			],
			"min":[
				-0.1048465222120285,
				-0.10484655946493149,
				-1.0969317676412516e-09
			],
			"type":"VEC3"
		},
		{
			"bufferView":1,
			"componentType":5126,
			"count":340,
			"type":"VEC3"
		},
		{
			"bufferView":2,
			"componentType":5126,
			"count":340,
			"type":"VEC2"
		},
		{
			"bufferView":3,
			"componentType":5126,
			"count":340,
			"type":"VEC2"
		},
		{
			"bufferView":4,
			"componentType":5126,
			"count":340,
			"type":"VEC3"
		},
		{
			"bufferView":5,
			"componentType":5123,
			"count":1332,
			"type":"SCALAR"
		},
		{
			"bufferView":6,
			"componentType":5126,
			"count":196,
			"max":[
				0.05436425656080246,
				0.060086071491241455,
				0.05780452489852905
			],
			"min":[
				-0.054363757371902466,
				-0.4646614193916321,
				-0.06207585334777832
			],
			"type":"VEC3"
		},
		{
			"bufferView":7,
			"componentType":5126,
			"count":196,
			"type":"VEC3"
		},
		{
			"bufferView":8,
			"componentType":5126,
			"count":196,
			"type":"VEC2"
		},
		{
			"bufferView":9,
			"componentType":5126,
			"count":196,
			"type":"VEC2"
		},
		{
			"bufferView":10,
			"componentType":5126,
			"count":196,
			"type":"VEC3"
		},
		{
			"bufferView":11,
			"componentType":5123,
			"count":498,
			"type":"SCALAR"
		},
		{
			"bufferView":12,
			"componentType":5126,
			"count":3536,
			"max":[
				0.5020295977592468,
				0.4865726828575134,
				0.4722999334335327
			],
			"min":[
				-0.5020295977592468,
				-1.3330957699508872e-05,
				-1.500000238418579
			],
			"type":"VEC3"
		},
		{
			"bufferView":13,
			"componentType":5126,
			"count":3536,
			"type":"VEC3"
		},
		{
			"bufferView":14,
			"componentType":5126,
			"count":3536,
			"type":"VEC2"
		},
		{
			"bufferView":15,
			"componentType":5126,
			"count":3536,
			"type":"VEC2"
		},
		{
			"bufferView":16,
			"componentType":5126,
			"count":3536,
			"type":"VEC3"
		},
		{
			"bufferView":17,
			"componentType":5123,
			"count":10830,
			"type":"SCALAR"
		}
	],
	"bufferViews":[
		{
			"buffer":0,
			"byteLength":4080,
			"byteOffset":0,
			"target":34962
		},
		{
			"buffer":0,
			"byteLength":4080,
			"byteOffset":4080,
			"target":34962
		},
		{
			"buffer":0,
			"byteLength":2720,
			"byteOffset":8160,
			"target":34962
		},
		{
			"buffer":0,
			"byteLength":2720,
			"byteOffset":10880,
			"target":34962
		},
		{
			"buffer":0,
			"byteLength":4080,
			"byteOffset":13600,
			"target":34962
		},
		{
			"buffer":0,
			"byteLength":2664,
			"byteOffset":17680,
			"target":34963
		},
		{
			"buffer":0,
			"byteLength":2352,
			"byteOffset":20344,
			"target":34962
		},
		{
			"buffer":0,
			"byteLength":2352,
			"byteOffset":22696,
			"target":34962
		},
		{
			"buffer":0,
			"byteLength":1568,
			"byteOffset":25048,
			"target":34962
		},
		{
			"buffer":0,
			"byteLength":1568,
			"byteOffset":26616,
			"target":34962
		},
		{
			"buffer":0,
			"byteLength":2352,
			"byteOffset":28184,
			"target":34962
		},
		{
			"buffer":0,
			"byteLength":996,
			"byteOffset":30536,
			"target":34963
		},
		{
			"buffer":0,
			"byteLength":42432,
			"byteOffset":31532,
			"target":34962
		},
		{
			"buffer":0,
			"byteLength":42432,
			"byteOffset":73964,
			"target":34962
		},
		{
			"buffer":0,
			"byteLength":28288,
			"byteOffset":116396,
			"target":34962
		},
		{
			"buffer":0,
			"byteLength":28288,
			"byteOffset":144684,
			"target":34962
		},
		{
			"buffer":0,
			"byteLength":42432,
			"byteOffset":172972,
			"target":34962
		},
		{
			"buffer":0,
			"byteLength":21660,
			"byteOffset":215404,
			"target":34963
		}
	],
	"buffers":[
		{
			"byteLength":237064,
			"uri":"PainterDefaultInternalVariant.bin"
		}
	]
}
