{
	"asset":{
		"generator":"Khronos glTF Blender I/O v4.1.63",
		"version":"2.0"
	},
	"scene":0,
	"scenes":[
		{
			"name":"Scene",
			"nodes":[
				0,
				1,
				2,
				3
			]
		}
	],
	"nodes":[
		{
			"mesh":0,
			"name":"PinPusher_Default_ClampR_LOD0",
			"translation":[
				0,
				0.13005083799362183,
				0
			]
		},
		{
			"mesh":1,
			"name":"PinPusher_Default_Rotator_LOD0"
		},
		{
			"mesh":2,
			"name":"PinPusher_Default_ClampL_LOD0",
			"translation":[
				0,
				0.13005083799362183,
				0
			]
		},
		{
			"mesh":3,
			"name":"PinPusher_Default_Main_LOD0"
		}
	],
	"meshes":[
		{
			"name":"Cube.008",
			"primitives":[
				{
					"attributes":{
						"POSITION":0,
						"NORMAL":1,
						"TEXCOORD_0":2,
						"TEXCOORD_1":3,
						"COLOR_0":4
					},
					"indices":5
				}
			]
		},
		{
			"name":"Cube.014",
			"primitives":[
				{
					"attributes":{
						"POSITION":6,
						"NORMAL":7,
						"TEXCOORD_0":8,
						"TEXCOORD_1":9,
						"COLOR_0":10
					},
					"indices":11
				}
			]
		},
		{
			"name":"Cube.020",
			"primitives":[
				{
					"attributes":{
						"POSITION":12,
						"NORMAL":13,
						"TEXCOORD_0":14,
						"TEXCOORD_1":15,
						"COLOR_0":16
					},
					"indices":5
				}
			]
		},
		{
			"name":"Cube.010",
			"primitives":[
				{
					"attributes":{
						"POSITION":17,
						"NORMAL":18,
						"TEXCOORD_0":19,
						"TEXCOORD_1":20,
						"COLOR_0":21
					},
					"indices":22
				}
			]
		}
	],
	"accessors":[
		{
			"bufferView":0,
			"componentType":5126,
			"count":342,
			"max":[
				0.11180905252695084,
				0.10783743858337402,
				-0.15126194059848785
			],
			"min":[
				-0.11180905252695084,
				0.049086228013038635,
				-0.3783209025859833
			],
			"type":"VEC3"
		},
		{
			"bufferView":1,
			"componentType":5126,
			"count":342,
			"type":"VEC3"
		},
		{
			"bufferView":2,
			"componentType":5126,
			"count":342,
			"type":"VEC2"
		},
		{
			"bufferView":3,
			"componentType":5126,
			"count":342,
			"type":"VEC2"
		},
		{
			"bufferView":4,
			"componentType":5126,
			"count":342,
			"type":"VEC3"
		},
		{
			"bufferView":5,
			"componentType":5123,
			"count":858,
			"type":"SCALAR"
		},
		{
			"bufferView":6,
			"componentType":5126,
			"count":52,
			"max":[
				0.18372492492198944,
				0.09698915481567383,
				0.18372492492198944
			],
			"min":[
				-0.18372492492198944,
				0.09698915481567383,
				-0.18372492492198944
			],
			"type":"VEC3"
		},
		{
			"bufferView":7,
			"componentType":5126,
			"count":52,
			"type":"VEC3"
		},
		{
			"bufferView":8,
			"componentType":5126,
			"count":52,
			"type":"VEC2"
		},
		{
			"bufferView":9,
			"componentType":5126,
			"count":52,
			"type":"VEC2"
		},
		{
			"bufferView":10,
			"componentType":5126,
			"count":52,
			"type":"VEC3"
		},
		{
			"bufferView":11,
			"componentType":5123,
			"count":144,
			"type":"SCALAR"
		},
		{
			"bufferView":12,
			"componentType":5126,
			"count":342,
			"max":[
				0.11180917173624039,
				0.10783743858337402,
				0.37832093238830566
			],
			"min":[
				-0.11180893331766129,
				0.049086228013038635,
				0.15126194059848785
			],
			"type":"VEC3"
		},
		{
			"bufferView":13,
			"componentType":5126,
			"count":342,
			"type":"VEC3"
		},
		{
			"bufferView":14,
			"componentType":5126,
			"count":342,
			"type":"VEC2"
		},
		{
			"bufferView":15,
			"componentType":5126,
			"count":342,
			"type":"VEC2"
		},
		{
			"bufferView":16,
			"componentType":5126,
			"count":342,
			"type":"VEC3"
		},
		{
			"bufferView":17,
			"componentType":5126,
			"count":1563,
			"max":[
				0.5003241300582886,
				0.25999051332473755,
				0.4619962275028229
			],
			"min":[
				-0.5003241300582886,
				0.014945081435143948,
				-0.4619962275028229
			],
			"type":"VEC3"
		},
		{
			"bufferView":18,
			"componentType":5126,
			"count":1563,
			"type":"VEC3"
		},
		{
			"bufferView":19,
			"componentType":5126,
			"count":1563,
			"type":"VEC2"
		},
		{
			"bufferView":20,
			"componentType":5126,
			"count":1563,
			"type":"VEC2"
		},
		{
			"bufferView":21,
			"componentType":5126,
			"count":1563,
			"type":"VEC3"
		},
		{
			"bufferView":22,
			"componentType":5123,
			"count":4119,
			"type":"SCALAR"
		}
	],
	"bufferViews":[
		{
			"buffer":0,
			"byteLength":4104,
			"byteOffset":0,
			"target":34962
		},
		{
			"buffer":0,
			"byteLength":4104,
			"byteOffset":4104,
			"target":34962
		},
		{
			"buffer":0,
			"byteLength":2736,
			"byteOffset":8208,
			"target":34962
		},
		{
			"buffer":0,
			"byteLength":2736,
			"byteOffset":10944,
			"target":34962
		},
		{
			"buffer":0,
			"byteLength":4104,
			"byteOffset":13680,
			"target":34962
		},
		{
			"buffer":0,
			"byteLength":1716,
			"byteOffset":17784,
			"target":34963
		},
		{
			"buffer":0,
			"byteLength":624,
			"byteOffset":19500,
			"target":34962
		},
		{
			"buffer":0,
			"byteLength":624,
			"byteOffset":20124,
			"target":34962
		},
		{
			"buffer":0,
			"byteLength":416,
			"byteOffset":20748,
			"target":34962
		},
		{
			"buffer":0,
			"byteLength":416,
			"byteOffset":21164,
			"target":34962
		},
		{
			"buffer":0,
			"byteLength":624,
			"byteOffset":21580,
			"target":34962
		},
		{
			"buffer":0,
			"byteLength":288,
			"byteOffset":22204,
			"target":34963
		},
		{
			"buffer":0,
			"byteLength":4104,
			"byteOffset":22492,
			"target":34962
		},
		{
			"buffer":0,
			"byteLength":4104,
			"byteOffset":26596,
			"target":34962
		},
		{
			"buffer":0,
			"byteLength":2736,
			"byteOffset":30700,
			"target":34962
		},
		{
			"buffer":0,
			"byteLength":2736,
			"byteOffset":33436,
			"target":34962
		},
		{
			"buffer":0,
			"byteLength":4104,
			"byteOffset":36172,
			"target":34962
		},
		{
			"buffer":0,
			"byteLength":18756,
			"byteOffset":40276,
			"target":34962
		},
		{
			"buffer":0,
			"byteLength":18756,
			"byteOffset":59032,
			"target":34962
		},
		{
			"buffer":0,
			"byteLength":12504,
			"byteOffset":77788,
			"target":34962
		},
		{
			"buffer":0,
			"byteLength":12504,
			"byteOffset":90292,
			"target":34962
		},
		{
			"buffer":0,
			"byteLength":18756,
			"byteOffset":102796,
			"target":34962
		},
		{
			"buffer":0,
			"byteLength":8238,
			"byteOffset":121552,
			"target":34963
		}
	],
	"buffers":[
		{
			"byteLength":129792,
			"uri":"PinPusherDefaultInternalVariant.bin"
		}
	]
}
