{
	"asset":{
		"generator":"Khronos glTF Blender I/O v4.1.63",
		"version":"2.0"
	},
	"scene":0,
	"scenes":[
		{
			"name":"Scene",
			"nodes":[
				0,
				1
			]
		}
	],
	"nodes":[
		{
			"mesh":0,
			"name":"Rotator_90CCW_Main_LOD0"
		},
		{
			"mesh":1,
			"name":"Rotator_90CCW_Arrows_LOD0"
		}
	],
	"meshes":[
		{
			"name":"Cube.007",
			"primitives":[
				{
					"attributes":{
						"POSITION":0,
						"NORMAL":1,
						"TEXCOORD_0":2,
						"TEXCOORD_1":3,
						"COLOR_0":4
					},
					"indices":5
				}
			]
		},
		{
			"name":"Mesh.005",
			"primitives":[
				{
					"attributes":{
						"POSITION":6,
						"NORMAL":7,
						"TEXCOORD_0":8,
						"TEXCOORD_1":9,
						"COLOR_0":10
					},
					"indices":11
				}
			]
		}
	],
	"accessors":[
		{
			"bufferView":0,
			"componentType":5126,
			"count":1162,
			"max":[
				0.5019545555114746,
				0.3116881251335144,
				0.4938048720359802
			],
			"min":[
				-0.5019545555114746,
				-7.18235969543457e-06,
				-0.4938049614429474
			],
			"type":"VEC3"
		},
		{
			"bufferView":1,
			"componentType":5126,
			"count":1162,
			"type":"VEC3"
		},
		{
			"bufferView":2,
			"componentType":5126,
			"count":1162,
			"type":"VEC2"
		},
		{
			"bufferView":3,
			"componentType":5126,
			"count":1162,
			"type":"VEC2"
		},
		{
			"bufferView":4,
			"componentType":5126,
			"count":1162,
			"type":"VEC3"
		},
		{
			"bufferView":5,
			"componentType":5123,
			"count":3171,
			"type":"SCALAR"
		},
		{
			"bufferView":6,
			"componentType":5126,
			"count":385,
			"max":[
				0.3252788484096527,
				0.2042805403470993,
				0.3252788484096527
			],
			"min":[
				-0.3252788484096527,
				0.1264563798904419,
				-0.3252788484096527
			],
			"type":"VEC3"
		},
		{
			"bufferView":7,
			"componentType":5126,
			"count":385,
			"type":"VEC3"
		},
		{
			"bufferView":8,
			"componentType":5126,
			"count":385,
			"type":"VEC2"
		},
		{
			"bufferView":9,
			"componentType":5126,
			"count":385,
			"type":"VEC2"
		},
		{
			"bufferView":10,
			"componentType":5126,
			"count":385,
			"type":"VEC3"
		},
		{
			"bufferView":11,
			"componentType":5123,
			"count":1008,
			"type":"SCALAR"
		}
	],
	"bufferViews":[
		{
			"buffer":0,
			"byteLength":13944,
			"byteOffset":0,
			"target":34962
		},
		{
			"buffer":0,
			"byteLength":13944,
			"byteOffset":13944,
			"target":34962
		},
		{
			"buffer":0,
			"byteLength":9296,
			"byteOffset":27888,
			"target":34962
		},
		{
			"buffer":0,
			"byteLength":9296,
			"byteOffset":37184,
			"target":34962
		},
		{
			"buffer":0,
			"byteLength":13944,
			"byteOffset":46480,
			"target":34962
		},
		{
			"buffer":0,
			"byteLength":6342,
			"byteOffset":60424,
			"target":34963
		},
		{
			"buffer":0,
			"byteLength":4620,
			"byteOffset":66768,
			"target":34962
		},
		{
			"buffer":0,
			"byteLength":4620,
			"byteOffset":71388,
			"target":34962
		},
		{
			"buffer":0,
			"byteLength":3080,
			"byteOffset":76008,
			"target":34962
		},
		{
			"buffer":0,
			"byteLength":3080,
			"byteOffset":79088,
			"target":34962
		},
		{
			"buffer":0,
			"byteLength":4620,
			"byteOffset":82168,
			"target":34962
		},
		{
			"buffer":0,
			"byteLength":2016,
			"byteOffset":86788,
			"target":34963
		}
	],
	"buffers":[
		{
			"byteLength":88804,
			"uri":"RotatorOneQuadCCWInternalVariant.bin"
		}
	]
}
