{
	"asset":{
		"generator":"Khronos glTF Blender I/O v4.1.63",
		"version":"2.0"
	},
	"scene":0,
	"scenes":[
		{
			"name":"Scene",
			"nodes":[
				0
			]
		}
	],
	"nodes":[
		{
			"mesh":0,
			"name":"SandboxItemProducer"
		}
	],
	"meshes":[
		{
			"name":"Cube.001",
			"primitives":[
				{
					"attributes":{
						"POSITION":0,
						"NORMAL":1,
						"TEXCOORD_0":2,
						"TEXCOORD_1":3,
						"COLOR_0":4
					},
					"indices":5
				}
			]
		}
	],
	"accessors":[
		{
			"bufferView":0,
			"componentType":5126,
			"count":277,
			"max":[
				0.45356276631355286,
				0.6600001454353333,
				0.4651700556278229
			],
			"min":[
				-0.5,
				-8.550586017008754e-09,
				-0.4651700258255005
			],
			"type":"VEC3"
		},
		{
			"bufferView":1,
			"componentType":5126,
			"count":277,
			"type":"VEC3"
		},
		{
			"bufferView":2,
			"componentType":5126,
			"count":277,
			"type":"VEC2"
		},
		{
			"bufferView":3,
			"componentType":5126,
			"count":277,
			"type":"VEC2"
		},
		{
			"bufferView":4,
			"componentType":5126,
			"count":277,
			"type":"VEC3"
		},
		{
			"bufferView":5,
			"componentType":5123,
			"count":768,
			"type":"SCALAR"
		}
	],
	"bufferViews":[
		{
			"buffer":0,
			"byteLength":3324,
			"byteOffset":0,
			"target":34962
		},
		{
			"buffer":0,
			"byteLength":3324,
			"byteOffset":3324,
			"target":34962
		},
		{
			"buffer":0,
			"byteLength":2216,
			"byteOffset":6648,
			"target":34962
		},
		{
			"buffer":0,
			"byteLength":2216,
			"byteOffset":8864,
			"target":34962
		},
		{
			"buffer":0,
			"byteLength":3324,
			"byteOffset":11080,
			"target":34962
		},
		{
			"buffer":0,
			"byteLength":1536,
			"byteOffset":14404,
			"target":34963
		}
	],
	"buffers":[
		{
			"byteLength":15940,
			"uri":"SandboxItemProducerDefaultInternalVariant.bin"
		}
	]
}
