{
	"asset":{
		"generator":"Khronos glTF Blender I/O v4.1.63",
		"version":"2.0"
	},
	"scene":0,
	"scenes":[
		{
			"name":"Scene",
			"nodes":[
				0
			]
		}
	],
	"nodes":[
		{
			"mesh":0,
			"name":"Splitter_DefaultBorder_Layer1_LOD0.001",
			"rotation":[
				0,
				-1,
				0,
				4.371138828673793e-08
			]
		}
	],
	"meshes":[
		{
			"name":"Cube.057",
			"primitives":[
				{
					"attributes":{
						"POSITION":0,
						"NORMAL":1,
						"TEXCOORD_0":2,
						"TEXCOORD_1":3,
						"COLOR_0":4
					},
					"indices":5
				}
			]
		}
	],
	"accessors":[
		{
			"bufferView":0,
			"componentType":5126,
			"count":1846,
			"max":[
				0.5024776458740234,
				0.2627865970134735,
				0.33854421973228455
			],
			"min":[
				-0.5024776458740234,
				-0.02735953778028488,
				-0.5033760666847229
			],
			"type":"VEC3"
		},
		{
			"bufferView":1,
			"componentType":5126,
			"count":1846,
			"type":"VEC3"
		},
		{
			"bufferView":2,
			"componentType":5126,
			"count":1846,
			"type":"VEC2"
		},
		{
			"bufferView":3,
			"componentType":5126,
			"count":1846,
			"type":"VEC2"
		},
		{
			"bufferView":4,
			"componentType":5126,
			"count":1846,
			"type":"VEC3"
		},
		{
			"bufferView":5,
			"componentType":5123,
			"count":4095,
			"type":"SCALAR"
		}
	],
	"bufferViews":[
		{
			"buffer":0,
			"byteLength":22152,
			"byteOffset":0,
			"target":34962
		},
		{
			"buffer":0,
			"byteLength":22152,
			"byteOffset":22152,
			"target":34962
		},
		{
			"buffer":0,
			"byteLength":14768,
			"byteOffset":44304,
			"target":34962
		},
		{
			"buffer":0,
			"byteLength":14768,
			"byteOffset":59072,
			"target":34962
		},
		{
			"buffer":0,
			"byteLength":22152,
			"byteOffset":73840,
			"target":34962
		},
		{
			"buffer":0,
			"byteLength":8190,
			"byteOffset":95992,
			"target":34963
		}
	],
	"buffers":[
		{
			"byteLength":104184,
			"uri":"Splitter1To2LInternalVariant_Layer1.bin"
		}
	]
}
