{
	"asset":{
		"generator":"Khronos glTF Blender I/O v4.1.63",
		"version":"2.0"
	},
	"scene":0,
	"scenes":[
		{
			"name":"Scene",
			"nodes":[
				0
			]
		}
	],
	"nodes":[
		{
			"mesh":0,
			"name":"Splitter_1to2T_Belt_LOD0.001"
		}
	],
	"meshes":[
		{
			"name":"Cube.064",
			"primitives":[
				{
					"attributes":{
						"POSITION":0,
						"NORMAL":1,
						"TEXCOORD_0":2,
						"TEXCOORD_1":3,
						"COLOR_0":4
					},
					"indices":5
				}
			]
		}
	],
	"accessors":[
		{
			"bufferView":0,
			"componentType":5126,
			"count":1772,
			"max":[
				0.5033760666847229,
				0.25999027490615845,
				0.5024776458740234
			],
			"min":[
				-0.2837962210178375,
				-0.027359575033187866,
				-0.5024776458740234
			],
			"type":"VEC3"
		},
		{
			"bufferView":1,
			"componentType":5126,
			"count":1772,
			"type":"VEC3"
		},
		{
			"bufferView":2,
			"componentType":5126,
			"count":1772,
			"type":"VEC2"
		},
		{
			"bufferView":3,
			"componentType":5126,
			"count":1772,
			"type":"VEC2"
		},
		{
			"bufferView":4,
			"componentType":5126,
			"count":1772,
			"type":"VEC3"
		},
		{
			"bufferView":5,
			"componentType":5123,
			"count":3948,
			"type":"SCALAR"
		}
	],
	"bufferViews":[
		{
			"buffer":0,
			"byteLength":21264,
			"byteOffset":0,
			"target":34962
		},
		{
			"buffer":0,
			"byteLength":21264,
			"byteOffset":21264,
			"target":34962
		},
		{
			"buffer":0,
			"byteLength":14176,
			"byteOffset":42528,
			"target":34962
		},
		{
			"buffer":0,
			"byteLength":14176,
			"byteOffset":56704,
			"target":34962
		},
		{
			"buffer":0,
			"byteLength":21264,
			"byteOffset":70880,
			"target":34962
		},
		{
			"buffer":0,
			"byteLength":7896,
			"byteOffset":92144,
			"target":34963
		}
	],
	"buffers":[
		{
			"byteLength":100040,
			"uri":"SplitterTShapeInternalVariant_Layer1.bin"
		}
	]
}
