{
	"asset":{
		"generator":"Khronos glTF Blender I/O v4.1.63",
		"version":"2.0"
	},
	"scene":0,
	"scenes":[
		{
			"name":"Scene",
			"nodes":[
				0
			]
		}
	],
	"nodes":[
		{
			"mesh":0,
			"name":"Splitter_DefaultBorder_Layer0_LOD0.001",
			"rotation":[
				0,
				-1,
				0,
				4.371138828673793e-08
			]
		}
	],
	"meshes":[
		{
			"name":"Cube.019",
			"primitives":[
				{
					"attributes":{
						"POSITION":0,
						"NORMAL":1,
						"TEXCOORD_0":2,
						"TEXCOORD_1":3,
						"COLOR_0":4
					},
					"indices":5
				}
			]
		}
	],
	"accessors":[
		{
			"bufferView":0,
			"componentType":5126,
			"count":794,
			"max":[
				0.50002521276474,
				0.2627865970134735,
				0.33854421973228455
			],
			"min":[
				-0.5000252723693848,
				1.9621366220690106e-07,
				-0.5000000596046448
			],
			"type":"VEC3"
		},
		{
			"bufferView":1,
			"componentType":5126,
			"count":794,
			"type":"VEC3"
		},
		{
			"bufferView":2,
			"componentType":5126,
			"count":794,
			"type":"VEC2"
		},
		{
			"bufferView":3,
			"componentType":5126,
			"count":794,
			"type":"VEC2"
		},
		{
			"bufferView":4,
			"componentType":5126,
			"count":794,
			"type":"VEC3"
		},
		{
			"bufferView":5,
			"componentType":5123,
			"count":1740,
			"type":"SCALAR"
		}
	],
	"bufferViews":[
		{
			"buffer":0,
			"byteLength":9528,
			"byteOffset":0,
			"target":34962
		},
		{
			"buffer":0,
			"byteLength":9528,
			"byteOffset":9528,
			"target":34962
		},
		{
			"buffer":0,
			"byteLength":6352,
			"byteOffset":19056,
			"target":34962
		},
		{
			"buffer":0,
			"byteLength":6352,
			"byteOffset":25408,
			"target":34962
		},
		{
			"buffer":0,
			"byteLength":9528,
			"byteOffset":31760,
			"target":34962
		},
		{
			"buffer":0,
			"byteLength":3480,
			"byteOffset":41288,
			"target":34963
		}
	],
	"buffers":[
		{
			"byteLength":44768,
			"uri":"Splitter1To2LInternalVariant_Layer0.bin"
		}
	]
}
