{
	"asset":{
		"generator":"Khronos glTF Blender I/O v4.1.63",
		"version":"2.0"
	},
	"scene":0,
	"scenes":[
		{
			"name":"Scene",
			"nodes":[
				0,
				1
			]
		}
	],
	"nodes":[
		{
			"mesh":0,
			"name":"Wire_IOConnector_Output_LOD0.018",
			"translation":[
				-1,
				0,
				0
			]
		},
		{
			"mesh":1,
			"name":"Wire_Receiver_LOD0"
		}
	],
	"meshes":[
		{
			"name":"Cube.094",
			"primitives":[
				{
					"attributes":{
						"POSITION":0,
						"NORMAL":1,
						"TEXCOORD_0":2,
						"TEXCOORD_1":3
					},
					"indices":4
				}
			]
		},
		{
			"name":"Cylinder.001",
			"primitives":[
				{
					"attributes":{
						"POSITION":5,
						"NORMAL":6,
						"TEXCOORD_0":7,
						"TEXCOORD_1":8
					},
					"indices":9
				}
			]
		}
	],
	"accessors":[
		{
			"bufferView":0,
			"componentType":5126,
			"count":44,
			"max":[
				0.8068038821220398,
				0.14550210535526276,
				0.04571656882762909
			],
			"min":[
				0.4173070192337036,
				0.05406896770000458,
				-0.04571656137704849
			],
			"type":"VEC3"
		},
		{
			"bufferView":1,
			"componentType":5126,
			"count":44,
			"type":"VEC3"
		},
		{
			"bufferView":2,
			"componentType":5126,
			"count":44,
			"type":"VEC2"
		},
		{
			"bufferView":3,
			"componentType":5126,
			"count":44,
			"type":"VEC2"
		},
		{
			"bufferView":4,
			"componentType":5123,
			"count":66,
			"type":"SCALAR"
		},
		{
			"bufferView":5,
			"componentType":5126,
			"count":1298,
			"max":[
				0.48381689190864563,
				1.0851824283599854,
				0.40370973944664
			],
			"min":[
				-0.4032444655895233,
				8.960302722016422e-09,
				-0.40288060903549194
			],
			"type":"VEC3"
		},
		{
			"bufferView":6,
			"componentType":5126,
			"count":1298,
			"type":"VEC3"
		},
		{
			"bufferView":7,
			"componentType":5126,
			"count":1298,
			"type":"VEC2"
		},
		{
			"bufferView":8,
			"componentType":5126,
			"count":1298,
			"type":"VEC2"
		},
		{
			"bufferView":9,
			"componentType":5123,
			"count":5733,
			"type":"SCALAR"
		}
	],
	"bufferViews":[
		{
			"buffer":0,
			"byteLength":528,
			"byteOffset":0,
			"target":34962
		},
		{
			"buffer":0,
			"byteLength":528,
			"byteOffset":528,
			"target":34962
		},
		{
			"buffer":0,
			"byteLength":352,
			"byteOffset":1056,
			"target":34962
		},
		{
			"buffer":0,
			"byteLength":352,
			"byteOffset":1408,
			"target":34962
		},
		{
			"buffer":0,
			"byteLength":132,
			"byteOffset":1760,
			"target":34963
		},
		{
			"buffer":0,
			"byteLength":15576,
			"byteOffset":1892,
			"target":34962
		},
		{
			"buffer":0,
			"byteLength":15576,
			"byteOffset":17468,
			"target":34962
		},
		{
			"buffer":0,
			"byteLength":10384,
			"byteOffset":33044,
			"target":34962
		},
		{
			"buffer":0,
			"byteLength":10384,
			"byteOffset":43428,
			"target":34962
		},
		{
			"buffer":0,
			"byteLength":11466,
			"byteOffset":53812,
			"target":34963
		}
	],
	"buffers":[
		{
			"byteLength":65280,
			"uri":"WireTransmitterReceiverInternalVariant.bin"
		}
	]
}
