{
    "asset" : {
        "generator" : "Khronos glTF Blender I/O v1.8.19",
        "version" : "2.0"
    },
    "scene" : 0,
    "scenes" : [
        {
            "name" : "Scene",
            "nodes" : [
                2
            ]
        }
    ],
    "nodes" : [
        {
            "mesh" : 0,
            "name" : "BeltPort_StopperL_Main_LOD0",
            "rotation" : [
                0,
                -0.7071068286895752,
                0,
                0.7071067094802856
            ],
            "translation" : [
                -4,
                0,
                0
            ]
        },
        {
            "mesh" : 1,
            "name" : "BeltPort_StopperR_Main_LOD0",
            "rotation" : [
                0,
                -0.7071068286895752,
                0,
                0.7071067094802856
            ],
            "translation" : [
                -4,
                0,
                0
            ]
        },
        {
            "children" : [
                0,
                1
            ],
            "mesh" : 2,
            "name" : "BeltPort_Receiver_Main_LOD0"
        }
    ],
    "materials" : [
        {
            "doubleSided" : true,
            "name" : "Material.004",
            "pbrMetallicRoughness" : {
                "metallicFactor" : 0,
                "roughnessFactor" : 0.5
            }
        }
    ],
    "meshes" : [
        {
            "name" : "Circle.003",
            "primitives" : [
                {
                    "attributes" : {
                        "POSITION" : 0,
                        "NORMAL" : 1,
                        "TEXCOORD_0" : 2,
                        "TEXCOORD_1" : 3
                    },
                    "indices" : 4,
                    "material" : 0
                }
            ]
        },
        {
            "name" : "Circle.002",
            "primitives" : [
                {
                    "attributes" : {
                        "POSITION" : 5,
                        "NORMAL" : 6,
                        "TEXCOORD_0" : 7,
                        "TEXCOORD_1" : 8
                    },
                    "indices" : 9,
                    "material" : 0
                }
            ]
        },
        {
            "name" : "Cube.033",
            "primitives" : [
                {
                    "attributes" : {
                        "POSITION" : 10,
                        "NORMAL" : 11,
                        "TEXCOORD_0" : 12,
                        "TEXCOORD_1" : 13,
                        "COLOR_0" : 14
                    },
                    "indices" : 15,
                    "material" : 0
                }
            ]
        }
    ],
    "accessors" : [
        {
            "bufferView" : 0,
            "componentType" : 5126,
            "count" : 112,
            "max" : [
                0.13299022614955902,
                0.47981899976730347,
                -3.720123052597046
            ],
            "min" : [
                0.012847207486629486,
                0.39351987838745117,
                -3.976306915283203
            ],
            "type" : "VEC3"
        },
        {
            "bufferView" : 1,
            "componentType" : 5126,
            "count" : 112,
            "type" : "VEC3"
        },
        {
            "bufferView" : 2,
            "componentType" : 5126,
            "count" : 112,
            "type" : "VEC2"
        },
        {
            "bufferView" : 3,
            "componentType" : 5126,
            "count" : 112,
            "type" : "VEC2"
        },
        {
            "bufferView" : 4,
            "componentType" : 5123,
            "count" : 324,
            "type" : "SCALAR"
        },
        {
            "bufferView" : 5,
            "componentType" : 5126,
            "count" : 112,
            "max" : [
                0.17798273265361786,
                0.5052351951599121,
                -4.023692607879639
            ],
            "min" : [
                0.05784831941127777,
                0.4189152121543884,
                -4.279876232147217
            ],
            "type" : "VEC3"
        },
        {
            "bufferView" : 6,
            "componentType" : 5126,
            "count" : 112,
            "type" : "VEC3"
        },
        {
            "bufferView" : 7,
            "componentType" : 5126,
            "count" : 112,
            "type" : "VEC2"
        },
        {
            "bufferView" : 8,
            "componentType" : 5126,
            "count" : 112,
            "type" : "VEC2"
        },
        {
            "bufferView" : 9,
            "componentType" : 5123,
            "count" : 324,
            "type" : "SCALAR"
        },
        {
            "bufferView" : 10,
            "componentType" : 5126,
            "count" : 1400,
            "max" : [
                0.3315536677837372,
                0.7023341655731201,
                0.4985332489013672
            ],
            "min" : [
                -0.33155399560928345,
                0.005179570522159338,
                -0.5044192671775818
            ],
            "type" : "VEC3"
        },
        {
            "bufferView" : 11,
            "componentType" : 5126,
            "count" : 1400,
            "type" : "VEC3"
        },
        {
            "bufferView" : 12,
            "componentType" : 5126,
            "count" : 1400,
            "type" : "VEC2"
        },
        {
            "bufferView" : 13,
            "componentType" : 5126,
            "count" : 1400,
            "type" : "VEC2"
        },
        {
            "bufferView" : 14,
            "componentType" : 5123,
            "count" : 1400,
            "normalized" : true,
            "type" : "VEC4"
        },
        {
            "bufferView" : 15,
            "componentType" : 5123,
            "count" : 4074,
            "type" : "SCALAR"
        }
    ],
    "bufferViews" : [
        {
            "buffer" : 0,
            "byteLength" : 1344,
            "byteOffset" : 0
        },
        {
            "buffer" : 0,
            "byteLength" : 1344,
            "byteOffset" : 1344
        },
        {
            "buffer" : 0,
            "byteLength" : 896,
            "byteOffset" : 2688
        },
        {
            "buffer" : 0,
            "byteLength" : 896,
            "byteOffset" : 3584
        },
        {
            "buffer" : 0,
            "byteLength" : 648,
            "byteOffset" : 4480
        },
        {
            "buffer" : 0,
            "byteLength" : 1344,
            "byteOffset" : 5128
        },
        {
            "buffer" : 0,
            "byteLength" : 1344,
            "byteOffset" : 6472
        },
        {
            "buffer" : 0,
            "byteLength" : 896,
            "byteOffset" : 7816
        },
        {
            "buffer" : 0,
            "byteLength" : 896,
            "byteOffset" : 8712
        },
        {
            "buffer" : 0,
            "byteLength" : 648,
            "byteOffset" : 9608
        },
        {
            "buffer" : 0,
            "byteLength" : 16800,
            "byteOffset" : 10256
        },
        {
            "buffer" : 0,
            "byteLength" : 16800,
            "byteOffset" : 27056
        },
        {
            "buffer" : 0,
            "byteLength" : 11200,
            "byteOffset" : 43856
        },
        {
            "buffer" : 0,
            "byteLength" : 11200,
            "byteOffset" : 55056
        },
        {
            "buffer" : 0,
            "byteLength" : 11200,
            "byteOffset" : 66256
        },
        {
            "buffer" : 0,
            "byteLength" : 8148,
            "byteOffset" : 77456
        }
    ],
    "buffers" : [
        {
            "byteLength" : 85604,
            "uri" : "data:application/octet-stream;base64,"
        }
    ]
}
