{
    "asset" : {
        "generator" : "Khronos glTF Blender I/O v1.8.19",
        "version" : "2.0"
    },
    "scene" : 0,
    "scenes" : [
        {
            "name" : "Scene",
            "nodes" : [
                3
            ]
        }
    ],
    "nodes" : [
        {
            "mesh" : 0,
            "name" : "Belt_RightCorner_Border_Layer0_LOD0"
        },
        {
            "mesh" : 1,
            "name" : "Belt_RightCorner_Border_Layer1_LOD0"
        },
        {
            "mesh" : 2,
            "name" : "Belt_RightCorner_Border_Layer2_LOD0"
        },
        {
            "children" : [
                0,
                1,
                2
            ],
            "mesh" : 3,
            "name" : "Belt_RightCorner_LOD0"
        }
    ],
    "materials" : [
        {
            "doubleSided" : true,
            "name" : "TT_checker_512x512_UV_GRID.005",
            "pbrMetallicRoughness" : {
                "metallicFactor" : 0,
                "roughnessFactor" : 0.5
            }
        },
        {
            "doubleSided" : true,
            "name" : "TT_checker_512x512_UV_GRID.001",
            "pbrMetallicRoughness" : {
                "metallicFactor" : 0,
                "roughnessFactor" : 0.5
            }
        }
    ],
    "meshes" : [
        {
            "name" : "Mesh.056",
            "primitives" : [
                {
                    "attributes" : {
                        "POSITION" : 0,
                        "NORMAL" : 1,
                        "TEXCOORD_0" : 2,
                        "TEXCOORD_1" : 3,
                        "COLOR_0" : 4
                    },
                    "indices" : 5,
                    "material" : 0
                }
            ]
        },
        {
            "name" : "Mesh.055",
            "primitives" : [
                {
                    "attributes" : {
                        "POSITION" : 6,
                        "NORMAL" : 7,
                        "TEXCOORD_0" : 8,
                        "TEXCOORD_1" : 9,
                        "COLOR_0" : 10
                    },
                    "indices" : 11,
                    "material" : 0
                }
            ]
        },
        {
            "name" : "Mesh.054",
            "primitives" : [
                {
                    "attributes" : {
                        "POSITION" : 12,
                        "NORMAL" : 13,
                        "TEXCOORD_0" : 14,
                        "TEXCOORD_1" : 15,
                        "COLOR_0" : 16
                    },
                    "indices" : 17,
                    "material" : 0
                }
            ]
        },
        {
            "name" : "Mesh.047",
            "primitives" : [
                {
                    "attributes" : {
                        "POSITION" : 18,
                        "NORMAL" : 19,
                        "TEXCOORD_0" : 20,
                        "TEXCOORD_1" : 21,
                        "COLOR_0" : 22
                    },
                    "indices" : 23,
                    "material" : 1
                }
            ]
        }
    ],
    "accessors" : [
        {
            "bufferView" : 0,
            "componentType" : 5126,
            "count" : 404,
            "max" : [
                0.5002069473266602,
                0.2599903345108032,
                0.5002259612083435
            ],
            "min" : [
                -0.2840094268321991,
                -1.0723619197960943e-05,
                -0.28400957584381104
            ],
            "type" : "VEC3"
        },
        {
            "bufferView" : 1,
            "componentType" : 5126,
            "count" : 404,
            "type" : "VEC3"
        },
        {
            "bufferView" : 2,
            "componentType" : 5126,
            "count" : 404,
            "type" : "VEC2"
        },
        {
            "bufferView" : 3,
            "componentType" : 5126,
            "count" : 404,
            "type" : "VEC2"
        },
        {
            "bufferView" : 4,
            "componentType" : 5123,
            "count" : 404,
            "normalized" : true,
            "type" : "VEC4"
        },
        {
            "bufferView" : 5,
            "componentType" : 5123,
            "count" : 648,
            "type" : "SCALAR"
        },
        {
            "bufferView" : 6,
            "componentType" : 5126,
            "count" : 1564,
            "max" : [
                0.507057249546051,
                0.25999000668525696,
                0.5068272948265076
            ],
            "min" : [
                -0.28398311138153076,
                -0.02735992707312107,
                -0.2839832901954651
            ],
            "type" : "VEC3"
        },
        {
            "bufferView" : 7,
            "componentType" : 5126,
            "count" : 1564,
            "type" : "VEC3"
        },
        {
            "bufferView" : 8,
            "componentType" : 5126,
            "count" : 1564,
            "type" : "VEC2"
        },
        {
            "bufferView" : 9,
            "componentType" : 5126,
            "count" : 1564,
            "type" : "VEC2"
        },
        {
            "bufferView" : 10,
            "componentType" : 5123,
            "count" : 1564,
            "normalized" : true,
            "type" : "VEC4"
        },
        {
            "bufferView" : 11,
            "componentType" : 5123,
            "count" : 2529,
            "type" : "SCALAR"
        },
        {
            "bufferView" : 12,
            "componentType" : 5126,
            "count" : 983,
            "max" : [
                0.5010002851486206,
                0.2275390923023224,
                0.501000165939331
            ],
            "min" : [
                -0.28389114141464233,
                0.09478924423456192,
                -0.2837836742401123
            ],
            "type" : "VEC3"
        },
        {
            "bufferView" : 13,
            "componentType" : 5126,
            "count" : 983,
            "type" : "VEC3"
        },
        {
            "bufferView" : 14,
            "componentType" : 5126,
            "count" : 983,
            "type" : "VEC2"
        },
        {
            "bufferView" : 15,
            "componentType" : 5126,
            "count" : 983,
            "type" : "VEC2"
        },
        {
            "bufferView" : 16,
            "componentType" : 5123,
            "count" : 983,
            "normalized" : true,
            "type" : "VEC4"
        },
        {
            "bufferView" : 17,
            "componentType" : 5123,
            "count" : 1626,
            "type" : "SCALAR"
        },
        {
            "bufferView" : 18,
            "componentType" : 5126,
            "count" : 180,
            "max" : [
                0.500499963760376,
                0.2000003457069397,
                0.5009999871253967
            ],
            "min" : [
                -0.25004270672798157,
                0.14739474654197693,
                -0.2502836287021637
            ],
            "type" : "VEC3"
        },
        {
            "bufferView" : 19,
            "componentType" : 5126,
            "count" : 180,
            "type" : "VEC3"
        },
        {
            "bufferView" : 20,
            "componentType" : 5126,
            "count" : 180,
            "type" : "VEC2"
        },
        {
            "bufferView" : 21,
            "componentType" : 5126,
            "count" : 180,
            "type" : "VEC2"
        },
        {
            "bufferView" : 22,
            "componentType" : 5123,
            "count" : 180,
            "normalized" : true,
            "type" : "VEC4"
        },
        {
            "bufferView" : 23,
            "componentType" : 5123,
            "count" : 237,
            "type" : "SCALAR"
        }
    ],
    "bufferViews" : [
        {
            "buffer" : 0,
            "byteLength" : 4848,
            "byteOffset" : 0
        },
        {
            "buffer" : 0,
            "byteLength" : 4848,
            "byteOffset" : 4848
        },
        {
            "buffer" : 0,
            "byteLength" : 3232,
            "byteOffset" : 9696
        },
        {
            "buffer" : 0,
            "byteLength" : 3232,
            "byteOffset" : 12928
        },
        {
            "buffer" : 0,
            "byteLength" : 3232,
            "byteOffset" : 16160
        },
        {
            "buffer" : 0,
            "byteLength" : 1296,
            "byteOffset" : 19392
        },
        {
            "buffer" : 0,
            "byteLength" : 18768,
            "byteOffset" : 20688
        },
        {
            "buffer" : 0,
            "byteLength" : 18768,
            "byteOffset" : 39456
        },
        {
            "buffer" : 0,
            "byteLength" : 12512,
            "byteOffset" : 58224
        },
        {
            "buffer" : 0,
            "byteLength" : 12512,
            "byteOffset" : 70736
        },
        {
            "buffer" : 0,
            "byteLength" : 12512,
            "byteOffset" : 83248
        },
        {
            "buffer" : 0,
            "byteLength" : 5058,
            "byteOffset" : 95760
        },
        {
            "buffer" : 0,
            "byteLength" : 11796,
            "byteOffset" : 100820
        },
        {
            "buffer" : 0,
            "byteLength" : 11796,
            "byteOffset" : 112616
        },
        {
            "buffer" : 0,
            "byteLength" : 7864,
            "byteOffset" : 124412
        },
        {
            "buffer" : 0,
            "byteLength" : 7864,
            "byteOffset" : 132276
        },
        {
            "buffer" : 0,
            "byteLength" : 7864,
            "byteOffset" : 140140
        },
        {
            "buffer" : 0,
            "byteLength" : 3252,
            "byteOffset" : 148004
        },
        {
            "buffer" : 0,
            "byteLength" : 2160,
            "byteOffset" : 151256
        },
        {
            "buffer" : 0,
            "byteLength" : 2160,
            "byteOffset" : 153416
        },
        {
            "buffer" : 0,
            "byteLength" : 1440,
            "byteOffset" : 155576
        },
        {
            "buffer" : 0,
            "byteLength" : 1440,
            "byteOffset" : 157016
        },
        {
            "buffer" : 0,
            "byteLength" : 1440,
            "byteOffset" : 158456
        },
        {
            "buffer" : 0,
            "byteLength" : 474,
            "byteOffset" : 159896
        }
    ],
    "buffers" : [
        {
            "byteLength" : 160372,
            "uri" : "data:application/octet-stream;base64,"
        }
    ]
}
