{
    "asset" : {
        "generator" : "Khronos glTF Blender I/O v1.8.19",
        "version" : "2.0"
    },
    "scene" : 0,
    "scenes" : [
        {
            "name" : "Scene",
            "nodes" : [
                3
            ]
        }
    ],
    "nodes" : [
        {
            "mesh" : 0,
            "name" : "Belt_RightCorner_Border_Layer0_LOD0",
            "rotation" : [
                1,
                0,
                0,
                0
            ],
            "scale" : [
                -1,
                -1,
                -1
            ]
        },
        {
            "mesh" : 1,
            "name" : "Belt_RightCorner_Border_Layer1_LOD0",
            "rotation" : [
                1,
                0,
                0,
                0
            ],
            "scale" : [
                -1,
                -1,
                -1
            ]
        },
        {
            "mesh" : 2,
            "name" : "Belt_RightCorner_Border_Layer2_LOD0",
            "rotation" : [
                1,
                0,
                0,
                0
            ],
            "scale" : [
                -1,
                -1,
                -1
            ]
        },
        {
            "children" : [
                0,
                1,
                2
            ],
            "mesh" : 3,
            "name" : "Belt_RightCorner_LOD0"
        }
    ],
    "materials" : [
        {
            "doubleSided" : true,
            "name" : "TT_checker_512x512_UV_GRID.001",
            "pbrMetallicRoughness" : {
                "metallicFactor" : 0,
                "roughnessFactor" : 0.5
            }
        }
    ],
    "meshes" : [
        {
            "name" : "Mesh.003",
            "primitives" : [
                {
                    "attributes" : {
                        "POSITION" : 0,
                        "NORMAL" : 1,
                        "TEXCOORD_0" : 2,
                        "TEXCOORD_1" : 3,
                        "COLOR_0" : 4
                    },
                    "indices" : 5,
                    "material" : 0
                }
            ]
        },
        {
            "name" : "Mesh.004",
            "primitives" : [
                {
                    "attributes" : {
                        "POSITION" : 6,
                        "NORMAL" : 7,
                        "TEXCOORD_0" : 8,
                        "TEXCOORD_1" : 9,
                        "COLOR_0" : 10
                    },
                    "indices" : 11,
                    "material" : 0
                }
            ]
        },
        {
            "name" : "Mesh.005",
            "primitives" : [
                {
                    "attributes" : {
                        "POSITION" : 12,
                        "NORMAL" : 13,
                        "TEXCOORD_0" : 14,
                        "TEXCOORD_1" : 15,
                        "COLOR_0" : 16
                    },
                    "indices" : 17,
                    "material" : 0
                }
            ]
        },
        {
            "name" : "Mesh.001",
            "primitives" : [
                {
                    "attributes" : {
                        "POSITION" : 18,
                        "NORMAL" : 19,
                        "TEXCOORD_0" : 20,
                        "TEXCOORD_1" : 21,
                        "COLOR_0" : 22
                    },
                    "indices" : 23,
                    "material" : 0
                }
            ]
        }
    ],
    "accessors" : [
        {
            "bufferView" : 0,
            "componentType" : 5126,
            "count" : 406,
            "max" : [
                0.28400924801826477,
                0.2599903345108032,
                0.5002257227897644
            ],
            "min" : [
                -0.5002068281173706,
                -1.0723619197960943e-05,
                -0.2840096056461334
            ],
            "type" : "VEC3"
        },
        {
            "bufferView" : 1,
            "componentType" : 5126,
            "count" : 406,
            "type" : "VEC3"
        },
        {
            "bufferView" : 2,
            "componentType" : 5126,
            "count" : 406,
            "type" : "VEC2"
        },
        {
            "bufferView" : 3,
            "componentType" : 5126,
            "count" : 406,
            "type" : "VEC2"
        },
        {
            "bufferView" : 4,
            "componentType" : 5123,
            "count" : 406,
            "normalized" : true,
            "type" : "VEC4"
        },
        {
            "bufferView" : 5,
            "componentType" : 5123,
            "count" : 648,
            "type" : "SCALAR"
        },
        {
            "bufferView" : 6,
            "componentType" : 5126,
            "count" : 1557,
            "max" : [
                0.28398293256759644,
                0.25999000668525696,
                0.5068271160125732
            ],
            "min" : [
                -0.5070570111274719,
                -0.02735992707312107,
                -0.2839833199977875
            ],
            "type" : "VEC3"
        },
        {
            "bufferView" : 7,
            "componentType" : 5126,
            "count" : 1557,
            "type" : "VEC3"
        },
        {
            "bufferView" : 8,
            "componentType" : 5126,
            "count" : 1557,
            "type" : "VEC2"
        },
        {
            "bufferView" : 9,
            "componentType" : 5126,
            "count" : 1557,
            "type" : "VEC2"
        },
        {
            "bufferView" : 10,
            "componentType" : 5123,
            "count" : 1557,
            "normalized" : true,
            "type" : "VEC4"
        },
        {
            "bufferView" : 11,
            "componentType" : 5123,
            "count" : 2529,
            "type" : "SCALAR"
        },
        {
            "bufferView" : 12,
            "componentType" : 5126,
            "count" : 983,
            "max" : [
                0.283890962600708,
                0.2275390923023224,
                0.5010001063346863
            ],
            "min" : [
                -0.501000165939331,
                0.09478924423456192,
                -0.2837837040424347
            ],
            "type" : "VEC3"
        },
        {
            "bufferView" : 13,
            "componentType" : 5126,
            "count" : 983,
            "type" : "VEC3"
        },
        {
            "bufferView" : 14,
            "componentType" : 5126,
            "count" : 983,
            "type" : "VEC2"
        },
        {
            "bufferView" : 15,
            "componentType" : 5126,
            "count" : 983,
            "type" : "VEC2"
        },
        {
            "bufferView" : 16,
            "componentType" : 5123,
            "count" : 983,
            "normalized" : true,
            "type" : "VEC4"
        },
        {
            "bufferView" : 17,
            "componentType" : 5123,
            "count" : 1626,
            "type" : "SCALAR"
        },
        {
            "bufferView" : 18,
            "componentType" : 5126,
            "count" : 181,
            "max" : [
                0.5005000233650208,
                0.20000040531158447,
                0.5009999871253967
            ],
            "min" : [
                -0.2500426471233368,
                0.14739474654197693,
                -0.2502836585044861
            ],
            "type" : "VEC3"
        },
        {
            "bufferView" : 19,
            "componentType" : 5126,
            "count" : 181,
            "type" : "VEC3"
        },
        {
            "bufferView" : 20,
            "componentType" : 5126,
            "count" : 181,
            "type" : "VEC2"
        },
        {
            "bufferView" : 21,
            "componentType" : 5126,
            "count" : 181,
            "type" : "VEC2"
        },
        {
            "bufferView" : 22,
            "componentType" : 5123,
            "count" : 181,
            "normalized" : true,
            "type" : "VEC4"
        },
        {
            "bufferView" : 23,
            "componentType" : 5123,
            "count" : 237,
            "type" : "SCALAR"
        }
    ],
    "bufferViews" : [
        {
            "buffer" : 0,
            "byteLength" : 4872,
            "byteOffset" : 0
        },
        {
            "buffer" : 0,
            "byteLength" : 4872,
            "byteOffset" : 4872
        },
        {
            "buffer" : 0,
            "byteLength" : 3248,
            "byteOffset" : 9744
        },
        {
            "buffer" : 0,
            "byteLength" : 3248,
            "byteOffset" : 12992
        },
        {
            "buffer" : 0,
            "byteLength" : 3248,
            "byteOffset" : 16240
        },
        {
            "buffer" : 0,
            "byteLength" : 1296,
            "byteOffset" : 19488
        },
        {
            "buffer" : 0,
            "byteLength" : 18684,
            "byteOffset" : 20784
        },
        {
            "buffer" : 0,
            "byteLength" : 18684,
            "byteOffset" : 39468
        },
        {
            "buffer" : 0,
            "byteLength" : 12456,
            "byteOffset" : 58152
        },
        {
            "buffer" : 0,
            "byteLength" : 12456,
            "byteOffset" : 70608
        },
        {
            "buffer" : 0,
            "byteLength" : 12456,
            "byteOffset" : 83064
        },
        {
            "buffer" : 0,
            "byteLength" : 5058,
            "byteOffset" : 95520
        },
        {
            "buffer" : 0,
            "byteLength" : 11796,
            "byteOffset" : 100580
        },
        {
            "buffer" : 0,
            "byteLength" : 11796,
            "byteOffset" : 112376
        },
        {
            "buffer" : 0,
            "byteLength" : 7864,
            "byteOffset" : 124172
        },
        {
            "buffer" : 0,
            "byteLength" : 7864,
            "byteOffset" : 132036
        },
        {
            "buffer" : 0,
            "byteLength" : 7864,
            "byteOffset" : 139900
        },
        {
            "buffer" : 0,
            "byteLength" : 3252,
            "byteOffset" : 147764
        },
        {
            "buffer" : 0,
            "byteLength" : 2172,
            "byteOffset" : 151016
        },
        {
            "buffer" : 0,
            "byteLength" : 2172,
            "byteOffset" : 153188
        },
        {
            "buffer" : 0,
            "byteLength" : 1448,
            "byteOffset" : 155360
        },
        {
            "buffer" : 0,
            "byteLength" : 1448,
            "byteOffset" : 156808
        },
        {
            "buffer" : 0,
            "byteLength" : 1448,
            "byteOffset" : 158256
        },
        {
            "buffer" : 0,
            "byteLength" : 474,
            "byteOffset" : 159704
        }
    ],
    "buffers" : [
        {
            "byteLength" : 160180,
            "uri" : "data:application/octet-stream;base64,"
        }
    ]
}
