{
    "asset" : {
        "generator" : "Khronos glTF Blender I/O v1.8.19",
        "version" : "2.0"
    },
    "scene" : 0,
    "scenes" : [
        {
            "name" : "Scene",
            "nodes" : [
                3
            ]
        }
    ],
    "nodes" : [
        {
            "mesh" : 0,
            "name" : "Belt_LeftCorner_Border_Layer0_LOD0"
        },
        {
            "mesh" : 1,
            "name" : "Belt_LeftCorner_Border_Layer1_LOD0"
        },
        {
            "mesh" : 2,
            "name" : "Belt_LeftCorner_Border_Layer2_LOD0"
        },
        {
            "children" : [
                0,
                1,
                2
            ],
            "mesh" : 3,
            "name" : "Belt_LeftCorner_LOD0"
        }
    ],
    "materials" : [
        {
            "doubleSided" : true,
            "name" : "TT_checker_512x512_UV_GRID",
            "pbrMetallicRoughness" : {
                "metallicFactor" : 0,
                "roughnessFactor" : 0.5
            }
        }
    ],
    "meshes" : [
        {
            "name" : "Mesh.028",
            "primitives" : [
                {
                    "attributes" : {
                        "POSITION" : 0,
                        "NORMAL" : 1,
                        "TEXCOORD_0" : 2,
                        "TEXCOORD_1" : 3,
                        "COLOR_0" : 4
                    },
                    "indices" : 5,
                    "material" : 0
                }
            ]
        },
        {
            "name" : "Mesh.029",
            "primitives" : [
                {
                    "attributes" : {
                        "POSITION" : 6,
                        "NORMAL" : 7,
                        "TEXCOORD_0" : 8,
                        "TEXCOORD_1" : 9,
                        "COLOR_0" : 10
                    },
                    "indices" : 11,
                    "material" : 0
                }
            ]
        },
        {
            "name" : "Mesh.031",
            "primitives" : [
                {
                    "attributes" : {
                        "POSITION" : 12,
                        "NORMAL" : 13,
                        "TEXCOORD_0" : 14,
                        "TEXCOORD_1" : 15,
                        "COLOR_0" : 16
                    },
                    "indices" : 17,
                    "material" : 0
                }
            ]
        },
        {
            "name" : "Mesh.043",
            "primitives" : [
                {
                    "attributes" : {
                        "POSITION" : 18,
                        "NORMAL" : 19,
                        "TEXCOORD_0" : 20,
                        "TEXCOORD_1" : 21,
                        "COLOR_0" : 22
                    },
                    "indices" : 23,
                    "material" : 0
                }
            ]
        }
    ],
    "accessors" : [
        {
            "bufferView" : 0,
            "componentType" : 5126,
            "count" : 278,
            "max" : [
                0.28400924801826477,
                0.2599903345108032,
                0.5002257227897644
            ],
            "min" : [
                -0.5002068281173706,
                -1.0723619197960943e-05,
                -0.2840096056461334
            ],
            "type" : "VEC3"
        },
        {
            "bufferView" : 1,
            "componentType" : 5126,
            "count" : 278,
            "type" : "VEC3"
        },
        {
            "bufferView" : 2,
            "componentType" : 5126,
            "count" : 278,
            "type" : "VEC2"
        },
        {
            "bufferView" : 3,
            "componentType" : 5126,
            "count" : 278,
            "type" : "VEC2"
        },
        {
            "bufferView" : 4,
            "componentType" : 5123,
            "count" : 278,
            "normalized" : true,
            "type" : "VEC4"
        },
        {
            "bufferView" : 5,
            "componentType" : 5123,
            "count" : 648,
            "type" : "SCALAR"
        },
        {
            "bufferView" : 6,
            "componentType" : 5126,
            "count" : 1221,
            "max" : [
                0.28398293256759644,
                0.25999000668525696,
                0.5068271160125732
            ],
            "min" : [
                -0.5070570111274719,
                -0.02735992707312107,
                -0.2839833199977875
            ],
            "type" : "VEC3"
        },
        {
            "bufferView" : 7,
            "componentType" : 5126,
            "count" : 1221,
            "type" : "VEC3"
        },
        {
            "bufferView" : 8,
            "componentType" : 5126,
            "count" : 1221,
            "type" : "VEC2"
        },
        {
            "bufferView" : 9,
            "componentType" : 5126,
            "count" : 1221,
            "type" : "VEC2"
        },
        {
            "bufferView" : 10,
            "componentType" : 5123,
            "count" : 1221,
            "normalized" : true,
            "type" : "VEC4"
        },
        {
            "bufferView" : 11,
            "componentType" : 5123,
            "count" : 2529,
            "type" : "SCALAR"
        },
        {
            "bufferView" : 12,
            "componentType" : 5126,
            "count" : 736,
            "max" : [
                0.283890962600708,
                0.2275390923023224,
                0.5010001063346863
            ],
            "min" : [
                -0.501000165939331,
                0.09478924423456192,
                -0.2837837040424347
            ],
            "type" : "VEC3"
        },
        {
            "bufferView" : 13,
            "componentType" : 5126,
            "count" : 736,
            "type" : "VEC3"
        },
        {
            "bufferView" : 14,
            "componentType" : 5126,
            "count" : 736,
            "type" : "VEC2"
        },
        {
            "bufferView" : 15,
            "componentType" : 5126,
            "count" : 736,
            "type" : "VEC2"
        },
        {
            "bufferView" : 16,
            "componentType" : 5123,
            "count" : 736,
            "normalized" : true,
            "type" : "VEC4"
        },
        {
            "bufferView" : 17,
            "componentType" : 5123,
            "count" : 1626,
            "type" : "SCALAR"
        },
        {
            "bufferView" : 18,
            "componentType" : 5126,
            "count" : 121,
            "max" : [
                0.2500426471233368,
                0.20000040531158447,
                0.5009999871253967
            ],
            "min" : [
                -0.5005000233650208,
                0.14739474654197693,
                -0.2502836585044861
            ],
            "type" : "VEC3"
        },
        {
            "bufferView" : 19,
            "componentType" : 5126,
            "count" : 121,
            "type" : "VEC3"
        },
        {
            "bufferView" : 20,
            "componentType" : 5126,
            "count" : 121,
            "type" : "VEC2"
        },
        {
            "bufferView" : 21,
            "componentType" : 5126,
            "count" : 121,
            "type" : "VEC2"
        },
        {
            "bufferView" : 22,
            "componentType" : 5123,
            "count" : 121,
            "normalized" : true,
            "type" : "VEC4"
        },
        {
            "bufferView" : 23,
            "componentType" : 5123,
            "count" : 237,
            "type" : "SCALAR"
        }
    ],
    "bufferViews" : [
        {
            "buffer" : 0,
            "byteLength" : 3336,
            "byteOffset" : 0
        },
        {
            "buffer" : 0,
            "byteLength" : 3336,
            "byteOffset" : 3336
        },
        {
            "buffer" : 0,
            "byteLength" : 2224,
            "byteOffset" : 6672
        },
        {
            "buffer" : 0,
            "byteLength" : 2224,
            "byteOffset" : 8896
        },
        {
            "buffer" : 0,
            "byteLength" : 2224,
            "byteOffset" : 11120
        },
        {
            "buffer" : 0,
            "byteLength" : 1296,
            "byteOffset" : 13344
        },
        {
            "buffer" : 0,
            "byteLength" : 14652,
            "byteOffset" : 14640
        },
        {
            "buffer" : 0,
            "byteLength" : 14652,
            "byteOffset" : 29292
        },
        {
            "buffer" : 0,
            "byteLength" : 9768,
            "byteOffset" : 43944
        },
        {
            "buffer" : 0,
            "byteLength" : 9768,
            "byteOffset" : 53712
        },
        {
            "buffer" : 0,
            "byteLength" : 9768,
            "byteOffset" : 63480
        },
        {
            "buffer" : 0,
            "byteLength" : 5058,
            "byteOffset" : 73248
        },
        {
            "buffer" : 0,
            "byteLength" : 8832,
            "byteOffset" : 78308
        },
        {
            "buffer" : 0,
            "byteLength" : 8832,
            "byteOffset" : 87140
        },
        {
            "buffer" : 0,
            "byteLength" : 5888,
            "byteOffset" : 95972
        },
        {
            "buffer" : 0,
            "byteLength" : 5888,
            "byteOffset" : 101860
        },
        {
            "buffer" : 0,
            "byteLength" : 5888,
            "byteOffset" : 107748
        },
        {
            "buffer" : 0,
            "byteLength" : 3252,
            "byteOffset" : 113636
        },
        {
            "buffer" : 0,
            "byteLength" : 1452,
            "byteOffset" : 116888
        },
        {
            "buffer" : 0,
            "byteLength" : 1452,
            "byteOffset" : 118340
        },
        {
            "buffer" : 0,
            "byteLength" : 968,
            "byteOffset" : 119792
        },
        {
            "buffer" : 0,
            "byteLength" : 968,
            "byteOffset" : 120760
        },
        {
            "buffer" : 0,
            "byteLength" : 968,
            "byteOffset" : 121728
        },
        {
            "buffer" : 0,
            "byteLength" : 474,
            "byteOffset" : 122696
        }
    ],
    "buffers" : [
        {
            "byteLength" : 123172,
            "uri" : "data:application/octet-stream;base64,"
        }
    ]
}
