{
    "asset" : {
        "generator" : "Khronos glTF Blender I/O v1.8.19",
        "version" : "2.0"
    },
    "scene" : 0,
    "scenes" : [
        {
            "name" : "Scene",
            "nodes" : [
                2
            ]
        }
    ],
    "nodes" : [
        {
            "mesh" : 0,
            "name" : "BeltReaderLoading"
        },
        {
            "mesh" : 1,
            "name" : "BeltReaderPlattform"
        },
        {
            "children" : [
                0,
                1
            ],
            "mesh" : 2,
            "name" : "BeltReader"
        }
    ],
    "materials" : [
        {
            "doubleSided" : true,
            "name" : "SVGMat.001",
            "pbrMetallicRoughness" : {
                "baseColorFactor" : [
                    0,
                    0,
                    0,
                    1
                ],
                "metallicFactor" : 0,
                "roughnessFactor" : 0.4000000059604645
            }
        },
        {
            "doubleSided" : true,
            "name" : "Conveyor_Belt.011",
            "pbrMetallicRoughness" : {
                "metallicFactor" : 0,
                "roughnessFactor" : 0.5527864098548889
            }
        }
    ],
    "meshes" : [
        {
            "name" : "Curve",
            "primitives" : [
                {
                    "attributes" : {
                        "POSITION" : 0,
                        "NORMAL" : 1,
                        "TEXCOORD_0" : 2,
                        "TEXCOORD_1" : 3
                    },
                    "indices" : 4,
                    "material" : 0
                }
            ]
        },
        {
            "name" : "Cube.019",
            "primitives" : [
                {
                    "attributes" : {
                        "POSITION" : 5,
                        "NORMAL" : 6,
                        "TEXCOORD_0" : 7,
                        "TEXCOORD_1" : 8,
                        "COLOR_0" : 9
                    },
                    "indices" : 10,
                    "material" : 1
                }
            ]
        },
        {
            "name" : "Cube.017",
            "primitives" : [
                {
                    "attributes" : {
                        "POSITION" : 11,
                        "NORMAL" : 12,
                        "TEXCOORD_0" : 13,
                        "TEXCOORD_1" : 14,
                        "COLOR_0" : 15
                    },
                    "indices" : 16
                }
            ]
        }
    ],
    "accessors" : [
        {
            "bufferView" : 0,
            "componentType" : 5126,
            "count" : 752,
            "max" : [
                0.15395233035087585,
                0.5750620365142822,
                0.1539522260427475
            ],
            "min" : [
                -0.153951957821846,
                0.5544317364692688,
                -0.15395215153694153
            ],
            "type" : "VEC3"
        },
        {
            "bufferView" : 1,
            "componentType" : 5126,
            "count" : 752,
            "type" : "VEC3"
        },
        {
            "bufferView" : 2,
            "componentType" : 5126,
            "count" : 752,
            "type" : "VEC2"
        },
        {
            "bufferView" : 3,
            "componentType" : 5126,
            "count" : 752,
            "type" : "VEC2"
        },
        {
            "bufferView" : 4,
            "componentType" : 5123,
            "count" : 1968,
            "type" : "SCALAR"
        },
        {
            "bufferView" : 5,
            "componentType" : 5126,
            "count" : 244,
            "max" : [
                0.21583254635334015,
                0.5916141271591187,
                0.41664713621139526
            ],
            "min" : [
                -0.21583276987075806,
                0.5200989246368408,
                -0.4166472554206848
            ],
            "type" : "VEC3"
        },
        {
            "bufferView" : 6,
            "componentType" : 5126,
            "count" : 244,
            "type" : "VEC3"
        },
        {
            "bufferView" : 7,
            "componentType" : 5126,
            "count" : 244,
            "type" : "VEC2"
        },
        {
            "bufferView" : 8,
            "componentType" : 5126,
            "count" : 244,
            "type" : "VEC2"
        },
        {
            "bufferView" : 9,
            "componentType" : 5123,
            "count" : 244,
            "normalized" : true,
            "type" : "VEC4"
        },
        {
            "bufferView" : 10,
            "componentType" : 5123,
            "count" : 624,
            "type" : "SCALAR"
        },
        {
            "bufferView" : 11,
            "componentType" : 5126,
            "count" : 274,
            "max" : [
                0.32837554812431335,
                0.5200990438461304,
                0.500114917755127
            ],
            "min" : [
                -0.3283756375312805,
                0.12993933260440826,
                -0.5001150965690613
            ],
            "type" : "VEC3"
        },
        {
            "bufferView" : 12,
            "componentType" : 5126,
            "count" : 274,
            "type" : "VEC3"
        },
        {
            "bufferView" : 13,
            "componentType" : 5126,
            "count" : 274,
            "type" : "VEC2"
        },
        {
            "bufferView" : 14,
            "componentType" : 5126,
            "count" : 274,
            "type" : "VEC2"
        },
        {
            "bufferView" : 15,
            "componentType" : 5123,
            "count" : 274,
            "normalized" : true,
            "type" : "VEC4"
        },
        {
            "bufferView" : 16,
            "componentType" : 5123,
            "count" : 708,
            "type" : "SCALAR"
        }
    ],
    "bufferViews" : [
        {
            "buffer" : 0,
            "byteLength" : 9024,
            "byteOffset" : 0
        },
        {
            "buffer" : 0,
            "byteLength" : 9024,
            "byteOffset" : 9024
        },
        {
            "buffer" : 0,
            "byteLength" : 6016,
            "byteOffset" : 18048
        },
        {
            "buffer" : 0,
            "byteLength" : 6016,
            "byteOffset" : 24064
        },
        {
            "buffer" : 0,
            "byteLength" : 3936,
            "byteOffset" : 30080
        },
        {
            "buffer" : 0,
            "byteLength" : 2928,
            "byteOffset" : 34016
        },
        {
            "buffer" : 0,
            "byteLength" : 2928,
            "byteOffset" : 36944
        },
        {
            "buffer" : 0,
            "byteLength" : 1952,
            "byteOffset" : 39872
        },
        {
            "buffer" : 0,
            "byteLength" : 1952,
            "byteOffset" : 41824
        },
        {
            "buffer" : 0,
            "byteLength" : 1952,
            "byteOffset" : 43776
        },
        {
            "buffer" : 0,
            "byteLength" : 1248,
            "byteOffset" : 45728
        },
        {
            "buffer" : 0,
            "byteLength" : 3288,
            "byteOffset" : 46976
        },
        {
            "buffer" : 0,
            "byteLength" : 3288,
            "byteOffset" : 50264
        },
        {
            "buffer" : 0,
            "byteLength" : 2192,
            "byteOffset" : 53552
        },
        {
            "buffer" : 0,
            "byteLength" : 2192,
            "byteOffset" : 55744
        },
        {
            "buffer" : 0,
            "byteLength" : 2192,
            "byteOffset" : 57936
        },
        {
            "buffer" : 0,
            "byteLength" : 1416,
            "byteOffset" : 60128
        }
    ],
    "buffers" : [
        {
            "byteLength" : 61544,
            "uri" : "data:application/octet-stream;base64,"
        }
    ]
}
