{
    "asset" : {
        "generator" : "Khronos glTF Blender I/O v1.8.19",
        "version" : "2.0"
    },
    "scene" : 0,
    "scenes" : [
        {
            "name" : "Scene",
            "nodes" : [
                2
            ]
        }
    ],
    "nodes" : [
        {
            "mesh" : 0,
            "name" : "BeltPort_GearL_Main_LOD0",
            "rotation" : [
                0,
                -0.7071068286895752,
                0,
                0.7071067094802856
            ],
            "translation" : [
                -6,
                0,
                0
            ]
        },
        {
            "mesh" : 1,
            "name" : "BeltPort_GearR_Main_LOD0",
            "rotation" : [
                0,
                -0.7071068286895752,
                0,
                0.7071067094802856
            ],
            "translation" : [
                -6,
                0,
                0
            ]
        },
        {
            "children" : [
                0,
                1
            ],
            "mesh" : 2,
            "name" : "BeltPort_Sender_Main_LOD0"
        }
    ],
    "materials" : [
        {
            "doubleSided" : true,
            "name" : "Material.004",
            "pbrMetallicRoughness" : {
                "metallicFactor" : 0,
                "roughnessFactor" : 0.5
            }
        },
        {
            "doubleSided" : true,
            "name" : "Material.001",
            "pbrMetallicRoughness" : {
                "metallicFactor" : 0,
                "roughnessFactor" : 0.5
            }
        }
    ],
    "meshes" : [
        {
            "name" : "Cube.044",
            "primitives" : [
                {
                    "attributes" : {
                        "POSITION" : 0,
                        "NORMAL" : 1,
                        "TEXCOORD_0" : 2,
                        "TEXCOORD_1" : 3,
                        "COLOR_0" : 4
                    },
                    "indices" : 5,
                    "material" : 0
                }
            ]
        },
        {
            "name" : "Cube.001",
            "primitives" : [
                {
                    "attributes" : {
                        "POSITION" : 6,
                        "NORMAL" : 7,
                        "TEXCOORD_0" : 8,
                        "TEXCOORD_1" : 9,
                        "COLOR_0" : 10
                    },
                    "indices" : 5,
                    "material" : 1
                }
            ]
        },
        {
            "name" : "Cube.045",
            "primitives" : [
                {
                    "attributes" : {
                        "POSITION" : 11,
                        "NORMAL" : 12,
                        "TEXCOORD_0" : 13,
                        "TEXCOORD_1" : 14,
                        "COLOR_0" : 15
                    },
                    "indices" : 16,
                    "material" : 0
                }
            ]
        }
    ],
    "accessors" : [
        {
            "bufferView" : 0,
            "componentType" : 5126,
            "count" : 946,
            "max" : [
                0.4231293499469757,
                0.4308200478553772,
                -5.592647552490234
            ],
            "min" : [
                0.18158462643623352,
                0.19999995827674866,
                -5.834192276000977
            ],
            "type" : "VEC3"
        },
        {
            "bufferView" : 1,
            "componentType" : 5126,
            "count" : 946,
            "type" : "VEC3"
        },
        {
            "bufferView" : 2,
            "componentType" : 5126,
            "count" : 946,
            "type" : "VEC2"
        },
        {
            "bufferView" : 3,
            "componentType" : 5126,
            "count" : 946,
            "type" : "VEC2"
        },
        {
            "bufferView" : 4,
            "componentType" : 5123,
            "count" : 946,
            "normalized" : true,
            "type" : "VEC4"
        },
        {
            "bufferView" : 5,
            "componentType" : 5123,
            "count" : 1722,
            "type" : "SCALAR"
        },
        {
            "bufferView" : 6,
            "componentType" : 5126,
            "count" : 946,
            "max" : [
                0.4231293499469757,
                0.4308200478553772,
                -6.164227485656738
            ],
            "min" : [
                0.18158462643623352,
                0.19999995827674866,
                -6.4057722091674805
            ],
            "type" : "VEC3"
        },
        {
            "bufferView" : 7,
            "componentType" : 5126,
            "count" : 946,
            "type" : "VEC3"
        },
        {
            "bufferView" : 8,
            "componentType" : 5126,
            "count" : 946,
            "type" : "VEC2"
        },
        {
            "bufferView" : 9,
            "componentType" : 5126,
            "count" : 946,
            "type" : "VEC2"
        },
        {
            "bufferView" : 10,
            "componentType" : 5123,
            "count" : 946,
            "normalized" : true,
            "type" : "VEC4"
        },
        {
            "bufferView" : 11,
            "componentType" : 5126,
            "count" : 1607,
            "max" : [
                0.4620731472969055,
                0.4500000476837158,
                0.5010130405426025
            ],
            "min" : [
                -0.4620731472969055,
                -1.0586047949345812e-07,
                -0.498970627784729
            ],
            "type" : "VEC3"
        },
        {
            "bufferView" : 12,
            "componentType" : 5126,
            "count" : 1607,
            "type" : "VEC3"
        },
        {
            "bufferView" : 13,
            "componentType" : 5126,
            "count" : 1607,
            "type" : "VEC2"
        },
        {
            "bufferView" : 14,
            "componentType" : 5126,
            "count" : 1607,
            "type" : "VEC2"
        },
        {
            "bufferView" : 15,
            "componentType" : 5123,
            "count" : 1607,
            "normalized" : true,
            "type" : "VEC4"
        },
        {
            "bufferView" : 16,
            "componentType" : 5123,
            "count" : 3855,
            "type" : "SCALAR"
        }
    ],
    "bufferViews" : [
        {
            "buffer" : 0,
            "byteLength" : 11352,
            "byteOffset" : 0
        },
        {
            "buffer" : 0,
            "byteLength" : 11352,
            "byteOffset" : 11352
        },
        {
            "buffer" : 0,
            "byteLength" : 7568,
            "byteOffset" : 22704
        },
        {
            "buffer" : 0,
            "byteLength" : 7568,
            "byteOffset" : 30272
        },
        {
            "buffer" : 0,
            "byteLength" : 7568,
            "byteOffset" : 37840
        },
        {
            "buffer" : 0,
            "byteLength" : 3444,
            "byteOffset" : 45408
        },
        {
            "buffer" : 0,
            "byteLength" : 11352,
            "byteOffset" : 48852
        },
        {
            "buffer" : 0,
            "byteLength" : 11352,
            "byteOffset" : 60204
        },
        {
            "buffer" : 0,
            "byteLength" : 7568,
            "byteOffset" : 71556
        },
        {
            "buffer" : 0,
            "byteLength" : 7568,
            "byteOffset" : 79124
        },
        {
            "buffer" : 0,
            "byteLength" : 7568,
            "byteOffset" : 86692
        },
        {
            "buffer" : 0,
            "byteLength" : 19284,
            "byteOffset" : 94260
        },
        {
            "buffer" : 0,
            "byteLength" : 19284,
            "byteOffset" : 113544
        },
        {
            "buffer" : 0,
            "byteLength" : 12856,
            "byteOffset" : 132828
        },
        {
            "buffer" : 0,
            "byteLength" : 12856,
            "byteOffset" : 145684
        },
        {
            "buffer" : 0,
            "byteLength" : 12856,
            "byteOffset" : 158540
        },
        {
            "buffer" : 0,
            "byteLength" : 7710,
            "byteOffset" : 171396
        }
    ],
    "buffers" : [
        {
            "byteLength" : 179108,
            "uri" : "data:application/octet-stream;base64,"
        }
    ]
}
