{
    "asset" : {
        "generator" : "Khronos glTF Blender I/O v1.8.19",
        "version" : "2.0"
    },
    "scene" : 0,
    "scenes" : [
        {
            "name" : "Scene",
            "nodes" : [
                3
            ]
        }
    ],
    "nodes" : [
        {
            "mesh" : 0,
            "name" : "Belt_StraightBorder_Layer0_LOD0"
        },
        {
            "mesh" : 1,
            "name" : "Belt_StraightBorder_Layer1_LOD0"
        },
        {
            "mesh" : 2,
            "name" : "Belt_StraightBorder_Layer2_LOD0"
        },
        {
            "children" : [
                0,
                1,
                2
            ],
            "mesh" : 3,
            "name" : "Belt_Straight_LOD0"
        }
    ],
    "materials" : [
        {
            "doubleSided" : true,
            "name" : "TT_checker_512x512_UV_GRID",
            "pbrMetallicRoughness" : {
                "metallicFactor" : 0,
                "roughnessFactor" : 0.5
            }
        }
    ],
    "meshes" : [
        {
            "name" : "Mesh.027",
            "primitives" : [
                {
                    "attributes" : {
                        "POSITION" : 0,
                        "NORMAL" : 1,
                        "TEXCOORD_0" : 2,
                        "TEXCOORD_1" : 3,
                        "COLOR_0" : 4
                    },
                    "indices" : 5,
                    "material" : 0
                }
            ]
        },
        {
            "name" : "Mesh.044",
            "primitives" : [
                {
                    "attributes" : {
                        "POSITION" : 6,
                        "NORMAL" : 7,
                        "TEXCOORD_0" : 8,
                        "TEXCOORD_1" : 9,
                        "COLOR_0" : 10
                    },
                    "indices" : 11,
                    "material" : 0
                }
            ]
        },
        {
            "name" : "Mesh.030",
            "primitives" : [
                {
                    "attributes" : {
                        "POSITION" : 12,
                        "NORMAL" : 13,
                        "TEXCOORD_0" : 14,
                        "TEXCOORD_1" : 15,
                        "COLOR_0" : 16
                    },
                    "indices" : 17,
                    "material" : 0
                }
            ]
        },
        {
            "name" : "Mesh.042",
            "primitives" : [
                {
                    "attributes" : {
                        "POSITION" : 18,
                        "NORMAL" : 19,
                        "TEXCOORD_0" : 20,
                        "TEXCOORD_1" : 21,
                        "COLOR_0" : 22
                    },
                    "indices" : 23,
                    "material" : 0
                }
            ]
        }
    ],
    "accessors" : [
        {
            "bufferView" : 0,
            "componentType" : 5126,
            "count" : 74,
            "max" : [
                0.28400927782058716,
                0.259990394115448,
                0.5001149773597717
            ],
            "min" : [
                -0.28400933742523193,
                -2.0368878494991804e-07,
                -0.5000036954879761
            ],
            "type" : "VEC3"
        },
        {
            "bufferView" : 1,
            "componentType" : 5126,
            "count" : 74,
            "type" : "VEC3"
        },
        {
            "bufferView" : 2,
            "componentType" : 5126,
            "count" : 74,
            "type" : "VEC2"
        },
        {
            "bufferView" : 3,
            "componentType" : 5126,
            "count" : 74,
            "type" : "VEC2"
        },
        {
            "bufferView" : 4,
            "componentType" : 5123,
            "count" : 74,
            "normalized" : true,
            "type" : "VEC4"
        },
        {
            "bufferView" : 5,
            "componentType" : 5123,
            "count" : 132,
            "type" : "SCALAR"
        },
        {
            "bufferView" : 6,
            "componentType" : 5126,
            "count" : 688,
            "max" : [
                0.2837960124015808,
                0.259990394115448,
                0.5001149773597717
            ],
            "min" : [
                -0.28379619121551514,
                -0.02735941857099533,
                -0.5001149773597717
            ],
            "type" : "VEC3"
        },
        {
            "bufferView" : 7,
            "componentType" : 5126,
            "count" : 688,
            "type" : "VEC3"
        },
        {
            "bufferView" : 8,
            "componentType" : 5126,
            "count" : 688,
            "type" : "VEC2"
        },
        {
            "bufferView" : 9,
            "componentType" : 5126,
            "count" : 688,
            "type" : "VEC2"
        },
        {
            "bufferView" : 10,
            "componentType" : 5123,
            "count" : 688,
            "normalized" : true,
            "type" : "VEC4"
        },
        {
            "bufferView" : 11,
            "componentType" : 5123,
            "count" : 1530,
            "type" : "SCALAR"
        },
        {
            "bufferView" : 12,
            "componentType" : 5126,
            "count" : 396,
            "max" : [
                0.2839842438697815,
                0.22753937542438507,
                0.5010001063346863
            ],
            "min" : [
                -0.28398430347442627,
                0.09478965401649475,
                -0.5001149773597717
            ],
            "type" : "VEC3"
        },
        {
            "bufferView" : 13,
            "componentType" : 5126,
            "count" : 396,
            "type" : "VEC3"
        },
        {
            "bufferView" : 14,
            "componentType" : 5126,
            "count" : 396,
            "type" : "VEC2"
        },
        {
            "bufferView" : 15,
            "componentType" : 5126,
            "count" : 396,
            "type" : "VEC2"
        },
        {
            "bufferView" : 16,
            "componentType" : 5123,
            "count" : 396,
            "normalized" : true,
            "type" : "VEC4"
        },
        {
            "bufferView" : 17,
            "componentType" : 5123,
            "count" : 906,
            "type" : "SCALAR"
        },
        {
            "bufferView" : 18,
            "componentType" : 5126,
            "count" : 20,
            "max" : [
                0.2500574588775635,
                0.20000004768371582,
                0.5001149773597717
            ],
            "min" : [
                -0.250057578086853,
                0.1900482028722763,
                -0.5001149773597717
            ],
            "type" : "VEC3"
        },
        {
            "bufferView" : 19,
            "componentType" : 5126,
            "count" : 20,
            "type" : "VEC3"
        },
        {
            "bufferView" : 20,
            "componentType" : 5126,
            "count" : 20,
            "type" : "VEC2"
        },
        {
            "bufferView" : 21,
            "componentType" : 5126,
            "count" : 20,
            "type" : "VEC2"
        },
        {
            "bufferView" : 22,
            "componentType" : 5123,
            "count" : 20,
            "normalized" : true,
            "type" : "VEC4"
        },
        {
            "bufferView" : 23,
            "componentType" : 5123,
            "count" : 30,
            "type" : "SCALAR"
        }
    ],
    "bufferViews" : [
        {
            "buffer" : 0,
            "byteLength" : 888,
            "byteOffset" : 0
        },
        {
            "buffer" : 0,
            "byteLength" : 888,
            "byteOffset" : 888
        },
        {
            "buffer" : 0,
            "byteLength" : 592,
            "byteOffset" : 1776
        },
        {
            "buffer" : 0,
            "byteLength" : 592,
            "byteOffset" : 2368
        },
        {
            "buffer" : 0,
            "byteLength" : 592,
            "byteOffset" : 2960
        },
        {
            "buffer" : 0,
            "byteLength" : 264,
            "byteOffset" : 3552
        },
        {
            "buffer" : 0,
            "byteLength" : 8256,
            "byteOffset" : 3816
        },
        {
            "buffer" : 0,
            "byteLength" : 8256,
            "byteOffset" : 12072
        },
        {
            "buffer" : 0,
            "byteLength" : 5504,
            "byteOffset" : 20328
        },
        {
            "buffer" : 0,
            "byteLength" : 5504,
            "byteOffset" : 25832
        },
        {
            "buffer" : 0,
            "byteLength" : 5504,
            "byteOffset" : 31336
        },
        {
            "buffer" : 0,
            "byteLength" : 3060,
            "byteOffset" : 36840
        },
        {
            "buffer" : 0,
            "byteLength" : 4752,
            "byteOffset" : 39900
        },
        {
            "buffer" : 0,
            "byteLength" : 4752,
            "byteOffset" : 44652
        },
        {
            "buffer" : 0,
            "byteLength" : 3168,
            "byteOffset" : 49404
        },
        {
            "buffer" : 0,
            "byteLength" : 3168,
            "byteOffset" : 52572
        },
        {
            "buffer" : 0,
            "byteLength" : 3168,
            "byteOffset" : 55740
        },
        {
            "buffer" : 0,
            "byteLength" : 1812,
            "byteOffset" : 58908
        },
        {
            "buffer" : 0,
            "byteLength" : 240,
            "byteOffset" : 60720
        },
        {
            "buffer" : 0,
            "byteLength" : 240,
            "byteOffset" : 60960
        },
        {
            "buffer" : 0,
            "byteLength" : 160,
            "byteOffset" : 61200
        },
        {
            "buffer" : 0,
            "byteLength" : 160,
            "byteOffset" : 61360
        },
        {
            "buffer" : 0,
            "byteLength" : 160,
            "byteOffset" : 61520
        },
        {
            "buffer" : 0,
            "byteLength" : 60,
            "byteOffset" : 61680
        }
    ],
    "buffers" : [
        {
            "byteLength" : 61740,
            "uri" : "data:application/octet-stream;base64,"
        }
    ]
}
