{
    "asset" : {
        "generator" : "Khronos glTF Blender I/O v1.8.19",
        "version" : "2.0"
    },
    "scene" : 0,
    "scenes" : [
        {
            "name" : "Scene",
            "nodes" : [
                0
            ]
        }
    ],
    "nodes" : [
        {
            "mesh" : 0,
            "name" : "CrystalGenerator_Default_Main_LOD0"
        }
    ],
    "materials" : [
        {
            "doubleSided" : true,
            "name" : "Material.001",
            "pbrMetallicRoughness" : {
                "metallicFactor" : 0,
                "roughnessFactor" : 0.27227723598480225
            }
        }
    ],
    "meshes" : [
        {
            "name" : "Cube.006",
            "primitives" : [
                {
                    "attributes" : {
                        "POSITION" : 0,
                        "NORMAL" : 1,
                        "TEXCOORD_0" : 2,
                        "TEXCOORD_1" : 3,
                        "COLOR_0" : 4
                    },
                    "indices" : 5,
                    "material" : 0
                }
            ]
        }
    ],
    "accessors" : [
        {
            "bufferView" : 0,
            "componentType" : 5126,
            "count" : 1477,
            "max" : [
                0.42782706022262573,
                0.49712032079696655,
                0.5450077056884766
            ],
            "min" : [
                -0.4278271794319153,
                -0.043831005692481995,
                -0.5450077056884766
            ],
            "type" : "VEC3"
        },
        {
            "bufferView" : 1,
            "componentType" : 5126,
            "count" : 1477,
            "type" : "VEC3"
        },
        {
            "bufferView" : 2,
            "componentType" : 5126,
            "count" : 1477,
            "type" : "VEC2"
        },
        {
            "bufferView" : 3,
            "componentType" : 5126,
            "count" : 1477,
            "type" : "VEC2"
        },
        {
            "bufferView" : 4,
            "componentType" : 5123,
            "count" : 1477,
            "normalized" : true,
            "type" : "VEC4"
        },
        {
            "bufferView" : 5,
            "componentType" : 5123,
            "count" : 3348,
            "type" : "SCALAR"
        }
    ],
    "bufferViews" : [
        {
            "buffer" : 0,
            "byteLength" : 17724,
            "byteOffset" : 0
        },
        {
            "buffer" : 0,
            "byteLength" : 17724,
            "byteOffset" : 17724
        },
        {
            "buffer" : 0,
            "byteLength" : 11816,
            "byteOffset" : 35448
        },
        {
            "buffer" : 0,
            "byteLength" : 11816,
            "byteOffset" : 47264
        },
        {
            "buffer" : 0,
            "byteLength" : 11816,
            "byteOffset" : 59080
        },
        {
            "buffer" : 0,
            "byteLength" : 6696,
            "byteOffset" : 70896
        }
    ],
    "buffers" : [
        {
            "byteLength" : 77592,
            "uri" : "data:application/octet-stream;base64,"
        }
    ]
}
