{
    "asset" : {
        "generator" : "Khronos glTF Blender I/O v1.8.19",
        "version" : "2.0"
    },
    "scene" : 0,
    "scenes" : [
        {
            "name" : "Scene",
            "nodes" : [
                1
            ]
        }
    ],
    "nodes" : [
        {
            "mesh" : 0,
            "name" : "Cutter_Default_Ribbon_LOD0",
            "rotation" : [
                0.5000000596046448,
                -0.4999999701976776,
                0.5000000596046448,
                0.4999999403953552
            ],
            "scale" : [
                1,
                1,
                0.9999951124191284
            ],
            "translation" : [
                -0.5,
                0.20000000298023224,
                0
            ]
        },
        {
            "children" : [
                0
            ],
            "mesh" : 1,
            "name" : "Cutter_Default_Main_LOD0"
        }
    ],
    "materials" : [
        {
            "doubleSided" : true,
            "name" : "Conveyor_Belt.002",
            "pbrMetallicRoughness" : {
                "baseColorFactor" : [
                    0.09828345477581024,
                    0.09828345477581024,
                    0.09828345477581024,
                    1
                ],
                "metallicFactor" : 0.17272727191448212,
                "roughnessFactor" : 0.44090908765792847
            }
        },
        {
            "doubleSided" : true,
            "name" : "Conveyor_Belt",
            "pbrMetallicRoughness" : {
                "metallicFactor" : 0,
                "roughnessFactor" : 0.5527864098548889
            }
        }
    ],
    "meshes" : [
        {
            "name" : "Mesh.023",
            "primitives" : [
                {
                    "attributes" : {
                        "POSITION" : 0,
                        "NORMAL" : 1,
                        "TEXCOORD_0" : 2,
                        "TEXCOORD_1" : 3,
                        "COLOR_0" : 4
                    },
                    "indices" : 5,
                    "material" : 0
                }
            ]
        },
        {
            "name" : "Mesh.019",
            "primitives" : [
                {
                    "attributes" : {
                        "POSITION" : 6,
                        "NORMAL" : 7,
                        "TEXCOORD_0" : 8,
                        "TEXCOORD_1" : 9,
                        "COLOR_0" : 10
                    },
                    "indices" : 11,
                    "material" : 1
                }
            ]
        }
    ],
    "accessors" : [
        {
            "bufferView" : 0,
            "componentType" : 5126,
            "count" : 824,
            "max" : [
                0.2894022464752197,
                0.7931336164474487,
                0.08732255548238754
            ],
            "min" : [
                -0.2894022464752197,
                -0.7931339740753174,
                -0.012678055092692375
            ],
            "type" : "VEC3"
        },
        {
            "bufferView" : 1,
            "componentType" : 5126,
            "count" : 824,
            "type" : "VEC3"
        },
        {
            "bufferView" : 2,
            "componentType" : 5126,
            "count" : 824,
            "type" : "VEC2"
        },
        {
            "bufferView" : 3,
            "componentType" : 5126,
            "count" : 824,
            "type" : "VEC2"
        },
        {
            "bufferView" : 4,
            "componentType" : 5123,
            "count" : 824,
            "normalized" : true,
            "type" : "VEC4"
        },
        {
            "bufferView" : 5,
            "componentType" : 5123,
            "count" : 2058,
            "type" : "SCALAR"
        },
        {
            "bufferView" : 6,
            "componentType" : 5126,
            "count" : 3478,
            "max" : [
                0.43752866983413696,
                0.2599986493587494,
                0.5019574165344238
            ],
            "min" : [
                -1.4134232997894287,
                -7.82181075464905e-08,
                -0.5012388825416565
            ],
            "type" : "VEC3"
        },
        {
            "bufferView" : 7,
            "componentType" : 5126,
            "count" : 3478,
            "type" : "VEC3"
        },
        {
            "bufferView" : 8,
            "componentType" : 5126,
            "count" : 3478,
            "type" : "VEC2"
        },
        {
            "bufferView" : 9,
            "componentType" : 5126,
            "count" : 3478,
            "type" : "VEC2"
        },
        {
            "bufferView" : 10,
            "componentType" : 5123,
            "count" : 3478,
            "normalized" : true,
            "type" : "VEC4"
        },
        {
            "bufferView" : 11,
            "componentType" : 5123,
            "count" : 9630,
            "type" : "SCALAR"
        }
    ],
    "bufferViews" : [
        {
            "buffer" : 0,
            "byteLength" : 9888,
            "byteOffset" : 0
        },
        {
            "buffer" : 0,
            "byteLength" : 9888,
            "byteOffset" : 9888
        },
        {
            "buffer" : 0,
            "byteLength" : 6592,
            "byteOffset" : 19776
        },
        {
            "buffer" : 0,
            "byteLength" : 6592,
            "byteOffset" : 26368
        },
        {
            "buffer" : 0,
            "byteLength" : 6592,
            "byteOffset" : 32960
        },
        {
            "buffer" : 0,
            "byteLength" : 4116,
            "byteOffset" : 39552
        },
        {
            "buffer" : 0,
            "byteLength" : 41736,
            "byteOffset" : 43668
        },
        {
            "buffer" : 0,
            "byteLength" : 41736,
            "byteOffset" : 85404
        },
        {
            "buffer" : 0,
            "byteLength" : 27824,
            "byteOffset" : 127140
        },
        {
            "buffer" : 0,
            "byteLength" : 27824,
            "byteOffset" : 154964
        },
        {
            "buffer" : 0,
            "byteLength" : 27824,
            "byteOffset" : 182788
        },
        {
            "buffer" : 0,
            "byteLength" : 19260,
            "byteOffset" : 210612
        }
    ],
    "buffers" : [
        {
            "byteLength" : 229872,
            "uri" : "data:application/octet-stream;base64,"
        }
    ]
}
