{
    "asset" : {
        "generator" : "Khronos glTF Blender I/O v1.8.19",
        "version" : "2.0"
    },
    "scene" : 0,
    "scenes" : [
        {
            "name" : "Scene",
            "nodes" : [
                5
            ]
        }
    ],
    "nodes" : [
        {
            "mesh" : 0,
            "name" : "HalfCutter_Default_Plattform_LOD0",
            "rotation" : [
                0.5000000596046448,
                -0.4999999701976776,
                0.5000000596046448,
                0.4999999403953552
            ]
        },
        {
            "mesh" : 1,
            "name" : "HalfCutter_Default_PlattformMain_LOD0",
            "rotation" : [
                0.5000000596046448,
                -0.4999999701976776,
                0.5000000596046448,
                0.4999999403953552
            ]
        },
        {
            "mesh" : 2,
            "name" : "HalfCutter_Robot_Joint3_LOD0",
            "rotation" : [
                -9.518508886685595e-05,
                0.021814676001667976,
                -0.004362270701676607,
                0.9997525215148926
            ],
            "translation" : [
                -0.015512129291892052,
                0.15164178609848022,
                -0.12995950877666473
            ]
        },
        {
            "children" : [
                2
            ],
            "mesh" : 3,
            "name" : "HalfCutter_Robot_Joint2_LOD0",
            "translation" : [
                0.04210337996482849,
                -0.039651453495025635,
                -0.1994473934173584
            ]
        },
        {
            "children" : [
                3
            ],
            "mesh" : 4,
            "name" : "HalfCutter_Robot_Joint1_LOD0",
            "rotation" : [
                0.5000000596046448,
                -0.4999999701976776,
                0.5000000596046448,
                0.4999999403953552
            ],
            "translation" : [
                0.3348139524459839,
                0.3428729176521301,
                -0.05120198428630829
            ]
        },
        {
            "children" : [
                0,
                1,
                4
            ],
            "mesh" : 5,
            "name" : "HalfCutter_Default_Main_LOD0"
        }
    ],
    "meshes" : [
        {
            "name" : "Cube.027",
            "primitives" : [
                {
                    "attributes" : {
                        "POSITION" : 0,
                        "NORMAL" : 1,
                        "TEXCOORD_0" : 2,
                        "TEXCOORD_1" : 3,
                        "COLOR_0" : 4
                    },
                    "indices" : 5
                }
            ]
        },
        {
            "name" : "Cube.028",
            "primitives" : [
                {
                    "attributes" : {
                        "POSITION" : 6,
                        "NORMAL" : 7,
                        "TEXCOORD_0" : 8,
                        "TEXCOORD_1" : 9,
                        "COLOR_0" : 10
                    },
                    "indices" : 11
                }
            ]
        },
        {
            "name" : "Cube.024",
            "primitives" : [
                {
                    "attributes" : {
                        "POSITION" : 12,
                        "NORMAL" : 13,
                        "TEXCOORD_0" : 14,
                        "TEXCOORD_1" : 15,
                        "COLOR_0" : 16
                    },
                    "indices" : 17
                }
            ]
        },
        {
            "name" : "Cube.023",
            "primitives" : [
                {
                    "attributes" : {
                        "POSITION" : 18,
                        "NORMAL" : 19,
                        "TEXCOORD_0" : 20,
                        "TEXCOORD_1" : 21,
                        "COLOR_0" : 22
                    },
                    "indices" : 23
                }
            ]
        },
        {
            "name" : "Cube.022",
            "primitives" : [
                {
                    "attributes" : {
                        "POSITION" : 24,
                        "NORMAL" : 25,
                        "TEXCOORD_0" : 26,
                        "TEXCOORD_1" : 27,
                        "COLOR_0" : 28
                    },
                    "indices" : 29
                }
            ]
        },
        {
            "name" : "Cube.029",
            "primitives" : [
                {
                    "attributes" : {
                        "POSITION" : 30,
                        "NORMAL" : 31,
                        "TEXCOORD_0" : 32,
                        "TEXCOORD_1" : 33,
                        "COLOR_0" : 34
                    },
                    "indices" : 35
                }
            ]
        }
    ],
    "accessors" : [
        {
            "bufferView" : 0,
            "componentType" : 5126,
            "count" : 241,
            "max" : [
                0.18376077711582184,
                -0.0019374378025531769,
                -0.16425620019435883
            ],
            "min" : [
                -0.18376080691814423,
                -0.18388783931732178,
                -0.2000831812620163
            ],
            "type" : "VEC3"
        },
        {
            "bufferView" : 1,
            "componentType" : 5126,
            "count" : 241,
            "type" : "VEC3"
        },
        {
            "bufferView" : 2,
            "componentType" : 5126,
            "count" : 241,
            "type" : "VEC2"
        },
        {
            "bufferView" : 3,
            "componentType" : 5126,
            "count" : 241,
            "type" : "VEC2"
        },
        {
            "bufferView" : 4,
            "componentType" : 5123,
            "count" : 241,
            "normalized" : true,
            "type" : "VEC4"
        },
        {
            "bufferView" : 5,
            "componentType" : 5123,
            "count" : 672,
            "type" : "SCALAR"
        },
        {
            "bufferView" : 6,
            "componentType" : 5126,
            "count" : 208,
            "max" : [
                0.18399818241596222,
                0.18412916362285614,
                -0.16425633430480957
            ],
            "min" : [
                -0.18399818241596222,
                -0.0019363340688869357,
                -0.20008328557014465
            ],
            "type" : "VEC3"
        },
        {
            "bufferView" : 7,
            "componentType" : 5126,
            "count" : 208,
            "type" : "VEC3"
        },
        {
            "bufferView" : 8,
            "componentType" : 5126,
            "count" : 208,
            "type" : "VEC2"
        },
        {
            "bufferView" : 9,
            "componentType" : 5126,
            "count" : 208,
            "type" : "VEC2"
        },
        {
            "bufferView" : 10,
            "componentType" : 5123,
            "count" : 208,
            "normalized" : true,
            "type" : "VEC4"
        },
        {
            "bufferView" : 11,
            "componentType" : 5123,
            "count" : 546,
            "type" : "SCALAR"
        },
        {
            "bufferView" : 12,
            "componentType" : 5126,
            "count" : 461,
            "max" : [
                0.03377825766801834,
                0.07783220708370209,
                0.09400182217359543
            ],
            "min" : [
                -0.028642646968364716,
                -0.03928216174244881,
                -0.02886422537267208
            ],
            "type" : "VEC3"
        },
        {
            "bufferView" : 13,
            "componentType" : 5126,
            "count" : 461,
            "type" : "VEC3"
        },
        {
            "bufferView" : 14,
            "componentType" : 5126,
            "count" : 461,
            "type" : "VEC2"
        },
        {
            "bufferView" : 15,
            "componentType" : 5126,
            "count" : 461,
            "type" : "VEC2"
        },
        {
            "bufferView" : 16,
            "componentType" : 5123,
            "count" : 461,
            "normalized" : true,
            "type" : "VEC4"
        },
        {
            "bufferView" : 17,
            "componentType" : 5123,
            "count" : 1230,
            "type" : "SCALAR"
        },
        {
            "bufferView" : 18,
            "componentType" : 5126,
            "count" : 1027,
            "max" : [
                0.08033506572246552,
                0.19286753237247467,
                0.06484855711460114
            ],
            "min" : [
                -0.08033519238233566,
                -0.055649809539318085,
                -0.1596660017967224
            ],
            "type" : "VEC3"
        },
        {
            "bufferView" : 19,
            "componentType" : 5126,
            "count" : 1027,
            "type" : "VEC3"
        },
        {
            "bufferView" : 20,
            "componentType" : 5126,
            "count" : 1027,
            "type" : "VEC2"
        },
        {
            "bufferView" : 21,
            "componentType" : 5126,
            "count" : 1027,
            "type" : "VEC2"
        },
        {
            "bufferView" : 22,
            "componentType" : 5123,
            "count" : 1027,
            "normalized" : true,
            "type" : "VEC4"
        },
        {
            "bufferView" : 23,
            "componentType" : 5123,
            "count" : 3000,
            "type" : "SCALAR"
        },
        {
            "bufferView" : 24,
            "componentType" : 5126,
            "count" : 144,
            "max" : [
                0.02899116836488247,
                0.05161741375923157,
                0.048035409301519394
            ],
            "min" : [
                -0.03202264383435249,
                -0.08810770511627197,
                -0.25248992443084717
            ],
            "type" : "VEC3"
        },
        {
            "bufferView" : 25,
            "componentType" : 5126,
            "count" : 144,
            "type" : "VEC3"
        },
        {
            "bufferView" : 26,
            "componentType" : 5126,
            "count" : 144,
            "type" : "VEC2"
        },
        {
            "bufferView" : 27,
            "componentType" : 5126,
            "count" : 144,
            "type" : "VEC2"
        },
        {
            "bufferView" : 28,
            "componentType" : 5123,
            "count" : 144,
            "normalized" : true,
            "type" : "VEC4"
        },
        {
            "bufferView" : 29,
            "componentType" : 5123,
            "count" : 276,
            "type" : "SCALAR"
        },
        {
            "bufferView" : 30,
            "componentType" : 5126,
            "count" : 2171,
            "max" : [
                0.4788323938846588,
                0.4075314998626709,
                0.5003241300582886
            ],
            "min" : [
                -0.4722999632358551,
                -0.00011132666986668482,
                -0.5003241300582886
            ],
            "type" : "VEC3"
        },
        {
            "bufferView" : 31,
            "componentType" : 5126,
            "count" : 2171,
            "type" : "VEC3"
        },
        {
            "bufferView" : 32,
            "componentType" : 5126,
            "count" : 2171,
            "type" : "VEC2"
        },
        {
            "bufferView" : 33,
            "componentType" : 5126,
            "count" : 2171,
            "type" : "VEC2"
        },
        {
            "bufferView" : 34,
            "componentType" : 5123,
            "count" : 2171,
            "normalized" : true,
            "type" : "VEC4"
        },
        {
            "bufferView" : 35,
            "componentType" : 5123,
            "count" : 5580,
            "type" : "SCALAR"
        }
    ],
    "bufferViews" : [
        {
            "buffer" : 0,
            "byteLength" : 2892,
            "byteOffset" : 0
        },
        {
            "buffer" : 0,
            "byteLength" : 2892,
            "byteOffset" : 2892
        },
        {
            "buffer" : 0,
            "byteLength" : 1928,
            "byteOffset" : 5784
        },
        {
            "buffer" : 0,
            "byteLength" : 1928,
            "byteOffset" : 7712
        },
        {
            "buffer" : 0,
            "byteLength" : 1928,
            "byteOffset" : 9640
        },
        {
            "buffer" : 0,
            "byteLength" : 1344,
            "byteOffset" : 11568
        },
        {
            "buffer" : 0,
            "byteLength" : 2496,
            "byteOffset" : 12912
        },
        {
            "buffer" : 0,
            "byteLength" : 2496,
            "byteOffset" : 15408
        },
        {
            "buffer" : 0,
            "byteLength" : 1664,
            "byteOffset" : 17904
        },
        {
            "buffer" : 0,
            "byteLength" : 1664,
            "byteOffset" : 19568
        },
        {
            "buffer" : 0,
            "byteLength" : 1664,
            "byteOffset" : 21232
        },
        {
            "buffer" : 0,
            "byteLength" : 1092,
            "byteOffset" : 22896
        },
        {
            "buffer" : 0,
            "byteLength" : 5532,
            "byteOffset" : 23988
        },
        {
            "buffer" : 0,
            "byteLength" : 5532,
            "byteOffset" : 29520
        },
        {
            "buffer" : 0,
            "byteLength" : 3688,
            "byteOffset" : 35052
        },
        {
            "buffer" : 0,
            "byteLength" : 3688,
            "byteOffset" : 38740
        },
        {
            "buffer" : 0,
            "byteLength" : 3688,
            "byteOffset" : 42428
        },
        {
            "buffer" : 0,
            "byteLength" : 2460,
            "byteOffset" : 46116
        },
        {
            "buffer" : 0,
            "byteLength" : 12324,
            "byteOffset" : 48576
        },
        {
            "buffer" : 0,
            "byteLength" : 12324,
            "byteOffset" : 60900
        },
        {
            "buffer" : 0,
            "byteLength" : 8216,
            "byteOffset" : 73224
        },
        {
            "buffer" : 0,
            "byteLength" : 8216,
            "byteOffset" : 81440
        },
        {
            "buffer" : 0,
            "byteLength" : 8216,
            "byteOffset" : 89656
        },
        {
            "buffer" : 0,
            "byteLength" : 6000,
            "byteOffset" : 97872
        },
        {
            "buffer" : 0,
            "byteLength" : 1728,
            "byteOffset" : 103872
        },
        {
            "buffer" : 0,
            "byteLength" : 1728,
            "byteOffset" : 105600
        },
        {
            "buffer" : 0,
            "byteLength" : 1152,
            "byteOffset" : 107328
        },
        {
            "buffer" : 0,
            "byteLength" : 1152,
            "byteOffset" : 108480
        },
        {
            "buffer" : 0,
            "byteLength" : 1152,
            "byteOffset" : 109632
        },
        {
            "buffer" : 0,
            "byteLength" : 552,
            "byteOffset" : 110784
        },
        {
            "buffer" : 0,
            "byteLength" : 26052,
            "byteOffset" : 111336
        },
        {
            "buffer" : 0,
            "byteLength" : 26052,
            "byteOffset" : 137388
        },
        {
            "buffer" : 0,
            "byteLength" : 17368,
            "byteOffset" : 163440
        },
        {
            "buffer" : 0,
            "byteLength" : 17368,
            "byteOffset" : 180808
        },
        {
            "buffer" : 0,
            "byteLength" : 17368,
            "byteOffset" : 198176
        },
        {
            "buffer" : 0,
            "byteLength" : 11160,
            "byteOffset" : 215544
        }
    ],
    "buffers" : [
        {
            "byteLength" : 226704,
            "uri" : "data:application/octet-stream;base64,"
        }
    ]
}
