{
    "asset" : {
        "generator" : "Khronos glTF Blender I/O v1.8.19",
        "version" : "2.0"
    },
    "scene" : 0,
    "scenes" : [
        {
            "name" : "Scene",
            "nodes" : [
                1
            ]
        }
    ],
    "nodes" : [
        {
            "mesh" : 0,
            "name" : "Extractor_Default_Glass_LOD0",
            "rotation" : [
                0.5000000596046448,
                -0.4999999701976776,
                0.5000000596046448,
                0.4999999403953552
            ]
        },
        {
            "children" : [
                0
            ],
            "mesh" : 1,
            "name" : "Extractor_Default_Main_LOD0"
        }
    ],
    "materials" : [
        {
            "doubleSided" : true,
            "name" : "SVGMat.005",
            "pbrMetallicRoughness" : {
                "baseColorFactor" : [
                    0.8000000715255737,
                    0.23260578513145447,
                    0.00590332318097353,
                    1
                ],
                "metallicFactor" : 0,
                "roughnessFactor" : 0.5
            }
        },
        {
            "doubleSided" : true,
            "name" : "TT_checker_512x512_UV_GRID.001",
            "pbrMetallicRoughness" : {
                "metallicFactor" : 0,
                "roughnessFactor" : 0.5
            }
        }
    ],
    "meshes" : [
        {
            "name" : "Cube.144",
            "primitives" : [
                {
                    "attributes" : {
                        "POSITION" : 0,
                        "NORMAL" : 1,
                        "TEXCOORD_0" : 2,
                        "TEXCOORD_1" : 3,
                        "COLOR_0" : 4
                    },
                    "indices" : 5,
                    "material" : 0
                }
            ]
        },
        {
            "name" : "Cube.143",
            "primitives" : [
                {
                    "attributes" : {
                        "POSITION" : 6,
                        "NORMAL" : 7,
                        "TEXCOORD_0" : 8,
                        "TEXCOORD_1" : 9,
                        "COLOR_0" : 10
                    },
                    "indices" : 11,
                    "material" : 1
                }
            ]
        }
    ],
    "accessors" : [
        {
            "bufferView" : 0,
            "componentType" : 5126,
            "count" : 64,
            "max" : [
                0.194309264421463,
                0.19464340806007385,
                2.1450634002685547
            ],
            "min" : [
                -0.19497767090797424,
                -0.19464367628097534,
                0.15552353858947754
            ],
            "type" : "VEC3"
        },
        {
            "bufferView" : 1,
            "componentType" : 5126,
            "count" : 64,
            "type" : "VEC3"
        },
        {
            "bufferView" : 2,
            "componentType" : 5126,
            "count" : 64,
            "type" : "VEC2"
        },
        {
            "bufferView" : 3,
            "componentType" : 5126,
            "count" : 64,
            "type" : "VEC2"
        },
        {
            "bufferView" : 4,
            "componentType" : 5123,
            "count" : 64,
            "normalized" : true,
            "type" : "VEC4"
        },
        {
            "bufferView" : 5,
            "componentType" : 5123,
            "count" : 192,
            "type" : "SCALAR"
        },
        {
            "bufferView" : 6,
            "componentType" : 5126,
            "count" : 4240,
            "max" : [
                0.39093127846717834,
                0.33644649386405945,
                0.38243162631988525
            ],
            "min" : [
                -0.3909313380718231,
                -2.1450634002685547,
                -0.5001149773597717
            ],
            "type" : "VEC3"
        },
        {
            "bufferView" : 7,
            "componentType" : 5126,
            "count" : 4240,
            "type" : "VEC3"
        },
        {
            "bufferView" : 8,
            "componentType" : 5126,
            "count" : 4240,
            "type" : "VEC2"
        },
        {
            "bufferView" : 9,
            "componentType" : 5126,
            "count" : 4240,
            "type" : "VEC2"
        },
        {
            "bufferView" : 10,
            "componentType" : 5123,
            "count" : 4240,
            "normalized" : true,
            "type" : "VEC4"
        },
        {
            "bufferView" : 11,
            "componentType" : 5123,
            "count" : 10686,
            "type" : "SCALAR"
        }
    ],
    "bufferViews" : [
        {
            "buffer" : 0,
            "byteLength" : 768,
            "byteOffset" : 0
        },
        {
            "buffer" : 0,
            "byteLength" : 768,
            "byteOffset" : 768
        },
        {
            "buffer" : 0,
            "byteLength" : 512,
            "byteOffset" : 1536
        },
        {
            "buffer" : 0,
            "byteLength" : 512,
            "byteOffset" : 2048
        },
        {
            "buffer" : 0,
            "byteLength" : 512,
            "byteOffset" : 2560
        },
        {
            "buffer" : 0,
            "byteLength" : 384,
            "byteOffset" : 3072
        },
        {
            "buffer" : 0,
            "byteLength" : 50880,
            "byteOffset" : 3456
        },
        {
            "buffer" : 0,
            "byteLength" : 50880,
            "byteOffset" : 54336
        },
        {
            "buffer" : 0,
            "byteLength" : 33920,
            "byteOffset" : 105216
        },
        {
            "buffer" : 0,
            "byteLength" : 33920,
            "byteOffset" : 139136
        },
        {
            "buffer" : 0,
            "byteLength" : 33920,
            "byteOffset" : 173056
        },
        {
            "buffer" : 0,
            "byteLength" : 21372,
            "byteOffset" : 206976
        }
    ],
    "buffers" : [
        {
            "byteLength" : 228348,
            "uri" : "data:application/octet-stream;base64,"
        }
    ]
}
