{
    "asset" : {
        "generator" : "Khronos glTF Blender I/O v1.8.19",
        "version" : "2.0"
    },
    "scene" : 0,
    "scenes" : [
        {
            "name" : "Scene",
            "nodes" : [
                2
            ]
        }
    ],
    "nodes" : [
        {
            "mesh" : 0,
            "name" : "FluidUnpackerGlas"
        },
        {
            "mesh" : 1,
            "name" : "FluidUnpackerLid"
        },
        {
            "children" : [
                0,
                1
            ],
            "mesh" : 2,
            "name" : "FluidUnpacker"
        }
    ],
    "materials" : [
        {
            "doubleSided" : true,
            "name" : "Conveyor_Belt.008",
            "pbrMetallicRoughness" : {
                "metallicFactor" : 0,
                "roughnessFactor" : 0.5527864098548889
            }
        }
    ],
    "meshes" : [
        {
            "name" : "Mesh.024",
            "primitives" : [
                {
                    "attributes" : {
                        "POSITION" : 0,
                        "NORMAL" : 1,
                        "TEXCOORD_0" : 2,
                        "TEXCOORD_1" : 3,
                        "COLOR_0" : 4
                    },
                    "indices" : 5,
                    "material" : 0
                }
            ]
        },
        {
            "name" : "Mesh.026",
            "primitives" : [
                {
                    "attributes" : {
                        "POSITION" : 6,
                        "NORMAL" : 7,
                        "TEXCOORD_0" : 8,
                        "TEXCOORD_1" : 9,
                        "COLOR_0" : 10
                    },
                    "indices" : 11,
                    "material" : 0
                }
            ]
        },
        {
            "name" : "Mesh.023",
            "primitives" : [
                {
                    "attributes" : {
                        "POSITION" : 12,
                        "NORMAL" : 13,
                        "TEXCOORD_0" : 14,
                        "TEXCOORD_1" : 15,
                        "COLOR_0" : 16
                    },
                    "indices" : 17,
                    "material" : 0
                }
            ]
        }
    ],
    "accessors" : [
        {
            "bufferView" : 0,
            "componentType" : 5126,
            "count" : 100,
            "max" : [
                0.37683728337287903,
                0.9569845199584961,
                0.3768373131752014
            ],
            "min" : [
                -0.3768374025821686,
                0.36680227518081665,
                -0.3768373727798462
            ],
            "type" : "VEC3"
        },
        {
            "bufferView" : 1,
            "componentType" : 5126,
            "count" : 100,
            "type" : "VEC3"
        },
        {
            "bufferView" : 2,
            "componentType" : 5126,
            "count" : 100,
            "type" : "VEC2"
        },
        {
            "bufferView" : 3,
            "componentType" : 5126,
            "count" : 100,
            "type" : "VEC2"
        },
        {
            "bufferView" : 4,
            "componentType" : 5123,
            "count" : 100,
            "normalized" : true,
            "type" : "VEC4"
        },
        {
            "bufferView" : 5,
            "componentType" : 5123,
            "count" : 300,
            "type" : "SCALAR"
        },
        {
            "bufferView" : 6,
            "componentType" : 5126,
            "count" : 16,
            "max" : [
                0.04805954173207283,
                1.2107564210891724,
                0.04805940017104149
            ],
            "min" : [
                -0.04805925488471985,
                1.2107564210891724,
                -0.04805940017104149
            ],
            "type" : "VEC3"
        },
        {
            "bufferView" : 7,
            "componentType" : 5126,
            "count" : 16,
            "type" : "VEC3"
        },
        {
            "bufferView" : 8,
            "componentType" : 5126,
            "count" : 16,
            "type" : "VEC2"
        },
        {
            "bufferView" : 9,
            "componentType" : 5126,
            "count" : 16,
            "type" : "VEC2"
        },
        {
            "bufferView" : 10,
            "componentType" : 5123,
            "count" : 16,
            "normalized" : true,
            "type" : "VEC4"
        },
        {
            "bufferView" : 11,
            "componentType" : 5123,
            "count" : 42,
            "type" : "SCALAR"
        },
        {
            "bufferView" : 12,
            "componentType" : 5126,
            "count" : 1447,
            "max" : [
                0.3768371343612671,
                1.2599903345108032,
                0.5001149773597717
            ],
            "min" : [
                -0.37683725357055664,
                0.000618783466052264,
                -0.500114917755127
            ],
            "type" : "VEC3"
        },
        {
            "bufferView" : 13,
            "componentType" : 5126,
            "count" : 1447,
            "type" : "VEC3"
        },
        {
            "bufferView" : 14,
            "componentType" : 5126,
            "count" : 1447,
            "type" : "VEC2"
        },
        {
            "bufferView" : 15,
            "componentType" : 5126,
            "count" : 1447,
            "type" : "VEC2"
        },
        {
            "bufferView" : 16,
            "componentType" : 5123,
            "count" : 1447,
            "normalized" : true,
            "type" : "VEC4"
        },
        {
            "bufferView" : 17,
            "componentType" : 5123,
            "count" : 4068,
            "type" : "SCALAR"
        }
    ],
    "bufferViews" : [
        {
            "buffer" : 0,
            "byteLength" : 1200,
            "byteOffset" : 0
        },
        {
            "buffer" : 0,
            "byteLength" : 1200,
            "byteOffset" : 1200
        },
        {
            "buffer" : 0,
            "byteLength" : 800,
            "byteOffset" : 2400
        },
        {
            "buffer" : 0,
            "byteLength" : 800,
            "byteOffset" : 3200
        },
        {
            "buffer" : 0,
            "byteLength" : 800,
            "byteOffset" : 4000
        },
        {
            "buffer" : 0,
            "byteLength" : 600,
            "byteOffset" : 4800
        },
        {
            "buffer" : 0,
            "byteLength" : 192,
            "byteOffset" : 5400
        },
        {
            "buffer" : 0,
            "byteLength" : 192,
            "byteOffset" : 5592
        },
        {
            "buffer" : 0,
            "byteLength" : 128,
            "byteOffset" : 5784
        },
        {
            "buffer" : 0,
            "byteLength" : 128,
            "byteOffset" : 5912
        },
        {
            "buffer" : 0,
            "byteLength" : 128,
            "byteOffset" : 6040
        },
        {
            "buffer" : 0,
            "byteLength" : 84,
            "byteOffset" : 6168
        },
        {
            "buffer" : 0,
            "byteLength" : 17364,
            "byteOffset" : 6252
        },
        {
            "buffer" : 0,
            "byteLength" : 17364,
            "byteOffset" : 23616
        },
        {
            "buffer" : 0,
            "byteLength" : 11576,
            "byteOffset" : 40980
        },
        {
            "buffer" : 0,
            "byteLength" : 11576,
            "byteOffset" : 52556
        },
        {
            "buffer" : 0,
            "byteLength" : 11576,
            "byteOffset" : 64132
        },
        {
            "buffer" : 0,
            "byteLength" : 8136,
            "byteOffset" : 75708
        }
    ],
    "buffers" : [
        {
            "byteLength" : 83844,
            "uri" : "data:application/octet-stream;base64,"
        }
    ]
}
