{
    "asset" : {
        "generator" : "Khronos glTF Blender I/O v1.8.19",
        "version" : "2.0"
    },
    "scene" : 0,
    "scenes" : [
        {
            "name" : "Scene",
            "nodes" : [
                1
            ]
        }
    ],
    "nodes" : [
        {
            "mesh" : 0,
            "name" : "PaintTankGlas"
        },
        {
            "children" : [
                0
            ],
            "mesh" : 1,
            "name" : "PaintTankFoundation"
        }
    ],
    "meshes" : [
        {
            "name" : "Cube.009",
            "primitives" : [
                {
                    "attributes" : {
                        "POSITION" : 0,
                        "NORMAL" : 1,
                        "TEXCOORD_0" : 2,
                        "COLOR_0" : 3
                    },
                    "indices" : 4
                }
            ]
        },
        {
            "name" : "Cube.008",
            "primitives" : [
                {
                    "attributes" : {
                        "POSITION" : 5,
                        "NORMAL" : 6,
                        "TEXCOORD_0" : 7,
                        "TEXCOORD_1" : 8,
                        "COLOR_0" : 9
                    },
                    "indices" : 10
                }
            ]
        }
    ],
    "accessors" : [
        {
            "bufferView" : 0,
            "componentType" : 5126,
            "count" : 190,
            "max" : [
                0.38920319080352783,
                0.9735374450683594,
                1.3873469829559326
            ],
            "min" : [
                -1.3864165544509888,
                0.34999993443489075,
                -0.3859935998916626
            ],
            "type" : "VEC3"
        },
        {
            "bufferView" : 1,
            "componentType" : 5126,
            "count" : 190,
            "type" : "VEC3"
        },
        {
            "bufferView" : 2,
            "componentType" : 5126,
            "count" : 190,
            "type" : "VEC2"
        },
        {
            "bufferView" : 3,
            "componentType" : 5123,
            "count" : 190,
            "normalized" : true,
            "type" : "VEC4"
        },
        {
            "bufferView" : 4,
            "componentType" : 5123,
            "count" : 558,
            "type" : "SCALAR"
        },
        {
            "bufferView" : 5,
            "componentType" : 5126,
            "count" : 1415,
            "max" : [
                0.4478950798511505,
                0.9935928583145142,
                1.500001072883606
            ],
            "min" : [
                -1.447896957397461,
                -2.1256485638332379e-07,
                -0.5000022649765015
            ],
            "type" : "VEC3"
        },
        {
            "bufferView" : 6,
            "componentType" : 5126,
            "count" : 1415,
            "type" : "VEC3"
        },
        {
            "bufferView" : 7,
            "componentType" : 5126,
            "count" : 1415,
            "type" : "VEC2"
        },
        {
            "bufferView" : 8,
            "componentType" : 5126,
            "count" : 1415,
            "type" : "VEC2"
        },
        {
            "bufferView" : 9,
            "componentType" : 5123,
            "count" : 1415,
            "normalized" : true,
            "type" : "VEC4"
        },
        {
            "bufferView" : 10,
            "componentType" : 5123,
            "count" : 3645,
            "type" : "SCALAR"
        }
    ],
    "bufferViews" : [
        {
            "buffer" : 0,
            "byteLength" : 2280,
            "byteOffset" : 0
        },
        {
            "buffer" : 0,
            "byteLength" : 2280,
            "byteOffset" : 2280
        },
        {
            "buffer" : 0,
            "byteLength" : 1520,
            "byteOffset" : 4560
        },
        {
            "buffer" : 0,
            "byteLength" : 1520,
            "byteOffset" : 6080
        },
        {
            "buffer" : 0,
            "byteLength" : 1116,
            "byteOffset" : 7600
        },
        {
            "buffer" : 0,
            "byteLength" : 16980,
            "byteOffset" : 8716
        },
        {
            "buffer" : 0,
            "byteLength" : 16980,
            "byteOffset" : 25696
        },
        {
            "buffer" : 0,
            "byteLength" : 11320,
            "byteOffset" : 42676
        },
        {
            "buffer" : 0,
            "byteLength" : 11320,
            "byteOffset" : 53996
        },
        {
            "buffer" : 0,
            "byteLength" : 11320,
            "byteOffset" : 65316
        },
        {
            "buffer" : 0,
            "byteLength" : 7290,
            "byteOffset" : 76636
        }
    ],
    "buffers" : [
        {
            "byteLength" : 83928,
            "uri" : "data:application/octet-stream;base64,"
        }
    ]
}
