{
    "asset" : {
        "generator" : "Khronos glTF Blender I/O v1.8.19",
        "version" : "2.0"
    },
    "scene" : 0,
    "scenes" : [
        {
            "name" : "Scene",
            "nodes" : [
                1
            ]
        }
    ],
    "nodes" : [
        {
            "mesh" : 0,
            "name" : "HalvesSwapper_Default_Ribbon_LOD0"
        },
        {
            "children" : [
                0
            ],
            "mesh" : 1,
            "name" : "HalvesSwapper_Default_Main_LOD0"
        }
    ],
    "materials" : [
        {
            "doubleSided" : true,
            "name" : "Conveyor_Belt.005",
            "pbrMetallicRoughness" : {
                "metallicFactor" : 0,
                "roughnessFactor" : 0.5527864098548889
            }
        }
    ],
    "meshes" : [
        {
            "name" : "Mesh.041",
            "primitives" : [
                {
                    "attributes" : {
                        "POSITION" : 0,
                        "NORMAL" : 1,
                        "TEXCOORD_0" : 2,
                        "TEXCOORD_1" : 3,
                        "COLOR_0" : 4
                    },
                    "indices" : 5
                }
            ]
        },
        {
            "name" : "Mesh.039",
            "primitives" : [
                {
                    "attributes" : {
                        "POSITION" : 6,
                        "NORMAL" : 7,
                        "TEXCOORD_0" : 8,
                        "TEXCOORD_1" : 9,
                        "COLOR_0" : 10
                    },
                    "indices" : 11,
                    "material" : 0
                }
            ]
        }
    ],
    "accessors" : [
        {
            "bufferView" : 0,
            "componentType" : 5126,
            "count" : 818,
            "max" : [
                0.293133944272995,
                0.21267804503440857,
                0.28940221667289734
            ],
            "min" : [
                -1.2931336164474487,
                0.11111218482255936,
                -0.2894022762775421
            ],
            "type" : "VEC3"
        },
        {
            "bufferView" : 1,
            "componentType" : 5126,
            "count" : 818,
            "type" : "VEC3"
        },
        {
            "bufferView" : 2,
            "componentType" : 5126,
            "count" : 818,
            "type" : "VEC2"
        },
        {
            "bufferView" : 3,
            "componentType" : 5126,
            "count" : 818,
            "type" : "VEC2"
        },
        {
            "bufferView" : 4,
            "componentType" : 5123,
            "count" : 818,
            "normalized" : true,
            "type" : "VEC4"
        },
        {
            "bufferView" : 5,
            "componentType" : 5123,
            "count" : 2058,
            "type" : "SCALAR"
        },
        {
            "bufferView" : 6,
            "componentType" : 5126,
            "count" : 4650,
            "max" : [
                0.43752869963645935,
                0.25999996066093445,
                0.5019574165344238
            ],
            "min" : [
                -1.4375287294387817,
                -0.019165750592947006,
                -0.5012388825416565
            ],
            "type" : "VEC3"
        },
        {
            "bufferView" : 7,
            "componentType" : 5126,
            "count" : 4650,
            "type" : "VEC3"
        },
        {
            "bufferView" : 8,
            "componentType" : 5126,
            "count" : 4650,
            "type" : "VEC2"
        },
        {
            "bufferView" : 9,
            "componentType" : 5126,
            "count" : 4650,
            "type" : "VEC2"
        },
        {
            "bufferView" : 10,
            "componentType" : 5123,
            "count" : 4650,
            "normalized" : true,
            "type" : "VEC4"
        },
        {
            "bufferView" : 11,
            "componentType" : 5123,
            "count" : 13530,
            "type" : "SCALAR"
        }
    ],
    "bufferViews" : [
        {
            "buffer" : 0,
            "byteLength" : 9816,
            "byteOffset" : 0
        },
        {
            "buffer" : 0,
            "byteLength" : 9816,
            "byteOffset" : 9816
        },
        {
            "buffer" : 0,
            "byteLength" : 6544,
            "byteOffset" : 19632
        },
        {
            "buffer" : 0,
            "byteLength" : 6544,
            "byteOffset" : 26176
        },
        {
            "buffer" : 0,
            "byteLength" : 6544,
            "byteOffset" : 32720
        },
        {
            "buffer" : 0,
            "byteLength" : 4116,
            "byteOffset" : 39264
        },
        {
            "buffer" : 0,
            "byteLength" : 55800,
            "byteOffset" : 43380
        },
        {
            "buffer" : 0,
            "byteLength" : 55800,
            "byteOffset" : 99180
        },
        {
            "buffer" : 0,
            "byteLength" : 37200,
            "byteOffset" : 154980
        },
        {
            "buffer" : 0,
            "byteLength" : 37200,
            "byteOffset" : 192180
        },
        {
            "buffer" : 0,
            "byteLength" : 37200,
            "byteOffset" : 229380
        },
        {
            "buffer" : 0,
            "byteLength" : 27060,
            "byteOffset" : 266580
        }
    ],
    "buffers" : [
        {
            "byteLength" : 293640,
            "uri" : "data:application/octet-stream;base64,"
        }
    ]
}
