{
    "asset" : {
        "generator" : "Khronos glTF Blender I/O v1.8.19",
        "version" : "2.0"
    },
    "scene" : 0,
    "scenes" : [
        {
            "name" : "Scene",
            "nodes" : [
                0
            ]
        }
    ],
    "nodes" : [
        {
            "mesh" : 0,
            "name" : "Lift_1DownForward_Layer1_LOD0"
        }
    ],
    "materials" : [
        {
            "doubleSided" : true,
            "name" : "Lit.010",
            "pbrMetallicRoughness" : {
                "baseColorFactor" : [
                    0.5,
                    0.5,
                    0.5,
                    1
                ],
                "metallicFactor" : 0,
                "roughnessFactor" : 0.5527864098548889
            }
        }
    ],
    "meshes" : [
        {
            "name" : "Scene.040",
            "primitives" : [
                {
                    "attributes" : {
                        "POSITION" : 0,
                        "NORMAL" : 1,
                        "TEXCOORD_0" : 2,
                        "TEXCOORD_1" : 3,
                        "COLOR_0" : 4
                    },
                    "indices" : 5,
                    "material" : 0
                }
            ]
        }
    ],
    "accessors" : [
        {
            "bufferView" : 0,
            "componentType" : 5126,
            "count" : 7756,
            "max" : [
                0.4957186281681061,
                0.2781811058521271,
                0.5010000467300415
            ],
            "min" : [
                -0.4957185685634613,
                -1,
                -0.5010000467300415
            ],
            "type" : "VEC3"
        },
        {
            "bufferView" : 1,
            "componentType" : 5126,
            "count" : 7756,
            "type" : "VEC3"
        },
        {
            "bufferView" : 2,
            "componentType" : 5126,
            "count" : 7756,
            "type" : "VEC2"
        },
        {
            "bufferView" : 3,
            "componentType" : 5126,
            "count" : 7756,
            "type" : "VEC2"
        },
        {
            "bufferView" : 4,
            "componentType" : 5123,
            "count" : 7756,
            "normalized" : true,
            "type" : "VEC4"
        },
        {
            "bufferView" : 5,
            "componentType" : 5123,
            "count" : 9366,
            "type" : "SCALAR"
        }
    ],
    "bufferViews" : [
        {
            "buffer" : 0,
            "byteLength" : 93072,
            "byteOffset" : 0
        },
        {
            "buffer" : 0,
            "byteLength" : 93072,
            "byteOffset" : 93072
        },
        {
            "buffer" : 0,
            "byteLength" : 62048,
            "byteOffset" : 186144
        },
        {
            "buffer" : 0,
            "byteLength" : 62048,
            "byteOffset" : 248192
        },
        {
            "buffer" : 0,
            "byteLength" : 62048,
            "byteOffset" : 310240
        },
        {
            "buffer" : 0,
            "byteLength" : 18732,
            "byteOffset" : 372288
        }
    ],
    "buffers" : [
        {
            "byteLength" : 391020,
            "uri" : "data:application/octet-stream;base64,"
        }
    ]
}
