{
    "asset" : {
        "generator" : "Khronos glTF Blender I/O v1.8.19",
        "version" : "2.0"
    },
    "scene" : 0,
    "scenes" : [
        {
            "name" : "Scene",
            "nodes" : [
                0
            ]
        }
    ],
    "nodes" : [
        {
            "mesh" : 0,
            "name" : "Lift_2DownRight_Layer0_LOD0"
        }
    ],
    "meshes" : [
        {
            "name" : "Cube.016",
            "primitives" : [
                {
                    "attributes" : {
                        "POSITION" : 0,
                        "NORMAL" : 1,
                        "TEXCOORD_0" : 2,
                        "TEXCOORD_1" : 3,
                        "TEXCOORD_2" : 4,
                        "COLOR_0" : 5
                    },
                    "indices" : 6
                }
            ]
        }
    ],
    "accessors" : [
        {
            "bufferView" : 0,
            "componentType" : 5126,
            "count" : 3031,
            "max" : [
                0.5010004043579102,
                0.2680620551109314,
                0.5010000467300415
            ],
            "min" : [
                -0.480214387178421,
                -2,
                -0.48021432757377625
            ],
            "type" : "VEC3"
        },
        {
            "bufferView" : 1,
            "componentType" : 5126,
            "count" : 3031,
            "type" : "VEC3"
        },
        {
            "bufferView" : 2,
            "componentType" : 5126,
            "count" : 3031,
            "type" : "VEC2"
        },
        {
            "bufferView" : 3,
            "componentType" : 5126,
            "count" : 3031,
            "type" : "VEC2"
        },
        {
            "bufferView" : 4,
            "componentType" : 5126,
            "count" : 3031,
            "type" : "VEC2"
        },
        {
            "bufferView" : 5,
            "componentType" : 5123,
            "count" : 3031,
            "normalized" : true,
            "type" : "VEC4"
        },
        {
            "bufferView" : 6,
            "componentType" : 5123,
            "count" : 7524,
            "type" : "SCALAR"
        }
    ],
    "bufferViews" : [
        {
            "buffer" : 0,
            "byteLength" : 36372,
            "byteOffset" : 0
        },
        {
            "buffer" : 0,
            "byteLength" : 36372,
            "byteOffset" : 36372
        },
        {
            "buffer" : 0,
            "byteLength" : 24248,
            "byteOffset" : 72744
        },
        {
            "buffer" : 0,
            "byteLength" : 24248,
            "byteOffset" : 96992
        },
        {
            "buffer" : 0,
            "byteLength" : 24248,
            "byteOffset" : 121240
        },
        {
            "buffer" : 0,
            "byteLength" : 24248,
            "byteOffset" : 145488
        },
        {
            "buffer" : 0,
            "byteLength" : 15048,
            "byteOffset" : 169736
        }
    ],
    "buffers" : [
        {
            "byteLength" : 184784,
            "uri" : "data:application/octet-stream;base64,"
        }
    ]
}
