{
    "asset" : {
        "generator" : "Khronos glTF Blender I/O v1.8.19",
        "version" : "2.0"
    },
    "scene" : 0,
    "scenes" : [
        {
            "name" : "Scene",
            "nodes" : [
                0
            ]
        }
    ],
    "nodes" : [
        {
            "mesh" : 0,
            "name" : "Lift_1UpLeft_Layer0_LOD0"
        }
    ],
    "materials" : [
        {
            "doubleSided" : true,
            "name" : "Lit.008",
            "pbrMetallicRoughness" : {
                "baseColorFactor" : [
                    0.5,
                    0.5,
                    0.5,
                    1
                ],
                "metallicFactor" : 0,
                "roughnessFactor" : 0.5527864098548889
            }
        }
    ],
    "meshes" : [
        {
            "name" : "Scene.032",
            "primitives" : [
                {
                    "attributes" : {
                        "POSITION" : 0,
                        "NORMAL" : 1,
                        "TEXCOORD_0" : 2,
                        "TEXCOORD_1" : 3,
                        "COLOR_0" : 4
                    },
                    "indices" : 5,
                    "material" : 0
                }
            ]
        }
    ],
    "accessors" : [
        {
            "bufferView" : 0,
            "componentType" : 5126,
            "count" : 7666,
            "max" : [
                0.4957185983657837,
                1.2781809568405151,
                0.5009999871253967
            ],
            "min" : [
                -0.501000165939331,
                -6.01001133304635e-08,
                -0.4957188367843628
            ],
            "type" : "VEC3"
        },
        {
            "bufferView" : 1,
            "componentType" : 5126,
            "count" : 7666,
            "type" : "VEC3"
        },
        {
            "bufferView" : 2,
            "componentType" : 5126,
            "count" : 7666,
            "type" : "VEC2"
        },
        {
            "bufferView" : 3,
            "componentType" : 5126,
            "count" : 7666,
            "type" : "VEC2"
        },
        {
            "bufferView" : 4,
            "componentType" : 5123,
            "count" : 7666,
            "normalized" : true,
            "type" : "VEC4"
        },
        {
            "bufferView" : 5,
            "componentType" : 5123,
            "count" : 9222,
            "type" : "SCALAR"
        }
    ],
    "bufferViews" : [
        {
            "buffer" : 0,
            "byteLength" : 91992,
            "byteOffset" : 0
        },
        {
            "buffer" : 0,
            "byteLength" : 91992,
            "byteOffset" : 91992
        },
        {
            "buffer" : 0,
            "byteLength" : 61328,
            "byteOffset" : 183984
        },
        {
            "buffer" : 0,
            "byteLength" : 61328,
            "byteOffset" : 245312
        },
        {
            "buffer" : 0,
            "byteLength" : 61328,
            "byteOffset" : 306640
        },
        {
            "buffer" : 0,
            "byteLength" : 18444,
            "byteOffset" : 367968
        }
    ],
    "buffers" : [
        {
            "byteLength" : 386412,
            "uri" : "data:application/octet-stream;base64,"
        }
    ]
}
