{
    "asset" : {
        "generator" : "Khronos glTF Blender I/O v1.8.19",
        "version" : "2.0"
    },
    "scene" : 0,
    "scenes" : [
        {
            "name" : "Scene",
            "nodes" : [
                0
            ]
        }
    ],
    "nodes" : [
        {
            "mesh" : 0,
            "name" : "Lift_2UpForward_Layer0_LOD0"
        }
    ],
    "meshes" : [
        {
            "name" : "Cube.005",
            "primitives" : [
                {
                    "attributes" : {
                        "POSITION" : 0,
                        "NORMAL" : 1,
                        "TEXCOORD_0" : 2,
                        "TEXCOORD_1" : 3,
                        "TEXCOORD_2" : 4,
                        "COLOR_0" : 5
                    },
                    "indices" : 6
                }
            ]
        }
    ],
    "accessors" : [
        {
            "bufferView" : 0,
            "componentType" : 5126,
            "count" : 2076,
            "max" : [
                0.48021405935287476,
                2.2681689262390137,
                0.5009999871253967
            ],
            "min" : [
                -0.4802146553993225,
                -9.193009020691534e-08,
                -0.5009999871253967
            ],
            "type" : "VEC3"
        },
        {
            "bufferView" : 1,
            "componentType" : 5126,
            "count" : 2076,
            "type" : "VEC3"
        },
        {
            "bufferView" : 2,
            "componentType" : 5126,
            "count" : 2076,
            "type" : "VEC2"
        },
        {
            "bufferView" : 3,
            "componentType" : 5126,
            "count" : 2076,
            "type" : "VEC2"
        },
        {
            "bufferView" : 4,
            "componentType" : 5126,
            "count" : 2076,
            "type" : "VEC2"
        },
        {
            "bufferView" : 5,
            "componentType" : 5123,
            "count" : 2076,
            "normalized" : true,
            "type" : "VEC4"
        },
        {
            "bufferView" : 6,
            "componentType" : 5123,
            "count" : 5190,
            "type" : "SCALAR"
        }
    ],
    "bufferViews" : [
        {
            "buffer" : 0,
            "byteLength" : 24912,
            "byteOffset" : 0
        },
        {
            "buffer" : 0,
            "byteLength" : 24912,
            "byteOffset" : 24912
        },
        {
            "buffer" : 0,
            "byteLength" : 16608,
            "byteOffset" : 49824
        },
        {
            "buffer" : 0,
            "byteLength" : 16608,
            "byteOffset" : 66432
        },
        {
            "buffer" : 0,
            "byteLength" : 16608,
            "byteOffset" : 83040
        },
        {
            "buffer" : 0,
            "byteLength" : 16608,
            "byteOffset" : 99648
        },
        {
            "buffer" : 0,
            "byteLength" : 10380,
            "byteOffset" : 116256
        }
    ],
    "buffers" : [
        {
            "byteLength" : 126636,
            "uri" : "data:application/octet-stream;base64,"
        }
    ]
}
