{
    "asset" : {
        "generator" : "Khronos glTF Blender I/O v1.8.19",
        "version" : "2.0"
    },
    "scene" : 0,
    "scenes" : [
        {
            "name" : "Scene",
            "nodes" : [
                0
            ]
        }
    ],
    "nodes" : [
        {
            "mesh" : 0,
            "name" : "Lift_2UpLeft_Layer0_LOD0"
        }
    ],
    "meshes" : [
        {
            "name" : "Cube.014",
            "primitives" : [
                {
                    "attributes" : {
                        "POSITION" : 0,
                        "NORMAL" : 1,
                        "TEXCOORD_0" : 2,
                        "TEXCOORD_1" : 3,
                        "TEXCOORD_2" : 4,
                        "COLOR_0" : 5
                    },
                    "indices" : 6
                }
            ]
        }
    ],
    "accessors" : [
        {
            "bufferView" : 0,
            "componentType" : 5126,
            "count" : 2089,
            "max" : [
                0.48021405935287476,
                2.2681689262390137,
                0.5009999871253967
            ],
            "min" : [
                -0.5010003447532654,
                -4.927461105808106e-09,
                -0.48021426796913147
            ],
            "type" : "VEC3"
        },
        {
            "bufferView" : 1,
            "componentType" : 5126,
            "count" : 2089,
            "type" : "VEC3"
        },
        {
            "bufferView" : 2,
            "componentType" : 5126,
            "count" : 2089,
            "type" : "VEC2"
        },
        {
            "bufferView" : 3,
            "componentType" : 5126,
            "count" : 2089,
            "type" : "VEC2"
        },
        {
            "bufferView" : 4,
            "componentType" : 5126,
            "count" : 2089,
            "type" : "VEC2"
        },
        {
            "bufferView" : 5,
            "componentType" : 5123,
            "count" : 2089,
            "normalized" : true,
            "type" : "VEC4"
        },
        {
            "bufferView" : 6,
            "componentType" : 5123,
            "count" : 5190,
            "type" : "SCALAR"
        }
    ],
    "bufferViews" : [
        {
            "buffer" : 0,
            "byteLength" : 25068,
            "byteOffset" : 0
        },
        {
            "buffer" : 0,
            "byteLength" : 25068,
            "byteOffset" : 25068
        },
        {
            "buffer" : 0,
            "byteLength" : 16712,
            "byteOffset" : 50136
        },
        {
            "buffer" : 0,
            "byteLength" : 16712,
            "byteOffset" : 66848
        },
        {
            "buffer" : 0,
            "byteLength" : 16712,
            "byteOffset" : 83560
        },
        {
            "buffer" : 0,
            "byteLength" : 16712,
            "byteOffset" : 100272
        },
        {
            "buffer" : 0,
            "byteLength" : 10380,
            "byteOffset" : 116984
        }
    ],
    "buffers" : [
        {
            "byteLength" : 127364,
            "uri" : "data:application/octet-stream;base64,"
        }
    ]
}
