{
    "asset" : {
        "generator" : "Khronos glTF Blender I/O v1.8.19",
        "version" : "2.0"
    },
    "scene" : 0,
    "scenes" : [
        {
            "name" : "Scene",
            "nodes" : [
                0
            ]
        }
    ],
    "nodes" : [
        {
            "mesh" : 0,
            "name" : "Lift_2DownLeft_Layer0_LOD0"
        }
    ],
    "meshes" : [
        {
            "name" : "Cube.015",
            "primitives" : [
                {
                    "attributes" : {
                        "POSITION" : 0,
                        "NORMAL" : 1,
                        "TEXCOORD_0" : 2,
                        "TEXCOORD_1" : 3,
                        "TEXCOORD_2" : 4,
                        "COLOR_0" : 5
                    },
                    "indices" : 6
                }
            ]
        }
    ],
    "accessors" : [
        {
            "bufferView" : 0,
            "componentType" : 5126,
            "count" : 3019,
            "max" : [
                0.48021432757377625,
                0.2680619955062866,
                0.501000165939331
            ],
            "min" : [
                -0.501000165939331,
                -2,
                -0.480214387178421
            ],
            "type" : "VEC3"
        },
        {
            "bufferView" : 1,
            "componentType" : 5126,
            "count" : 3019,
            "type" : "VEC3"
        },
        {
            "bufferView" : 2,
            "componentType" : 5126,
            "count" : 3019,
            "type" : "VEC2"
        },
        {
            "bufferView" : 3,
            "componentType" : 5126,
            "count" : 3019,
            "type" : "VEC2"
        },
        {
            "bufferView" : 4,
            "componentType" : 5126,
            "count" : 3019,
            "type" : "VEC2"
        },
        {
            "bufferView" : 5,
            "componentType" : 5123,
            "count" : 3019,
            "normalized" : true,
            "type" : "VEC4"
        },
        {
            "bufferView" : 6,
            "componentType" : 5123,
            "count" : 7524,
            "type" : "SCALAR"
        }
    ],
    "bufferViews" : [
        {
            "buffer" : 0,
            "byteLength" : 36228,
            "byteOffset" : 0
        },
        {
            "buffer" : 0,
            "byteLength" : 36228,
            "byteOffset" : 36228
        },
        {
            "buffer" : 0,
            "byteLength" : 24152,
            "byteOffset" : 72456
        },
        {
            "buffer" : 0,
            "byteLength" : 24152,
            "byteOffset" : 96608
        },
        {
            "buffer" : 0,
            "byteLength" : 24152,
            "byteOffset" : 120760
        },
        {
            "buffer" : 0,
            "byteLength" : 24152,
            "byteOffset" : 144912
        },
        {
            "buffer" : 0,
            "byteLength" : 15048,
            "byteOffset" : 169064
        }
    ],
    "buffers" : [
        {
            "byteLength" : 184112,
            "uri" : "data:application/octet-stream;base64,"
        }
    ]
}
