{
    "asset" : {
        "generator" : "Khronos glTF Blender I/O v1.8.19",
        "version" : "2.0"
    },
    "scene" : 0,
    "scenes" : [
        {
            "name" : "Scene",
            "nodes" : [
                0
            ]
        }
    ],
    "nodes" : [
        {
            "mesh" : 0,
            "name" : "Lift_2UpRight_Layer0_LOD0"
        }
    ],
    "meshes" : [
        {
            "name" : "Cube.013",
            "primitives" : [
                {
                    "attributes" : {
                        "POSITION" : 0,
                        "NORMAL" : 1,
                        "TEXCOORD_0" : 2,
                        "TEXCOORD_1" : 3,
                        "TEXCOORD_2" : 4,
                        "COLOR_0" : 5
                    },
                    "indices" : 6
                }
            ]
        }
    ],
    "accessors" : [
        {
            "bufferView" : 0,
            "componentType" : 5126,
            "count" : 2070,
            "max" : [
                0.500999927520752,
                2.2681689262390137,
                0.5009999871253967
            ],
            "min" : [
                -0.480214387178421,
                -6.01001133304635e-08,
                -0.48021426796913147
            ],
            "type" : "VEC3"
        },
        {
            "bufferView" : 1,
            "componentType" : 5126,
            "count" : 2070,
            "type" : "VEC3"
        },
        {
            "bufferView" : 2,
            "componentType" : 5126,
            "count" : 2070,
            "type" : "VEC2"
        },
        {
            "bufferView" : 3,
            "componentType" : 5126,
            "count" : 2070,
            "type" : "VEC2"
        },
        {
            "bufferView" : 4,
            "componentType" : 5126,
            "count" : 2070,
            "type" : "VEC2"
        },
        {
            "bufferView" : 5,
            "componentType" : 5123,
            "count" : 2070,
            "normalized" : true,
            "type" : "VEC4"
        },
        {
            "bufferView" : 6,
            "componentType" : 5123,
            "count" : 5190,
            "type" : "SCALAR"
        }
    ],
    "bufferViews" : [
        {
            "buffer" : 0,
            "byteLength" : 24840,
            "byteOffset" : 0
        },
        {
            "buffer" : 0,
            "byteLength" : 24840,
            "byteOffset" : 24840
        },
        {
            "buffer" : 0,
            "byteLength" : 16560,
            "byteOffset" : 49680
        },
        {
            "buffer" : 0,
            "byteLength" : 16560,
            "byteOffset" : 66240
        },
        {
            "buffer" : 0,
            "byteLength" : 16560,
            "byteOffset" : 82800
        },
        {
            "buffer" : 0,
            "byteLength" : 16560,
            "byteOffset" : 99360
        },
        {
            "buffer" : 0,
            "byteLength" : 10380,
            "byteOffset" : 115920
        }
    ],
    "buffers" : [
        {
            "byteLength" : 126300,
            "uri" : "data:application/octet-stream;base64,"
        }
    ]
}
