{
    "asset" : {
        "generator" : "Khronos glTF Blender I/O v1.8.19",
        "version" : "2.0"
    },
    "scene" : 0,
    "scenes" : [
        {
            "name" : "Scene",
            "nodes" : [
                0
            ]
        }
    ],
    "nodes" : [
        {
            "mesh" : 0,
            "name" : "Lift_2DownBackward_Layer0_LOD0"
        }
    ],
    "meshes" : [
        {
            "name" : "Cube.010",
            "primitives" : [
                {
                    "attributes" : {
                        "POSITION" : 0,
                        "NORMAL" : 1,
                        "TEXCOORD_0" : 2,
                        "TEXCOORD_1" : 3,
                        "TEXCOORD_2" : 4,
                        "COLOR_0" : 5
                    },
                    "indices" : 6
                }
            ]
        }
    ],
    "accessors" : [
        {
            "bufferView" : 0,
            "componentType" : 5126,
            "count" : 2416,
            "max" : [
                0.48021432757377625,
                0.2680619955062866,
                0.5010001063346863
            ],
            "min" : [
                -0.48021435737609863,
                -2,
                -0.2345765382051468
            ],
            "type" : "VEC3"
        },
        {
            "bufferView" : 1,
            "componentType" : 5126,
            "count" : 2416,
            "type" : "VEC3"
        },
        {
            "bufferView" : 2,
            "componentType" : 5126,
            "count" : 2416,
            "type" : "VEC2"
        },
        {
            "bufferView" : 3,
            "componentType" : 5126,
            "count" : 2416,
            "type" : "VEC2"
        },
        {
            "bufferView" : 4,
            "componentType" : 5126,
            "count" : 2416,
            "type" : "VEC2"
        },
        {
            "bufferView" : 5,
            "componentType" : 5123,
            "count" : 2416,
            "normalized" : true,
            "type" : "VEC4"
        },
        {
            "bufferView" : 6,
            "componentType" : 5123,
            "count" : 6156,
            "type" : "SCALAR"
        }
    ],
    "bufferViews" : [
        {
            "buffer" : 0,
            "byteLength" : 28992,
            "byteOffset" : 0
        },
        {
            "buffer" : 0,
            "byteLength" : 28992,
            "byteOffset" : 28992
        },
        {
            "buffer" : 0,
            "byteLength" : 19328,
            "byteOffset" : 57984
        },
        {
            "buffer" : 0,
            "byteLength" : 19328,
            "byteOffset" : 77312
        },
        {
            "buffer" : 0,
            "byteLength" : 19328,
            "byteOffset" : 96640
        },
        {
            "buffer" : 0,
            "byteLength" : 19328,
            "byteOffset" : 115968
        },
        {
            "buffer" : 0,
            "byteLength" : 12312,
            "byteOffset" : 135296
        }
    ],
    "buffers" : [
        {
            "byteLength" : 147608,
            "uri" : "data:application/octet-stream;base64,"
        }
    ]
}
