{
    "asset" : {
        "generator" : "Khronos glTF Blender I/O v1.8.19",
        "version" : "2.0"
    },
    "scene" : 0,
    "scenes" : [
        {
            "name" : "Scene",
            "nodes" : [
                0
            ]
        }
    ],
    "nodes" : [
        {
            "mesh" : 0,
            "name" : "Lift_2UpBackward_Layer0_LOD0"
        }
    ],
    "meshes" : [
        {
            "name" : "Cube.008",
            "primitives" : [
                {
                    "attributes" : {
                        "POSITION" : 0,
                        "NORMAL" : 1,
                        "TEXCOORD_0" : 2,
                        "TEXCOORD_1" : 3,
                        "TEXCOORD_2" : 4,
                        "COLOR_0" : 5
                    },
                    "indices" : 6
                }
            ]
        }
    ],
    "accessors" : [
        {
            "bufferView" : 0,
            "componentType" : 5126,
            "count" : 2484,
            "max" : [
                0.48021405935287476,
                2.2681689262390137,
                0.5010000467300415
            ],
            "min" : [
                -0.4802146553993225,
                -9.193009020691534e-08,
                -0.23457641899585724
            ],
            "type" : "VEC3"
        },
        {
            "bufferView" : 1,
            "componentType" : 5126,
            "count" : 2484,
            "type" : "VEC3"
        },
        {
            "bufferView" : 2,
            "componentType" : 5126,
            "count" : 2484,
            "type" : "VEC2"
        },
        {
            "bufferView" : 3,
            "componentType" : 5126,
            "count" : 2484,
            "type" : "VEC2"
        },
        {
            "bufferView" : 4,
            "componentType" : 5126,
            "count" : 2484,
            "type" : "VEC2"
        },
        {
            "bufferView" : 5,
            "componentType" : 5123,
            "count" : 2484,
            "normalized" : true,
            "type" : "VEC4"
        },
        {
            "bufferView" : 6,
            "componentType" : 5123,
            "count" : 6030,
            "type" : "SCALAR"
        }
    ],
    "bufferViews" : [
        {
            "buffer" : 0,
            "byteLength" : 29808,
            "byteOffset" : 0
        },
        {
            "buffer" : 0,
            "byteLength" : 29808,
            "byteOffset" : 29808
        },
        {
            "buffer" : 0,
            "byteLength" : 19872,
            "byteOffset" : 59616
        },
        {
            "buffer" : 0,
            "byteLength" : 19872,
            "byteOffset" : 79488
        },
        {
            "buffer" : 0,
            "byteLength" : 19872,
            "byteOffset" : 99360
        },
        {
            "buffer" : 0,
            "byteLength" : 19872,
            "byteOffset" : 119232
        },
        {
            "buffer" : 0,
            "byteLength" : 12060,
            "byteOffset" : 139104
        }
    ],
    "buffers" : [
        {
            "byteLength" : 151164,
            "uri" : "data:application/octet-stream;base64,"
        }
    ]
}
