{
    "asset" : {
        "generator" : "Khronos glTF Blender I/O v1.8.19",
        "version" : "2.0"
    },
    "scene" : 0,
    "scenes" : [
        {
            "name" : "Scene",
            "nodes" : [
                0
            ]
        }
    ],
    "nodes" : [
        {
            "mesh" : 0,
            "name" : "Lift_1DownLeft_Layer1_LOD0"
        }
    ],
    "materials" : [
        {
            "doubleSided" : true,
            "name" : "Lit.013",
            "pbrMetallicRoughness" : {
                "baseColorFactor" : [
                    0.5,
                    0.5,
                    0.5,
                    1
                ],
                "metallicFactor" : 0,
                "roughnessFactor" : 0.5527864098548889
            }
        }
    ],
    "meshes" : [
        {
            "name" : "Scene.052",
            "primitives" : [
                {
                    "attributes" : {
                        "POSITION" : 0,
                        "NORMAL" : 1,
                        "TEXCOORD_0" : 2,
                        "TEXCOORD_1" : 3,
                        "COLOR_0" : 4
                    },
                    "indices" : 5,
                    "material" : 0
                }
            ]
        }
    ],
    "accessors" : [
        {
            "bufferView" : 0,
            "componentType" : 5126,
            "count" : 7539,
            "max" : [
                0.49571892619132996,
                0.2781811058521271,
                0.5010000467300415
            ],
            "min" : [
                -0.5010001063346863,
                -1,
                -0.49571865797042847
            ],
            "type" : "VEC3"
        },
        {
            "bufferView" : 1,
            "componentType" : 5126,
            "count" : 7539,
            "type" : "VEC3"
        },
        {
            "bufferView" : 2,
            "componentType" : 5126,
            "count" : 7539,
            "type" : "VEC2"
        },
        {
            "bufferView" : 3,
            "componentType" : 5126,
            "count" : 7539,
            "type" : "VEC2"
        },
        {
            "bufferView" : 4,
            "componentType" : 5123,
            "count" : 7539,
            "normalized" : true,
            "type" : "VEC4"
        },
        {
            "bufferView" : 5,
            "componentType" : 5123,
            "count" : 9222,
            "type" : "SCALAR"
        }
    ],
    "bufferViews" : [
        {
            "buffer" : 0,
            "byteLength" : 90468,
            "byteOffset" : 0
        },
        {
            "buffer" : 0,
            "byteLength" : 90468,
            "byteOffset" : 90468
        },
        {
            "buffer" : 0,
            "byteLength" : 60312,
            "byteOffset" : 180936
        },
        {
            "buffer" : 0,
            "byteLength" : 60312,
            "byteOffset" : 241248
        },
        {
            "buffer" : 0,
            "byteLength" : 60312,
            "byteOffset" : 301560
        },
        {
            "buffer" : 0,
            "byteLength" : 18444,
            "byteOffset" : 361872
        }
    ],
    "buffers" : [
        {
            "byteLength" : 380316,
            "uri" : "data:application/octet-stream;base64,"
        }
    ]
}
