{
    "asset" : {
        "generator" : "Khronos glTF Blender I/O v1.8.19",
        "version" : "2.0"
    },
    "scene" : 0,
    "scenes" : [
        {
            "name" : "Scene",
            "nodes" : [
                2
            ]
        }
    ],
    "nodes" : [
        {
            "mesh" : 0,
            "name" : "MixerGlas"
        },
        {
            "mesh" : 1,
            "name" : "MixerRotator"
        },
        {
            "children" : [
                0,
                1
            ],
            "mesh" : 2,
            "name" : "MixerFoundation"
        }
    ],
    "materials" : [
        {
            "doubleSided" : true,
            "name" : "Conveyor_Belt.005",
            "pbrMetallicRoughness" : {
                "metallicFactor" : 0,
                "roughnessFactor" : 0.5527864098548889
            }
        },
        {
            "doubleSided" : true,
            "name" : "Conveyor_Belt.006",
            "pbrMetallicRoughness" : {
                "metallicFactor" : 0,
                "roughnessFactor" : 0.5527864098548889
            }
        }
    ],
    "meshes" : [
        {
            "name" : "Mesh.018",
            "primitives" : [
                {
                    "attributes" : {
                        "POSITION" : 0,
                        "NORMAL" : 1,
                        "TEXCOORD_0" : 2,
                        "TEXCOORD_1" : 3,
                        "COLOR_0" : 4
                    },
                    "indices" : 5,
                    "material" : 0
                }
            ]
        },
        {
            "name" : "Cylinder.001",
            "primitives" : [
                {
                    "attributes" : {
                        "POSITION" : 6,
                        "NORMAL" : 7,
                        "TEXCOORD_0" : 8
                    },
                    "indices" : 9
                }
            ]
        },
        {
            "name" : "Cube.002",
            "primitives" : [
                {
                    "attributes" : {
                        "POSITION" : 10,
                        "NORMAL" : 11,
                        "TEXCOORD_0" : 12,
                        "TEXCOORD_1" : 13,
                        "COLOR_0" : 14
                    },
                    "indices" : 15,
                    "material" : 1
                }
            ]
        }
    ],
    "accessors" : [
        {
            "bufferView" : 0,
            "componentType" : 5126,
            "count" : 571,
            "max" : [
                0.3768373429775238,
                0.8297150135040283,
                0.3768375813961029
            ],
            "min" : [
                -1.3768374919891357,
                0.36562928557395935,
                -2.3768374919891357
            ],
            "type" : "VEC3"
        },
        {
            "bufferView" : 1,
            "componentType" : 5126,
            "count" : 571,
            "type" : "VEC3"
        },
        {
            "bufferView" : 2,
            "componentType" : 5126,
            "count" : 571,
            "type" : "VEC2"
        },
        {
            "bufferView" : 3,
            "componentType" : 5126,
            "count" : 571,
            "type" : "VEC2"
        },
        {
            "bufferView" : 4,
            "componentType" : 5123,
            "count" : 571,
            "normalized" : true,
            "type" : "VEC4"
        },
        {
            "bufferView" : 5,
            "componentType" : 5123,
            "count" : 1710,
            "type" : "SCALAR"
        },
        {
            "bufferView" : 6,
            "componentType" : 5126,
            "count" : 119,
            "max" : [
                -0.4692208766937256,
                0.8177001476287842,
                -0.48546695709228516
            ],
            "min" : [
                -0.5307797789573669,
                -0.15811720490455627,
                -1.5162203311920166
            ],
            "type" : "VEC3"
        },
        {
            "bufferView" : 7,
            "componentType" : 5126,
            "count" : 119,
            "type" : "VEC3"
        },
        {
            "bufferView" : 8,
            "componentType" : 5126,
            "count" : 119,
            "type" : "VEC2"
        },
        {
            "bufferView" : 9,
            "componentType" : 5123,
            "count" : 324,
            "type" : "SCALAR"
        },
        {
            "bufferView" : 10,
            "componentType" : 5126,
            "count" : 5835,
            "max" : [
                0.4819526672363281,
                0.8561631441116333,
                0.5000006556510925
            ],
            "min" : [
                -1.481806755065918,
                -0.066599041223526,
                -2.500000476837158
            ],
            "type" : "VEC3"
        },
        {
            "bufferView" : 11,
            "componentType" : 5126,
            "count" : 5835,
            "type" : "VEC3"
        },
        {
            "bufferView" : 12,
            "componentType" : 5126,
            "count" : 5835,
            "type" : "VEC2"
        },
        {
            "bufferView" : 13,
            "componentType" : 5126,
            "count" : 5835,
            "type" : "VEC2"
        },
        {
            "bufferView" : 14,
            "componentType" : 5123,
            "count" : 5835,
            "normalized" : true,
            "type" : "VEC4"
        },
        {
            "bufferView" : 15,
            "componentType" : 5123,
            "count" : 17367,
            "type" : "SCALAR"
        }
    ],
    "bufferViews" : [
        {
            "buffer" : 0,
            "byteLength" : 6852,
            "byteOffset" : 0
        },
        {
            "buffer" : 0,
            "byteLength" : 6852,
            "byteOffset" : 6852
        },
        {
            "buffer" : 0,
            "byteLength" : 4568,
            "byteOffset" : 13704
        },
        {
            "buffer" : 0,
            "byteLength" : 4568,
            "byteOffset" : 18272
        },
        {
            "buffer" : 0,
            "byteLength" : 4568,
            "byteOffset" : 22840
        },
        {
            "buffer" : 0,
            "byteLength" : 3420,
            "byteOffset" : 27408
        },
        {
            "buffer" : 0,
            "byteLength" : 1428,
            "byteOffset" : 30828
        },
        {
            "buffer" : 0,
            "byteLength" : 1428,
            "byteOffset" : 32256
        },
        {
            "buffer" : 0,
            "byteLength" : 952,
            "byteOffset" : 33684
        },
        {
            "buffer" : 0,
            "byteLength" : 648,
            "byteOffset" : 34636
        },
        {
            "buffer" : 0,
            "byteLength" : 70020,
            "byteOffset" : 35284
        },
        {
            "buffer" : 0,
            "byteLength" : 70020,
            "byteOffset" : 105304
        },
        {
            "buffer" : 0,
            "byteLength" : 46680,
            "byteOffset" : 175324
        },
        {
            "buffer" : 0,
            "byteLength" : 46680,
            "byteOffset" : 222004
        },
        {
            "buffer" : 0,
            "byteLength" : 46680,
            "byteOffset" : 268684
        },
        {
            "buffer" : 0,
            "byteLength" : 34734,
            "byteOffset" : 315364
        }
    ],
    "buffers" : [
        {
            "byteLength" : 350100,
            "uri" : "data:application/octet-stream;base64,"
        }
    ]
}
