{
    "asset" : {
        "generator" : "Khronos glTF Blender I/O v1.8.19",
        "version" : "2.0"
    },
    "scene" : 0,
    "scenes" : [
        {
            "name" : "Scene",
            "nodes" : [
                2
            ]
        }
    ],
    "nodes" : [
        {
            "mesh" : 0,
            "name" : "FullPainter_Glas_Default_LOD0"
        },
        {
            "mesh" : 1,
            "name" : "FullPainter_Walls_Default_LOD0"
        },
        {
            "children" : [
                0,
                1
            ],
            "mesh" : 2,
            "name" : "FullPainter_Main_Default_LOD0"
        }
    ],
    "materials" : [
        {
            "doubleSided" : true,
            "name" : "TT_checker_512x512_UV_GRID.002",
            "pbrMetallicRoughness" : {
                "metallicFactor" : 0,
                "roughnessFactor" : 0.5
            }
        }
    ],
    "meshes" : [
        {
            "name" : "Mesh.005",
            "primitives" : [
                {
                    "attributes" : {
                        "POSITION" : 0,
                        "NORMAL" : 1,
                        "TEXCOORD_0" : 2,
                        "TEXCOORD_1" : 3,
                        "TEXCOORD_2" : 4,
                        "TEXCOORD_3" : 5,
                        "COLOR_0" : 6
                    },
                    "indices" : 7,
                    "material" : 0
                }
            ]
        },
        {
            "name" : "Mesh.006",
            "primitives" : [
                {
                    "attributes" : {
                        "POSITION" : 8,
                        "NORMAL" : 9,
                        "TEXCOORD_0" : 10,
                        "TEXCOORD_1" : 11,
                        "COLOR_0" : 12
                    },
                    "indices" : 13,
                    "material" : 0
                }
            ]
        },
        {
            "name" : "Mesh.016",
            "primitives" : [
                {
                    "attributes" : {
                        "POSITION" : 14,
                        "NORMAL" : 15,
                        "TEXCOORD_0" : 16,
                        "TEXCOORD_1" : 17,
                        "COLOR_0" : 18
                    },
                    "indices" : 19,
                    "material" : 0
                }
            ]
        }
    ],
    "accessors" : [
        {
            "bufferView" : 0,
            "componentType" : 5126,
            "count" : 168,
            "max" : [
                0.3660021722316742,
                0.9360320568084717,
                0.3660022020339966
            ],
            "min" : [
                -0.6007453203201294,
                0.051455069333314896,
                -0.36600226163864136
            ],
            "type" : "VEC3"
        },
        {
            "bufferView" : 1,
            "componentType" : 5126,
            "count" : 168,
            "type" : "VEC3"
        },
        {
            "bufferView" : 2,
            "componentType" : 5126,
            "count" : 168,
            "type" : "VEC2"
        },
        {
            "bufferView" : 3,
            "componentType" : 5126,
            "count" : 168,
            "type" : "VEC2"
        },
        {
            "bufferView" : 4,
            "componentType" : 5126,
            "count" : 168,
            "type" : "VEC2"
        },
        {
            "bufferView" : 5,
            "componentType" : 5126,
            "count" : 168,
            "type" : "VEC2"
        },
        {
            "bufferView" : 6,
            "componentType" : 5123,
            "count" : 168,
            "normalized" : true,
            "type" : "VEC4"
        },
        {
            "bufferView" : 7,
            "componentType" : 5123,
            "count" : 480,
            "type" : "SCALAR"
        },
        {
            "bufferView" : 8,
            "componentType" : 5126,
            "count" : 152,
            "max" : [
                -0.7840108871459961,
                0.4063912332057953,
                0.25510039925575256
            ],
            "min" : [
                -1.2159892320632935,
                2.13715694030725e-07,
                -0.2535979449748993
            ],
            "type" : "VEC3"
        },
        {
            "bufferView" : 9,
            "componentType" : 5126,
            "count" : 152,
            "type" : "VEC3"
        },
        {
            "bufferView" : 10,
            "componentType" : 5126,
            "count" : 152,
            "type" : "VEC2"
        },
        {
            "bufferView" : 11,
            "componentType" : 5126,
            "count" : 152,
            "type" : "VEC2"
        },
        {
            "bufferView" : 12,
            "componentType" : 5123,
            "count" : 152,
            "normalized" : true,
            "type" : "VEC4"
        },
        {
            "bufferView" : 13,
            "componentType" : 5123,
            "count" : 456,
            "type" : "SCALAR"
        },
        {
            "bufferView" : 14,
            "componentType" : 5126,
            "count" : 7035,
            "max" : [
                0.3906697630882263,
                1.0052298307418823,
                0.5020291209220886
            ],
            "min" : [
                -1.3468513488769531,
                -0.0024185136426240206,
                -0.5020293593406677
            ],
            "type" : "VEC3"
        },
        {
            "bufferView" : 15,
            "componentType" : 5126,
            "count" : 7035,
            "type" : "VEC3"
        },
        {
            "bufferView" : 16,
            "componentType" : 5126,
            "count" : 7035,
            "type" : "VEC2"
        },
        {
            "bufferView" : 17,
            "componentType" : 5126,
            "count" : 7035,
            "type" : "VEC2"
        },
        {
            "bufferView" : 18,
            "componentType" : 5123,
            "count" : 7035,
            "normalized" : true,
            "type" : "VEC4"
        },
        {
            "bufferView" : 19,
            "componentType" : 5123,
            "count" : 17823,
            "type" : "SCALAR"
        }
    ],
    "bufferViews" : [
        {
            "buffer" : 0,
            "byteLength" : 2016,
            "byteOffset" : 0
        },
        {
            "buffer" : 0,
            "byteLength" : 2016,
            "byteOffset" : 2016
        },
        {
            "buffer" : 0,
            "byteLength" : 1344,
            "byteOffset" : 4032
        },
        {
            "buffer" : 0,
            "byteLength" : 1344,
            "byteOffset" : 5376
        },
        {
            "buffer" : 0,
            "byteLength" : 1344,
            "byteOffset" : 6720
        },
        {
            "buffer" : 0,
            "byteLength" : 1344,
            "byteOffset" : 8064
        },
        {
            "buffer" : 0,
            "byteLength" : 1344,
            "byteOffset" : 9408
        },
        {
            "buffer" : 0,
            "byteLength" : 960,
            "byteOffset" : 10752
        },
        {
            "buffer" : 0,
            "byteLength" : 1824,
            "byteOffset" : 11712
        },
        {
            "buffer" : 0,
            "byteLength" : 1824,
            "byteOffset" : 13536
        },
        {
            "buffer" : 0,
            "byteLength" : 1216,
            "byteOffset" : 15360
        },
        {
            "buffer" : 0,
            "byteLength" : 1216,
            "byteOffset" : 16576
        },
        {
            "buffer" : 0,
            "byteLength" : 1216,
            "byteOffset" : 17792
        },
        {
            "buffer" : 0,
            "byteLength" : 912,
            "byteOffset" : 19008
        },
        {
            "buffer" : 0,
            "byteLength" : 84420,
            "byteOffset" : 19920
        },
        {
            "buffer" : 0,
            "byteLength" : 84420,
            "byteOffset" : 104340
        },
        {
            "buffer" : 0,
            "byteLength" : 56280,
            "byteOffset" : 188760
        },
        {
            "buffer" : 0,
            "byteLength" : 56280,
            "byteOffset" : 245040
        },
        {
            "buffer" : 0,
            "byteLength" : 56280,
            "byteOffset" : 301320
        },
        {
            "buffer" : 0,
            "byteLength" : 35646,
            "byteOffset" : 357600
        }
    ],
    "buffers" : [
        {
            "byteLength" : 393248,
            "uri" : "data:application/octet-stream;base64,"
        }
    ]
}
