{
    "asset" : {
        "generator" : "Khronos glTF Blender I/O v1.8.19",
        "version" : "2.0"
    },
    "scene" : 0,
    "scenes" : [
        {
            "name" : "Scene",
            "nodes" : [
                2
            ]
        }
    ],
    "nodes" : [
        {
            "mesh" : 0,
            "name" : "Painter_Default_Hinge_LOD0",
            "rotation" : [
                0.5000000596046448,
                -0.4999999701976776,
                0.5000000596046448,
                0.4999999403953552
            ],
            "translation" : [
                -0.585440993309021,
                0.44239842891693115,
                0
            ]
        },
        {
            "mesh" : 1,
            "name" : "Painter_Default_Roll_LOD0",
            "rotation" : [
                0.5000000596046448,
                -0.4999999701976776,
                0.5000000596046448,
                0.4999999403953552
            ],
            "translation" : [
                -0.5787888765335083,
                0.4423988461494446,
                0
            ]
        },
        {
            "children" : [
                0,
                1
            ],
            "mesh" : 2,
            "name" : "Painter_Default_Main_LOD0"
        }
    ],
    "materials" : [
        {
            "doubleSided" : true,
            "name" : "Conveyor_Belt.001",
            "pbrMetallicRoughness" : {
                "metallicFactor" : 0,
                "roughnessFactor" : 0.5527864098548889
            }
        }
    ],
    "meshes" : [
        {
            "name" : "Cylinder.006",
            "primitives" : [
                {
                    "attributes" : {
                        "POSITION" : 0,
                        "NORMAL" : 1,
                        "TEXCOORD_0" : 2,
                        "TEXCOORD_1" : 3,
                        "COLOR_0" : 4
                    },
                    "indices" : 5,
                    "material" : 0
                }
            ]
        },
        {
            "name" : "Cylinder.005",
            "primitives" : [
                {
                    "attributes" : {
                        "POSITION" : 6,
                        "NORMAL" : 7,
                        "TEXCOORD_0" : 8,
                        "TEXCOORD_1" : 9,
                        "COLOR_0" : 10
                    },
                    "indices" : 11,
                    "material" : 0
                }
            ]
        },
        {
            "name" : "Cube.011",
            "primitives" : [
                {
                    "attributes" : {
                        "POSITION" : 12,
                        "NORMAL" : 13,
                        "TEXCOORD_0" : 14,
                        "TEXCOORD_1" : 15,
                        "COLOR_0" : 16
                    },
                    "indices" : 17,
                    "material" : 0
                }
            ]
        }
    ],
    "accessors" : [
        {
            "bufferView" : 0,
            "componentType" : 5126,
            "count" : 398,
            "max" : [
                0.05436425656080246,
                0.05780452489852905,
                0.4646614193916321
            ],
            "min" : [
                -0.05436425656080246,
                -0.062075912952423096,
                -0.06005498394370079
            ],
            "type" : "VEC3"
        },
        {
            "bufferView" : 1,
            "componentType" : 5126,
            "count" : 398,
            "type" : "VEC3"
        },
        {
            "bufferView" : 2,
            "componentType" : 5126,
            "count" : 398,
            "type" : "VEC2"
        },
        {
            "bufferView" : 3,
            "componentType" : 5126,
            "count" : 398,
            "type" : "VEC2"
        },
        {
            "bufferView" : 4,
            "componentType" : 5123,
            "count" : 398,
            "normalized" : true,
            "type" : "VEC4"
        },
        {
            "bufferView" : 5,
            "componentType" : 5123,
            "count" : 996,
            "type" : "SCALAR"
        },
        {
            "bufferView" : 6,
            "componentType" : 5126,
            "count" : 356,
            "max" : [
                0.10484649240970612,
                0.5995578765869141,
                0.10484655946493149
            ],
            "min" : [
                -0.1048465222120285,
                -1.0969317676412516e-09,
                -0.10484647005796432
            ],
            "type" : "VEC3"
        },
        {
            "bufferView" : 7,
            "componentType" : 5126,
            "count" : 356,
            "type" : "VEC3"
        },
        {
            "bufferView" : 8,
            "componentType" : 5126,
            "count" : 356,
            "type" : "VEC2"
        },
        {
            "bufferView" : 9,
            "componentType" : 5126,
            "count" : 356,
            "type" : "VEC2"
        },
        {
            "bufferView" : 10,
            "componentType" : 5123,
            "count" : 356,
            "normalized" : true,
            "type" : "VEC4"
        },
        {
            "bufferView" : 11,
            "componentType" : 5123,
            "count" : 1332,
            "type" : "SCALAR"
        },
        {
            "bufferView" : 12,
            "componentType" : 5126,
            "count" : 3556,
            "max" : [
                0.5000001788139343,
                0.48657259345054626,
                0.502029538154602
            ],
            "min" : [
                -1.4722999334335327,
                -1.3450377082335763e-05,
                -0.5020296573638916
            ],
            "type" : "VEC3"
        },
        {
            "bufferView" : 13,
            "componentType" : 5126,
            "count" : 3556,
            "type" : "VEC3"
        },
        {
            "bufferView" : 14,
            "componentType" : 5126,
            "count" : 3556,
            "type" : "VEC2"
        },
        {
            "bufferView" : 15,
            "componentType" : 5126,
            "count" : 3556,
            "type" : "VEC2"
        },
        {
            "bufferView" : 16,
            "componentType" : 5123,
            "count" : 3556,
            "normalized" : true,
            "type" : "VEC4"
        },
        {
            "bufferView" : 17,
            "componentType" : 5123,
            "count" : 10806,
            "type" : "SCALAR"
        }
    ],
    "bufferViews" : [
        {
            "buffer" : 0,
            "byteLength" : 4776,
            "byteOffset" : 0
        },
        {
            "buffer" : 0,
            "byteLength" : 4776,
            "byteOffset" : 4776
        },
        {
            "buffer" : 0,
            "byteLength" : 3184,
            "byteOffset" : 9552
        },
        {
            "buffer" : 0,
            "byteLength" : 3184,
            "byteOffset" : 12736
        },
        {
            "buffer" : 0,
            "byteLength" : 3184,
            "byteOffset" : 15920
        },
        {
            "buffer" : 0,
            "byteLength" : 1992,
            "byteOffset" : 19104
        },
        {
            "buffer" : 0,
            "byteLength" : 4272,
            "byteOffset" : 21096
        },
        {
            "buffer" : 0,
            "byteLength" : 4272,
            "byteOffset" : 25368
        },
        {
            "buffer" : 0,
            "byteLength" : 2848,
            "byteOffset" : 29640
        },
        {
            "buffer" : 0,
            "byteLength" : 2848,
            "byteOffset" : 32488
        },
        {
            "buffer" : 0,
            "byteLength" : 2848,
            "byteOffset" : 35336
        },
        {
            "buffer" : 0,
            "byteLength" : 2664,
            "byteOffset" : 38184
        },
        {
            "buffer" : 0,
            "byteLength" : 42672,
            "byteOffset" : 40848
        },
        {
            "buffer" : 0,
            "byteLength" : 42672,
            "byteOffset" : 83520
        },
        {
            "buffer" : 0,
            "byteLength" : 28448,
            "byteOffset" : 126192
        },
        {
            "buffer" : 0,
            "byteLength" : 28448,
            "byteOffset" : 154640
        },
        {
            "buffer" : 0,
            "byteLength" : 28448,
            "byteOffset" : 183088
        },
        {
            "buffer" : 0,
            "byteLength" : 21612,
            "byteOffset" : 211536
        }
    ],
    "buffers" : [
        {
            "byteLength" : 233148,
            "uri" : "data:application/octet-stream;base64,"
        }
    ]
}
