{
    "asset" : {
        "generator" : "Khronos glTF Blender I/O v1.8.19",
        "version" : "2.0"
    },
    "scene" : 0,
    "scenes" : [
        {
            "name" : "Scene",
            "nodes" : [
                3
            ]
        }
    ],
    "nodes" : [
        {
            "mesh" : 0,
            "name" : "PinPusher_Default_ClampL_LOD0",
            "rotation" : [
                0.5000000596046448,
                -0.4999999701976776,
                0.5000000596046448,
                0.4999999403953552
            ],
            "translation" : [
                0,
                0.13005083799362183,
                0
            ]
        },
        {
            "mesh" : 1,
            "name" : "PinPusher_Default_ClampR_LOD0",
            "rotation" : [
                0.5000000596046448,
                -0.4999999701976776,
                0.5000000596046448,
                0.4999999403953552
            ],
            "translation" : [
                0,
                0.13005083799362183,
                0
            ]
        },
        {
            "mesh" : 2,
            "name" : "PinPusher_Default_Rotator_LOD0",
            "rotation" : [
                0.5000000596046448,
                -0.4999999701976776,
                0.5000000596046448,
                0.4999999403953552
            ]
        },
        {
            "children" : [
                0,
                1,
                2
            ],
            "mesh" : 3,
            "name" : "PinPusher_Default_Main_LOD0"
        }
    ],
    "materials" : [
        {
            "doubleSided" : true,
            "name" : "Material.004",
            "pbrMetallicRoughness" : {
                "metallicFactor" : 0,
                "roughnessFactor" : 0.27227723598480225
            }
        },
        {
            "doubleSided" : true,
            "name" : "Material.005",
            "pbrMetallicRoughness" : {
                "metallicFactor" : 0,
                "roughnessFactor" : 0.27227723598480225
            }
        }
    ],
    "meshes" : [
        {
            "name" : "Cube.117",
            "primitives" : [
                {
                    "attributes" : {
                        "POSITION" : 0,
                        "NORMAL" : 1,
                        "TEXCOORD_0" : 2,
                        "TEXCOORD_1" : 3,
                        "COLOR_0" : 4
                    },
                    "indices" : 5,
                    "material" : 0
                }
            ]
        },
        {
            "name" : "Cube.115",
            "primitives" : [
                {
                    "attributes" : {
                        "POSITION" : 6,
                        "NORMAL" : 7,
                        "TEXCOORD_0" : 8,
                        "TEXCOORD_1" : 9,
                        "COLOR_0" : 10
                    },
                    "indices" : 11,
                    "material" : 0
                }
            ]
        },
        {
            "name" : "Cube.116",
            "primitives" : [
                {
                    "attributes" : {
                        "POSITION" : 12,
                        "NORMAL" : 13,
                        "TEXCOORD_0" : 14,
                        "TEXCOORD_1" : 15,
                        "COLOR_0" : 16
                    },
                    "indices" : 17,
                    "material" : 1
                }
            ]
        },
        {
            "name" : "Cube.118",
            "primitives" : [
                {
                    "attributes" : {
                        "POSITION" : 18,
                        "NORMAL" : 19,
                        "TEXCOORD_0" : 20,
                        "TEXCOORD_1" : 21,
                        "COLOR_0" : 22
                    },
                    "indices" : 23,
                    "material" : 1
                }
            ]
        }
    ],
    "accessors" : [
        {
            "bufferView" : 0,
            "componentType" : 5126,
            "count" : 342,
            "max" : [
                0.11180917173624039,
                0.37832093238830566,
                -0.049086228013038635
            ],
            "min" : [
                -0.11180893331766129,
                0.15126194059848785,
                -0.10783743858337402
            ],
            "type" : "VEC3"
        },
        {
            "bufferView" : 1,
            "componentType" : 5126,
            "count" : 342,
            "type" : "VEC3"
        },
        {
            "bufferView" : 2,
            "componentType" : 5126,
            "count" : 342,
            "type" : "VEC2"
        },
        {
            "bufferView" : 3,
            "componentType" : 5126,
            "count" : 342,
            "type" : "VEC2"
        },
        {
            "bufferView" : 4,
            "componentType" : 5123,
            "count" : 342,
            "normalized" : true,
            "type" : "VEC4"
        },
        {
            "bufferView" : 5,
            "componentType" : 5123,
            "count" : 858,
            "type" : "SCALAR"
        },
        {
            "bufferView" : 6,
            "componentType" : 5126,
            "count" : 342,
            "max" : [
                0.11180905252695084,
                -0.15126194059848785,
                -0.049086228013038635
            ],
            "min" : [
                -0.11180905252695084,
                -0.3783209025859833,
                -0.10783743858337402
            ],
            "type" : "VEC3"
        },
        {
            "bufferView" : 7,
            "componentType" : 5126,
            "count" : 342,
            "type" : "VEC3"
        },
        {
            "bufferView" : 8,
            "componentType" : 5126,
            "count" : 342,
            "type" : "VEC2"
        },
        {
            "bufferView" : 9,
            "componentType" : 5126,
            "count" : 342,
            "type" : "VEC2"
        },
        {
            "bufferView" : 10,
            "componentType" : 5123,
            "count" : 342,
            "normalized" : true,
            "type" : "VEC4"
        },
        {
            "bufferView" : 11,
            "componentType" : 5123,
            "count" : 858,
            "type" : "SCALAR"
        },
        {
            "bufferView" : 12,
            "componentType" : 5126,
            "count" : 52,
            "max" : [
                0.18372492492198944,
                0.18372492492198944,
                -0.09698915481567383
            ],
            "min" : [
                -0.18372492492198944,
                -0.18372492492198944,
                -0.09698915481567383
            ],
            "type" : "VEC3"
        },
        {
            "bufferView" : 13,
            "componentType" : 5126,
            "count" : 52,
            "type" : "VEC3"
        },
        {
            "bufferView" : 14,
            "componentType" : 5126,
            "count" : 52,
            "type" : "VEC2"
        },
        {
            "bufferView" : 15,
            "componentType" : 5126,
            "count" : 52,
            "type" : "VEC2"
        },
        {
            "bufferView" : 16,
            "componentType" : 5123,
            "count" : 52,
            "normalized" : true,
            "type" : "VEC4"
        },
        {
            "bufferView" : 17,
            "componentType" : 5123,
            "count" : 144,
            "type" : "SCALAR"
        },
        {
            "bufferView" : 18,
            "componentType" : 5126,
            "count" : 1976,
            "max" : [
                0.4619961380958557,
                0.2599905729293823,
                0.5003241300582886
            ],
            "min" : [
                -0.4619962275028229,
                0.014945008791983128,
                -0.5003241300582886
            ],
            "type" : "VEC3"
        },
        {
            "bufferView" : 19,
            "componentType" : 5126,
            "count" : 1976,
            "type" : "VEC3"
        },
        {
            "bufferView" : 20,
            "componentType" : 5126,
            "count" : 1976,
            "type" : "VEC2"
        },
        {
            "bufferView" : 21,
            "componentType" : 5126,
            "count" : 1976,
            "type" : "VEC2"
        },
        {
            "bufferView" : 22,
            "componentType" : 5123,
            "count" : 1976,
            "normalized" : true,
            "type" : "VEC4"
        },
        {
            "bufferView" : 23,
            "componentType" : 5123,
            "count" : 5010,
            "type" : "SCALAR"
        }
    ],
    "bufferViews" : [
        {
            "buffer" : 0,
            "byteLength" : 4104,
            "byteOffset" : 0
        },
        {
            "buffer" : 0,
            "byteLength" : 4104,
            "byteOffset" : 4104
        },
        {
            "buffer" : 0,
            "byteLength" : 2736,
            "byteOffset" : 8208
        },
        {
            "buffer" : 0,
            "byteLength" : 2736,
            "byteOffset" : 10944
        },
        {
            "buffer" : 0,
            "byteLength" : 2736,
            "byteOffset" : 13680
        },
        {
            "buffer" : 0,
            "byteLength" : 1716,
            "byteOffset" : 16416
        },
        {
            "buffer" : 0,
            "byteLength" : 4104,
            "byteOffset" : 18132
        },
        {
            "buffer" : 0,
            "byteLength" : 4104,
            "byteOffset" : 22236
        },
        {
            "buffer" : 0,
            "byteLength" : 2736,
            "byteOffset" : 26340
        },
        {
            "buffer" : 0,
            "byteLength" : 2736,
            "byteOffset" : 29076
        },
        {
            "buffer" : 0,
            "byteLength" : 2736,
            "byteOffset" : 31812
        },
        {
            "buffer" : 0,
            "byteLength" : 1716,
            "byteOffset" : 34548
        },
        {
            "buffer" : 0,
            "byteLength" : 624,
            "byteOffset" : 36264
        },
        {
            "buffer" : 0,
            "byteLength" : 624,
            "byteOffset" : 36888
        },
        {
            "buffer" : 0,
            "byteLength" : 416,
            "byteOffset" : 37512
        },
        {
            "buffer" : 0,
            "byteLength" : 416,
            "byteOffset" : 37928
        },
        {
            "buffer" : 0,
            "byteLength" : 416,
            "byteOffset" : 38344
        },
        {
            "buffer" : 0,
            "byteLength" : 288,
            "byteOffset" : 38760
        },
        {
            "buffer" : 0,
            "byteLength" : 23712,
            "byteOffset" : 39048
        },
        {
            "buffer" : 0,
            "byteLength" : 23712,
            "byteOffset" : 62760
        },
        {
            "buffer" : 0,
            "byteLength" : 15808,
            "byteOffset" : 86472
        },
        {
            "buffer" : 0,
            "byteLength" : 15808,
            "byteOffset" : 102280
        },
        {
            "buffer" : 0,
            "byteLength" : 15808,
            "byteOffset" : 118088
        },
        {
            "buffer" : 0,
            "byteLength" : 10020,
            "byteOffset" : 133896
        }
    ],
    "buffers" : [
        {
            "byteLength" : 143916,
            "uri" : "data:application/octet-stream;base64,"
        }
    ]
}
