{
    "asset" : {
        "generator" : "Khronos glTF Blender I/O v1.8.19",
        "version" : "2.0"
    },
    "scene" : 0,
    "scenes" : [
        {
            "name" : "Scene",
            "nodes" : [
                2
            ]
        }
    ],
    "nodes" : [
        {
            "mesh" : 0,
            "name" : "PumpGlas",
            "rotation" : [
                0.5000000596046448,
                -0.4999999701976776,
                0.5000000596046448,
                0.4999999403953552
            ]
        },
        {
            "mesh" : 1,
            "name" : "PumpRotate",
            "rotation" : [
                0.5000000596046448,
                -0.4999999701976776,
                0.5000000596046448,
                0.4999999403953552
            ]
        },
        {
            "children" : [
                0,
                1
            ],
            "mesh" : 2,
            "name" : "PumpSolid"
        }
    ],
    "materials" : [
        {
            "doubleSided" : true,
            "name" : "Material.007",
            "pbrMetallicRoughness" : {
                "metallicFactor" : 0,
                "roughnessFactor" : 0.5
            }
        }
    ],
    "meshes" : [
        {
            "name" : "Cylinder.002",
            "primitives" : [
                {
                    "attributes" : {
                        "POSITION" : 0,
                        "NORMAL" : 1,
                        "TEXCOORD_0" : 2
                    },
                    "indices" : 3,
                    "material" : 0
                }
            ]
        },
        {
            "name" : "Cylinder.033",
            "primitives" : [
                {
                    "attributes" : {
                        "POSITION" : 4,
                        "NORMAL" : 5,
                        "TEXCOORD_0" : 6,
                        "TEXCOORD_1" : 7
                    },
                    "indices" : 8,
                    "material" : 0
                }
            ]
        },
        {
            "name" : "Cylinder.001",
            "primitives" : [
                {
                    "attributes" : {
                        "POSITION" : 9,
                        "NORMAL" : 10,
                        "TEXCOORD_0" : 11,
                        "TEXCOORD_1" : 12,
                        "COLOR_0" : 13
                    },
                    "indices" : 14,
                    "material" : 0
                }
            ]
        }
    ],
    "accessors" : [
        {
            "bufferView" : 0,
            "componentType" : 5126,
            "count" : 134,
            "max" : [
                0.34204861521720886,
                0.34166595339775085,
                2.3021507263183594
            ],
            "min" : [
                -0.3412831127643585,
                -0.3416658639907837,
                -0.4527089595794678
            ],
            "type" : "VEC3"
        },
        {
            "bufferView" : 1,
            "componentType" : 5126,
            "count" : 134,
            "type" : "VEC3"
        },
        {
            "bufferView" : 2,
            "componentType" : 5126,
            "count" : 134,
            "type" : "VEC2"
        },
        {
            "bufferView" : 3,
            "componentType" : 5123,
            "count" : 396,
            "type" : "SCALAR"
        },
        {
            "bufferView" : 4,
            "componentType" : 5126,
            "count" : 92,
            "max" : [
                0.24677444994449615,
                0.24736759066581726,
                -0.397043377161026
            ],
            "min" : [
                -0.2481125146150589,
                -0.24751925468444824,
                -0.507702112197876
            ],
            "type" : "VEC3"
        },
        {
            "bufferView" : 5,
            "componentType" : 5126,
            "count" : 92,
            "type" : "VEC3"
        },
        {
            "bufferView" : 6,
            "componentType" : 5126,
            "count" : 92,
            "type" : "VEC2"
        },
        {
            "bufferView" : 7,
            "componentType" : 5126,
            "count" : 92,
            "type" : "VEC2"
        },
        {
            "bufferView" : 8,
            "componentType" : 5123,
            "count" : 174,
            "type" : "SCALAR"
        },
        {
            "bufferView" : 9,
            "componentType" : 5126,
            "count" : 2691,
            "max" : [
                0.38973087072372437,
                0.586640477180481,
                0.3899732530117035
            ],
            "min" : [
                -0.38973090052604675,
                -2.33088755607605,
                -0.47320371866226196
            ],
            "type" : "VEC3"
        },
        {
            "bufferView" : 10,
            "componentType" : 5126,
            "count" : 2691,
            "type" : "VEC3"
        },
        {
            "bufferView" : 11,
            "componentType" : 5126,
            "count" : 2691,
            "type" : "VEC2"
        },
        {
            "bufferView" : 12,
            "componentType" : 5126,
            "count" : 2691,
            "type" : "VEC2"
        },
        {
            "bufferView" : 13,
            "componentType" : 5123,
            "count" : 2691,
            "normalized" : true,
            "type" : "VEC4"
        },
        {
            "bufferView" : 14,
            "componentType" : 5123,
            "count" : 5856,
            "type" : "SCALAR"
        }
    ],
    "bufferViews" : [
        {
            "buffer" : 0,
            "byteLength" : 1608,
            "byteOffset" : 0
        },
        {
            "buffer" : 0,
            "byteLength" : 1608,
            "byteOffset" : 1608
        },
        {
            "buffer" : 0,
            "byteLength" : 1072,
            "byteOffset" : 3216
        },
        {
            "buffer" : 0,
            "byteLength" : 792,
            "byteOffset" : 4288
        },
        {
            "buffer" : 0,
            "byteLength" : 1104,
            "byteOffset" : 5080
        },
        {
            "buffer" : 0,
            "byteLength" : 1104,
            "byteOffset" : 6184
        },
        {
            "buffer" : 0,
            "byteLength" : 736,
            "byteOffset" : 7288
        },
        {
            "buffer" : 0,
            "byteLength" : 736,
            "byteOffset" : 8024
        },
        {
            "buffer" : 0,
            "byteLength" : 348,
            "byteOffset" : 8760
        },
        {
            "buffer" : 0,
            "byteLength" : 32292,
            "byteOffset" : 9108
        },
        {
            "buffer" : 0,
            "byteLength" : 32292,
            "byteOffset" : 41400
        },
        {
            "buffer" : 0,
            "byteLength" : 21528,
            "byteOffset" : 73692
        },
        {
            "buffer" : 0,
            "byteLength" : 21528,
            "byteOffset" : 95220
        },
        {
            "buffer" : 0,
            "byteLength" : 21528,
            "byteOffset" : 116748
        },
        {
            "buffer" : 0,
            "byteLength" : 11712,
            "byteOffset" : 138276
        }
    ],
    "buffers" : [
        {
            "byteLength" : 149988,
            "uri" : "data:application/octet-stream;base64,"
        }
    ]
}
