{
    "asset" : {
        "generator" : "Khronos glTF Blender I/O v1.8.19",
        "version" : "2.0"
    },
    "scene" : 0,
    "scenes" : [
        {
            "name" : "Scene",
            "nodes" : [
                2
            ]
        }
    ],
    "nodes" : [
        {
            "mesh" : 0,
            "name" : "Rotator_90CW_Arrows_LOD0",
            "rotation" : [
                -0.7071068286895752,
                0,
                0,
                0.7071067094802856
            ]
        },
        {
            "mesh" : 1,
            "name" : "Rotator_90CW_ArrowsBlueprint_LOD0",
            "rotation" : [
                -0.7071068286895752,
                0,
                0,
                0.7071067094802856
            ]
        },
        {
            "children" : [
                0,
                1
            ],
            "mesh" : 2,
            "name" : "Rotator_90CW_Main_LOD0",
            "rotation" : [
                0.5,
                -0.4999999701976776,
                0.5000000596046448,
                0.4999999403953552
            ]
        }
    ],
    "meshes" : [
        {
            "name" : "Mesh.015",
            "primitives" : [
                {
                    "attributes" : {
                        "POSITION" : 0,
                        "NORMAL" : 1,
                        "TEXCOORD_0" : 2,
                        "TEXCOORD_1" : 3,
                        "COLOR_0" : 4
                    },
                    "indices" : 5
                }
            ]
        },
        {
            "name" : "Cube.026",
            "primitives" : [
                {
                    "attributes" : {
                        "POSITION" : 6,
                        "NORMAL" : 7,
                        "TEXCOORD_0" : 8,
                        "TEXCOORD_1" : 9,
                        "COLOR_0" : 10
                    },
                    "indices" : 11
                }
            ]
        },
        {
            "name" : "Cube.031",
            "primitives" : [
                {
                    "attributes" : {
                        "POSITION" : 12,
                        "NORMAL" : 13,
                        "TEXCOORD_0" : 14,
                        "TEXCOORD_1" : 15,
                        "COLOR_0" : 16
                    },
                    "indices" : 17
                }
            ]
        }
    ],
    "accessors" : [
        {
            "bufferView" : 0,
            "componentType" : 5126,
            "count" : 385,
            "max" : [
                0.32291433215141296,
                0.20428058505058289,
                0.32291436195373535
            ],
            "min" : [
                -0.32291433215141296,
                0.1264563351869583,
                -0.3229143023490906
            ],
            "type" : "VEC3"
        },
        {
            "bufferView" : 1,
            "componentType" : 5126,
            "count" : 385,
            "type" : "VEC3"
        },
        {
            "bufferView" : 2,
            "componentType" : 5126,
            "count" : 385,
            "type" : "VEC2"
        },
        {
            "bufferView" : 3,
            "componentType" : 5126,
            "count" : 385,
            "type" : "VEC2"
        },
        {
            "bufferView" : 4,
            "componentType" : 5123,
            "count" : 385,
            "normalized" : true,
            "type" : "VEC4"
        },
        {
            "bufferView" : 5,
            "componentType" : 5123,
            "count" : 1008,
            "type" : "SCALAR"
        },
        {
            "bufferView" : 6,
            "componentType" : 5126,
            "count" : 593,
            "max" : [
                0.15090414881706238,
                0.21312344074249268,
                0.2606194317340851
            ],
            "min" : [
                -0.15090413391590118,
                0.20117218792438507,
                -0.26061922311782837
            ],
            "type" : "VEC3"
        },
        {
            "bufferView" : 7,
            "componentType" : 5126,
            "count" : 593,
            "type" : "VEC3"
        },
        {
            "bufferView" : 8,
            "componentType" : 5126,
            "count" : 593,
            "type" : "VEC2"
        },
        {
            "bufferView" : 9,
            "componentType" : 5126,
            "count" : 593,
            "type" : "VEC2"
        },
        {
            "bufferView" : 10,
            "componentType" : 5123,
            "count" : 593,
            "normalized" : true,
            "type" : "VEC4"
        },
        {
            "bufferView" : 11,
            "componentType" : 5123,
            "count" : 1332,
            "type" : "SCALAR"
        },
        {
            "bufferView" : 12,
            "componentType" : 5126,
            "count" : 1561,
            "max" : [
                0.5019545555114746,
                0.4722999632358551,
                7.18235969543457e-06
            ],
            "min" : [
                -0.5019545555114746,
                -0.4722999632358551,
                -0.2719508409500122
            ],
            "type" : "VEC3"
        },
        {
            "bufferView" : 13,
            "componentType" : 5126,
            "count" : 1561,
            "type" : "VEC3"
        },
        {
            "bufferView" : 14,
            "componentType" : 5126,
            "count" : 1561,
            "type" : "VEC2"
        },
        {
            "bufferView" : 15,
            "componentType" : 5126,
            "count" : 1561,
            "type" : "VEC2"
        },
        {
            "bufferView" : 16,
            "componentType" : 5123,
            "count" : 1561,
            "normalized" : true,
            "type" : "VEC4"
        },
        {
            "bufferView" : 17,
            "componentType" : 5123,
            "count" : 3828,
            "type" : "SCALAR"
        }
    ],
    "bufferViews" : [
        {
            "buffer" : 0,
            "byteLength" : 4620,
            "byteOffset" : 0
        },
        {
            "buffer" : 0,
            "byteLength" : 4620,
            "byteOffset" : 4620
        },
        {
            "buffer" : 0,
            "byteLength" : 3080,
            "byteOffset" : 9240
        },
        {
            "buffer" : 0,
            "byteLength" : 3080,
            "byteOffset" : 12320
        },
        {
            "buffer" : 0,
            "byteLength" : 3080,
            "byteOffset" : 15400
        },
        {
            "buffer" : 0,
            "byteLength" : 2016,
            "byteOffset" : 18480
        },
        {
            "buffer" : 0,
            "byteLength" : 7116,
            "byteOffset" : 20496
        },
        {
            "buffer" : 0,
            "byteLength" : 7116,
            "byteOffset" : 27612
        },
        {
            "buffer" : 0,
            "byteLength" : 4744,
            "byteOffset" : 34728
        },
        {
            "buffer" : 0,
            "byteLength" : 4744,
            "byteOffset" : 39472
        },
        {
            "buffer" : 0,
            "byteLength" : 4744,
            "byteOffset" : 44216
        },
        {
            "buffer" : 0,
            "byteLength" : 2664,
            "byteOffset" : 48960
        },
        {
            "buffer" : 0,
            "byteLength" : 18732,
            "byteOffset" : 51624
        },
        {
            "buffer" : 0,
            "byteLength" : 18732,
            "byteOffset" : 70356
        },
        {
            "buffer" : 0,
            "byteLength" : 12488,
            "byteOffset" : 89088
        },
        {
            "buffer" : 0,
            "byteLength" : 12488,
            "byteOffset" : 101576
        },
        {
            "buffer" : 0,
            "byteLength" : 12488,
            "byteOffset" : 114064
        },
        {
            "buffer" : 0,
            "byteLength" : 7656,
            "byteOffset" : 126552
        }
    ],
    "buffers" : [
        {
            "byteLength" : 134208,
            "uri" : "data:application/octet-stream;base64,"
        }
    ]
}
