{
    "asset" : {
        "generator" : "Khronos glTF Blender I/O v1.8.19",
        "version" : "2.0"
    },
    "scene" : 0,
    "scenes" : [
        {
            "name" : "Scene",
            "nodes" : [
                2
            ]
        }
    ],
    "nodes" : [
        {
            "mesh" : 0,
            "name" : "Rotator_180_Arrows_LOD0",
            "rotation" : [
                0,
                -0.7071068286895752,
                0,
                0.7071067094802856
            ]
        },
        {
            "mesh" : 1,
            "name" : "Rotator_180_ArrowsBlueprint_LOD0",
            "rotation" : [
                0,
                -0.7071068286895752,
                0,
                0.7071067094802856
            ]
        },
        {
            "children" : [
                0,
                1
            ],
            "mesh" : 2,
            "name" : "Rotator_180_Main_LOD0"
        }
    ],
    "meshes" : [
        {
            "name" : "Mesh.001",
            "primitives" : [
                {
                    "attributes" : {
                        "POSITION" : 0,
                        "NORMAL" : 1,
                        "TEXCOORD_0" : 2,
                        "TEXCOORD_1" : 3,
                        "COLOR_0" : 4
                    },
                    "indices" : 5
                }
            ]
        },
        {
            "name" : "Cube.003",
            "primitives" : [
                {
                    "attributes" : {
                        "POSITION" : 6,
                        "NORMAL" : 7,
                        "TEXCOORD_0" : 8,
                        "TEXCOORD_1" : 9,
                        "COLOR_0" : 10
                    },
                    "indices" : 11
                }
            ]
        },
        {
            "name" : "Cube.004",
            "primitives" : [
                {
                    "attributes" : {
                        "POSITION" : 12,
                        "NORMAL" : 13,
                        "TEXCOORD_0" : 14,
                        "TEXCOORD_1" : 15,
                        "COLOR_0" : 16
                    },
                    "indices" : 17
                }
            ]
        }
    ],
    "accessors" : [
        {
            "bufferView" : 0,
            "componentType" : 5126,
            "count" : 312,
            "max" : [
                0.32291433215141296,
                0.2042805403470993,
                0.32527872920036316
            ],
            "min" : [
                -0.32291433215141296,
                0.12645632028579712,
                -0.3252786695957184
            ],
            "type" : "VEC3"
        },
        {
            "bufferView" : 1,
            "componentType" : 5126,
            "count" : 312,
            "type" : "VEC3"
        },
        {
            "bufferView" : 2,
            "componentType" : 5126,
            "count" : 312,
            "type" : "VEC2"
        },
        {
            "bufferView" : 3,
            "componentType" : 5126,
            "count" : 312,
            "type" : "VEC2"
        },
        {
            "bufferView" : 4,
            "componentType" : 5123,
            "count" : 312,
            "normalized" : true,
            "type" : "VEC4"
        },
        {
            "bufferView" : 5,
            "componentType" : 5123,
            "count" : 834,
            "type" : "SCALAR"
        },
        {
            "bufferView" : 6,
            "componentType" : 5126,
            "count" : 851,
            "max" : [
                0.21060384809970856,
                0.21312347054481506,
                0.22600939869880676
            ],
            "min" : [
                -0.2106039971113205,
                0.20117220282554626,
                -0.22600919008255005
            ],
            "type" : "VEC3"
        },
        {
            "bufferView" : 7,
            "componentType" : 5126,
            "count" : 851,
            "type" : "VEC3"
        },
        {
            "bufferView" : 8,
            "componentType" : 5126,
            "count" : 851,
            "type" : "VEC2"
        },
        {
            "bufferView" : 9,
            "componentType" : 5126,
            "count" : 851,
            "type" : "VEC2"
        },
        {
            "bufferView" : 10,
            "componentType" : 5123,
            "count" : 851,
            "normalized" : true,
            "type" : "VEC4"
        },
        {
            "bufferView" : 11,
            "componentType" : 5123,
            "count" : 1944,
            "type" : "SCALAR"
        },
        {
            "bufferView" : 12,
            "componentType" : 5126,
            "count" : 1645,
            "max" : [
                0.4722999334335327,
                0.2719421088695526,
                0.5019545555114746
            ],
            "min" : [
                -0.4722999930381775,
                -7.2567695497127715e-06,
                -0.5019545555114746
            ],
            "type" : "VEC3"
        },
        {
            "bufferView" : 13,
            "componentType" : 5126,
            "count" : 1645,
            "type" : "VEC3"
        },
        {
            "bufferView" : 14,
            "componentType" : 5126,
            "count" : 1645,
            "type" : "VEC2"
        },
        {
            "bufferView" : 15,
            "componentType" : 5126,
            "count" : 1645,
            "type" : "VEC2"
        },
        {
            "bufferView" : 16,
            "componentType" : 5123,
            "count" : 1645,
            "normalized" : true,
            "type" : "VEC4"
        },
        {
            "bufferView" : 17,
            "componentType" : 5123,
            "count" : 4044,
            "type" : "SCALAR"
        }
    ],
    "bufferViews" : [
        {
            "buffer" : 0,
            "byteLength" : 3744,
            "byteOffset" : 0
        },
        {
            "buffer" : 0,
            "byteLength" : 3744,
            "byteOffset" : 3744
        },
        {
            "buffer" : 0,
            "byteLength" : 2496,
            "byteOffset" : 7488
        },
        {
            "buffer" : 0,
            "byteLength" : 2496,
            "byteOffset" : 9984
        },
        {
            "buffer" : 0,
            "byteLength" : 2496,
            "byteOffset" : 12480
        },
        {
            "buffer" : 0,
            "byteLength" : 1668,
            "byteOffset" : 14976
        },
        {
            "buffer" : 0,
            "byteLength" : 10212,
            "byteOffset" : 16644
        },
        {
            "buffer" : 0,
            "byteLength" : 10212,
            "byteOffset" : 26856
        },
        {
            "buffer" : 0,
            "byteLength" : 6808,
            "byteOffset" : 37068
        },
        {
            "buffer" : 0,
            "byteLength" : 6808,
            "byteOffset" : 43876
        },
        {
            "buffer" : 0,
            "byteLength" : 6808,
            "byteOffset" : 50684
        },
        {
            "buffer" : 0,
            "byteLength" : 3888,
            "byteOffset" : 57492
        },
        {
            "buffer" : 0,
            "byteLength" : 19740,
            "byteOffset" : 61380
        },
        {
            "buffer" : 0,
            "byteLength" : 19740,
            "byteOffset" : 81120
        },
        {
            "buffer" : 0,
            "byteLength" : 13160,
            "byteOffset" : 100860
        },
        {
            "buffer" : 0,
            "byteLength" : 13160,
            "byteOffset" : 114020
        },
        {
            "buffer" : 0,
            "byteLength" : 13160,
            "byteOffset" : 127180
        },
        {
            "buffer" : 0,
            "byteLength" : 8088,
            "byteOffset" : 140340
        }
    ],
    "buffers" : [
        {
            "byteLength" : 148428,
            "uri" : "data:application/octet-stream;base64,"
        }
    ]
}
