{
    "asset" : {
        "generator" : "Khronos glTF Blender I/O v1.8.19",
        "version" : "2.0"
    },
    "scene" : 0,
    "scenes" : [
        {
            "name" : "Scene",
            "nodes" : [
                1
            ]
        }
    ],
    "nodes" : [
        {
            "mesh" : 0,
            "name" : "Rotator_180_Arrows_LOD0",
            "rotation" : [
                0,
                -0.7071068286895752,
                0,
                0.7071067094802856
            ]
        },
        {
            "children" : [
                0
            ],
            "mesh" : 1,
            "name" : "Rotator_180_Main_LOD0"
        }
    ],
    "meshes" : [
        {
            "name" : "Mesh.001",
            "primitives" : [
                {
                    "attributes" : {
                        "POSITION" : 0,
                        "NORMAL" : 1,
                        "TEXCOORD_0" : 2,
                        "TEXCOORD_1" : 3,
                        "COLOR_0" : 4
                    },
                    "indices" : 5
                }
            ]
        },
        {
            "name" : "Cube.004",
            "primitives" : [
                {
                    "attributes" : {
                        "POSITION" : 6,
                        "NORMAL" : 7,
                        "TEXCOORD_0" : 8,
                        "TEXCOORD_1" : 9,
                        "COLOR_0" : 10
                    },
                    "indices" : 11
                }
            ]
        }
    ],
    "accessors" : [
        {
            "bufferView" : 0,
            "componentType" : 5126,
            "count" : 666,
            "max" : [
                0.32291433215141296,
                0.2042805403470993,
                0.32527872920036316
            ],
            "min" : [
                -0.32291433215141296,
                0.12645632028579712,
                -0.3252786695957184
            ],
            "type" : "VEC3"
        },
        {
            "bufferView" : 1,
            "componentType" : 5126,
            "count" : 666,
            "type" : "VEC3"
        },
        {
            "bufferView" : 2,
            "componentType" : 5126,
            "count" : 666,
            "type" : "VEC2"
        },
        {
            "bufferView" : 3,
            "componentType" : 5126,
            "count" : 666,
            "type" : "VEC2"
        },
        {
            "bufferView" : 4,
            "componentType" : 5123,
            "count" : 666,
            "normalized" : true,
            "type" : "VEC4"
        },
        {
            "bufferView" : 5,
            "componentType" : 5123,
            "count" : 834,
            "type" : "SCALAR"
        },
        {
            "bufferView" : 6,
            "componentType" : 5126,
            "count" : 2057,
            "max" : [
                0.4722999334335327,
                0.2719421088695526,
                0.5019545555114746
            ],
            "min" : [
                -0.4722999930381775,
                -7.2567695497127715e-06,
                -0.5019545555114746
            ],
            "type" : "VEC3"
        },
        {
            "bufferView" : 7,
            "componentType" : 5126,
            "count" : 2057,
            "type" : "VEC3"
        },
        {
            "bufferView" : 8,
            "componentType" : 5126,
            "count" : 2057,
            "type" : "VEC2"
        },
        {
            "bufferView" : 9,
            "componentType" : 5126,
            "count" : 2057,
            "type" : "VEC2"
        },
        {
            "bufferView" : 10,
            "componentType" : 5123,
            "count" : 2057,
            "normalized" : true,
            "type" : "VEC4"
        },
        {
            "bufferView" : 11,
            "componentType" : 5123,
            "count" : 4044,
            "type" : "SCALAR"
        }
    ],
    "bufferViews" : [
        {
            "buffer" : 0,
            "byteLength" : 7992,
            "byteOffset" : 0
        },
        {
            "buffer" : 0,
            "byteLength" : 7992,
            "byteOffset" : 7992
        },
        {
            "buffer" : 0,
            "byteLength" : 5328,
            "byteOffset" : 15984
        },
        {
            "buffer" : 0,
            "byteLength" : 5328,
            "byteOffset" : 21312
        },
        {
            "buffer" : 0,
            "byteLength" : 5328,
            "byteOffset" : 26640
        },
        {
            "buffer" : 0,
            "byteLength" : 1668,
            "byteOffset" : 31968
        },
        {
            "buffer" : 0,
            "byteLength" : 24684,
            "byteOffset" : 33636
        },
        {
            "buffer" : 0,
            "byteLength" : 24684,
            "byteOffset" : 58320
        },
        {
            "buffer" : 0,
            "byteLength" : 16456,
            "byteOffset" : 83004
        },
        {
            "buffer" : 0,
            "byteLength" : 16456,
            "byteOffset" : 99460
        },
        {
            "buffer" : 0,
            "byteLength" : 16456,
            "byteOffset" : 115916
        },
        {
            "buffer" : 0,
            "byteLength" : 8088,
            "byteOffset" : 132372
        }
    ],
    "buffers" : [
        {
            "byteLength" : 140460,
            "uri" : "data:application/octet-stream;base64,"
        }
    ]
}
