{
    "asset" : {
        "generator" : "Khronos glTF Blender I/O v1.8.19",
        "version" : "2.0"
    },
    "scene" : 0,
    "scenes" : [
        {
            "name" : "Scene",
            "nodes" : [
                2
            ]
        }
    ],
    "nodes" : [
        {
            "mesh" : 0,
            "name" : "Rotator_90CCW_Arrows_LOD0",
            "rotation" : [
                0,
                -0.7071068286895752,
                0,
                0.7071067094802856
            ]
        },
        {
            "mesh" : 1,
            "name" : "Rotator_90CCW_ArrowsBlueprint_LOD0",
            "rotation" : [
                0,
                -0.7071068286895752,
                0,
                0.7071067094802856
            ]
        },
        {
            "children" : [
                0,
                1
            ],
            "mesh" : 2,
            "name" : "Rotator_90CCW_Main_LOD0"
        }
    ],
    "meshes" : [
        {
            "name" : "Mesh.002",
            "primitives" : [
                {
                    "attributes" : {
                        "POSITION" : 0,
                        "NORMAL" : 1,
                        "TEXCOORD_0" : 2,
                        "TEXCOORD_1" : 3,
                        "COLOR_0" : 4
                    },
                    "indices" : 5
                }
            ]
        },
        {
            "name" : "Cube.001",
            "primitives" : [
                {
                    "attributes" : {
                        "POSITION" : 6,
                        "NORMAL" : 7,
                        "TEXCOORD_0" : 8,
                        "TEXCOORD_1" : 9,
                        "COLOR_0" : 10
                    },
                    "indices" : 11
                }
            ]
        },
        {
            "name" : "Cube.005",
            "primitives" : [
                {
                    "attributes" : {
                        "POSITION" : 12,
                        "NORMAL" : 13,
                        "TEXCOORD_0" : 14,
                        "TEXCOORD_1" : 15,
                        "COLOR_0" : 16
                    },
                    "indices" : 17
                }
            ]
        }
    ],
    "accessors" : [
        {
            "bufferView" : 0,
            "componentType" : 5126,
            "count" : 385,
            "max" : [
                0.3252788484096527,
                0.2042805701494217,
                0.3252788782119751
            ],
            "min" : [
                -0.3252788484096527,
                0.12645632028579712,
                -0.3252788186073303
            ],
            "type" : "VEC3"
        },
        {
            "bufferView" : 1,
            "componentType" : 5126,
            "count" : 385,
            "type" : "VEC3"
        },
        {
            "bufferView" : 2,
            "componentType" : 5126,
            "count" : 385,
            "type" : "VEC2"
        },
        {
            "bufferView" : 3,
            "componentType" : 5126,
            "count" : 385,
            "type" : "VEC2"
        },
        {
            "bufferView" : 4,
            "componentType" : 5123,
            "count" : 385,
            "normalized" : true,
            "type" : "VEC4"
        },
        {
            "bufferView" : 5,
            "componentType" : 5123,
            "count" : 1008,
            "type" : "SCALAR"
        },
        {
            "bufferView" : 6,
            "componentType" : 5126,
            "count" : 578,
            "max" : [
                0.15090413391590118,
                0.21312348544597626,
                0.2606194317340851
            ],
            "min" : [
                -0.15090414881706238,
                0.20117218792438507,
                -0.26061922311782837
            ],
            "type" : "VEC3"
        },
        {
            "bufferView" : 7,
            "componentType" : 5126,
            "count" : 578,
            "type" : "VEC3"
        },
        {
            "bufferView" : 8,
            "componentType" : 5126,
            "count" : 578,
            "type" : "VEC2"
        },
        {
            "bufferView" : 9,
            "componentType" : 5126,
            "count" : 578,
            "type" : "VEC2"
        },
        {
            "bufferView" : 10,
            "componentType" : 5123,
            "count" : 578,
            "normalized" : true,
            "type" : "VEC4"
        },
        {
            "bufferView" : 11,
            "componentType" : 5123,
            "count" : 1332,
            "type" : "SCALAR"
        },
        {
            "bufferView" : 12,
            "componentType" : 5126,
            "count" : 1555,
            "max" : [
                0.4722999334335327,
                0.271950900554657,
                0.5019545555114746
            ],
            "min" : [
                -0.4722999930381775,
                -7.2567695497127715e-06,
                -0.5019545555114746
            ],
            "type" : "VEC3"
        },
        {
            "bufferView" : 13,
            "componentType" : 5126,
            "count" : 1555,
            "type" : "VEC3"
        },
        {
            "bufferView" : 14,
            "componentType" : 5126,
            "count" : 1555,
            "type" : "VEC2"
        },
        {
            "bufferView" : 15,
            "componentType" : 5126,
            "count" : 1555,
            "type" : "VEC2"
        },
        {
            "bufferView" : 16,
            "componentType" : 5123,
            "count" : 1555,
            "normalized" : true,
            "type" : "VEC4"
        },
        {
            "bufferView" : 17,
            "componentType" : 5123,
            "count" : 3828,
            "type" : "SCALAR"
        }
    ],
    "bufferViews" : [
        {
            "buffer" : 0,
            "byteLength" : 4620,
            "byteOffset" : 0
        },
        {
            "buffer" : 0,
            "byteLength" : 4620,
            "byteOffset" : 4620
        },
        {
            "buffer" : 0,
            "byteLength" : 3080,
            "byteOffset" : 9240
        },
        {
            "buffer" : 0,
            "byteLength" : 3080,
            "byteOffset" : 12320
        },
        {
            "buffer" : 0,
            "byteLength" : 3080,
            "byteOffset" : 15400
        },
        {
            "buffer" : 0,
            "byteLength" : 2016,
            "byteOffset" : 18480
        },
        {
            "buffer" : 0,
            "byteLength" : 6936,
            "byteOffset" : 20496
        },
        {
            "buffer" : 0,
            "byteLength" : 6936,
            "byteOffset" : 27432
        },
        {
            "buffer" : 0,
            "byteLength" : 4624,
            "byteOffset" : 34368
        },
        {
            "buffer" : 0,
            "byteLength" : 4624,
            "byteOffset" : 38992
        },
        {
            "buffer" : 0,
            "byteLength" : 4624,
            "byteOffset" : 43616
        },
        {
            "buffer" : 0,
            "byteLength" : 2664,
            "byteOffset" : 48240
        },
        {
            "buffer" : 0,
            "byteLength" : 18660,
            "byteOffset" : 50904
        },
        {
            "buffer" : 0,
            "byteLength" : 18660,
            "byteOffset" : 69564
        },
        {
            "buffer" : 0,
            "byteLength" : 12440,
            "byteOffset" : 88224
        },
        {
            "buffer" : 0,
            "byteLength" : 12440,
            "byteOffset" : 100664
        },
        {
            "buffer" : 0,
            "byteLength" : 12440,
            "byteOffset" : 113104
        },
        {
            "buffer" : 0,
            "byteLength" : 7656,
            "byteOffset" : 125544
        }
    ],
    "buffers" : [
        {
            "byteLength" : 133200,
            "uri" : "data:application/octet-stream;base64,"
        }
    ]
}
