{
    "asset" : {
        "generator" : "Khronos glTF Blender I/O v1.8.19",
        "version" : "2.0"
    },
    "scene" : 0,
    "scenes" : [
        {
            "name" : "Scene",
            "nodes" : [
                1
            ]
        }
    ],
    "nodes" : [
        {
            "mesh" : 0,
            "name" : "Rotator_90CW_Arrows_LOD0"
        },
        {
            "children" : [
                0
            ],
            "mesh" : 1,
            "name" : "Rotator_90CW_Main_LOD0"
        }
    ],
    "meshes" : [
        {
            "name" : "Mesh.004",
            "primitives" : [
                {
                    "attributes" : {
                        "POSITION" : 0,
                        "NORMAL" : 1,
                        "TEXCOORD_0" : 2,
                        "TEXCOORD_1" : 3,
                        "COLOR_0" : 4
                    },
                    "indices" : 5
                }
            ]
        },
        {
            "name" : "Cube.008",
            "primitives" : [
                {
                    "attributes" : {
                        "POSITION" : 6,
                        "NORMAL" : 7,
                        "TEXCOORD_0" : 8,
                        "TEXCOORD_1" : 9,
                        "COLOR_0" : 10
                    },
                    "indices" : 11
                }
            ]
        }
    ],
    "accessors" : [
        {
            "bufferView" : 0,
            "componentType" : 5126,
            "count" : 806,
            "max" : [
                0.3229143023490906,
                0.20428058505058289,
                0.32291433215141296
            ],
            "min" : [
                -0.32291436195373535,
                0.12645632028579712,
                -0.32291433215141296
            ],
            "type" : "VEC3"
        },
        {
            "bufferView" : 1,
            "componentType" : 5126,
            "count" : 806,
            "type" : "VEC3"
        },
        {
            "bufferView" : 2,
            "componentType" : 5126,
            "count" : 806,
            "type" : "VEC2"
        },
        {
            "bufferView" : 3,
            "componentType" : 5126,
            "count" : 806,
            "type" : "VEC2"
        },
        {
            "bufferView" : 4,
            "componentType" : 5123,
            "count" : 806,
            "normalized" : true,
            "type" : "VEC4"
        },
        {
            "bufferView" : 5,
            "componentType" : 5123,
            "count" : 1008,
            "type" : "SCALAR"
        },
        {
            "bufferView" : 6,
            "componentType" : 5126,
            "count" : 1840,
            "max" : [
                0.4722999632358551,
                0.2719508707523346,
                0.5019545555114746
            ],
            "min" : [
                -0.4722999632358551,
                -7.202323558885837e-06,
                -0.5019545555114746
            ],
            "type" : "VEC3"
        },
        {
            "bufferView" : 7,
            "componentType" : 5126,
            "count" : 1840,
            "type" : "VEC3"
        },
        {
            "bufferView" : 8,
            "componentType" : 5126,
            "count" : 1840,
            "type" : "VEC2"
        },
        {
            "bufferView" : 9,
            "componentType" : 5126,
            "count" : 1840,
            "type" : "VEC2"
        },
        {
            "bufferView" : 10,
            "componentType" : 5123,
            "count" : 1840,
            "normalized" : true,
            "type" : "VEC4"
        },
        {
            "bufferView" : 11,
            "componentType" : 5123,
            "count" : 3828,
            "type" : "SCALAR"
        }
    ],
    "bufferViews" : [
        {
            "buffer" : 0,
            "byteLength" : 9672,
            "byteOffset" : 0
        },
        {
            "buffer" : 0,
            "byteLength" : 9672,
            "byteOffset" : 9672
        },
        {
            "buffer" : 0,
            "byteLength" : 6448,
            "byteOffset" : 19344
        },
        {
            "buffer" : 0,
            "byteLength" : 6448,
            "byteOffset" : 25792
        },
        {
            "buffer" : 0,
            "byteLength" : 6448,
            "byteOffset" : 32240
        },
        {
            "buffer" : 0,
            "byteLength" : 2016,
            "byteOffset" : 38688
        },
        {
            "buffer" : 0,
            "byteLength" : 22080,
            "byteOffset" : 40704
        },
        {
            "buffer" : 0,
            "byteLength" : 22080,
            "byteOffset" : 62784
        },
        {
            "buffer" : 0,
            "byteLength" : 14720,
            "byteOffset" : 84864
        },
        {
            "buffer" : 0,
            "byteLength" : 14720,
            "byteOffset" : 99584
        },
        {
            "buffer" : 0,
            "byteLength" : 14720,
            "byteOffset" : 114304
        },
        {
            "buffer" : 0,
            "byteLength" : 7656,
            "byteOffset" : 129024
        }
    ],
    "buffers" : [
        {
            "byteLength" : 136680,
            "uri" : "data:application/octet-stream;base64,"
        }
    ]
}
