{
    "asset" : {
        "generator" : "Khronos glTF Blender I/O v1.8.19",
        "version" : "2.0"
    },
    "scene" : 0,
    "scenes" : [
        {
            "name" : "Scene",
            "nodes" : [
                1
            ]
        }
    ],
    "nodes" : [
        {
            "mesh" : 0,
            "name" : "Rotator_90CCW_Arrows_LOD0",
            "rotation" : [
                0,
                -0.7071068286895752,
                0,
                0.7071067094802856
            ]
        },
        {
            "children" : [
                0
            ],
            "mesh" : 1,
            "name" : "Rotator_90CCW_Main_LOD0"
        }
    ],
    "meshes" : [
        {
            "name" : "Mesh.002",
            "primitives" : [
                {
                    "attributes" : {
                        "POSITION" : 0,
                        "NORMAL" : 1,
                        "TEXCOORD_0" : 2,
                        "TEXCOORD_1" : 3,
                        "COLOR_0" : 4
                    },
                    "indices" : 5
                }
            ]
        },
        {
            "name" : "Cube.005",
            "primitives" : [
                {
                    "attributes" : {
                        "POSITION" : 6,
                        "NORMAL" : 7,
                        "TEXCOORD_0" : 8,
                        "TEXCOORD_1" : 9,
                        "COLOR_0" : 10
                    },
                    "indices" : 11
                }
            ]
        }
    ],
    "accessors" : [
        {
            "bufferView" : 0,
            "componentType" : 5126,
            "count" : 799,
            "max" : [
                0.3252788484096527,
                0.2042805701494217,
                0.3252788782119751
            ],
            "min" : [
                -0.3252788484096527,
                0.12645632028579712,
                -0.3252788186073303
            ],
            "type" : "VEC3"
        },
        {
            "bufferView" : 1,
            "componentType" : 5126,
            "count" : 799,
            "type" : "VEC3"
        },
        {
            "bufferView" : 2,
            "componentType" : 5126,
            "count" : 799,
            "type" : "VEC2"
        },
        {
            "bufferView" : 3,
            "componentType" : 5126,
            "count" : 799,
            "type" : "VEC2"
        },
        {
            "bufferView" : 4,
            "componentType" : 5123,
            "count" : 799,
            "normalized" : true,
            "type" : "VEC4"
        },
        {
            "bufferView" : 5,
            "componentType" : 5123,
            "count" : 1008,
            "type" : "SCALAR"
        },
        {
            "bufferView" : 6,
            "componentType" : 5126,
            "count" : 1832,
            "max" : [
                0.4722999334335327,
                0.271950900554657,
                0.5019545555114746
            ],
            "min" : [
                -0.4722999930381775,
                -7.2567695497127715e-06,
                -0.5019545555114746
            ],
            "type" : "VEC3"
        },
        {
            "bufferView" : 7,
            "componentType" : 5126,
            "count" : 1832,
            "type" : "VEC3"
        },
        {
            "bufferView" : 8,
            "componentType" : 5126,
            "count" : 1832,
            "type" : "VEC2"
        },
        {
            "bufferView" : 9,
            "componentType" : 5126,
            "count" : 1832,
            "type" : "VEC2"
        },
        {
            "bufferView" : 10,
            "componentType" : 5123,
            "count" : 1832,
            "normalized" : true,
            "type" : "VEC4"
        },
        {
            "bufferView" : 11,
            "componentType" : 5123,
            "count" : 3828,
            "type" : "SCALAR"
        }
    ],
    "bufferViews" : [
        {
            "buffer" : 0,
            "byteLength" : 9588,
            "byteOffset" : 0
        },
        {
            "buffer" : 0,
            "byteLength" : 9588,
            "byteOffset" : 9588
        },
        {
            "buffer" : 0,
            "byteLength" : 6392,
            "byteOffset" : 19176
        },
        {
            "buffer" : 0,
            "byteLength" : 6392,
            "byteOffset" : 25568
        },
        {
            "buffer" : 0,
            "byteLength" : 6392,
            "byteOffset" : 31960
        },
        {
            "buffer" : 0,
            "byteLength" : 2016,
            "byteOffset" : 38352
        },
        {
            "buffer" : 0,
            "byteLength" : 21984,
            "byteOffset" : 40368
        },
        {
            "buffer" : 0,
            "byteLength" : 21984,
            "byteOffset" : 62352
        },
        {
            "buffer" : 0,
            "byteLength" : 14656,
            "byteOffset" : 84336
        },
        {
            "buffer" : 0,
            "byteLength" : 14656,
            "byteOffset" : 98992
        },
        {
            "buffer" : 0,
            "byteLength" : 14656,
            "byteOffset" : 113648
        },
        {
            "buffer" : 0,
            "byteLength" : 7656,
            "byteOffset" : 128304
        }
    ],
    "buffers" : [
        {
            "byteLength" : 135960,
            "uri" : "data:application/octet-stream;base64,"
        }
    ]
}
