{
    "asset" : {
        "generator" : "Khronos glTF Blender I/O v1.8.19",
        "version" : "2.0"
    },
    "scene" : 0,
    "scenes" : [
        {
            "name" : "Scene",
            "nodes" : [
                0
            ]
        }
    ],
    "nodes" : [
        {
            "mesh" : 0,
            "name" : "SandboxIFluidProducer"
        }
    ],
    "materials" : [
        {
            "doubleSided" : true,
            "name" : "Conveyor_Belt.009",
            "pbrMetallicRoughness" : {
                "metallicFactor" : 0,
                "roughnessFactor" : 0.5527864098548889
            }
        }
    ],
    "meshes" : [
        {
            "name" : "Cube.013",
            "primitives" : [
                {
                    "attributes" : {
                        "POSITION" : 0,
                        "NORMAL" : 1,
                        "TEXCOORD_0" : 2,
                        "TEXCOORD_1" : 3,
                        "COLOR_0" : 4
                    },
                    "indices" : 5,
                    "material" : 0
                }
            ]
        }
    ],
    "accessors" : [
        {
            "bufferView" : 0,
            "componentType" : 5126,
            "count" : 1006,
            "max" : [
                0.43227651715278625,
                0.7638826966285706,
                0.4322766065597534
            ],
            "min" : [
                -0.43227672576904297,
                0.006667779758572578,
                -0.5
            ],
            "type" : "VEC3"
        },
        {
            "bufferView" : 1,
            "componentType" : 5126,
            "count" : 1006,
            "type" : "VEC3"
        },
        {
            "bufferView" : 2,
            "componentType" : 5126,
            "count" : 1006,
            "type" : "VEC2"
        },
        {
            "bufferView" : 3,
            "componentType" : 5126,
            "count" : 1006,
            "type" : "VEC2"
        },
        {
            "bufferView" : 4,
            "componentType" : 5123,
            "count" : 1006,
            "normalized" : true,
            "type" : "VEC4"
        },
        {
            "bufferView" : 5,
            "componentType" : 5123,
            "count" : 1758,
            "type" : "SCALAR"
        }
    ],
    "bufferViews" : [
        {
            "buffer" : 0,
            "byteLength" : 12072,
            "byteOffset" : 0
        },
        {
            "buffer" : 0,
            "byteLength" : 12072,
            "byteOffset" : 12072
        },
        {
            "buffer" : 0,
            "byteLength" : 8048,
            "byteOffset" : 24144
        },
        {
            "buffer" : 0,
            "byteLength" : 8048,
            "byteOffset" : 32192
        },
        {
            "buffer" : 0,
            "byteLength" : 8048,
            "byteOffset" : 40240
        },
        {
            "buffer" : 0,
            "byteLength" : 3516,
            "byteOffset" : 48288
        }
    ],
    "buffers" : [
        {
            "byteLength" : 51804,
            "uri" : "data:application/octet-stream;base64,"
        }
    ]
}
