{
    "asset" : {
        "generator" : "Khronos glTF Blender I/O v1.8.19",
        "version" : "2.0"
    },
    "scene" : 0,
    "scenes" : [
        {
            "name" : "Scene",
            "nodes" : [
                1
            ]
        }
    ],
    "nodes" : [
        {
            "mesh" : 0,
            "name" : "ShapePacker_Default_Progress_LOD0"
        },
        {
            "children" : [
                0
            ],
            "mesh" : 1,
            "name" : "ShapePacker_Default_Main_LOD0"
        }
    ],
    "meshes" : [
        {
            "name" : "Cube.127",
            "primitives" : [
                {
                    "attributes" : {
                        "POSITION" : 0,
                        "NORMAL" : 1,
                        "TEXCOORD_0" : 2,
                        "TEXCOORD_1" : 3
                    },
                    "indices" : 4
                }
            ]
        },
        {
            "name" : "Cube.126",
            "primitives" : [
                {
                    "attributes" : {
                        "POSITION" : 5,
                        "NORMAL" : 6,
                        "TEXCOORD_0" : 7,
                        "TEXCOORD_1" : 8
                    },
                    "indices" : 9
                }
            ]
        }
    ],
    "accessors" : [
        {
            "bufferView" : 0,
            "componentType" : 5126,
            "count" : 24,
            "max" : [
                0.24353434145450592,
                0.9092004895210266,
                0.271825909614563
            ],
            "min" : [
                -0.24153870344161987,
                0.8787350058555603,
                0.21846210956573486
            ],
            "type" : "VEC3"
        },
        {
            "bufferView" : 1,
            "componentType" : 5126,
            "count" : 24,
            "type" : "VEC3"
        },
        {
            "bufferView" : 2,
            "componentType" : 5126,
            "count" : 24,
            "type" : "VEC2"
        },
        {
            "bufferView" : 3,
            "componentType" : 5126,
            "count" : 24,
            "type" : "VEC2"
        },
        {
            "bufferView" : 4,
            "componentType" : 5123,
            "count" : 36,
            "type" : "SCALAR"
        },
        {
            "bufferView" : 5,
            "componentType" : 5126,
            "count" : 728,
            "max" : [
                0.5,
                0.9123009443283081,
                0.5
            ],
            "min" : [
                -1.5000001192092896,
                0.00854432675987482,
                -0.5
            ],
            "type" : "VEC3"
        },
        {
            "bufferView" : 6,
            "componentType" : 5126,
            "count" : 728,
            "type" : "VEC3"
        },
        {
            "bufferView" : 7,
            "componentType" : 5126,
            "count" : 728,
            "type" : "VEC2"
        },
        {
            "bufferView" : 8,
            "componentType" : 5126,
            "count" : 728,
            "type" : "VEC2"
        },
        {
            "bufferView" : 9,
            "componentType" : 5123,
            "count" : 1695,
            "type" : "SCALAR"
        }
    ],
    "bufferViews" : [
        {
            "buffer" : 0,
            "byteLength" : 288,
            "byteOffset" : 0
        },
        {
            "buffer" : 0,
            "byteLength" : 288,
            "byteOffset" : 288
        },
        {
            "buffer" : 0,
            "byteLength" : 192,
            "byteOffset" : 576
        },
        {
            "buffer" : 0,
            "byteLength" : 192,
            "byteOffset" : 768
        },
        {
            "buffer" : 0,
            "byteLength" : 72,
            "byteOffset" : 960
        },
        {
            "buffer" : 0,
            "byteLength" : 8736,
            "byteOffset" : 1032
        },
        {
            "buffer" : 0,
            "byteLength" : 8736,
            "byteOffset" : 9768
        },
        {
            "buffer" : 0,
            "byteLength" : 5824,
            "byteOffset" : 18504
        },
        {
            "buffer" : 0,
            "byteLength" : 5824,
            "byteOffset" : 24328
        },
        {
            "buffer" : 0,
            "byteLength" : 3390,
            "byteOffset" : 30152
        }
    ],
    "buffers" : [
        {
            "byteLength" : 33544,
            "uri" : "data:application/octet-stream;base64,"
        }
    ]
}
