{
    "asset" : {
        "generator" : "Khronos glTF Blender I/O v1.8.19",
        "version" : "2.0"
    },
    "scene" : 0,
    "scenes" : [
        {
            "name" : "Scene",
            "nodes" : [
                1
            ]
        }
    ],
    "nodes" : [
        {
            "mesh" : 0,
            "name" : "ShapeUnpacker_Default_Progress_LOD0"
        },
        {
            "children" : [
                0
            ],
            "mesh" : 1,
            "name" : "ShapeUnpacker_Default_Main_LOD0"
        }
    ],
    "meshes" : [
        {
            "name" : "Cube.129",
            "primitives" : [
                {
                    "attributes" : {
                        "POSITION" : 0,
                        "NORMAL" : 1,
                        "TEXCOORD_0" : 2,
                        "TEXCOORD_1" : 3
                    },
                    "indices" : 4
                }
            ]
        },
        {
            "name" : "Cube.128",
            "primitives" : [
                {
                    "attributes" : {
                        "POSITION" : 5,
                        "NORMAL" : 6,
                        "TEXCOORD_0" : 7,
                        "TEXCOORD_1" : 8
                    },
                    "indices" : 9
                }
            ]
        }
    ],
    "accessors" : [
        {
            "bufferView" : 0,
            "componentType" : 5126,
            "count" : 24,
            "max" : [
                0.2435343712568283,
                0.9092004895210266,
                -0.2216712236404419
            ],
            "min" : [
                -0.24153867363929749,
                0.8787350058555603,
                -0.27503502368927
            ],
            "type" : "VEC3"
        },
        {
            "bufferView" : 1,
            "componentType" : 5126,
            "count" : 24,
            "type" : "VEC3"
        },
        {
            "bufferView" : 2,
            "componentType" : 5126,
            "count" : 24,
            "type" : "VEC2"
        },
        {
            "bufferView" : 3,
            "componentType" : 5126,
            "count" : 24,
            "type" : "VEC2"
        },
        {
            "bufferView" : 4,
            "componentType" : 5123,
            "count" : 36,
            "type" : "SCALAR"
        },
        {
            "bufferView" : 5,
            "componentType" : 5126,
            "count" : 1068,
            "max" : [
                0.5,
                0.9123009443283081,
                0.5
            ],
            "min" : [
                -1.5000001192092896,
                0.00854432675987482,
                -0.5000001192092896
            ],
            "type" : "VEC3"
        },
        {
            "bufferView" : 6,
            "componentType" : 5126,
            "count" : 1068,
            "type" : "VEC3"
        },
        {
            "bufferView" : 7,
            "componentType" : 5126,
            "count" : 1068,
            "type" : "VEC2"
        },
        {
            "bufferView" : 8,
            "componentType" : 5126,
            "count" : 1068,
            "type" : "VEC2"
        },
        {
            "bufferView" : 9,
            "componentType" : 5123,
            "count" : 2778,
            "type" : "SCALAR"
        }
    ],
    "bufferViews" : [
        {
            "buffer" : 0,
            "byteLength" : 288,
            "byteOffset" : 0
        },
        {
            "buffer" : 0,
            "byteLength" : 288,
            "byteOffset" : 288
        },
        {
            "buffer" : 0,
            "byteLength" : 192,
            "byteOffset" : 576
        },
        {
            "buffer" : 0,
            "byteLength" : 192,
            "byteOffset" : 768
        },
        {
            "buffer" : 0,
            "byteLength" : 72,
            "byteOffset" : 960
        },
        {
            "buffer" : 0,
            "byteLength" : 12816,
            "byteOffset" : 1032
        },
        {
            "buffer" : 0,
            "byteLength" : 12816,
            "byteOffset" : 13848
        },
        {
            "buffer" : 0,
            "byteLength" : 8544,
            "byteOffset" : 26664
        },
        {
            "buffer" : 0,
            "byteLength" : 8544,
            "byteOffset" : 35208
        },
        {
            "buffer" : 0,
            "byteLength" : 5556,
            "byteOffset" : 43752
        }
    ],
    "buffers" : [
        {
            "byteLength" : 49308,
            "uri" : "data:application/octet-stream;base64,"
        }
    ]
}
