{
    "asset" : {
        "generator" : "Khronos glTF Blender I/O v1.8.19",
        "version" : "2.0"
    },
    "scene" : 0,
    "scenes" : [
        {
            "name" : "Scene",
            "nodes" : [
                4
            ]
        }
    ],
    "nodes" : [
        {
            "mesh" : 0,
            "name" : "Stacker_Default_DoorLeft_LOD0",
            "rotation" : [
                0.5000000596046448,
                -0.4999999701976776,
                0.5000000596046448,
                0.4999999403953552
            ],
            "translation" : [
                -0.20581400394439697,
                1.1907999515533447,
                0
            ]
        },
        {
            "mesh" : 1,
            "name" : "Stacker_Default_DoorRight_LOD0",
            "rotation" : [
                0.5000000596046448,
                -0.4999999701976776,
                0.5000000596046448,
                0.4999999403953552
            ],
            "translation" : [
                0.20581360161304474,
                1.1907974481582642,
                0
            ]
        },
        {
            "mesh" : 2,
            "name" : "Stacker_Default_PusherLeft_LOD0",
            "rotation" : [
                0.5000000596046448,
                -0.4999999701976776,
                0.5000000596046448,
                0.4999999403953552
            ],
            "translation" : [
                0,
                0.36417001485824585,
                0
            ]
        },
        {
            "mesh" : 3,
            "name" : "Stacker_Default_PusherRight_LOD0",
            "rotation" : [
                0.5000000596046448,
                -0.4999999701976776,
                0.5000000596046448,
                0.4999999403953552
            ],
            "translation" : [
                0,
                0.36417001485824585,
                0
            ]
        },
        {
            "children" : [
                0,
                1,
                2,
                3
            ],
            "mesh" : 4,
            "name" : "Stacker_Left_Main_LOD0"
        }
    ],
    "materials" : [
        {
            "doubleSided" : true,
            "name" : "Material.002",
            "pbrMetallicRoughness" : {
                "metallicFactor" : 0,
                "roughnessFactor" : 0.27227723598480225
            }
        }
    ],
    "meshes" : [
        {
            "name" : "Cube.087",
            "primitives" : [
                {
                    "attributes" : {
                        "POSITION" : 0,
                        "NORMAL" : 1,
                        "TEXCOORD_0" : 2,
                        "TEXCOORD_1" : 3,
                        "COLOR_0" : 4
                    },
                    "indices" : 5,
                    "material" : 0
                }
            ]
        },
        {
            "name" : "Cube.086",
            "primitives" : [
                {
                    "attributes" : {
                        "POSITION" : 6,
                        "NORMAL" : 7,
                        "TEXCOORD_0" : 8,
                        "TEXCOORD_1" : 9,
                        "COLOR_0" : 10
                    },
                    "indices" : 11,
                    "material" : 0
                }
            ]
        },
        {
            "name" : "Cube.090",
            "primitives" : [
                {
                    "attributes" : {
                        "POSITION" : 12,
                        "NORMAL" : 13,
                        "TEXCOORD_0" : 14,
                        "TEXCOORD_1" : 15,
                        "COLOR_0" : 16
                    },
                    "indices" : 17,
                    "material" : 0
                }
            ]
        },
        {
            "name" : "Cube.089",
            "primitives" : [
                {
                    "attributes" : {
                        "POSITION" : 18,
                        "NORMAL" : 19,
                        "TEXCOORD_0" : 20,
                        "TEXCOORD_1" : 21,
                        "COLOR_0" : 22
                    },
                    "indices" : 23,
                    "material" : 0
                }
            ]
        },
        {
            "name" : "Cube.091",
            "primitives" : [
                {
                    "attributes" : {
                        "POSITION" : 24,
                        "NORMAL" : 25,
                        "TEXCOORD_0" : 26,
                        "TEXCOORD_1" : 27,
                        "COLOR_0" : 28
                    },
                    "indices" : 29,
                    "material" : 0
                }
            ]
        }
    ],
    "accessors" : [
        {
            "bufferView" : 0,
            "componentType" : 5126,
            "count" : 80,
            "max" : [
                0.20581364631652832,
                1.2808563099042658e-09,
                0.019988328218460083
            ],
            "min" : [
                -0.20581364631652832,
                -0.20318365097045898,
                -0.009314224123954773
            ],
            "type" : "VEC3"
        },
        {
            "bufferView" : 1,
            "componentType" : 5126,
            "count" : 80,
            "type" : "VEC3"
        },
        {
            "bufferView" : 2,
            "componentType" : 5126,
            "count" : 80,
            "type" : "VEC2"
        },
        {
            "bufferView" : 3,
            "componentType" : 5126,
            "count" : 80,
            "type" : "VEC2"
        },
        {
            "bufferView" : 4,
            "componentType" : 5123,
            "count" : 80,
            "normalized" : true,
            "type" : "VEC4"
        },
        {
            "bufferView" : 5,
            "componentType" : 5123,
            "count" : 210,
            "type" : "SCALAR"
        },
        {
            "bufferView" : 6,
            "componentType" : 5126,
            "count" : 80,
            "max" : [
                0.20581364631652832,
                0.20318365097045898,
                0.01998835802078247
            ],
            "min" : [
                -0.20581364631652832,
                9.569099290729355e-09,
                -0.009314224123954773
            ],
            "type" : "VEC3"
        },
        {
            "bufferView" : 7,
            "componentType" : 5126,
            "count" : 80,
            "type" : "VEC3"
        },
        {
            "bufferView" : 8,
            "componentType" : 5126,
            "count" : 80,
            "type" : "VEC2"
        },
        {
            "bufferView" : 9,
            "componentType" : 5126,
            "count" : 80,
            "type" : "VEC2"
        },
        {
            "bufferView" : 10,
            "componentType" : 5123,
            "count" : 80,
            "normalized" : true,
            "type" : "VEC4"
        },
        {
            "bufferView" : 11,
            "componentType" : 5123,
            "count" : 210,
            "type" : "SCALAR"
        },
        {
            "bufferView" : 12,
            "componentType" : 5126,
            "count" : 149,
            "max" : [
                0.1457839459180832,
                0.3225248456001282,
                0.1775033175945282
            ],
            "min" : [
                -0.14575731754302979,
                0.14295655488967896,
                8.940696716308594e-08
            ],
            "type" : "VEC3"
        },
        {
            "bufferView" : 13,
            "componentType" : 5126,
            "count" : 149,
            "type" : "VEC3"
        },
        {
            "bufferView" : 14,
            "componentType" : 5126,
            "count" : 149,
            "type" : "VEC2"
        },
        {
            "bufferView" : 15,
            "componentType" : 5126,
            "count" : 149,
            "type" : "VEC2"
        },
        {
            "bufferView" : 16,
            "componentType" : 5123,
            "count" : 149,
            "normalized" : true,
            "type" : "VEC4"
        },
        {
            "bufferView" : 17,
            "componentType" : 5123,
            "count" : 366,
            "type" : "SCALAR"
        },
        {
            "bufferView" : 18,
            "componentType" : 5126,
            "count" : 149,
            "max" : [
                0.14575734734535217,
                -0.14295656979084015,
                0.1775033175945282
            ],
            "min" : [
                -0.1457839161157608,
                -0.3225248456001282,
                8.940696716308594e-08
            ],
            "type" : "VEC3"
        },
        {
            "bufferView" : 19,
            "componentType" : 5126,
            "count" : 149,
            "type" : "VEC3"
        },
        {
            "bufferView" : 20,
            "componentType" : 5126,
            "count" : 149,
            "type" : "VEC2"
        },
        {
            "bufferView" : 21,
            "componentType" : 5126,
            "count" : 149,
            "type" : "VEC2"
        },
        {
            "bufferView" : 22,
            "componentType" : 5123,
            "count" : 149,
            "normalized" : true,
            "type" : "VEC4"
        },
        {
            "bufferView" : 23,
            "componentType" : 5123,
            "count" : 366,
            "type" : "SCALAR"
        },
        {
            "bufferView" : 24,
            "componentType" : 5126,
            "count" : 3732,
            "max" : [
                0.42823296785354614,
                1.2771952152252197,
                0.5011099576950073
            ],
            "min" : [
                -0.5010600686073303,
                -1.3412411135504954e-05,
                -0.428232878446579
            ],
            "type" : "VEC3"
        },
        {
            "bufferView" : 25,
            "componentType" : 5126,
            "count" : 3732,
            "type" : "VEC3"
        },
        {
            "bufferView" : 26,
            "componentType" : 5126,
            "count" : 3732,
            "type" : "VEC2"
        },
        {
            "bufferView" : 27,
            "componentType" : 5126,
            "count" : 3732,
            "type" : "VEC2"
        },
        {
            "bufferView" : 28,
            "componentType" : 5123,
            "count" : 3732,
            "normalized" : true,
            "type" : "VEC4"
        },
        {
            "bufferView" : 29,
            "componentType" : 5123,
            "count" : 9972,
            "type" : "SCALAR"
        }
    ],
    "bufferViews" : [
        {
            "buffer" : 0,
            "byteLength" : 960,
            "byteOffset" : 0
        },
        {
            "buffer" : 0,
            "byteLength" : 960,
            "byteOffset" : 960
        },
        {
            "buffer" : 0,
            "byteLength" : 640,
            "byteOffset" : 1920
        },
        {
            "buffer" : 0,
            "byteLength" : 640,
            "byteOffset" : 2560
        },
        {
            "buffer" : 0,
            "byteLength" : 640,
            "byteOffset" : 3200
        },
        {
            "buffer" : 0,
            "byteLength" : 420,
            "byteOffset" : 3840
        },
        {
            "buffer" : 0,
            "byteLength" : 960,
            "byteOffset" : 4260
        },
        {
            "buffer" : 0,
            "byteLength" : 960,
            "byteOffset" : 5220
        },
        {
            "buffer" : 0,
            "byteLength" : 640,
            "byteOffset" : 6180
        },
        {
            "buffer" : 0,
            "byteLength" : 640,
            "byteOffset" : 6820
        },
        {
            "buffer" : 0,
            "byteLength" : 640,
            "byteOffset" : 7460
        },
        {
            "buffer" : 0,
            "byteLength" : 420,
            "byteOffset" : 8100
        },
        {
            "buffer" : 0,
            "byteLength" : 1788,
            "byteOffset" : 8520
        },
        {
            "buffer" : 0,
            "byteLength" : 1788,
            "byteOffset" : 10308
        },
        {
            "buffer" : 0,
            "byteLength" : 1192,
            "byteOffset" : 12096
        },
        {
            "buffer" : 0,
            "byteLength" : 1192,
            "byteOffset" : 13288
        },
        {
            "buffer" : 0,
            "byteLength" : 1192,
            "byteOffset" : 14480
        },
        {
            "buffer" : 0,
            "byteLength" : 732,
            "byteOffset" : 15672
        },
        {
            "buffer" : 0,
            "byteLength" : 1788,
            "byteOffset" : 16404
        },
        {
            "buffer" : 0,
            "byteLength" : 1788,
            "byteOffset" : 18192
        },
        {
            "buffer" : 0,
            "byteLength" : 1192,
            "byteOffset" : 19980
        },
        {
            "buffer" : 0,
            "byteLength" : 1192,
            "byteOffset" : 21172
        },
        {
            "buffer" : 0,
            "byteLength" : 1192,
            "byteOffset" : 22364
        },
        {
            "buffer" : 0,
            "byteLength" : 732,
            "byteOffset" : 23556
        },
        {
            "buffer" : 0,
            "byteLength" : 44784,
            "byteOffset" : 24288
        },
        {
            "buffer" : 0,
            "byteLength" : 44784,
            "byteOffset" : 69072
        },
        {
            "buffer" : 0,
            "byteLength" : 29856,
            "byteOffset" : 113856
        },
        {
            "buffer" : 0,
            "byteLength" : 29856,
            "byteOffset" : 143712
        },
        {
            "buffer" : 0,
            "byteLength" : 29856,
            "byteOffset" : 173568
        },
        {
            "buffer" : 0,
            "byteLength" : 19944,
            "byteOffset" : 203424
        }
    ],
    "buffers" : [
        {
            "byteLength" : 223368,
            "uri" : "data:application/octet-stream;base64,"
        }
    ]
}
