{
    "asset" : {
        "generator" : "Khronos glTF Blender I/O v1.8.19",
        "version" : "2.0"
    },
    "scene" : 0,
    "scenes" : [
        {
            "name" : "Scene",
            "nodes" : [
                0
            ]
        }
    ],
    "nodes" : [
        {
            "mesh" : 0,
            "name" : "TrainStation_Loader_Main_LOD0"
        }
    ],
    "materials" : [
        {
            "doubleSided" : true,
            "name" : "Conveyor_Belt.006",
            "pbrMetallicRoughness" : {
                "metallicFactor" : 0,
                "roughnessFactor" : 0.5527864098548889
            }
        }
    ],
    "meshes" : [
        {
            "name" : "Cube.151",
            "primitives" : [
                {
                    "attributes" : {
                        "POSITION" : 0,
                        "NORMAL" : 1,
                        "TEXCOORD_0" : 2,
                        "TEXCOORD_1" : 3,
                        "TEXCOORD_2" : 4,
                        "COLOR_0" : 5
                    },
                    "indices" : 6,
                    "material" : 0
                }
            ]
        }
    ],
    "accessors" : [
        {
            "bufferView" : 0,
            "componentType" : 5126,
            "count" : 1793,
            "max" : [
                0.4651700556278229,
                1.4132940769195557,
                0.5010000467300415
            ],
            "min" : [
                -0.46517011523246765,
                -4.017960009150556e-08,
                -0.4767773449420929
            ],
            "type" : "VEC3"
        },
        {
            "bufferView" : 1,
            "componentType" : 5126,
            "count" : 1793,
            "type" : "VEC3"
        },
        {
            "bufferView" : 2,
            "componentType" : 5126,
            "count" : 1793,
            "type" : "VEC2"
        },
        {
            "bufferView" : 3,
            "componentType" : 5126,
            "count" : 1793,
            "type" : "VEC2"
        },
        {
            "bufferView" : 4,
            "componentType" : 5126,
            "count" : 1793,
            "type" : "VEC2"
        },
        {
            "bufferView" : 5,
            "componentType" : 5123,
            "count" : 1793,
            "normalized" : true,
            "type" : "VEC4"
        },
        {
            "bufferView" : 6,
            "componentType" : 5123,
            "count" : 5184,
            "type" : "SCALAR"
        }
    ],
    "bufferViews" : [
        {
            "buffer" : 0,
            "byteLength" : 21516,
            "byteOffset" : 0
        },
        {
            "buffer" : 0,
            "byteLength" : 21516,
            "byteOffset" : 21516
        },
        {
            "buffer" : 0,
            "byteLength" : 14344,
            "byteOffset" : 43032
        },
        {
            "buffer" : 0,
            "byteLength" : 14344,
            "byteOffset" : 57376
        },
        {
            "buffer" : 0,
            "byteLength" : 14344,
            "byteOffset" : 71720
        },
        {
            "buffer" : 0,
            "byteLength" : 14344,
            "byteOffset" : 86064
        },
        {
            "buffer" : 0,
            "byteLength" : 10368,
            "byteOffset" : 100408
        }
    ],
    "buffers" : [
        {
            "byteLength" : 110776,
            "uri" : "data:application/octet-stream;base64,"
        }
    ]
}
