{
    "asset" : {
        "generator" : "Khronos glTF Blender I/O v1.8.19",
        "version" : "2.0"
    },
    "scene" : 0,
    "scenes" : [
        {
            "name" : "Scene",
            "nodes" : [
                0
            ]
        }
    ],
    "nodes" : [
        {
            "mesh" : 0,
            "name" : "Unstacker_Default_Main_LOD0"
        }
    ],
    "meshes" : [
        {
            "name" : "Cube.114",
            "primitives" : [
                {
                    "attributes" : {
                        "POSITION" : 0,
                        "NORMAL" : 1,
                        "TEXCOORD_0" : 2,
                        "TEXCOORD_1" : 3
                    },
                    "indices" : 4
                }
            ]
        }
    ],
    "accessors" : [
        {
            "bufferView" : 0,
            "componentType" : 5126,
            "count" : 2264,
            "max" : [
                0.34427088499069214,
                2,
                0.5
            ],
            "min" : [
                -0.34906256198883057,
                -5.558981541753383e-08,
                -0.5
            ],
            "type" : "VEC3"
        },
        {
            "bufferView" : 1,
            "componentType" : 5126,
            "count" : 2264,
            "type" : "VEC3"
        },
        {
            "bufferView" : 2,
            "componentType" : 5126,
            "count" : 2264,
            "type" : "VEC2"
        },
        {
            "bufferView" : 3,
            "componentType" : 5126,
            "count" : 2264,
            "type" : "VEC2"
        },
        {
            "bufferView" : 4,
            "componentType" : 5123,
            "count" : 5178,
            "type" : "SCALAR"
        }
    ],
    "bufferViews" : [
        {
            "buffer" : 0,
            "byteLength" : 27168,
            "byteOffset" : 0
        },
        {
            "buffer" : 0,
            "byteLength" : 27168,
            "byteOffset" : 27168
        },
        {
            "buffer" : 0,
            "byteLength" : 18112,
            "byteOffset" : 54336
        },
        {
            "buffer" : 0,
            "byteLength" : 18112,
            "byteOffset" : 72448
        },
        {
            "buffer" : 0,
            "byteLength" : 10356,
            "byteOffset" : 90560
        }
    ],
    "buffers" : [
        {
            "byteLength" : 100916,
            "uri" : "data:application/octet-stream;base64,"
        }
    ]
}
