{
	"asset":{
		"generator":"Khronos glTF Blender I/O v4.1.63",
		"version":"2.0"
	},
	"scene":0,
	"scenes":[
		{
			"name":"Scene",
			"nodes":[
				0
			]
		}
	],
	"nodes":[
		{
			"mesh":0,
			"name":"CircleQuad_Viewer"
		}
	],
	"meshes":[
		{
			"name":"Cylinder.012",
			"primitives":[
				{
					"attributes":{
						"POSITION":0,
						"NORMAL":1,
						"TEXCOORD_0":2,
						"TEXCOORD_1":3,
						"COLOR_0":4
					},
					"indices":5
				}
			]
		}
	],
	"accessors":[
		{
			"bufferView":0,
			"componentType":5126,
			"count":421,
			"max":[
				0.04123196005821228,
				0.10002945363521576,
				0.4049091935157776
			],
			"min":[
				-0.4058580994606018,
				-0.00017632685194257647,
				-0.04167964309453964
			],
			"type":"VEC3"
		},
		{
			"bufferView":1,
			"componentType":5126,
			"count":421,
			"type":"VEC3"
		},
		{
			"bufferView":2,
			"componentType":5126,
			"count":421,
			"type":"VEC2"
		},
		{
			"bufferView":3,
			"componentType":5126,
			"count":421,
			"type":"VEC2"
		},
		{
			"bufferView":4,
			"componentType":5126,
			"count":421,
			"type":"VEC3"
		},
		{
			"bufferView":5,
			"componentType":5123,
			"count":1122,
			"type":"SCALAR"
		}
	],
	"bufferViews":[
		{
			"buffer":0,
			"byteLength":5052,
			"byteOffset":0,
			"target":34962
		},
		{
			"buffer":0,
			"byteLength":5052,
			"byteOffset":5052,
			"target":34962
		},
		{
			"buffer":0,
			"byteLength":3368,
			"byteOffset":10104,
			"target":34962
		},
		{
			"buffer":0,
			"byteLength":3368,
			"byteOffset":13472,
			"target":34962
		},
		{
			"buffer":0,
			"byteLength":5052,
			"byteOffset":16840,
			"target":34962
		},
		{
			"buffer":0,
			"byteLength":2244,
			"byteOffset":21892,
			"target":34963
		}
	],
	"buffers":[
		{
			"byteLength":24136,
			"uri":"ShapeDefaultC.bin"
		}
	]
}
