{
	"asset":{
		"generator":"Khronos glTF Blender I/O v4.1.63",
		"version":"2.0"
	},
	"scene":0,
	"scenes":[
		{
			"name":"Scene",
			"nodes":[
				0
			]
		}
	],
	"nodes":[
		{
			"mesh":0,
			"name":"ShapeSupportMesh_Viewer",
			"scale":[
				3,
				1,
				3
			]
		}
	],
	"meshes":[
		{
			"name":"Cube.040",
			"primitives":[
				{
					"attributes":{
						"POSITION":0,
						"NORMAL":1,
						"TEXCOORD_0":2,
						"TEXCOORD_1":3,
						"COLOR_0":4
					},
					"indices":5
				}
			]
		}
	],
	"accessors":[
		{
			"bufferView":0,
			"componentType":5126,
			"count":393,
			"max":[
				0.18518492579460144,
				0.02023230865597725,
				0.18441402912139893
			],
			"min":[
				-0.1836603283882141,
				0.0002322681830264628,
				-0.18441402912139893
			],
			"type":"VEC3"
		},
		{
			"bufferView":1,
			"componentType":5126,
			"count":393,
			"type":"VEC3"
		},
		{
			"bufferView":2,
			"componentType":5126,
			"count":393,
			"type":"VEC2"
		},
		{
			"bufferView":3,
			"componentType":5126,
			"count":393,
			"type":"VEC2"
		},
		{
			"bufferView":4,
			"componentType":5126,
			"count":393,
			"type":"VEC3"
		},
		{
			"bufferView":5,
			"componentType":5123,
			"count":1146,
			"type":"SCALAR"
		}
	],
	"bufferViews":[
		{
			"buffer":0,
			"byteLength":4716,
			"byteOffset":0,
			"target":34962
		},
		{
			"buffer":0,
			"byteLength":4716,
			"byteOffset":4716,
			"target":34962
		},
		{
			"buffer":0,
			"byteLength":3144,
			"byteOffset":9432,
			"target":34962
		},
		{
			"buffer":0,
			"byteLength":3144,
			"byteOffset":12576,
			"target":34962
		},
		{
			"buffer":0,
			"byteLength":4716,
			"byteOffset":15720,
			"target":34962
		},
		{
			"buffer":0,
			"byteLength":2292,
			"byteOffset":20436,
			"target":34963
		}
	],
	"buffers":[
		{
			"byteLength":22728,
			"uri":"ShapeDefaultSupport.bin"
		}
	]
}
