{
	"asset":{
		"generator":"Khronos glTF Blender I/O v4.1.63",
		"version":"2.0"
	},
	"scene":0,
	"scenes":[
		{
			"name":"Scene",
			"nodes":[
				0
			]
		}
	],
	"nodes":[
		{
			"mesh":0,
			"name":"RectQuad_Viewer"
		}
	],
	"meshes":[
		{
			"name":"Cube.034",
			"primitives":[
				{
					"attributes":{
						"POSITION":0,
						"NORMAL":1,
						"TEXCOORD_0":2,
						"TEXCOORD_1":3,
						"COLOR_0":4
					},
					"indices":5
				}
			]
		}
	],
	"accessors":[
		{
			"bufferView":0,
			"componentType":5126,
			"count":369,
			"max":[
				0.04110077768564224,
				0.10000098496675491,
				0.4074636995792389
			],
			"min":[
				-0.4071514904499054,
				3.324425779283047e-05,
				-0.04141417145729065
			],
			"type":"VEC3"
		},
		{
			"bufferView":1,
			"componentType":5126,
			"count":369,
			"type":"VEC3"
		},
		{
			"bufferView":2,
			"componentType":5126,
			"count":369,
			"type":"VEC2"
		},
		{
			"bufferView":3,
			"componentType":5126,
			"count":369,
			"type":"VEC2"
		},
		{
			"bufferView":4,
			"componentType":5126,
			"count":369,
			"type":"VEC3"
		},
		{
			"bufferView":5,
			"componentType":5123,
			"count":1068,
			"type":"SCALAR"
		}
	],
	"bufferViews":[
		{
			"buffer":0,
			"byteLength":4428,
			"byteOffset":0,
			"target":34962
		},
		{
			"buffer":0,
			"byteLength":4428,
			"byteOffset":4428,
			"target":34962
		},
		{
			"buffer":0,
			"byteLength":2952,
			"byteOffset":8856,
			"target":34962
		},
		{
			"buffer":0,
			"byteLength":2952,
			"byteOffset":11808,
			"target":34962
		},
		{
			"buffer":0,
			"byteLength":4428,
			"byteOffset":14760,
			"target":34962
		},
		{
			"buffer":0,
			"byteLength":2136,
			"byteOffset":19188,
			"target":34963
		}
	],
	"buffers":[
		{
			"byteLength":21324,
			"uri":"ShapeDefaultR.bin"
		}
	]
}
