{
	"asset":{
		"generator":"Khronos glTF Blender I/O v4.1.63",
		"version":"2.0"
	},
	"scene":0,
	"scenes":[
		{
			"name":"Scene",
			"nodes":[
				0
			]
		}
	],
	"nodes":[
		{
			"mesh":0,
			"name":"PinQuad_Viewer"
		}
	],
	"meshes":[
		{
			"name":"Cylinder.018",
			"primitives":[
				{
					"attributes":{
						"POSITION":0,
						"NORMAL":1,
						"TEXCOORD_0":2,
						"COLOR_0":3
					},
					"indices":4
				}
			]
		}
	],
	"accessors":[
		{
			"bufferView":0,
			"componentType":5126,
			"count":194,
			"max":[
				-0.04689393937587738,
				0.10000006854534149,
				0.1988677680492401
			],
			"min":[
				-0.19886785745620728,
				1.7110728833813482e-08,
				0.04689382016658783
			],
			"type":"VEC3"
		},
		{
			"bufferView":1,
			"componentType":5126,
			"count":194,
			"type":"VEC3"
		},
		{
			"bufferView":2,
			"componentType":5126,
			"count":194,
			"type":"VEC2"
		},
		{
			"bufferView":3,
			"componentType":5126,
			"count":194,
			"type":"VEC3"
		},
		{
			"bufferView":4,
			"componentType":5123,
			"count":564,
			"type":"SCALAR"
		}
	],
	"bufferViews":[
		{
			"buffer":0,
			"byteLength":2328,
			"byteOffset":0,
			"target":34962
		},
		{
			"buffer":0,
			"byteLength":2328,
			"byteOffset":2328,
			"target":34962
		},
		{
			"buffer":0,
			"byteLength":1552,
			"byteOffset":4656,
			"target":34962
		},
		{
			"buffer":0,
			"byteLength":2328,
			"byteOffset":6208,
			"target":34962
		},
		{
			"buffer":0,
			"byteLength":1128,
			"byteOffset":8536,
			"target":34963
		}
	],
	"buffers":[
		{
			"byteLength":9664,
			"uri":"ShapeDefaultP.bin"
		}
	]
}
