{
	"asset":{
		"generator":"Khronos glTF Blender I/O v4.1.63",
		"version":"2.0"
	},
	"scene":0,
	"scenes":[
		{
			"name":"Scene",
			"nodes":[
				0
			]
		}
	],
	"nodes":[
		{
			"mesh":0,
			"name":"ChevronQuad_Viewer"
		}
	],
	"meshes":[
		{
			"name":"Cube.041",
			"primitives":[
				{
					"attributes":{
						"POSITION":0,
						"NORMAL":1,
						"TEXCOORD_0":2,
						"TEXCOORD_1":3,
						"COLOR_0":4
					},
					"indices":5
				}
			]
		}
	],
	"accessors":[
		{
			"bufferView":0,
			"componentType":5126,
			"count":396,
			"max":[
				0.04110077768564224,
				0.10000087320804596,
				0.40637487173080444
			],
			"min":[
				-0.4060666859149933,
				3.324425779283047e-05,
				-0.04141417145729065
			],
			"type":"VEC3"
		},
		{
			"bufferView":1,
			"componentType":5126,
			"count":396,
			"type":"VEC3"
		},
		{
			"bufferView":2,
			"componentType":5126,
			"count":396,
			"type":"VEC2"
		},
		{
			"bufferView":3,
			"componentType":5126,
			"count":396,
			"type":"VEC2"
		},
		{
			"bufferView":4,
			"componentType":5126,
			"count":396,
			"type":"VEC3"
		},
		{
			"bufferView":5,
			"componentType":5123,
			"count":1140,
			"type":"SCALAR"
		}
	],
	"bufferViews":[
		{
			"buffer":0,
			"byteLength":4752,
			"byteOffset":0,
			"target":34962
		},
		{
			"buffer":0,
			"byteLength":4752,
			"byteOffset":4752,
			"target":34962
		},
		{
			"buffer":0,
			"byteLength":3168,
			"byteOffset":9504,
			"target":34962
		},
		{
			"buffer":0,
			"byteLength":3168,
			"byteOffset":12672,
			"target":34962
		},
		{
			"buffer":0,
			"byteLength":4752,
			"byteOffset":15840,
			"target":34962
		},
		{
			"buffer":0,
			"byteLength":2280,
			"byteOffset":20592,
			"target":34963
		}
	],
	"buffers":[
		{
			"byteLength":22872,
			"uri":"ShapeDefaultW.bin"
		}
	]
}
